<svg xmlns="http://www.w3.org/2000/svg" xmlns:xlink="http://www.w3.org/1999/xlink" width="65.16000000000001" height="68.4"><path fill="red" stroke="black" d="M56.52 33.19Q57.96 33.19 58.97 34.20Q59.98 35.21 59.98 36.65Q59.98 38.09 58.97 39.10Q57.96 40.10 56.52 40.10L19.22 40.10Q17.78 40.10 16.78 39.10Q15.77 38.09 15.77 36.65Q15.77 35.21 16.78 34.20Q17.78 33.19 19.22 33.19L56.52 33.19M3.67 36.65Q3.67 33.91 4.57 31.14Q5.47 28.37 7.20 26.10Q8.93 23.83 11.38 22.39Q13.82 20.95 16.92 20.95L58.18 20.95Q59.62 20.95 60.62 21.96Q61.63 22.97 61.63 24.41Q61.63 25.85 60.62 26.86Q59.62 27.86 58.18 27.86L18.43 27.86Q16.06 27.86 14.54 28.66Q13.03 29.45 12.17 30.71Q11.30 31.97 10.98 33.41Q10.66 34.85 10.58 36.14L10.58 48.89Q10.58 50.33 9.58 51.34Q8.57 52.34 7.13 52.34Q5.69 52.34 4.68 51.34Q3.67 50.33 3.67 48.89L3.67 36.65Z"/></svg>