<svg xmlns="http://www.w3.org/2000/svg" xmlns:xlink="http://www.w3.org/1999/xlink" width="63.504000000000005" height="68.4"><path fill="red" stroke="black" d="M13.46 52.34Q11.45 52.34 9.65 51.59Q7.85 50.83 6.52 49.54Q5.18 48.24 4.39 46.51Q3.60 44.78 3.60 42.77L3.60 24.41Q3.60 22.97 4.61 21.96Q5.62 20.95 7.06 20.95Q8.42 20.95 9.47 21.96Q10.51 22.97 10.51 24.41L10.51 42.77Q10.51 43.85 11.34 44.64Q12.17 45.43 13.25 45.43L56.45 45.43Q57.89 45.43 58.90 46.44Q59.90 47.45 59.90 48.89Q59.90 50.33 58.90 51.34Q57.89 52.34 56.45 52.34L13.46 52.34Z"/></svg>