<svg xmlns="http://www.w3.org/2000/svg" xmlns:xlink="http://www.w3.org/1999/xlink" width="67.968" height="68.4"><path fill="red" stroke="black" d="M29.59 48.89Q29.59 47.02 30.89 45.72Q32.18 44.42 34.06 44.42Q35.93 44.42 37.22 45.72Q38.52 47.02 38.52 48.89Q38.52 50.76 37.22 52.06Q35.93 53.35 34.06 53.35Q32.18 53.35 30.89 52.06Q29.59 50.76 29.59 48.89M10.51 48.89Q10.51 50.33 9.50 51.34Q8.50 52.34 7.06 52.34Q5.62 52.34 4.61 51.34Q3.60 50.33 3.60 48.89L3.60 24.41Q3.60 22.97 4.61 21.96Q5.62 20.95 7.06 20.95Q7.78 20.95 8.35 21.24Q8.93 21.53 9.50 21.96Q14.11 25.99 17.46 28.30Q20.81 30.60 23.58 31.75Q26.35 32.90 28.80 33.19Q31.25 33.48 34.06 33.48Q36.86 33.48 39.28 33.23Q41.69 32.98 44.39 31.82Q47.09 30.67 50.44 28.37Q53.78 26.06 58.46 21.96Q59.69 20.95 60.91 20.95Q62.35 20.95 63.36 21.96Q64.37 22.97 64.37 24.41L64.37 48.89Q64.37 50.33 63.36 51.34Q62.35 52.34 60.91 52.34Q59.47 52.34 58.46 51.34Q57.46 50.33 57.46 48.89L57.46 31.82Q54.22 34.42 51.23 36.14Q48.24 37.87 45.40 38.92Q42.55 39.96 39.74 40.39Q36.94 40.82 34.06 40.82Q30.96 40.82 28.12 40.39Q25.27 39.96 22.43 38.92Q19.58 37.87 16.67 36.14Q13.75 34.42 10.51 31.82L10.51 48.89Z"/></svg>