<svg xmlns="http://www.w3.org/2000/svg" xmlns:xlink="http://www.w3.org/1999/xlink" width="63.504000000000005" height="68.4"><path fill="red" stroke="black" d="M10.51 27.86L10.51 33.19L50.47 33.19Q51.55 33.19 52.38 32.44Q53.21 31.68 53.21 30.53Q53.21 29.45 52.38 28.66Q51.55 27.86 50.47 27.86L10.51 27.86M50.18 20.95Q52.20 20.95 53.96 21.71Q55.73 22.46 57.06 23.76Q58.39 25.06 59.15 26.78Q59.90 28.51 59.90 30.53Q59.90 32.54 59.15 34.27Q58.39 36.00 57.06 37.30Q55.73 38.59 53.96 39.35Q52.20 40.10 50.18 40.10L10.51 40.10L10.51 48.89Q10.51 50.33 9.47 51.34Q8.42 52.34 7.06 52.34Q5.62 52.34 4.61 51.34Q3.60 50.33 3.60 48.89L3.60 24.41Q3.60 22.97 4.61 21.96Q5.62 20.95 7.06 20.95L50.18 20.95Z"/></svg>5 33.19 52.38 32.44Q53.21 31.68 53.21 30.53Q53.21 29.45 52.38 28.66Q51.55 27.86 50.47 27.86L7.06 27.86Q5.62 27.86 4.61 26.86Q3.60 25.85 3.60 24.41Z"/></svg>