<svg xmlns="http://www.w3.org/2000/svg" xmlns:xlink="http://www.w3.org/1999/xlink" width="66.096" height="68.4"><path fill="red" stroke="black" d="M13.18 40.10Q11.16 40.10 9.43 39.35Q7.70 38.59 6.41 37.30Q5.11 36.00 4.36 34.27Q3.60 32.54 3.60 30.53Q3.60 28.51 4.36 26.78Q5.11 25.06 6.41 23.76Q7.70 22.46 9.43 21.71Q11.16 20.95 13.18 20.95L56.88 20.95Q58.32 20.95 59.33 21.96Q60.34 22.97 60.34 24.41Q60.34 25.85 59.33 26.86Q58.32 27.86 56.88 27.86L13.03 27.86Q11.95 27.86 11.12 28.62Q10.30 29.38 10.30 30.53Q10.30 31.61 11.12 32.40Q11.95 33.19 13.03 33.19L52.85 33.19Q54.86 33.19 56.63 33.95Q58.39 34.70 59.69 36.00Q60.98 37.30 61.74 39.06Q62.50 40.82 62.50 42.84Q62.50 44.86 61.74 46.58Q60.98 48.31 59.69 49.61Q58.39 50.90 56.63 51.62Q54.86 52.34 52.85 52.34L9.22 52.34Q7.78 52.34 6.77 51.34Q5.76 50.33 5.76 48.89Q5.76 47.45 6.77 46.44Q7.78 45.43 9.22 45.43L53.14 45.43Q54.22 45.43 55.01 44.68Q55.80 43.92 55.80 42.84Q55.80 41.69 55.01 40.90Q54.22 40.10 53.14 40.10L13.18 40.10Z"/></svg>