<svg xmlns="http://www.w3.org/2000/svg" xmlns:xlink="http://www.w3.org/1999/xlink" width="63.64800000000001" height="68.4"><path fill="red" stroke="black" d="M56.59 20.95Q58.03 20.95 59.04 21.96Q60.05 22.97 60.05 24.41Q60.05 25.78 59.11 26.75Q58.18 27.72 56.88 27.86L42.41 27.86Q40.25 28.01 38.84 28.91Q37.44 29.81 36.65 31.10Q35.86 32.40 35.57 33.91Q35.28 35.42 35.28 36.65L35.28 48.89Q35.28 50.33 34.27 51.34Q33.26 52.34 31.82 52.34Q30.38 52.34 29.38 51.34Q28.37 50.33 28.37 48.89L28.37 36.65Q28.37 34.42 28.94 32.15Q29.52 29.88 30.67 27.86L7.06 27.86Q5.62 27.86 4.61 26.86Q3.60 25.85 3.60 24.41Q3.60 22.97 4.61 21.96Q5.62 20.95 7.06 20.95L56.59 20.95Z"/></svg>