<svg xmlns="http://www.w3.org/2000/svg" xmlns:xlink="http://www.w3.org/1999/xlink" width="65.08800000000001" height="68.4"><path fill="red" stroke="black" d="M58.03 52.34Q57.74 52.34 57.53 52.31Q57.31 52.27 57.02 52.20Q53.86 51.55 50.83 50.04Q47.81 48.53 45.43 46.44Q43.06 44.35 41.62 41.80Q40.18 39.24 40.18 36.65Q40.18 34.06 41.62 31.54Q43.06 29.02 45.43 26.89Q47.81 24.77 50.83 23.26Q53.86 21.74 57.02 21.10Q57.31 21.02 57.53 20.99Q57.74 20.95 58.03 20.95Q59.47 20.95 60.48 21.96Q61.49 22.97 61.49 24.41Q61.49 25.78 60.55 26.68Q59.62 27.58 58.25 27.86Q56.02 28.37 54.00 29.30Q51.98 30.24 50.44 31.43Q48.89 32.62 47.99 33.95Q47.09 35.28 47.09 36.65Q47.09 38.02 47.99 39.38Q48.89 40.75 50.44 41.94Q51.98 43.13 54.00 44.06Q56.02 45.00 58.25 45.43Q59.62 45.72 60.55 46.62Q61.49 47.52 61.49 48.89Q61.49 50.33 60.48 51.34Q59.47 52.34 58.03 52.34M28.08 36.65Q28.08 34.78 29.38 33.48Q30.67 32.18 32.54 32.18Q34.42 32.18 35.71 33.48Q37.01 34.78 37.01 36.65Q37.01 38.52 35.71 39.82Q34.42 41.11 32.54 41.11Q30.67 41.11 29.38 39.82Q28.08 38.52 28.08 36.65M7.06 52.34Q5.62 52.34 4.61 51.34Q3.60 50.33 3.60 48.89Q3.60 47.52 4.54 46.62Q5.47 45.72 6.84 45.43Q9.07 45.00 11.09 44.06Q13.10 43.13 14.65 41.94Q16.20 40.75 17.10 39.38Q18.00 38.02 18.00 36.65Q18.00 35.28 17.10 33.95Q16.20 32.62 14.65 31.43Q13.10 30.24 11.09 29.30Q9.07 28.37 6.84 27.86Q5.47 27.58 4.54 26.68Q3.60 25.78 3.60 24.41Q3.60 22.97 4.61 21.96Q5.62 20.95 7.06 20.95Q7.34 20.95 7.56 20.99Q7.78 21.02 8.06 21.10Q11.23 21.74 14.26 23.26Q17.28 24.77 19.66 26.89Q22.03 29.02 23.47 31.54Q24.91 34.06 24.91 36.65Q24.91 39.24 23.47 41.80Q22.03 44.35 19.66 46.44Q17.28 48.53 14.26 50.04Q11.23 51.55 8.06 52.20Q7.78 52.27 7.56 52.31Q7.34 52.34 7.06 52.34Z"/></svg>