<svg xmlns="http://www.w3.org/2000/svg" xmlns:xlink="http://www.w3.org/1999/xlink" width="65.16000000000001" height="68.4"><path fill="red" stroke="black" d="M7.06 27.86Q5.62 27.86 4.61 26.86Q3.60 25.85 3.60 24.41Q3.60 22.97 4.61 21.96Q5.62 20.95 7.06 20.95L54.65 20.95Q57.53 20.95 59.54 22.97Q61.56 24.98 61.56 27.86Q61.56 30.31 60.12 32.15Q58.68 33.98 56.45 34.56L16.06 44.14Q14.33 44.57 14.33 44.93Q14.33 45.43 17.42 45.43L58.10 45.43Q59.54 45.43 60.55 46.44Q61.56 47.45 61.56 48.89Q61.56 50.33 60.55 51.34Q59.54 52.34 58.10 52.34L10.51 52.34Q7.63 52.34 5.62 50.33Q3.60 48.31 3.60 45.43Q3.60 43.20 4.82 41.33Q6.05 39.46 8.14 38.95L49.18 29.30Q50.33 28.94 50.33 28.58Q50.33 27.86 47.74 27.86L7.06 27.86Z"/></svg>