<svg xmlns="http://www.w3.org/2000/svg" xmlns:xlink="http://www.w3.org/1999/xlink" width="17.712000000000003" height="77.47200000000001"><path fill="red" stroke="black" d="M5.83 34.78Q5.83 36.79 6.37 39.13Q6.91 41.47 8.14 43.56Q8.71 44.57 9.54 45.40Q10.37 46.22 11.27 46.62Q12.17 47.02 13.07 46.87Q13.97 46.73 14.83 45.72L15.84 42.70Q15.34 41.47 15.01 40.68Q14.69 39.89 14.44 39.35Q14.18 38.81 13.97 38.38Q13.75 37.94 13.46 37.37L13.46 36.22Q13.46 35.42 13.43 34.52Q13.39 33.62 13.39 32.83L13.39 31.75Q13.39 30.24 13.50 29.48Q13.61 28.73 13.79 28.12Q13.97 27.50 14.08 26.75Q14.18 25.99 14.18 24.55Q14.18 23.76 14.00 22.57Q13.82 21.38 13.36 20.27Q12.89 19.15 11.95 18.36Q11.02 17.57 9.50 17.57Q8.57 17.57 7.06 17.86Q5.54 18.14 4.10 18.72Q2.66 19.30 1.62 20.09Q0.58 20.88 0.58 21.89Q0.58 22.75 1.51 22.79Q2.45 22.82 3.60 22.93Q4.75 23.04 5.69 23.69Q6.62 24.34 6.62 26.35Q6.62 28.01 6.52 28.94Q6.41 29.88 6.23 30.64Q6.05 31.39 5.94 32.29Q5.83 33.19 5.83 34.78M5.04 54.86Q4.97 55.37 5.44 56.12Q5.90 56.88 6.59 57.56Q7.27 58.25 8.03 58.72Q8.78 59.18 9.29 59.04Q9.79 58.97 10.69 58.61Q11.59 58.25 12.38 57.67Q13.18 57.10 13.79 56.41Q14.40 55.73 14.40 54.94Q14.40 54.29 14.15 53.53Q13.90 52.78 13.43 52.13Q12.96 51.48 12.31 51.05Q11.66 50.62 10.94 50.62Q10.15 50.62 9.18 50.94Q8.21 51.26 7.34 51.88Q6.48 52.49 5.83 53.24Q5.18 54.00 5.04 54.86Z"/></svg>