<svg xmlns="http://www.w3.org/2000/svg" xmlns:xlink="http://www.w3.org/1999/xlink" width="39.6" height="77.47200000000001"><path fill="red" stroke="black" d="M35.06 45.22L29.81 45.22Q29.88 43.92 29.95 42.52Q30.02 41.11 30.02 39.60Q31.18 39.53 31.97 39.31Q32.76 39.10 33.55 38.59Q34.34 38.09 35.28 37.26Q36.22 36.43 37.66 35.14Q37.80 34.92 38.16 34.27Q38.52 33.62 38.52 33.41Q38.52 32.69 37.94 32.58Q37.37 32.47 36.86 32.47Q35.86 32.47 35.14 32.69Q34.42 32.90 33.41 33.41L30.10 33.34Q29.95 31.18 29.77 29.20Q29.59 27.22 29.23 25.70Q28.87 24.19 28.26 23.33Q27.65 22.46 26.71 22.46Q25.85 22.46 24.73 22.72Q23.62 22.97 22.64 23.51Q21.67 24.05 21.02 24.88Q20.38 25.70 20.38 26.86Q20.38 27.94 20.59 28.37Q20.81 28.80 21.10 29.05Q21.38 29.30 21.67 29.66Q21.96 30.02 22.10 30.96L22.18 33.12L21.67 33.34L16.34 33.34Q16.20 31.18 16.02 29.20Q15.84 27.22 15.48 25.70Q15.12 24.19 14.51 23.33Q13.90 22.46 12.96 22.46Q12.10 22.46 10.91 22.93Q9.72 23.40 8.64 24.16Q7.56 24.91 6.80 25.92Q6.05 26.93 6.05 28.01Q6.05 29.09 6.37 29.34Q6.70 29.59 7.09 29.66Q7.49 29.74 7.85 29.92Q8.21 30.10 8.35 30.96L8.42 33.34L6.98 33.34Q4.46 33.34 2.66 34.92Q0.86 36.50 0.86 39.02Q1.87 39.02 2.30 38.95Q2.74 38.88 3.06 38.77Q3.38 38.66 3.82 38.59Q4.25 38.52 5.26 38.52Q6.55 38.52 6.84 38.66Q7.13 38.81 7.20 39.02Q7.27 39.24 7.49 39.38Q7.70 39.53 8.86 39.53L9.22 45.22L6.62 45.22Q4.18 45.22 2.34 46.80Q0.50 48.38 0.50 50.90Q1.51 50.90 1.94 50.83Q2.38 50.76 2.70 50.65Q3.02 50.54 3.46 50.44Q3.89 50.33 4.90 50.33Q6.19 50.33 6.48 50.51Q6.77 50.69 6.84 50.87Q6.91 51.05 7.20 51.23Q7.49 51.41 8.78 51.41L9.58 51.41L10.01 58.25Q10.22 59.69 11.59 60.70Q12.96 61.70 14.26 61.70Q15.41 61.70 16.49 61.31Q17.57 60.91 18.43 60.16Q19.30 59.40 19.84 58.36Q20.38 57.31 20.38 56.02Q19.66 56.02 19.51 55.87Q19.37 55.73 19.33 55.51Q19.30 55.30 19.15 55.15Q19.01 55.01 18.29 55.01Q17.28 55.01 16.85 54.04Q16.42 53.06 16.27 51.48Q18.36 51.34 20.23 50.54Q20.45 50.69 20.45 50.76Q20.45 51.05 20.74 51.23Q21.02 51.41 22.46 51.41L23.33 51.41L23.76 58.25Q23.90 59.76 25.31 60.73Q26.71 61.70 27.94 61.70Q29.09 61.70 30.35 61.16Q31.61 60.62 32.62 59.72Q33.62 58.82 34.31 57.64Q34.99 56.45 34.99 55.15Q34.20 55.15 33.95 55.12Q33.70 55.08 33.41 55.08Q33.26 55.08 33.05 55.04Q32.83 55.01 32.04 55.01Q31.03 55.01 30.60 54.04Q30.17 53.06 30.02 51.48Q31.10 51.41 31.86 51.16Q32.62 50.90 33.37 50.36Q34.13 49.82 35.06 49.03Q36.00 48.24 37.30 47.02Q37.51 46.80 37.84 46.15Q38.16 45.50 38.16 45.29Q38.16 44.57 37.58 44.46Q37.01 44.35 36.58 44.35Q36.00 44.35 35.89 44.42Q35.78 44.50 35.78 44.57Q35.78 44.64 35.68 44.78Q35.57 44.93 35.06 45.22M21.31 45.22L16.06 45.22Q16.27 42.62 16.27 39.60Q17.50 39.53 18.54 39.35Q19.58 39.17 20.66 38.66Q20.88 38.81 20.88 39.02Q20.88 39.17 21.06 39.35Q21.24 39.53 22.61 39.53L22.82 44.57Q22.18 44.93 21.31 45.22Z"/></svg>