<svg xmlns="http://www.w3.org/2000/svg" xmlns:xlink="http://www.w3.org/1999/xlink" width="32.688" height="77.47200000000001"><path fill="red" stroke="black" d="M0.86 48.82Q0.58 48.38 1.12 47.84Q1.66 47.30 2.56 46.87Q3.46 46.44 4.43 46.12Q5.40 45.79 5.90 45.79L6.77 45.79Q7.78 46.51 9.90 47.52Q12.02 48.53 14.47 49.10L15.19 44.06Q12.46 43.56 10.44 43.24Q8.42 42.91 7.06 42.48Q5.69 42.05 4.97 41.36Q4.25 40.68 4.10 39.38Q3.96 37.44 5.51 35.57Q7.06 33.70 9.14 32.18Q11.23 30.67 13.28 29.66Q15.34 28.66 16.20 28.51L16.49 23.18L20.52 23.47L20.23 28.87Q21.89 28.94 23.29 29.12Q24.70 29.30 25.78 29.66Q27.79 30.17 29.20 30.96Q30.60 31.75 30.31 32.76Q30.17 33.12 29.56 33.59Q28.94 34.06 28.19 34.42Q27.43 34.78 26.60 35.03Q25.78 35.28 25.27 35.28Q24.62 35.28 23.29 34.85Q21.96 34.42 19.87 33.62L19.51 38.30Q21.60 39.02 23.15 39.42Q24.70 39.82 25.92 40.03Q28.22 40.32 29.74 41.11Q31.25 41.90 31.25 43.49Q31.25 45.79 29.59 48.24Q27.94 50.69 25.13 51.98Q22.18 53.14 21.02 53.14Q20.45 53.14 19.76 53.32Q19.08 53.50 18.22 53.78L17.50 59.18L13.18 59.18L13.82 53.78Q12.10 53.71 10.08 53.32Q8.06 52.92 6.23 52.27Q4.39 51.62 2.92 50.72Q1.44 49.82 0.86 48.82M15.48 38.30L15.98 33.26L14.54 33.26Q12.96 33.26 11.92 34.24Q10.87 35.21 10.87 36.43Q10.87 37.66 12.38 38.20Q13.90 38.74 15.48 38.30M19.30 44.71L18.86 49.10Q20.95 48.89 21.67 48.85Q22.39 48.82 22.75 48.82Q24.34 48.53 24.62 48.02Q24.91 47.52 24.91 46.80Q24.91 46.15 24.41 45.68Q23.90 45.22 23.11 44.93Q22.32 44.64 21.31 44.57Q20.30 44.50 19.30 44.71Z"/></svg>