<svg xmlns="http://www.w3.org/2000/svg" xmlns:xlink="http://www.w3.org/1999/xlink" width="42.120000000000005" height="77.47200000000001"><path fill="red" stroke="black" d="M10.87 58.18Q18.50 52.56 25.42 46.33Q32.33 40.10 38.66 32.90Q38.95 32.83 39.38 32.65Q39.82 32.47 40.25 32.18Q40.68 31.90 40.97 31.57Q41.26 31.25 41.26 30.82Q41.26 30.17 40.54 29.45Q39.82 28.73 38.84 28.19Q37.87 27.65 36.86 27.29Q35.86 26.93 35.28 26.93Q35.14 26.93 34.85 26.96Q34.56 27 34.49 27Q33.91 27.50 32.33 28.84Q30.74 30.17 28.98 31.68Q27.22 33.19 25.63 34.49Q24.05 35.78 23.47 36.29Q23.26 36.50 22.39 37.40Q21.53 38.30 20.56 39.31Q19.58 40.32 18.72 41.15Q17.86 41.98 17.64 42.19Q17.21 42.62 15.66 43.88Q14.11 45.14 12.24 46.58Q10.37 48.02 8.57 49.39Q6.77 50.76 5.83 51.48L4.10 52.27Q3.89 52.42 3.38 52.88Q2.88 53.35 2.34 53.89Q1.80 54.43 1.37 54.94Q0.94 55.44 0.79 55.66Q2.02 57.17 3.49 58.14Q4.97 59.11 6.91 59.11Q7.92 59.11 9.00 59.08Q10.08 59.04 10.87 58.18M27.36 51.91Q27.36 52.92 28.84 54.07Q30.31 55.22 32.04 56.02Q32.98 56.45 34.13 56.41Q35.28 56.38 36.25 55.98Q37.22 55.58 37.87 54.86Q38.52 54.14 38.52 53.14Q38.52 50.18 36.83 49.10Q35.14 48.02 32.69 48.02Q31.82 48.02 30.89 48.20Q29.95 48.38 29.16 48.82Q28.37 49.25 27.86 50.00Q27.36 50.76 27.36 51.91M4.10 35.06Q4.10 36.07 5.58 37.22Q7.06 38.38 8.78 39.17Q9.72 39.60 10.87 39.56Q12.02 39.53 13.00 39.13Q13.97 38.74 14.62 38.02Q15.26 37.30 15.26 36.29Q15.26 33.34 13.57 32.26Q11.88 31.18 9.43 31.18Q8.57 31.18 7.63 31.36Q6.70 31.54 5.90 31.97Q5.11 32.40 4.61 33.16Q4.10 33.91 4.10 35.06Z"/></svg>