<svg xmlns="http://www.w3.org/2000/svg" xmlns:xlink="http://www.w3.org/1999/xlink" width="30.312000000000005" height="77.47200000000001"><path fill="red" stroke="black" d="M27.07 47.23Q27.07 45.94 26.93 44.60Q26.78 43.27 26.57 42.12Q26.35 40.97 26.17 40.14Q25.99 39.31 25.92 39.02Q19.51 41.62 19.51 43.56Q19.51 44.86 19.40 46.40Q19.30 47.95 18.79 49.28Q18.29 50.62 17.28 51.52Q16.27 52.42 14.54 52.42Q11.52 52.42 9.97 50.33Q8.42 48.24 8.42 45.22Q8.42 43.06 9.00 42.12Q9.58 41.18 10.62 40.90Q11.66 40.61 13.14 40.72Q14.62 40.82 16.49 40.82Q16.49 39.10 15.84 37.76Q15.19 36.43 14.44 35.17Q13.68 33.91 13.07 32.54Q12.46 31.18 12.46 29.38Q15.26 29.38 16.70 30.89Q18.07 32.40 21.24 33.70Q24.41 34.99 25.78 33.62Q27.72 31.39 28.51 30.56Q29.30 29.74 29.59 29.59Q29.59 28.44 28.76 27.61Q27.94 26.78 26.75 26.28Q25.56 25.78 24.30 25.52Q23.04 25.27 22.25 25.27Q21.31 25.27 20.74 25.56Q20.16 25.85 19.66 26.21Q19.15 26.57 18.65 26.86Q18.14 27.14 17.35 27.14Q15.91 27.14 14.72 26.46Q13.54 25.78 12.38 24.95Q11.23 24.12 10.08 23.44Q8.93 22.75 7.56 22.75Q6.12 22.75 5.58 23.83Q5.04 24.91 5.04 26.14Q5.04 27.14 5.33 27.97Q5.62 28.80 5.98 29.63Q6.34 30.46 6.62 31.28Q6.91 32.11 6.91 32.98Q6.91 33.34 5.98 33.88Q5.04 34.42 3.89 35.46Q2.74 36.50 1.80 38.16Q0.86 39.82 0.86 42.34Q0.86 44.06 1.73 46.01Q2.59 47.95 4.00 49.79Q5.40 51.62 7.24 53.32Q9.07 55.01 11.05 56.30Q13.03 57.60 15.01 58.36Q16.99 59.11 18.65 59.11Q21.17 59.11 22.79 58.00Q24.41 56.88 25.38 55.12Q26.35 53.35 26.71 51.26Q27.07 49.18 27.07 47.23Z"/></svg>