<svg xmlns="http://www.w3.org/2000/svg" xmlns:xlink="http://www.w3.org/1999/xlink" width="22.104000000000003" height="77.47200000000001"><path fill="red" stroke="black" d="M7.85 41.62Q7.85 44.06 8.93 45.94Q10.01 47.81 11.30 49.50Q12.60 51.19 13.68 52.92Q14.76 54.65 14.76 56.74Q14.76 57.60 14.22 58.46Q13.68 59.33 12.85 60.01Q12.02 60.70 11.12 61.09Q10.22 61.49 9.58 61.49Q9.43 61.49 9.14 61.34Q8.86 61.20 8.78 61.20Q7.34 59.76 5.83 58.14Q4.32 56.52 3.10 54.68Q1.87 52.85 1.08 50.72Q0.29 48.60 0.29 46.15Q0.29 43.92 1.37 41.33Q2.45 38.74 4.14 36.14Q5.83 33.55 8.03 31.14Q10.22 28.73 12.42 26.89Q14.62 25.06 16.70 23.94Q18.79 22.82 20.30 22.82Q20.30 24.91 19.37 26.46Q18.43 28.01 17.06 29.34Q15.70 30.67 14.08 31.86Q12.46 33.05 11.09 34.42Q9.72 35.78 8.78 37.51Q7.85 39.24 7.85 41.62Z"/></svg>