<svg xmlns="http://www.w3.org/2000/svg" xmlns:xlink="http://www.w3.org/1999/xlink" width="22.104000000000003" height="77.47200000000001"><path fill="red" stroke="black" d="M12.74 42.70Q12.74 40.25 11.66 38.38Q10.58 36.50 9.29 34.81Q7.99 33.12 6.91 31.39Q5.83 29.66 5.83 27.50Q5.83 26.64 6.37 25.81Q6.91 24.98 7.74 24.30Q8.57 23.62 9.43 23.22Q10.30 22.82 10.94 22.82Q11.16 22.82 11.45 22.93Q11.74 23.04 11.81 23.04Q13.18 24.48 14.69 26.14Q16.20 27.79 17.42 29.63Q18.65 31.46 19.48 33.59Q20.30 35.71 20.30 38.16Q20.30 40.39 19.22 42.98Q18.14 45.58 16.45 48.17Q14.76 50.76 12.56 53.17Q10.37 55.58 8.17 57.42Q5.98 59.26 3.89 60.37Q1.80 61.49 0.29 61.49Q0.29 59.40 1.22 57.85Q2.16 56.30 3.53 54.97Q4.90 53.64 6.52 52.45Q8.14 51.26 9.50 49.90Q10.87 48.53 11.81 46.80Q12.74 45.07 12.74 42.70Z"/></svg>