<svg xmlns="http://www.w3.org/2000/svg" xmlns:xlink="http://www.w3.org/1999/xlink" width="12.312000000000001" height="77.47200000000001"><path fill="red" stroke="black" d="M0.94 27.79Q0.94 29.23 2.20 30.02Q3.46 30.82 4.75 30.82Q5.47 30.82 6.30 30.56Q7.13 30.31 7.85 29.81Q8.57 29.30 9.00 28.58Q9.43 27.86 9.43 26.93Q9.43 26.28 9.07 25.63Q8.71 24.98 8.17 24.44Q7.63 23.90 6.95 23.54Q6.26 23.18 5.62 23.18L5.26 23.18Q4.68 23.40 3.92 23.87Q3.17 24.34 2.52 24.95Q1.87 25.56 1.40 26.32Q0.94 27.07 0.94 27.79Z"/></svg>