<svg xmlns="http://www.w3.org/2000/svg" xmlns:xlink="http://www.w3.org/1999/xlink" width="35.06400000000001" height="77.47200000000001"><path fill="red" stroke="black" d="M0.79 32.40Q0.79 32.62 0.83 32.72Q0.86 32.83 0.86 32.83Q1.80 34.06 2.66 35.17Q3.53 36.29 5.04 36.29Q5.26 36.29 5.54 36.25Q5.83 36.22 5.90 36.22Q7.42 35.06 8.82 33.98Q10.22 32.90 11.70 32.08Q13.18 31.25 14.72 30.74Q16.27 30.24 18.14 30.24Q19.30 30.24 20.59 30.56Q21.89 30.89 22.93 31.54Q23.98 32.18 24.66 33.16Q25.34 34.13 25.34 35.42Q25.34 37.15 23.76 37.80Q22.18 38.45 19.84 38.70Q17.50 38.95 14.72 39.13Q11.95 39.31 9.61 40.00Q7.27 40.68 5.69 42.23Q4.10 43.78 4.10 46.80Q5.47 48.82 8.14 48.46Q11.02 48.02 12.46 47.09Q14.18 46.08 16.63 45.68Q19.08 45.29 21.89 45.22Q23.90 45.14 25.88 44.89Q27.86 44.64 29.41 43.92Q30.96 43.20 31.93 41.98Q32.90 40.75 32.90 38.66Q32.90 36.14 31.10 33.44Q29.30 30.74 26.64 28.55Q23.98 26.35 20.95 24.95Q17.93 23.54 15.55 23.54Q13.90 23.54 11.41 24.08Q8.93 24.62 6.55 25.74Q4.18 26.86 2.48 28.51Q0.79 30.17 0.79 32.40M2.09 57.60Q2.02 58.18 2.70 58.86Q3.38 59.54 4.32 60.16Q5.26 60.77 6.16 61.24Q7.06 61.70 7.49 61.85Q7.70 61.92 8.46 61.74Q9.22 61.56 10.04 61.16Q10.87 60.77 11.48 60.12Q12.10 59.47 12.10 58.68Q12.10 56.23 10.62 55.33Q9.14 54.43 6.91 54.43Q6.12 54.43 5.26 54.58Q4.39 54.72 3.71 55.08Q3.02 55.44 2.56 56.05Q2.09 56.66 2.09 57.60Z"/></svg>