<svg xmlns="http://www.w3.org/2000/svg" xmlns:xlink="http://www.w3.org/1999/xlink" width="52.70400000000001" height="77.47200000000001"><path fill="red" stroke="black" d="M20.38 44.64Q20.38 43.06 20.95 41.94Q21.53 40.82 22.25 40.00Q22.97 39.17 23.54 38.52Q24.12 37.87 24.12 37.08Q24.12 35.93 23.58 35.32Q23.04 34.70 22.36 34.42Q21.67 34.13 20.95 34.09Q20.23 34.06 19.87 34.06Q19.87 33.26 20.27 32.51Q20.66 31.75 21.24 31.18Q21.82 30.60 22.43 30.24Q23.04 29.88 23.40 29.88Q24.70 29.88 25.99 31.75Q27.29 33.62 28.55 36.07Q29.81 38.52 31.00 40.97Q32.18 43.42 33.19 44.50L33.41 44.57Q33.98 44.57 34.42 44.17Q34.85 43.78 35.57 43.78L35.57 44.50Q35.57 44.50 35.24 44.96Q34.92 45.43 34.56 46.04Q34.20 46.66 33.80 47.23Q33.41 47.81 33.19 48.10Q32.69 48.82 32.40 49.03Q32.11 49.25 31.61 49.25Q31.54 49.25 31.36 49.21Q31.18 49.18 31.10 49.18L29.16 46.58L28.80 46.58Q28.22 46.58 27.61 47.16Q27.00 47.74 26.35 48.46Q25.70 49.18 24.95 49.75Q24.19 50.33 23.33 50.33Q22.54 50.33 22.00 49.79Q21.46 49.25 21.10 48.46Q20.74 47.66 20.56 46.66Q20.38 45.65 20.38 44.64M23.62 43.49Q23.62 43.85 23.69 44.42Q23.76 45.00 23.90 45.50Q24.05 46.01 24.26 46.37Q24.48 46.73 24.84 46.73Q24.91 46.73 25.27 46.55Q25.63 46.37 25.99 46.08Q26.35 45.79 26.64 45.47Q26.93 45.14 26.93 44.78Q26.93 44.35 26.71 43.78Q26.50 43.20 26.21 42.66Q25.92 42.12 25.63 41.72Q25.34 41.33 25.13 41.33Q24.55 41.33 24.08 41.90Q23.62 42.48 23.62 43.49M0.86 39.17Q2.09 36.58 3.89 33.84Q5.69 31.10 7.74 28.87Q9.79 26.64 11.99 25.20Q14.18 23.76 16.20 23.76L17.35 23.76Q18.43 23.76 19.33 24.34Q20.23 24.91 20.23 26.93Q20.23 29.02 19.19 30.06Q18.14 31.10 17.14 31.10Q16.06 31.10 14.98 30.64Q13.90 30.17 12.82 30.17Q12.24 30.17 11.45 30.56Q10.66 30.96 9.86 31.64Q9.07 32.33 8.53 33.34Q7.99 34.34 7.99 35.57Q7.99 35.71 8.03 36.07Q8.06 36.43 8.06 36.43Q8.06 36.50 8.39 36.94Q8.71 37.37 9.11 37.87Q9.50 38.38 9.83 38.77Q10.15 39.17 10.22 39.17L16.99 49.10Q17.86 50.26 18.54 50.87Q19.22 51.48 19.94 51.77Q20.66 52.06 21.49 52.09Q22.32 52.13 23.47 52.13Q23.47 53.14 22.72 54.32Q21.96 55.51 20.99 56.59Q20.02 57.67 19.08 58.39Q18.14 59.11 17.86 59.11Q16.63 59.11 15.52 57.89Q14.40 56.66 13.39 55.44L5.47 44.57Q4.97 43.85 4.36 43.31Q3.74 42.77 3.17 42.19Q2.59 41.62 1.98 40.93Q1.37 40.25 0.86 39.17M50.47 43.34Q49.18 45.94 47.41 48.67Q45.65 51.41 43.60 53.64Q41.54 55.87 39.38 57.31Q37.22 58.75 35.14 58.75L33.98 58.75Q32.90 58.75 32.00 58.18Q31.10 57.60 31.10 55.58Q31.10 53.57 32.11 52.52Q33.12 51.48 34.20 51.48Q35.28 51.48 36.36 51.95Q37.44 52.42 38.52 52.42Q39.02 52.42 39.85 52.02Q40.68 51.62 41.44 50.90Q42.19 50.18 42.73 49.21Q43.27 48.24 43.27 47.02Q43.27 46.80 43.24 46.44Q43.20 46.08 43.20 46.08Q43.20 46.01 42.88 45.58Q42.55 45.14 42.16 44.68Q41.76 44.21 41.44 43.81Q41.11 43.42 41.11 43.34L34.27 33.41Q33.41 32.26 32.72 31.64Q32.04 31.03 31.36 30.74Q30.67 30.46 29.81 30.42Q28.94 30.38 27.79 30.38Q27.79 29.45 28.55 28.22Q29.30 27 30.28 25.92Q31.25 24.84 32.15 24.12Q33.05 23.40 33.41 23.40Q34.63 23.40 35.78 24.62Q36.94 25.85 37.87 27.14L45.79 38.02Q46.30 38.81 46.87 39.31Q47.45 39.82 48.10 40.36Q48.74 40.90 49.36 41.58Q49.97 42.26 50.47 43.34Z"/></svg>