<svg xmlns="http://www.w3.org/2000/svg" xmlns:xlink="http://www.w3.org/1999/xlink" width="12.600000000000001" height="77.47200000000001"><path fill="red" stroke="black" d="M1.51 54.86Q1.44 55.37 1.91 56.12Q2.38 56.88 3.06 57.56Q3.74 58.25 4.50 58.72Q5.26 59.18 5.76 59.04Q6.26 58.97 7.13 58.57Q7.99 58.18 8.82 57.64Q9.65 57.10 10.26 56.38Q10.87 55.66 10.87 54.94Q10.87 54.29 10.62 53.53Q10.37 52.78 9.90 52.13Q9.43 51.48 8.78 51.05Q8.14 50.62 7.42 50.62Q6.62 50.62 5.65 50.94Q4.68 51.26 3.82 51.88Q2.95 52.49 2.30 53.24Q1.66 54.00 1.51 54.86Z"/></svg>