<svg xmlns="http://www.w3.org/2000/svg" xmlns:xlink="http://www.w3.org/1999/xlink" width="40.968" height="77.47200000000001"><path fill="red" stroke="black" d="M1.58 49.32Q1.58 50.98 2.09 52.70Q2.59 54.43 3.53 55.87Q4.46 57.31 5.83 58.21Q7.20 59.11 8.93 59.11Q11.16 59.11 13.10 58.10Q15.05 57.10 16.74 55.87Q18.43 54.65 19.94 53.64Q21.46 52.63 22.82 52.63Q23.04 52.63 23.26 52.67Q23.47 52.70 23.62 52.70L28.66 57.17Q28.73 57.17 29.12 57.28Q29.52 57.38 29.81 57.38Q31.10 57.38 31.82 56.95Q32.54 56.52 33.70 55.37Q34.42 54.72 35.42 53.68Q36.43 52.63 37.37 51.62Q38.30 50.62 38.95 49.86Q39.60 49.10 39.60 49.10L39.60 47.95Q38.81 47.95 38.20 48.13Q37.58 48.31 37.01 48.56Q36.43 48.82 35.86 49.00Q35.28 49.18 34.56 49.18Q34.34 49.18 34.06 49.14Q33.77 49.10 33.70 49.10Q32.18 47.74 30.38 45.36Q28.58 42.98 26.57 40.18Q24.55 37.37 22.36 34.49Q20.16 31.61 17.96 29.27Q15.77 26.93 13.57 25.45Q11.38 23.98 9.29 23.98Q8.28 23.98 6.77 24.55Q5.26 25.13 3.85 26.10Q2.45 27.07 1.44 28.33Q0.43 29.59 0.43 30.89Q1.37 30.89 3.13 31.00Q4.90 31.10 6.66 31.64Q8.42 32.18 9.72 33.26Q11.02 34.34 11.02 36.22Q11.02 37.58 9.54 38.74Q8.06 39.89 6.30 41.33Q4.54 42.77 3.06 44.64Q1.58 46.51 1.58 49.32M8.50 45.86Q8.50 43.92 10.12 42.66Q11.74 41.40 13.75 41.40Q14.47 41.40 15.48 42.23Q16.49 43.06 17.39 44.21Q18.29 45.36 18.90 46.62Q19.51 47.88 19.51 48.67Q19.51 49.39 18.68 50.08Q17.86 50.76 16.74 51.30Q15.62 51.84 14.51 52.16Q13.39 52.49 12.82 52.49Q11.66 52.49 10.87 51.77Q10.08 51.05 9.54 50.04Q9.00 49.03 8.75 47.88Q8.50 46.73 8.50 45.86M21.24 23.26Q21.24 25.13 22.36 26.28Q23.47 27.43 25.42 27.43Q26.14 27.43 27.07 27.25Q28.01 27.07 28.84 26.68Q29.66 26.28 30.20 25.60Q30.74 24.91 30.74 23.90Q30.74 23.76 30.71 23.51Q30.67 23.26 30.67 23.18Q28.51 19.66 27.43 19.30Q26.93 18.94 26.14 18.94Q26.06 18.86 25.70 18.86Q23.83 18.86 22.54 20.12Q21.24 21.38 21.24 23.26Z"/></svg>