<svg xmlns="http://www.w3.org/2000/svg" xmlns:xlink="http://www.w3.org/1999/xlink" width="33.55200000000001" height="77.47200000000001"><path fill="red" stroke="black" d="M0.86 29.23Q1.44 28.37 2.41 27.32Q3.38 26.28 4.54 25.34Q5.69 24.41 6.91 23.80Q8.14 23.18 9.29 23.18Q10.30 23.18 10.94 23.72Q11.59 24.26 12.06 24.91Q12.53 25.56 12.92 26.10Q13.32 26.64 13.90 26.64Q15.19 26.64 16.38 26.06Q17.57 25.49 18.83 24.84Q20.09 24.19 21.38 23.62Q22.68 23.04 24.12 23.04Q25.20 23.04 25.81 23.15Q26.42 23.26 26.71 23.62Q27.00 23.98 27.04 24.66Q27.07 25.34 27.07 26.42Q27.07 28.30 26.57 29.66Q26.06 31.03 26.06 32.83Q26.06 33.91 27.00 34.70Q27.94 35.50 29.09 36.47Q30.24 37.44 31.18 38.92Q32.11 40.39 32.11 42.84Q32.11 44.42 31.03 46.26Q29.95 48.10 28.15 49.90Q26.35 51.70 24.12 53.35Q21.89 55.01 19.55 56.30Q17.21 57.60 15.05 58.36Q12.89 59.11 11.30 59.11Q9.58 59.11 7.96 58.03Q6.34 56.95 6.34 54.65L6.34 32.76Q6.34 31.54 5.62 31.14Q4.90 30.74 3.96 30.60Q3.02 30.46 2.12 30.28Q1.22 30.10 0.86 29.23M13.18 41.83Q13.18 42.26 13.21 43.42Q13.25 44.57 13.32 45.83Q13.39 47.09 13.43 48.20Q13.46 49.32 13.46 49.75Q13.46 50.18 13.79 50.76Q14.11 51.34 14.54 51.88Q14.98 52.42 15.48 52.78Q15.98 53.14 16.34 53.14Q17.86 53.14 19.33 52.49Q20.81 51.84 21.92 50.80Q23.04 49.75 23.76 48.38Q24.48 47.02 24.48 45.58Q24.48 43.63 23.11 42.80Q21.74 41.98 19.87 41.76Q18.00 41.54 16.13 41.69Q14.26 41.83 13.18 41.83M13.46 34.06L13.46 34.85Q13.46 35.14 13.61 35.64Q13.75 36.14 13.82 36.72Q13.90 36.94 13.93 37.22Q13.97 37.51 14.08 37.69Q14.18 37.87 14.40 37.91Q14.62 37.94 14.98 37.73Q15.91 37.01 16.81 36.22Q17.71 35.42 18.36 34.45Q19.01 33.48 19.37 32.33Q19.73 31.18 19.66 29.66Q18.65 29.66 17.53 30.02Q16.42 30.38 15.52 30.96Q14.62 31.54 14.04 32.36Q13.46 33.19 13.46 34.06Z"/></svg>