<svg xmlns="http://www.w3.org/2000/svg" xmlns:xlink="http://www.w3.org/1999/xlink" width="34.2" height="77.47200000000001"><path fill="red" stroke="black" d="M8.35 39.10Q8.35 42.12 9.79 44.53Q11.23 46.94 13.50 48.56Q15.77 50.18 18.54 51.05Q21.31 51.91 23.98 51.91Q26.50 51.91 28.08 50.76Q29.66 49.75 31.54 50.90Q33.55 52.06 30.67 54.22Q27.94 56.30 24.91 57.67Q21.89 59.04 19.37 59.04Q16.20 59.04 12.92 57.89Q9.65 56.74 6.95 54.65Q4.25 52.56 2.52 49.61Q0.79 46.66 0.79 43.06Q0.79 39.17 2.48 35.68Q4.18 32.18 6.91 29.59Q9.65 27 13.14 25.49Q16.63 23.98 20.30 23.98Q21.74 23.98 23.22 24.48Q24.70 24.98 26.28 25.92Q29.16 27.79 31.68 30.89Q34.06 33.84 30.60 36.22Q27.07 38.66 25.13 36.29Q23.04 33.98 20.52 32.58Q18.00 31.18 15.48 31.18Q11.38 31.18 9.86 32.90Q8.35 34.63 8.35 39.10M13.82 15.12Q13.82 13.32 15.12 12.06Q16.42 10.80 18.29 10.80Q18.65 10.80 18.72 10.87Q19.37 10.87 20.02 11.16Q20.59 11.38 21.38 12.38Q22.18 13.39 23.26 15.05Q23.26 15.12 23.29 15.37Q23.33 15.62 23.33 15.84Q23.33 16.85 22.79 17.53Q22.25 18.22 21.42 18.61Q20.59 19.01 19.66 19.19Q18.72 19.37 18.00 19.37Q16.06 19.37 14.94 18.18Q13.82 16.99 13.82 15.12Z"/></svg>