<svg xmlns="http://www.w3.org/2000/svg" xmlns:xlink="http://www.w3.org/1999/xlink" width="38.44800000000001" height="77.47200000000001"><path fill="red" stroke="black" d="M0.79 42.55Q0.79 40.90 1.01 39.71Q1.22 38.52 2.38 36.65Q5.40 31.82 7.27 30.10Q8.21 29.16 9.50 28.19Q10.80 27.22 12.60 26.21Q12.60 26.14 12.13 25.60Q11.66 25.06 11.02 24.41Q10.37 23.76 9.65 23.08Q8.93 22.39 8.42 21.96Q7.63 21.38 6.55 21.13Q5.47 20.88 4.32 20.81Q3.17 20.74 2.16 20.77Q1.15 20.81 0.58 20.81Q0.58 19.37 1.69 18.29Q2.81 17.21 4.39 16.52Q5.98 15.84 7.67 15.48Q9.36 15.12 10.58 15.12Q11.23 15.12 11.63 15.19Q12.02 15.26 12.35 15.44Q12.67 15.62 13.10 15.98Q13.54 16.34 14.33 16.92Q16.06 18.36 18.32 19.94Q20.59 21.53 23.04 23.33Q25.49 25.13 27.86 27.14Q30.24 29.16 32.11 31.36Q33.98 33.55 35.14 36.04Q36.29 38.52 36.29 41.18Q36.29 44.35 34.60 47.52Q32.90 50.69 30.28 53.28Q27.65 55.87 24.37 57.49Q21.10 59.11 17.93 59.11Q15.26 59.11 12.28 57.53Q9.29 55.94 6.73 53.50Q4.18 51.05 2.48 48.13Q0.79 45.22 0.79 42.55M7.49 39.67Q7.49 40.82 8.32 42.30Q9.14 43.78 10.44 45.25Q11.74 46.73 13.36 48.17Q14.98 49.61 16.63 50.69Q18.29 51.77 19.80 52.45Q21.31 53.14 22.32 53.14Q23.69 53.14 25.02 52.27Q26.35 51.41 27.36 50.08Q28.37 48.74 28.98 47.20Q29.59 45.65 29.59 44.28Q29.59 43.06 28.87 41.47Q28.15 39.89 26.96 38.23Q25.78 36.58 24.26 35.03Q22.75 33.48 21.17 32.26Q19.58 31.03 18.11 30.31Q16.63 29.59 15.55 29.59Q14.18 29.59 12.74 30.71Q11.30 31.82 10.15 33.41Q9.00 34.99 8.24 36.72Q7.49 38.45 7.49 39.67Z"/></svg>65Q23.98 41.90 23.98 42.12Q23.98 43.13 23.44 43.81Q22.90 44.50 22.10 44.89Q21.31 45.29 20.38 45.47Q19.44 45.65 18.72 45.65Q16.70 45.65 15.59 44.46Q14.47 43.27 14.47 41.40Z"/></svg>