<svg xmlns="http://www.w3.org/2000/svg" xmlns:xlink="http://www.w3.org/1999/xlink" width="45.648" height="77.47200000000001"><path fill="red" stroke="black" d="M0.79 43.99Q0.79 40.32 3.06 36.68Q5.33 33.05 8.71 30.20Q12.10 27.36 16.02 25.56Q19.94 23.76 23.18 23.76Q24.77 23.76 26.46 24.37Q28.15 24.98 29.56 26.10Q30.96 27.22 31.90 28.73Q32.83 30.24 32.83 31.97Q32.83 32.83 32.26 33.55Q31.68 34.27 30.82 34.78Q29.95 35.28 29.02 35.57Q28.08 35.86 27.36 35.86Q27.22 35.86 26.75 35.82Q26.28 35.78 26.14 35.78Q25.13 34.63 24.26 33.66Q23.40 32.69 22.54 32.00Q21.67 31.32 20.63 30.96Q19.58 30.60 18.14 30.60Q16.85 30.60 15.30 31.10Q13.75 31.61 12.42 32.54Q11.09 33.48 10.15 34.78Q9.22 36.07 9.22 37.58Q9.22 37.73 9.25 38.02Q9.29 38.30 9.29 38.38Q10.08 37.58 10.80 37.58L12.46 37.58Q17.86 37.58 22.82 38.05Q27.79 38.52 33.19 38.52Q36.07 38.52 38.66 37.94Q41.26 37.37 44.06 37.37Q44.06 39.02 42.48 40.43Q40.90 41.83 38.77 42.91Q36.65 43.99 34.49 44.60Q32.33 45.22 31.18 45.22L10.08 45.22Q10.58 47.52 12.24 49.03Q13.90 50.54 15.98 51.41Q18.07 52.27 20.38 52.63Q22.68 52.99 24.48 52.99Q25.63 52.99 26.68 52.70Q27.72 52.42 28.73 52.02Q29.74 51.62 30.82 51.34Q31.90 51.05 33.19 51.05Q33.19 51.84 32.15 53.17Q31.10 54.50 29.70 55.80Q28.30 57.10 26.78 58.07Q25.27 59.04 24.41 59.04L12.60 59.04Q10.30 59.04 8.17 57.46Q6.05 55.87 4.43 53.53Q2.81 51.19 1.80 48.60Q0.79 46.01 0.79 43.99Z"/></svg>39 14.54 30.74Q15.98 30.10 17.28 30.10Z"/></svg>