<svg xmlns="http://www.w3.org/2000/svg" xmlns:xlink="http://www.w3.org/1999/xlink" width="40.464000000000006" height="77.47200000000001"><path fill="red" stroke="black" d="M5.11 43.20L5.11 49.97Q5.11 54.79 4.68 59.11Q4.25 63.43 2.52 68.47Q2.45 68.69 2.38 69.44Q2.30 70.20 2.30 70.42Q5.04 70.42 6.70 69.41Q8.35 68.40 9.32 66.89Q10.30 65.38 10.84 63.58Q11.38 61.78 11.99 60.16Q12.60 58.54 13.46 57.35Q14.33 56.16 15.98 55.87Q16.63 55.80 17.93 55.66Q19.22 55.51 20.56 55.37Q21.89 55.22 23.00 55.12Q24.12 55.01 24.41 55.01Q26.06 55.01 26.71 55.40Q27.36 55.80 27.65 56.30Q27.94 56.81 28.19 57.20Q28.44 57.60 29.38 57.60Q30.46 57.60 31.68 57.28Q32.90 56.95 33.95 56.30Q34.99 55.66 35.64 54.72Q36.29 53.78 36.29 52.49Q36.29 51.41 35.50 50.83Q34.70 50.26 33.70 49.97Q33.26 49.97 32.33 49.90Q31.39 49.82 30.31 49.82Q29.23 49.82 28.26 49.79Q27.29 49.75 26.93 49.75Q25.20 49.75 23.54 50.04Q21.89 50.33 20.27 50.69Q18.65 51.05 17.06 51.34Q15.48 51.62 13.90 51.62L13.46 51.62L12.60 38.16Q12.53 36.43 13.68 34.88Q14.83 33.34 16.56 32.18Q18.29 31.03 20.23 30.35Q22.18 29.66 23.62 29.66Q25.34 29.66 26.64 30.49Q27.94 31.32 28.91 32.29Q29.88 33.26 30.53 34.06Q31.18 34.85 31.61 34.85Q31.68 34.85 31.86 34.81Q32.04 34.78 32.04 34.78Q32.54 34.63 33.52 34.16Q34.49 33.70 35.50 33.05Q36.50 32.40 37.26 31.64Q38.02 30.89 38.02 30.17Q38.02 28.58 36.97 27.40Q35.93 26.21 34.42 25.38Q32.90 24.55 31.21 24.16Q29.52 23.76 28.22 23.76Q26.14 23.76 24.30 24.19Q22.46 24.62 20.70 25.34Q18.94 26.06 17.17 27Q15.41 27.94 13.46 28.87Q13.03 27.43 12.74 26.46Q12.46 25.49 12.02 24.88Q11.59 24.26 10.84 24.01Q10.08 23.76 8.78 23.76Q7.63 23.76 6.23 24.01Q4.82 24.26 3.56 24.80Q2.30 25.34 1.44 26.28Q0.58 27.22 0.58 28.51Q0.86 28.51 1.37 28.58Q1.87 28.66 2.41 28.69Q2.95 28.73 3.46 28.80Q3.96 28.87 4.18 28.87Q4.39 28.87 4.68 29.20Q4.97 29.52 5.04 29.74L5.04 32.40Q5.04 34.42 5.08 36.54Q5.11 38.66 5.11 40.61L5.11 43.20Z"/></svg>62.71 8.35 64.62Q7.42 66.53 5.87 68.18Q4.32 69.84 1.66 71.50Q1.01 71.14 0.90 70.74Q0.79 70.34 0.79 69.77Z"/></svg>