<svg xmlns="http://www.w3.org/2000/svg" xmlns:xlink="http://www.w3.org/1999/xlink" width="32.832" height="77.47200000000001"><path fill="red" stroke="black" d="M18.43 71.28Q18.43 71.14 18.47 70.99Q18.50 70.85 18.50 70.85Q19.51 69.55 20.45 68.69Q21.38 67.82 22.07 66.89Q22.75 65.95 23.18 64.73Q23.62 63.50 23.62 61.56Q23.62 61.06 23.54 60.19Q23.47 59.33 23.26 58.50Q23.04 57.67 22.61 57.10Q22.18 56.52 21.46 56.52Q20.52 56.52 19.58 56.81Q18.65 57.10 17.71 57.42Q16.78 57.74 15.80 58.00Q14.83 58.25 13.90 58.25Q10.94 58.25 8.53 56.84Q6.12 55.44 4.36 53.24Q2.59 51.05 1.62 48.35Q0.65 45.65 0.65 43.06Q0.65 39.74 2.38 36.25Q4.10 32.76 6.91 29.95Q9.72 27.14 13.21 25.34Q16.70 23.54 20.23 23.54Q22.03 23.54 23.44 23.90Q24.84 24.26 25.96 24.98Q27.07 25.70 28.12 26.86Q29.16 28.01 30.31 29.59Q30.31 29.66 30.35 29.95Q30.38 30.24 30.38 30.38Q30.38 31.10 29.92 31.86Q29.45 32.62 28.73 33.23Q28.01 33.84 27.22 34.24Q26.42 34.63 25.70 34.63Q24.19 34.63 23.00 33.84Q21.82 33.05 20.66 32.11Q19.51 31.18 18.22 30.38Q16.92 29.59 15.19 29.59Q13.10 29.59 11.66 30.64Q10.22 31.68 9.29 33.23Q8.35 34.78 7.92 36.65Q7.49 38.52 7.49 40.18Q7.49 42.26 8.46 44.28Q9.43 46.30 10.98 47.92Q12.53 49.54 14.51 50.54Q16.49 51.55 18.50 51.55Q20.52 51.55 21.92 50.69Q23.33 49.82 24.59 48.78Q25.85 47.74 27.25 46.87Q28.66 46.01 30.67 46.01Q30.67 50.04 30.78 53.53Q30.89 57.02 30.38 60.08Q29.88 63.14 28.37 65.81Q26.86 68.47 23.62 70.85Q22.32 71.86 21.82 72.22Q21.31 72.58 20.23 72.58Q19.51 72.58 18.97 72.32Q18.43 72.07 18.43 71.28Z"/></svg>1.69Q24.77 39.89 23.98 38.95Q23.18 38.02 22.75 37.80Q21.82 37.44 21.38 37.44Q21.31 37.37 20.95 37.37Q19.08 37.37 17.78 38.63Q16.49 39.89 16.49 41.76Z"/></svg>