<svg xmlns="http://www.w3.org/2000/svg" xmlns:xlink="http://www.w3.org/1999/xlink" width="37.584" height="77.47200000000001"><path fill="red" stroke="black" d="M0.79 49.25Q0.79 45.58 1.19 41.87Q1.58 38.16 2.09 34.42Q2.59 30.67 2.99 26.96Q3.38 23.26 3.38 19.58L3.38 16.27Q2.02 15.41 1.40 14.80Q0.79 14.18 0.79 12.96Q0.79 12.10 1.51 11.16Q2.23 10.22 3.20 9.50Q4.18 8.78 5.26 8.32Q6.34 7.85 7.13 7.85Q8.21 7.85 8.93 8.82Q9.65 9.79 10.12 11.12Q10.58 12.46 10.76 13.79Q10.94 15.12 10.94 15.77Q10.94 19.87 10.58 23.87Q10.22 27.86 10.22 31.97Q11.95 31.97 13.50 30.56Q15.05 29.16 16.63 27.54Q18.22 25.92 19.91 24.70Q21.60 23.47 23.62 23.83Q25.99 24.26 28.12 26.42Q30.24 28.58 31.90 31.46Q33.55 34.34 34.52 37.37Q35.50 40.39 35.50 42.55Q35.50 45.22 35.06 47.05Q34.63 48.89 33.73 50.40Q32.83 51.91 31.36 53.35Q29.88 54.79 27.79 56.66Q27.65 56.88 27.00 57.17Q26.35 57.46 26.14 57.53Q26.06 57.53 25.60 57.60Q25.13 57.67 24.91 57.67Q24.91 56.09 25.49 54.68Q26.06 53.28 26.78 51.88Q27.50 50.47 28.08 49.00Q28.66 47.52 28.66 45.72Q28.66 44.06 27.76 41.62Q26.86 39.17 25.42 36.86Q23.98 34.56 22.14 32.94Q20.30 31.32 18.43 31.32Q17.35 31.32 16.78 31.72Q16.20 32.11 15.19 33.12Q14.76 33.48 13.75 34.42Q12.74 35.35 11.66 36.43Q10.58 37.51 9.65 38.45Q8.71 39.38 8.42 39.82L8.42 40.75Q8.42 41.47 8.39 42.16Q8.35 42.84 8.35 43.56L8.35 44.50Q8.35 48.31 9.14 50.08Q9.94 51.84 10.91 52.56Q11.88 53.28 12.71 53.53Q13.54 53.78 13.54 54.58Q13.54 55.37 12.71 56.30Q11.88 57.24 10.73 58.10Q9.58 58.97 8.35 59.54Q7.13 60.12 6.34 60.12Q4.68 60.12 3.60 58.90Q2.52 57.67 1.91 55.94Q1.30 54.22 1.04 52.38Q0.79 50.54 0.79 49.25M14.18 44.78Q14.18 42.91 15.48 41.65Q16.78 40.39 18.65 40.39Q18.86 40.39 19.01 40.54Q19.73 40.54 20.38 40.82Q20.95 41.04 21.74 42.05Q22.54 43.06 23.62 44.71Q23.62 44.78 23.65 45.04Q23.69 45.29 23.69 45.50Q23.69 46.51 23.15 47.20Q22.61 47.88 21.78 48.28Q20.95 48.67 20.02 48.85Q19.08 49.03 18.36 49.03Q16.42 49.03 15.30 47.84Q14.18 46.66 14.18 44.78Z"/></svg>