<svg xmlns="http://www.w3.org/2000/svg" xmlns:xlink="http://www.w3.org/1999/xlink" width="19.872000000000003" height="77.47200000000001"><path fill="red" stroke="black" d="M4.18 29.81Q4.39 29.81 4.72 30.13Q5.04 30.46 5.04 30.67L5.04 52.99Q5.04 54.22 5.22 55.30Q5.40 56.38 5.87 57.24Q6.34 58.10 7.16 58.61Q7.99 59.11 9.22 59.11Q10.44 59.11 11.99 58.54Q13.54 57.96 14.90 56.95Q16.27 55.94 17.21 54.68Q18.14 53.42 18.14 51.98Q17.93 51.98 17.06 52.02Q16.20 52.06 15.98 52.13Q15.91 52.13 15.55 52.27Q15.19 52.42 14.76 52.56Q14.33 52.70 13.93 52.85Q13.54 52.99 13.46 52.99L13.18 52.99Q12.89 52.99 12.38 52.60Q11.88 52.20 11.88 51.19Q11.81 51.12 11.81 50.90L11.81 50.54L11.81 50.04L11.81 49.54L11.81 24.70Q11.81 23.98 11.09 23.87Q10.37 23.76 9.72 23.76L9.22 23.76Q8.35 23.76 6.91 24.41Q5.47 25.06 4.14 26.03Q2.81 27 1.84 28.04Q0.86 29.09 0.86 29.81L0.86 30.82Q1.01 30.82 1.69 30.78Q2.38 30.74 2.52 30.67Q2.74 30.60 3.38 30.20Q4.03 29.81 4.18 29.81Z"/></svg>89 17.35 12.89 17.50Q12.89 18.50 12.35 19.19Q11.81 19.87 10.98 20.27Q10.15 20.66 9.22 20.84Q8.28 21.02 7.56 21.02Q5.62 21.02 4.50 19.87Q3.38 18.72 3.38 16.85Z"/></svg>