<svg xmlns="http://www.w3.org/2000/svg" xmlns:xlink="http://www.w3.org/1999/xlink" width="30.312000000000005" height="77.47200000000001"><path fill="red" stroke="black" d="M17.86 54.00Q18.07 55.01 18.29 56.09Q18.50 57.17 18.90 58.07Q19.30 58.97 19.94 59.54Q20.59 60.12 21.74 60.12Q22.39 60.12 23.44 59.62Q24.48 59.11 25.49 58.36Q26.50 57.60 27.18 56.74Q27.86 55.87 27.79 55.08Q27.79 53.86 27.32 53.14Q26.86 52.42 26.14 52.13Q25.42 51.84 25.42 49.75L25.42 25.99Q25.42 25.06 25.13 24.52Q24.84 23.98 24.37 23.69Q23.90 23.40 23.29 23.36Q22.68 23.33 22.10 23.33Q21.31 23.33 20.38 23.54Q19.44 23.76 18.68 24.23Q17.93 24.70 17.42 25.42Q16.92 26.14 16.92 27.22Q16.92 28.37 17.21 29.52Q17.50 30.67 17.86 31.86Q18.22 33.05 18.50 34.24Q18.79 35.42 18.79 36.72Q18.79 38.88 18.58 41.58Q18.36 44.28 17.50 46.66Q16.63 49.03 14.94 50.65Q13.25 52.27 10.30 52.27Q10.08 52.27 9.65 52.34Q9.22 52.42 8.64 52.42Q8.06 52.42 7.24 52.16Q6.41 51.91 5.40 51.26Q3.31 50.98 2.20 52.16Q1.08 53.35 1.87 56.59Q2.81 58.39 3.46 58.79Q4.10 59.18 5.47 59.18Q7.27 59.18 8.68 58.36Q10.08 57.53 11.41 56.56Q12.74 55.58 14.08 54.76Q15.41 53.93 16.99 53.93Q17.21 53.93 17.50 53.96Q17.78 54.00 17.86 54.00Z"/></svg>7 65.88Q3.31 67.82 1.12 70.56Q-1.08 73.30-5.26 76.97M4.03 13.25Q4.03 15.05 5.15 16.24Q6.26 17.42 8.28 17.42Q9.00 17.42 9.94 17.24Q10.87 17.06 11.66 16.67Q12.46 16.27 13.00 15.59Q13.54 14.90 13.54 13.90Q13.54 13.68 13.50 13.46Q13.46 13.25 13.46 13.10Q11.16 9.65 10.30 9.29Q9.58 8.93 8.93 8.93Q8.86 8.86 8.50 8.86Q6.62 8.86 5.33 10.12Q4.03 11.38 4.03 13.25Z"/></svg>