<svg xmlns="http://www.w3.org/2000/svg" xmlns:xlink="http://www.w3.org/1999/xlink" width="45.648" height="77.47200000000001"><path fill="red" stroke="black" d="M0.86 13.54Q2.74 13.82 3.89 14.80Q5.04 15.77 5.04 17.78L5.04 48.96Q5.04 50.11 5.18 51.84Q5.33 53.57 5.83 55.19Q6.34 56.81 7.34 57.96Q8.35 59.11 10.08 59.11Q11.02 59.11 12.38 58.50Q13.75 57.89 15.05 56.92Q16.34 55.94 17.28 54.79Q18.22 53.64 18.22 52.63Q16.34 52.63 15.19 52.31Q14.04 51.98 13.46 51.26Q12.89 50.54 12.71 49.32Q12.53 48.10 12.53 46.30L12.53 45.86Q12.53 45.29 12.64 44.57Q12.74 43.85 13.46 43.85Q13.68 43.85 14.29 44.21Q14.90 44.57 15.19 44.71L27.79 54.86Q29.30 56.09 31.18 57.17Q33.05 58.25 35.06 58.25Q35.64 58.25 37.12 57.56Q38.59 56.88 40.14 55.91Q41.69 54.94 42.88 53.82Q44.06 52.70 44.06 51.77Q42.19 51.77 40.86 51.73Q39.53 51.70 38.38 51.44Q37.22 51.19 36.14 50.62Q35.06 50.04 33.70 48.96L22.75 39.67Q22.61 39.60 22.10 39.28Q21.60 38.95 21.02 38.52Q20.45 38.09 19.94 37.69Q19.44 37.30 19.37 37.15Q19.37 37.15 19.30 36.83Q19.22 36.50 19.22 36.29Q19.22 35.21 20.09 34.27Q20.95 33.34 22.21 32.65Q23.47 31.97 24.77 31.61Q26.06 31.25 26.93 31.25Q28.73 31.25 30.42 31.72Q32.11 32.18 33.84 32.18Q35.57 32.18 37.19 31.18Q38.81 30.17 38.81 28.30Q38.81 26.42 37.40 25.85Q36.00 25.27 34.27 25.27L32.26 25.27Q29.74 25.27 27.32 26.10Q24.91 26.93 22.64 28.19Q20.38 29.45 18.25 30.92Q16.13 32.40 14.33 33.77L12.24 33.77L12.24 11.88Q12.24 11.30 11.77 10.69Q11.30 10.08 10.66 9.58Q10.01 9.07 9.29 8.75Q8.57 8.42 8.06 8.42Q7.27 8.42 6.05 8.78Q4.82 9.14 3.67 9.79Q2.52 10.44 1.66 11.30Q0.79 12.17 0.79 13.10Q0.79 13.25 0.83 13.36Q0.86 13.46 0.86 13.54Z"/></svg>54M18.22 15.12Q18.22 13.32 19.51 12.06Q20.81 10.80 22.68 10.80Q23.04 10.80 23.11 10.87Q23.76 10.87 24.41 11.16Q24.98 11.38 25.78 12.38Q26.57 13.39 27.65 15.05Q27.65 15.12 27.68 15.37Q27.72 15.62 27.72 15.84Q27.72 16.85 27.18 17.53Q26.64 18.22 25.81 18.61Q24.98 19.01 24.05 19.19Q23.11 19.37 22.39 19.37Q20.45 19.37 19.33 18.18Q18.22 16.99 18.22 15.12Z"/></svg>