<svg xmlns="http://www.w3.org/2000/svg" xmlns:xlink="http://www.w3.org/1999/xlink" width="31.032000000000004" height="77.47200000000001"><path fill="red" stroke="black" d="M0.86 45.58Q0.86 48.74 1.98 51.26Q3.10 53.78 5.04 55.51Q6.98 57.24 9.54 58.18Q12.10 59.11 14.98 59.11Q16.34 59.11 18.79 58.54Q21.24 57.96 23.65 56.95Q26.06 55.94 27.83 54.54Q29.59 53.14 29.59 51.48Q29.59 50.90 29.48 50.47Q29.38 50.04 28.66 49.75Q27.22 50.98 26.10 51.66Q24.98 52.34 23.90 52.70Q22.82 53.06 21.67 53.17Q20.52 53.28 19.01 53.28Q15.84 53.28 13.90 52.20Q11.95 51.12 10.91 49.28Q9.86 47.45 9.54 45.04Q9.22 42.62 9.22 39.89Q9.22 37.08 9.50 34.34Q9.79 31.61 10.12 28.91Q10.44 26.21 10.73 23.51Q11.02 20.81 11.02 18.07Q11.02 17.14 10.94 15.91Q10.87 14.69 10.48 13.61Q10.08 12.53 9.29 11.77Q8.50 11.02 7.13 11.02Q6.55 11.02 5.51 11.30Q4.46 11.59 3.42 12.13Q2.38 12.67 1.58 13.36Q0.79 14.04 0.79 14.83Q0.79 15.48 1.22 16.06Q1.66 16.63 2.12 17.28Q2.59 17.93 3.02 18.65Q3.46 19.37 3.46 20.30Q3.46 23.47 3.06 26.60Q2.66 29.74 2.16 32.90Q1.66 36.07 1.26 39.24Q0.86 42.41 0.86 45.58Z"/></svg>21.42 69.44Q21.96 68.76 21.96 67.75Q21.96 67.54 21.92 67.28Q21.89 67.03 21.89 66.96Q20.74 65.16 19.94 64.22Q19.15 63.29 18.72 63.07Q18.14 62.93 17.86 62.82Q17.57 62.71 17.35 62.64L16.92 62.64Q15.05 62.64 13.75 63.90Q12.46 65.16 12.46 67.03Z"/></svg>