<svg xmlns="http://www.w3.org/2000/svg" xmlns:xlink="http://www.w3.org/1999/xlink" width="53.208000000000006" height="77.47200000000001"><path fill="red" stroke="black" d="M0.65 40.54Q0.65 37.44 2.05 34.24Q3.46 31.03 5.80 28.51Q8.14 25.99 11.16 24.37Q14.18 22.75 17.42 22.75Q19.01 22.75 19.98 23.94Q20.95 25.13 21.78 26.60Q22.61 28.08 23.58 29.27Q24.55 30.46 26.14 30.46Q26.28 30.46 26.57 30.42Q26.86 30.38 26.93 30.38Q27.72 29.74 28.98 28.73Q30.24 27.72 31.68 26.75Q33.12 25.78 34.60 25.09Q36.07 24.41 37.37 24.41Q39.24 24.41 41.04 25.34Q42.84 26.28 44.42 27.83Q46.01 29.38 47.30 31.36Q48.60 33.34 49.54 35.39Q50.47 37.44 51.01 39.38Q51.55 41.33 51.55 42.84Q51.55 45.14 50.80 47.74Q50.04 50.33 48.56 52.49Q47.09 54.65 44.96 56.09Q42.84 57.53 40.18 57.53Q40.18 56.02 40.75 54.90Q41.33 53.78 42.05 52.63Q42.77 51.48 43.34 50.04Q43.92 48.60 43.92 46.51Q43.92 44.71 43.13 42.05Q42.34 39.38 40.90 36.97Q39.46 34.56 37.51 32.83Q35.57 31.10 33.19 31.10Q32.98 31.10 32.54 31.14Q32.11 31.18 32.04 31.25L27.79 35.42L27.79 37.15Q27.79 37.15 28.26 38.41Q28.73 39.67 29.41 41.44Q30.10 43.20 30.82 45.07Q31.54 46.94 32.04 48.10Q32.33 49.03 33.05 49.57Q33.77 50.11 34.49 50.54Q35.21 50.98 35.78 51.44Q36.36 51.91 36.36 52.63Q36.36 53.64 35.68 54.61Q34.99 55.58 34.02 56.41Q33.05 57.24 31.93 57.74Q30.82 58.25 29.88 58.25Q28.22 58.25 26.82 56.12Q25.42 54.00 24.08 50.80Q22.75 47.59 21.42 43.85Q20.09 40.10 18.76 36.90Q17.42 33.70 15.91 31.57Q14.40 29.45 12.74 29.45Q11.45 29.45 10.48 30.24Q9.50 31.03 8.86 32.22Q8.21 33.41 7.88 34.74Q7.56 36.07 7.56 37.15Q7.56 39.31 8.42 41.29Q9.29 43.27 10.62 45.04Q11.95 46.80 13.50 48.31Q15.05 49.82 16.38 51.05Q17.71 52.27 18.58 53.14Q19.44 54.00 19.44 54.43Q19.44 55.22 18.36 56.12Q17.28 57.02 16.20 57.60Q15.48 58.03 14.69 58.43Q13.90 58.82 13.46 59.04Q10.80 58.54 8.46 56.41Q6.12 54.29 4.39 51.52Q2.66 48.74 1.66 45.76Q0.65 42.77 0.65 40.54Z"/></svg>01 0.79 43.49Z"/></svg>