<svg xmlns="http://www.w3.org/2000/svg" xmlns:xlink="http://www.w3.org/1999/xlink" width="52.70400000000001" height="77.47200000000001"><path fill="red" stroke="black" d="M4.18 66.31L4.18 63.94Q4.18 62.21 4.25 60.37Q4.32 58.54 4.32 56.88L4.32 54.50L4.32 49.03L4.32 45.43Q4.32 42.84 4.14 40.18Q3.96 37.51 3.38 34.27Q3.24 33.62 2.81 32.90Q2.38 32.18 1.94 31.46Q1.51 30.74 1.15 30.06Q0.79 29.38 0.79 28.80Q0.79 27.79 1.48 27.07Q2.16 26.35 3.10 25.85Q4.03 25.34 5.08 25.13Q6.12 24.91 6.91 24.91Q7.49 24.91 9.04 26.14Q10.58 27.36 12.35 28.98Q14.11 30.60 15.62 32.11Q17.14 33.62 17.71 34.27L40.46 50.26Q41.11 50.69 41.58 49.86Q42.05 49.03 42.37 47.77Q42.70 46.51 42.88 45.36Q43.06 44.21 43.06 43.99Q43.06 39.60 41.44 34.92Q39.82 30.24 37.08 26.71Q38.16 25.27 39.38 24.66Q40.61 24.05 42.26 24.05Q44.50 24.05 46.08 26.03Q47.66 28.01 48.67 30.74Q49.68 33.48 50.15 36.32Q50.62 39.17 50.62 40.82Q50.62 41.83 50.58 42.55Q50.54 43.27 50.47 43.99Q50.40 44.64 50.22 45.29Q50.04 45.94 49.75 46.51Q49.61 47.09 49.18 48.35Q48.74 49.61 48.02 51.62Q47.23 52.92 46.62 53.75Q46.01 54.58 45.43 55.12Q44.86 55.66 44.32 56.05Q43.78 56.45 43.20 56.88Q41.98 57.67 40.75 58.21Q39.53 58.75 38.30 58.75Q38.16 58.75 37.69 58.72Q37.22 58.68 37.08 58.68Q36.43 58.18 35.06 57.13Q33.70 56.09 31.93 54.76Q30.17 53.42 28.22 51.95Q26.28 50.47 24.55 49.14Q22.82 47.81 21.42 46.76Q20.02 45.72 19.37 45.22Q18.43 44.42 17.03 43.52Q15.62 42.62 14.33 42.62Q14.11 42.62 13.82 42.66Q13.54 42.70 13.46 42.70Q13.39 43.34 13.25 44.78Q13.10 46.22 12.96 48.06Q12.82 49.90 12.64 51.91Q12.46 53.93 12.31 55.76Q12.17 57.60 12.02 59.08Q11.88 60.55 11.81 61.20Q11.52 63.14 11.02 65.16Q10.51 67.18 9.58 68.83Q8.64 70.49 7.09 71.53Q5.54 72.58 3.17 72.58Q3.17 70.92 3.38 69.44Q3.60 67.97 4.18 66.31M20.23 23.90Q20.23 22.03 21.53 20.77Q22.82 19.51 24.70 19.51Q25.06 19.51 25.13 19.58Q25.34 19.58 26.42 19.94Q27.50 20.30 29.66 23.83Q29.66 23.90 29.70 24.16Q29.74 24.41 29.74 24.55Q29.74 25.56 29.20 26.24Q28.66 26.93 27.83 27.36Q27.00 27.79 26.06 27.97Q25.13 28.15 24.41 28.15Q22.46 28.15 21.35 26.96Q20.23 25.78 20.23 23.90Z"/></svg>38Z"/></svg>