<svg xmlns="http://www.w3.org/2000/svg" xmlns:xlink="http://www.w3.org/1999/xlink" width="40.608000000000004" height="77.47200000000001"><path fill="red" stroke="black" d="M0.79 44.35Q0.79 40.97 2.52 37.30Q4.25 33.62 7.06 30.56Q9.86 27.50 13.39 25.52Q16.92 23.54 20.52 23.54Q24.55 23.54 27.94 25.16Q31.32 26.78 33.73 29.52Q36.14 32.26 37.48 35.82Q38.81 39.38 38.81 43.20Q38.81 46.51 36.94 49.39Q35.06 52.27 32.18 54.43Q29.30 56.59 25.88 57.85Q22.46 59.11 19.37 59.11Q16.06 59.11 12.74 58.18Q9.43 57.24 6.77 55.40Q4.10 53.57 2.45 50.80Q0.79 48.02 0.79 44.35M8.35 40.54Q8.35 43.63 9.61 45.97Q10.87 48.31 12.92 49.93Q14.98 51.55 17.64 52.38Q20.30 53.21 23.18 53.21L23.90 53.21Q24.48 53.21 25.09 53.17Q25.70 53.14 26.21 53.14L26.93 53.14Q27.22 52.99 27.90 52.45Q28.58 51.91 29.27 51.23Q29.95 50.54 30.49 49.93Q31.03 49.32 31.18 48.96Q31.18 48.96 31.21 48.13Q31.25 47.30 31.25 46.73Q31.25 43.27 30.35 40.25Q29.45 37.22 27.68 34.99Q25.92 32.76 23.22 31.50Q20.52 30.24 16.85 30.24Q16.56 30.24 16.02 30.28Q15.48 30.31 14.76 30.31Q14.04 30.31 13.46 30.35Q12.89 30.38 12.60 30.38Q11.45 31.18 10.62 32.40Q9.79 33.62 9.29 34.99Q8.78 36.36 8.57 37.80Q8.35 39.24 8.35 40.54M15.48 67.03Q15.48 65.16 16.78 63.90Q18.07 62.64 19.94 62.64L20.38 62.64Q20.59 62.71 20.88 62.82Q21.17 62.93 21.74 63.07Q22.75 63.43 24.91 66.96Q24.91 67.03 24.95 67.28Q24.98 67.54 24.98 67.75Q24.98 68.76 24.44 69.44Q23.90 70.13 23.11 70.52Q22.32 70.92 21.38 71.10Q20.45 71.28 19.73 71.28Q17.78 71.28 16.63 70.09Q15.48 68.90 15.48 67.03Z"/></svg>