<svg xmlns="http://www.w3.org/2000/svg" xmlns:xlink="http://www.w3.org/1999/xlink" width="36.36000000000001" height="77.47200000000001"><path fill="red" stroke="black" d="M5.90 48.10Q5.90 48.82 5.80 50.98Q5.69 53.14 5.54 55.66Q5.40 58.18 5.26 60.55Q5.11 62.93 5.04 64.01Q4.90 65.30 4.46 66.56Q4.03 67.82 3.53 69.01Q3.02 70.20 2.66 71.46Q2.30 72.72 2.30 74.02Q5.62 74.02 7.24 72.25Q8.86 70.49 9.72 68.00Q10.58 65.52 11.09 62.93Q11.59 60.34 12.60 58.68Q12.67 58.61 13.03 58.50Q13.39 58.39 13.86 58.25Q14.33 58.10 14.72 58.00Q15.12 57.89 15.19 57.89Q16.27 57.17 17.82 56.41Q19.37 55.66 20.99 54.79Q22.61 53.93 24.23 52.99Q25.85 52.06 27.07 50.98Q27.94 50.11 28.94 49.03Q29.95 47.95 30.89 46.91Q31.82 45.86 32.58 45.00Q33.34 44.14 33.70 43.70Q34.63 42.05 34.63 40.39L34.63 36.94Q34.63 35.06 34.09 32.98Q33.55 30.89 32.51 29.09Q31.46 27.29 29.88 26.14Q28.30 24.98 26.14 24.98Q24.41 24.98 22.68 25.56Q20.95 26.14 19.33 27.07Q17.71 28.01 16.24 29.12Q14.76 30.24 13.46 31.32Q12.89 30.38 12.67 29.30Q12.46 28.22 12.17 27.25Q11.88 26.28 11.27 25.63Q10.66 24.98 9.29 24.98Q8.06 24.98 6.84 25.67Q5.62 26.35 4.46 27.32Q3.31 28.30 2.38 29.38Q1.44 30.46 0.86 31.32Q0.86 31.39 0.83 31.54Q0.79 31.68 0.79 31.75L0.86 32.18Q1.01 32.40 1.30 32.76Q1.58 33.12 1.66 33.12Q1.87 33.12 2.52 32.69Q3.17 32.26 3.38 32.18L3.82 32.18Q4.25 32.54 4.57 32.72Q4.90 32.90 5.04 33.12Q5.11 33.91 5.26 36.04Q5.40 38.16 5.54 40.54Q5.69 42.91 5.80 45.07Q5.90 47.23 5.90 48.10M12.60 41.69Q12.60 40.10 13.32 38.34Q14.04 36.58 15.26 35.14Q16.49 33.70 18.00 32.76Q19.51 31.82 21.17 31.82Q22.75 31.82 24.01 32.83Q25.27 33.84 26.10 35.35Q26.93 36.86 27.36 38.59Q27.79 40.32 27.79 41.69Q27.79 43.99 26.75 45.79Q25.70 47.59 24.05 48.82Q22.39 50.04 20.38 50.72Q18.36 51.41 16.42 51.41Q16.06 51.41 14.94 51.30Q13.82 51.19 13.46 51.19Q13.39 50.69 13.25 49.32Q13.10 47.95 12.96 46.44Q12.82 44.93 12.71 43.60Q12.60 42.26 12.60 41.69Z"/></svg>