<svg xmlns="http://www.w3.org/2000/svg" xmlns:xlink="http://www.w3.org/1999/xlink" width="37.87200000000001" height="77.47200000000001"><path fill="red" stroke="black" d="M37.08 73.94Q37.15 74.02 36.83 74.30Q36.50 74.59 36.22 74.81Q36.22 74.81 36.04 74.88Q35.86 74.95 35.78 74.95Q34.92 74.95 33.59 74.05Q32.26 73.15 30.96 71.86Q29.66 70.56 28.73 69.23Q27.79 67.90 27.79 67.03L26.14 35.86Q25.99 34.85 24.95 33.91Q23.90 32.98 22.46 32.22Q21.02 31.46 19.51 31.03Q18.00 30.60 16.99 30.60Q14.83 30.60 13.21 32.08Q11.59 33.55 10.51 35.68Q9.43 37.80 8.89 40.14Q8.35 42.48 8.35 44.28Q8.35 46.66 8.96 48.13Q9.58 49.61 10.58 50.62Q11.59 51.62 12.92 52.27Q14.26 52.92 15.66 53.60Q17.06 54.29 18.47 55.19Q19.87 56.09 21.02 57.53L20.23 58.39Q20.02 58.39 19.12 58.46Q18.22 58.54 17.78 58.54Q14.69 58.54 11.66 56.92Q8.64 55.30 6.23 52.78Q3.82 50.26 2.30 47.09Q0.79 43.92 0.79 40.75Q0.79 38.23 1.58 35.96Q2.38 33.70 3.71 31.68Q5.04 29.66 6.70 27.90Q8.35 26.14 10.08 24.70Q10.37 24.70 11.34 24.62Q12.31 24.55 12.60 24.55Q14.33 24.55 15.91 25.24Q17.50 25.92 18.94 26.75Q20.38 27.58 21.85 28.26Q23.33 28.94 24.84 28.94L25.27 28.94Q25.63 28.08 25.92 27.29Q26.21 26.50 26.60 25.88Q27.00 25.27 27.58 24.91Q28.15 24.55 29.09 24.55Q31.39 24.55 33.37 26.17Q35.35 27.79 36.22 29.81Q35.50 30.10 34.81 30.49Q34.13 30.89 33.70 31.61L33.70 33.62Q33.70 35.14 33.66 36.76Q33.62 38.38 33.62 39.82L33.62 41.90L33.62 44.71Q33.62 46.30 33.66 47.95Q33.70 49.61 33.70 50.98L33.70 52.27Q33.70 54.00 33.80 56.77Q33.91 59.54 34.06 62.21Q34.20 64.87 34.34 66.82Q34.49 68.76 34.56 68.83L37.08 73.94M13.18 42.48Q13.18 44.28 14.29 45.47Q15.41 46.66 17.35 46.66Q18.07 46.66 19.01 46.48Q19.94 46.30 20.77 45.90Q21.60 45.50 22.14 44.82Q22.68 44.14 22.68 43.13Q22.68 42.91 22.64 42.70Q22.61 42.48 22.61 42.34Q20.30 38.88 19.37 38.52Q18.65 38.16 18.00 38.16Q17.93 38.09 17.64 38.09Q15.77 38.09 14.47 39.35Q13.18 40.61 13.18 42.48Z"/></svg> 41.69Z"/></svg>