<svg xmlns="http://www.w3.org/2000/svg" xmlns:xlink="http://www.w3.org/1999/xlink" width="45.288000000000004" height="77.47200000000001"><path fill="red" stroke="black" d="M5.90 61.06Q5.90 53.42 5.76 45.90Q5.62 38.38 4.18 30.74Q3.96 30.17 3.42 30.02Q2.88 29.88 2.30 29.88Q1.73 29.88 1.30 29.81Q0.86 29.74 0.86 29.02Q0.86 27.86 1.87 26.93Q2.88 25.99 4.25 25.31Q5.62 24.62 7.09 24.23Q8.57 23.83 9.43 23.83Q9.79 23.83 10.37 23.90Q10.94 23.98 10.94 23.98Q11.09 24.12 11.38 24.59Q11.66 25.06 11.92 25.56Q12.17 26.06 12.38 26.57Q12.60 27.07 12.60 27.36L13.03 27.36L13.46 27.36Q13.75 27.29 14.87 26.78Q15.98 26.28 17.28 25.70Q18.58 25.13 19.69 24.62Q20.81 24.12 21.02 23.98Q21.17 23.98 21.74 23.94Q22.32 23.90 22.68 23.90Q25.20 23.90 27.25 25.24Q29.30 26.57 30.74 28.66Q32.18 30.74 32.98 33.26Q33.77 35.78 33.77 38.09Q33.77 39.53 33.05 41.11Q32.33 42.70 31.28 44.21Q30.24 45.72 29.05 47.02Q27.86 48.31 26.93 49.25L26.93 50.11Q27.00 50.11 27.58 50.33Q28.15 50.54 28.98 50.83Q29.81 51.12 30.64 51.41Q31.46 51.70 32.04 51.77Q32.26 51.84 32.87 51.98Q33.48 52.13 34.13 52.27Q34.78 52.42 35.39 52.52Q36.00 52.63 36.22 52.63L37.15 52.63Q38.09 52.63 38.92 52.38Q39.74 52.13 40.61 51.80Q41.47 51.48 42.30 51.19Q43.13 50.90 44.06 50.90Q44.06 52.42 42.59 53.82Q41.11 55.22 39.10 56.30Q37.08 57.38 34.99 58.00Q32.90 58.61 31.61 58.61Q29.74 58.61 27.94 58.18Q26.14 57.74 24.30 57.28Q22.46 56.81 20.63 56.38Q18.79 55.94 16.85 55.94Q15.12 55.94 14.29 56.95Q13.46 57.96 12.96 59.51Q12.46 61.06 12.02 62.86Q11.59 64.66 10.76 66.20Q9.94 67.75 8.39 68.76Q6.84 69.77 4.10 69.77Q4.10 68.62 4.39 67.54Q4.68 66.46 5.00 65.38Q5.33 64.30 5.62 63.25Q5.90 62.21 5.90 61.06M12.31 34.78L12.31 36.29Q12.31 37.08 12.38 38.99Q12.46 40.90 12.60 43.06Q12.74 45.22 12.89 47.12Q13.03 49.03 13.18 49.75Q13.32 49.75 13.97 49.79Q14.62 49.82 14.83 49.82Q16.85 49.82 18.83 49.14Q20.81 48.46 22.36 47.23Q23.90 46.01 24.88 44.28Q25.85 42.55 25.85 40.39Q25.85 38.66 25.31 36.76Q24.77 34.85 23.72 33.23Q22.68 31.61 21.13 30.53Q19.58 29.45 17.64 29.45Q17.35 29.45 16.92 29.52Q16.49 29.59 16.49 29.59L12.31 33.77L12.31 34.78Z"/></svg>2.75 62.71Q23.33 62.93 24.08 63.94Q24.84 64.94 25.92 66.60Q25.92 66.67 25.99 66.92Q26.06 67.18 26.06 67.39Q26.06 68.40 25.52 69.08Q24.98 69.77 24.16 70.16Q23.33 70.56 22.39 70.74Q21.46 70.92 20.74 70.92Q18.79 70.92 17.64 69.73Q16.49 68.54 16.49 66.67Z"/></svg>