<svg xmlns="http://www.w3.org/2000/svg" xmlns:xlink="http://www.w3.org/1999/xlink" width="37.728" height="77.47200000000001"><path fill="red" stroke="black" d="M0.79 50.62Q0.79 51.62 1.76 52.63Q2.74 53.64 4.28 54.61Q5.83 55.58 7.70 56.38Q9.58 57.17 11.41 57.78Q13.25 58.39 14.80 58.75Q16.34 59.11 17.21 59.11Q19.58 59.11 21.74 58.36Q23.90 57.60 25.96 56.41Q28.01 55.22 29.92 53.86Q31.82 52.49 33.70 51.26Q35.14 50.33 35.71 49.25Q36.29 48.17 36.29 46.58Q36.29 43.63 34.52 42.01Q32.76 40.39 30.13 39.53Q27.50 38.66 24.41 38.20Q21.31 37.73 18.68 37.12Q16.06 36.50 14.29 35.42Q12.53 34.34 12.53 32.18Q12.53 30.89 13.10 30.24Q13.68 29.59 14.58 29.27Q15.48 28.94 16.63 28.91Q17.78 28.87 19.01 28.87Q20.81 28.87 22.28 29.88Q23.76 30.89 24.91 32.08Q26.06 33.26 26.96 34.24Q27.86 35.21 28.66 35.21Q29.59 35.21 30.67 34.67Q31.75 34.13 32.65 33.30Q33.55 32.47 34.13 31.54Q34.70 30.60 34.70 29.74Q34.70 29.52 34.63 28.91Q34.56 28.30 34.56 28.22Q34.20 28.01 33.12 27.29Q32.04 26.57 30.82 25.78Q29.59 24.98 28.48 24.34Q27.36 23.69 26.93 23.54Q25.92 22.90 25.56 22.82Q25.20 22.75 24.12 22.75Q21.38 22.75 18.07 23.51Q14.76 24.26 11.84 25.74Q8.93 27.22 6.95 29.45Q4.97 31.68 4.97 34.63Q4.97 37.80 6.66 39.46Q8.35 41.11 10.91 41.98Q13.46 42.84 16.45 43.20Q19.44 43.56 22.00 44.14Q24.55 44.71 26.24 45.79Q27.94 46.87 27.94 49.10Q27.94 50.33 27.18 51.05Q26.42 51.77 25.34 52.20Q24.26 52.63 23.00 52.78Q21.74 52.92 20.81 52.92Q18.50 52.92 16.45 51.95Q14.40 50.98 12.53 49.79Q10.66 48.60 9.00 47.59Q7.34 46.58 5.90 46.58Q3.96 46.58 2.38 47.66Q0.79 48.74 0.79 50.62M13.82 67.39Q13.82 69.26 14.94 70.42Q16.06 71.57 18.00 71.57Q18.72 71.57 19.66 71.39Q20.59 71.21 21.42 70.81Q22.25 70.42 22.79 69.73Q23.33 69.05 23.33 68.04Q23.33 67.90 23.29 67.64Q23.26 67.39 23.26 67.32Q20.95 63.79 20.02 63.43Q19.30 63.07 18.72 63.07Q18.65 63.00 18.29 63.00Q16.42 63.00 15.12 64.26Q13.82 65.52 13.82 67.39Z"/></svg>