<svg xmlns="http://www.w3.org/2000/svg" xmlns:xlink="http://www.w3.org/1999/xlink" width="38.088" height="77.47200000000001"><path fill="red" stroke="black" d="M10.44 29.45Q10.44 29.45 10.94 29.41Q11.45 29.38 11.99 29.45Q12.53 29.52 13.00 29.74Q13.46 29.95 13.46 30.38L13.46 53.78Q13.46 56.09 14.51 57.64Q15.55 59.18 17.78 59.18Q19.01 59.18 20.63 58.46Q22.25 57.74 23.69 56.59Q25.13 55.44 26.14 54.00Q27.14 52.56 27.14 51.05Q25.49 51.05 24.19 51.55Q22.90 52.06 21.46 52.06L21.02 52.06Q20.95 51.84 20.84 50.98Q20.74 50.11 20.59 49.10Q20.45 48.10 20.34 47.20Q20.23 46.30 20.23 46.01L20.23 45.58L20.23 45.14L21.02 31.32L21.89 30.38Q23.47 30.31 25.99 29.84Q28.51 29.38 30.89 28.37Q33.26 27.36 34.99 25.74Q36.72 24.12 36.72 21.67Q36.65 21.67 36.11 21.74Q35.57 21.82 35.35 21.82L30.31 23.47L8.42 23.47Q7.49 23.47 6.16 24.59Q4.82 25.70 3.56 27.18Q2.30 28.66 1.44 30.17Q0.58 31.68 0.58 32.40Q1.94 32.40 3.13 31.93Q4.32 31.46 5.51 30.92Q6.70 30.38 7.88 29.92Q9.07 29.45 10.44 29.45Z"/></svg>9Q2.02 35.06 2.09 35.06Q2.16 35.06 2.34 34.99Q2.52 34.92 2.52 34.92L7.56 30.67L16.70 30.67Q16.70 35.86 16.34 40.79Q15.98 45.72 15.98 50.90M18.22 15.12Q18.22 16.99 19.33 18.18Q20.45 19.37 22.39 19.37Q23.11 19.37 24.05 19.19Q24.98 19.01 25.81 18.61Q26.64 18.22 27.18 17.53Q27.72 16.85 27.72 15.84Q27.72 15.62 27.68 15.37Q27.65 15.12 27.65 15.05Q25.34 11.74 24.41 11.16Q23.83 10.87 23.11 10.87Q23.04 10.80 22.68 10.80Q20.81 10.80 19.51 12.06Q18.22 13.32 18.22 15.12Z"/></svg>