<svg xmlns="http://www.w3.org/2000/svg" xmlns:xlink="http://www.w3.org/1999/xlink" width="44.496" height="77.47200000000001"><path fill="red" stroke="black" d="M0.79 41.62Q0.79 41.26 0.83 40.68Q0.86 40.10 0.86 40.10L5.90 32.40L5.90 29.38L1.30 29.38Q1.30 29.38 1.40 28.55Q1.51 27.72 1.66 27.22Q1.94 26.35 2.92 25.60Q3.89 24.84 5.15 24.23Q6.41 23.62 7.67 23.26Q8.93 22.90 9.72 22.90Q11.16 22.90 12.35 24.08Q13.54 25.27 13.54 26.71Q13.54 28.44 12.71 29.88Q11.88 31.32 10.91 32.62Q9.94 33.91 9.14 35.28Q8.35 36.65 8.35 38.23Q8.35 40.90 9.32 43.42Q10.30 45.94 12.02 47.92Q13.75 49.90 16.09 51.08Q18.43 52.27 21.17 52.27Q21.89 52.27 23.18 51.91Q24.48 51.55 25.67 50.94Q26.86 50.33 27.76 49.54Q28.66 48.74 28.66 47.81L28.66 29.81Q28.44 29.66 28.15 28.98Q27.86 28.30 27.79 28.15L27.79 27.72Q27.79 27 28.44 26.28Q29.09 25.56 29.95 24.98Q30.82 24.41 31.75 24.08Q32.69 23.76 33.26 23.76Q33.84 23.76 34.52 23.80Q35.21 23.83 35.35 24.70Q35.35 25.78 35.46 28.58Q35.57 31.39 35.68 34.56Q35.78 37.73 35.93 40.50Q36.07 43.27 36.22 44.35Q36.22 44.86 36.29 45.79Q36.36 46.73 36.54 47.74Q36.72 48.74 37.04 49.72Q37.37 50.69 37.87 51.26Q38.16 51.26 38.74 51.23Q39.31 51.19 40.03 51.19Q40.75 51.19 41.29 51.23Q41.83 51.26 42.12 51.26Q42.34 51.41 42.66 51.70Q42.98 51.98 42.98 52.13Q42.98 53.35 41.98 54.58Q40.97 55.80 39.53 56.81Q38.09 57.82 36.58 58.46Q35.06 59.11 34.06 59.11Q32.76 59.11 32.08 58.14Q31.39 57.17 30.89 56.05Q30.38 54.94 29.95 53.96Q29.52 52.99 28.66 52.99Q27.14 52.99 25.74 53.96Q24.34 54.94 22.93 56.05Q21.53 57.17 20.05 58.14Q18.58 59.11 16.92 59.11Q13.75 59.11 10.84 57.56Q7.92 56.02 5.69 53.53Q3.46 51.05 2.12 47.92Q0.79 44.78 0.79 41.62Z"/></svg>81 25.06 22.75 25.06Q23.47 25.06 24.41 24.88Q25.34 24.70 26.17 24.30Q27.00 23.90 27.54 23.22Q28.08 22.54 28.08 21.53Q28.08 21.38 28.01 21.13Q27.94 20.88 27.94 20.81Q26.78 19.01 25.99 18.07Q25.20 17.14 24.77 16.92Q24.05 16.56 23.40 16.56Q23.33 16.49 22.97 16.49Q21.10 16.49 19.80 17.75Q18.50 19.01 18.50 20.88Z"/></svg>