<svg xmlns="http://www.w3.org/2000/svg" xmlns:xlink="http://www.w3.org/1999/xlink" width="42.264" height="77.47200000000001"><path fill="red" stroke="black" d="M0.79 44.14Q0.79 45.65 1.80 47.30Q2.81 48.96 4.46 50.62Q6.12 52.27 8.21 53.78Q10.30 55.30 12.38 56.48Q14.47 57.67 16.45 58.36Q18.43 59.04 19.80 59.04L20.23 59.04Q20.66 58.82 21.60 58.54Q22.54 58.25 22.75 58.18Q25.70 56.30 28.87 54.50Q32.04 52.70 34.63 50.54Q37.22 48.38 38.92 45.65Q40.61 42.91 40.61 39.10Q40.61 38.16 40.18 36.65Q39.74 35.14 39.02 33.41Q38.30 31.68 37.30 29.92Q36.29 28.15 35.10 26.75Q33.91 25.34 32.58 24.44Q31.25 23.54 29.88 23.54Q29.52 23.54 28.55 23.87Q27.58 24.19 26.60 24.77Q25.63 25.34 24.95 26.06Q24.26 26.78 24.41 27.65Q24.77 29.38 26.28 30.92Q27.79 32.47 29.45 34.16Q31.10 35.86 32.44 37.87Q33.77 39.89 33.77 42.55Q33.77 44.28 32.80 46.04Q31.82 47.81 30.31 49.28Q28.80 50.76 26.93 51.70Q25.06 52.63 23.26 52.63Q21.24 52.63 18.68 51.34Q16.13 50.04 13.82 48.13Q11.52 46.22 9.94 44.14Q8.35 42.05 8.35 40.39Q8.35 38.45 9.54 36.94Q10.73 35.42 12.17 34.02Q13.61 32.62 14.80 31.10Q15.98 29.59 15.98 27.65Q15.98 25.99 14.72 24.77Q13.46 23.54 11.81 23.54Q10.87 23.54 9.50 23.94Q8.14 24.34 6.84 25.06Q5.54 25.78 4.61 26.75Q3.67 27.72 3.67 28.87L5.54 28.87Q6.91 28.87 7.70 29.34Q8.50 29.81 8.50 31.32Q8.50 33.05 7.31 34.52Q6.12 36 4.64 37.48Q3.17 38.95 1.98 40.57Q0.79 42.19 0.79 44.14M16.20 40.39Q16.20 42.26 17.32 43.45Q18.43 44.64 20.38 44.64Q21.10 44.64 22.03 44.46Q22.97 44.28 23.80 43.88Q24.62 43.49 25.16 42.80Q25.70 42.12 25.70 41.11Q25.70 40.90 25.67 40.64Q25.63 40.39 25.63 40.32Q23.33 37.01 22.39 36.43Q21.82 36.14 21.02 36.14Q20.95 36.07 20.66 36.07Q18.79 36.07 17.50 37.33Q16.20 38.59 16.20 40.39Z"/></svg>