<svg xmlns="http://www.w3.org/2000/svg" xmlns:xlink="http://www.w3.org/1999/xlink" width="60.84000000000001" height="77.47200000000001"><path fill="red" stroke="black" d="M0.79 43.70Q0.79 42.05 1.33 40.50Q1.87 38.95 2.63 37.48Q3.38 36 4.28 34.56Q5.18 33.12 5.90 31.75Q5.90 31.68 5.94 31.39Q5.98 31.10 5.98 30.89Q5.98 29.81 5.44 29.56Q4.90 29.30 4.21 29.20Q3.53 29.09 2.99 28.84Q2.45 28.58 2.45 27.50Q2.45 26.42 3.28 25.63Q4.10 24.84 5.29 24.30Q6.48 23.76 7.74 23.47Q9.00 23.18 9.86 23.18Q11.74 23.18 12.71 24.55Q13.68 25.92 13.68 27.65Q13.68 27.86 13.61 28.51Q13.54 29.16 13.46 29.23L8.42 37.73L8.42 42.05Q8.42 42.12 9.18 42.91Q9.94 43.70 11.02 44.78Q12.10 45.86 13.25 46.98Q14.40 48.10 15.19 48.74Q15.77 49.32 16.60 49.93Q17.42 50.54 18.36 51.08Q19.30 51.62 20.20 51.95Q21.10 52.27 21.89 52.27Q22.90 52.27 23.69 51.70Q24.48 51.12 24.48 50.04Q24.48 49.03 24.05 48.10Q23.62 47.16 23.15 46.26Q22.68 45.36 22.25 44.35Q21.82 43.34 21.82 42.19Q21.82 40.54 22.50 39.24Q23.18 37.94 24.01 36.79Q24.84 35.64 25.52 34.45Q26.21 33.26 26.21 31.75Q26.21 31.25 26.06 30.96Q25.92 30.67 25.70 30.46Q25.49 30.24 25.34 29.95Q25.20 29.66 25.20 29.23Q25.20 28.30 25.96 27.47Q26.71 26.64 27.79 26.10Q28.87 25.56 30.06 25.24Q31.25 24.91 32.11 24.91Q33.34 24.91 33.55 25.70Q33.77 26.50 33.77 27.50Q33.77 29.02 33.08 30.28Q32.40 31.54 31.57 32.76Q30.74 33.98 30.06 35.28Q29.38 36.58 29.38 38.16Q29.38 40.39 30.92 42.88Q32.47 45.36 34.74 47.48Q37.01 49.61 39.49 51.01Q41.98 52.42 43.92 52.42Q45.43 52.42 46.94 51.70Q48.46 50.98 49.64 49.82Q50.83 48.67 51.59 47.20Q52.34 45.72 52.34 44.21Q52.34 41.98 51.37 40.00Q50.40 38.02 49.28 36.14Q48.17 34.27 47.20 32.36Q46.22 30.46 46.22 28.37Q46.22 26.50 47.27 25.70Q48.31 24.91 50.18 24.91Q52.06 24.91 53.68 26.82Q55.30 28.73 56.48 31.36Q57.67 33.98 58.36 36.72Q59.04 39.46 59.04 41.11Q59.04 43.92 56.92 47.05Q54.79 50.18 51.77 52.88Q48.74 55.58 45.40 57.35Q42.05 59.11 39.60 59.11Q37.80 59.11 36.36 58.14Q34.92 57.17 33.62 56.05Q32.33 54.94 31.03 53.96Q29.74 52.99 28.22 52.99Q28.15 52.99 28.01 53.03Q27.86 53.06 27.79 53.06Q27.36 53.28 26.28 54.00Q25.20 54.72 24.01 55.58Q22.82 56.45 21.74 57.17Q20.66 57.89 20.23 58.10Q20.02 58.32 19.37 58.61Q18.72 58.90 18.50 58.97L18.14 58.97Q16.70 58.97 14.87 58.21Q13.03 57.46 11.09 56.20Q9.14 54.94 7.31 53.32Q5.47 51.70 4.03 50.00Q2.59 48.31 1.69 46.66Q0.79 45.00 0.79 43.70Z"/></svg>17.71 58.97Q15.55 58.10 12.92 56.88Q10.30 55.66 7.96 53.93Q5.62 52.20 4.03 49.93Q2.45 47.66 2.45 44.71Z"/></svg>