<svg xmlns="http://www.w3.org/2000/svg" xmlns:xlink="http://www.w3.org/1999/xlink" width="47.88" height="77.47200000000001"><path fill="red" stroke="black" d="M24.48 45.79Q22.90 50.76 21.17 52.49Q20.38 53.21 19.48 53.93Q18.58 54.65 17.64 55.37Q15.84 56.59 13.90 57.42Q11.95 58.25 10.01 58.25L8.35 58.25Q6.98 58.25 5.87 57.64Q4.75 57.02 4.75 55.08Q4.75 53.21 6.05 52.16Q7.34 51.12 8.71 51.12Q10.15 51.12 11.48 51.59Q12.82 52.06 14.26 52.06Q14.98 52.06 16.06 51.70Q17.14 51.34 18.11 50.62Q19.08 49.90 19.76 48.96Q20.45 48.02 20.45 46.80Q20.45 46.66 20.38 46.33Q20.30 46.01 20.30 46.01Q20.23 45.79 20.27 45.22Q20.30 44.64 19.80 44.14Q19.37 43.49 18.79 43.06Q18.50 42.84 16.09 40.54Q13.68 38.23 8.86 33.84Q7.63 32.76 6.77 32.15Q5.90 31.54 5.04 31.25Q4.18 30.96 3.13 30.92Q2.09 30.89 0.50 30.89Q0.50 29.95 1.48 28.80Q2.45 27.65 3.71 26.64Q4.97 25.63 6.16 24.95Q7.34 24.26 7.78 24.26Q9.36 24.26 10.84 25.42Q12.31 26.57 13.54 27.79L22.61 36.65Q24.19 31.82 25.92 30.10Q26.78 29.23 27.61 28.58Q28.44 27.94 29.38 27.22Q31.25 25.85 33.19 25.06Q35.14 24.26 37.08 24.26L38.74 24.26Q40.10 24.26 41.26 24.84Q42.41 25.42 42.41 27.36Q42.41 29.23 41.08 30.28Q39.74 31.32 38.45 31.32Q37.01 31.32 35.64 30.85Q34.27 30.38 32.83 30.38Q32.04 30.38 31.00 30.74Q29.95 31.10 28.98 31.82Q28.01 32.54 27.32 33.52Q26.64 34.49 26.64 35.64Q26.64 35.78 26.71 36.11Q26.78 36.43 26.78 36.43Q27.00 36.58 26.96 36.90Q26.93 37.22 26.89 37.58Q26.86 37.94 26.89 38.41Q26.93 38.88 27.36 39.38L38.23 48.60Q39.31 49.75 40.18 50.36Q41.04 50.98 41.98 51.23Q42.91 51.48 43.99 51.52Q45.07 51.55 46.58 51.55Q46.58 52.49 45.61 53.64Q44.64 54.79 43.38 55.84Q42.12 56.88 40.93 57.56Q39.74 58.25 39.31 58.25Q37.73 58.25 36.25 57.10Q34.78 55.94 33.55 54.65L24.48 45.79Z"/></svg>.66 23.54 19.44Q24.84 18.22 26.71 18.22Q27.07 18.22 27.14 18.29Q27.79 18.29 28.44 18.58Q29.02 18.79 29.81 19.80Q30.60 20.81 31.68 22.46Q31.68 22.54 31.72 22.79Q31.75 23.04 31.75 23.26Q31.75 24.26 31.21 24.95Q30.67 25.63 29.84 26.03Q29.02 26.42 28.08 26.60Q27.14 26.78 26.42 26.78Q24.48 26.78 23.36 25.60Q22.25 24.41 22.25 22.54Z"/></svg>