<svg xmlns="http://www.w3.org/2000/svg" xmlns:xlink="http://www.w3.org/1999/xlink" width="45.288000000000004" height="77.47200000000001"><path fill="red" stroke="black" d="M26.93 73.08Q26.71 71.57 26.96 68.83Q27.22 66.10 27.86 62.64Q28.51 59.18 29.52 55.26Q30.53 51.34 31.75 47.52Q32.98 43.70 34.42 40.28Q35.86 36.86 37.40 34.34Q38.95 31.82 40.57 30.46Q42.19 29.09 43.78 29.45Q43.78 29.38 43.85 29.09Q43.92 28.80 43.92 28.66Q43.92 27.58 43.16 26.71Q42.41 25.85 41.33 25.24Q40.25 24.62 39.10 24.30Q37.94 23.98 37.08 23.98Q36.07 23.98 35.28 24.08Q34.49 24.19 33.70 24.98Q33.48 25.34 32.90 26.39Q32.33 27.43 31.64 28.62Q30.96 29.81 30.35 30.82Q29.74 31.82 29.45 32.18Q29.23 32.76 28.76 34.02Q28.30 35.28 27.68 36.50Q27.07 37.73 26.32 38.66Q25.56 39.60 24.84 39.60Q23.76 39.60 22.54 38.59Q21.31 37.58 19.91 36.04Q18.50 34.49 16.96 32.69Q15.41 30.89 13.72 29.34Q12.02 27.79 10.19 26.78Q8.35 25.78 6.34 25.78Q5.69 25.78 4.75 25.92Q3.82 26.06 2.92 26.42Q2.02 26.78 1.40 27.43Q0.79 28.08 0.79 29.02Q0.79 29.88 1.51 30.64Q2.23 31.39 3.20 32.00Q4.18 32.62 5.15 32.94Q6.12 33.26 6.62 33.26Q7.70 33.26 8.60 32.72Q9.50 32.18 10.51 32.18Q11.23 32.18 12.46 33.05Q13.68 33.91 15.05 35.28Q16.42 36.65 17.78 38.38Q19.15 40.10 20.27 41.76Q21.38 43.42 22.10 44.86Q22.82 46.30 22.82 47.16Q22.82 49.39 22.39 51.52Q21.96 53.64 21.49 55.73Q21.02 57.82 20.59 59.90Q20.16 61.99 20.16 64.15Q20.16 65.23 20.27 66.96Q20.38 68.69 20.88 70.31Q21.38 71.93 22.39 73.12Q23.40 74.30 25.20 74.30Q26.57 74.30 26.93 73.08M26.42 20.52Q26.42 18.65 25.13 17.39Q23.83 16.13 21.96 16.13Q21.60 16.13 21.46 16.27Q20.74 16.27 20.23 16.56Q19.22 16.92 16.99 20.45Q16.99 20.52 16.96 20.77Q16.92 21.02 16.92 21.24Q16.92 22.25 17.46 22.93Q18.00 23.62 18.83 24.01Q19.66 24.41 20.56 24.59Q21.46 24.77 22.25 24.77Q24.19 24.77 25.31 23.58Q26.42 22.39 26.42 20.52Z"/></svg>.71 25.06 17.71 23.18Z"/></svg>