<svg xmlns="http://www.w3.org/2000/svg" xmlns:xlink="http://www.w3.org/1999/xlink" width="31.680000000000003" height="77.47200000000001"><path fill="red" stroke="black" d="M7.92 30.74L5.26 31.18Q4.18 29.95 2.52 29.95Q0.86 29.95 2.52 27.79Q4.10 25.70 5.90 24.91Q7.42 24.19 8.86 24.19Q9.79 24.19 10.26 24.62Q10.73 25.06 11.05 25.60Q11.38 26.14 11.74 26.57Q12.10 27 12.96 27Q14.11 27 15.08 26.68Q16.06 26.35 17.03 25.99Q18.00 25.63 19.01 25.31Q20.02 24.98 21.17 24.98Q23.62 24.98 24.48 25.96Q25.34 26.93 25.34 29.74Q25.34 30.82 25.06 31.86Q24.77 32.90 24.44 33.88Q24.12 34.85 23.87 35.82Q23.62 36.79 23.62 37.80Q23.62 38.95 24.55 39.82Q25.49 40.68 26.60 41.54Q27.72 42.41 28.66 43.52Q29.59 44.64 29.59 46.30Q29.59 47.74 28.58 49.68Q27.58 51.62 25.92 54.86Q24.48 57.89 21.38 58.54Q18.43 59.18 16.99 61.06L12.46 67.90Q9.22 72.79 7.92 73.08Q6.62 73.44 8.57 67.03Q9.58 63.79 10.58 61.56Q11.59 59.33 12.60 57.96Q14.18 56.88 15.23 56.16Q16.27 55.44 17.03 54.90Q17.78 54.36 18.36 53.93Q18.94 53.50 19.51 53.06Q20.74 52.27 21.35 51.55Q21.96 50.83 21.96 49.54Q21.96 47.95 20.95 47.34Q19.94 46.73 18.72 46.73Q17.35 46.73 16.24 47.23Q15.12 47.74 13.90 47.74Q13.10 47.74 12.82 47.20Q12.53 46.66 12.53 45.86Q12.53 44.14 13.46 42.80Q14.40 41.47 15.52 40.25Q16.63 39.02 17.57 37.66Q18.50 36.29 18.50 34.56Q18.50 32.90 17.96 32.69Q17.42 32.47 16.56 32.47Q15.26 32.47 14.26 32.72Q13.25 32.98 11.88 32.98Q10.87 32.98 9.94 32.69L7.92 30.74Z"/></svg>