<svg xmlns="http://www.w3.org/2000/svg" xmlns:xlink="http://www.w3.org/1999/xlink" width="18.4921875" height="90"><path fill="red" stroke="black" d="M7.07 55.37L12.55 19.37L23.63 17.86L13.18 55.37L7.07 55.37M13.78 66.66Q13.78 67.85 13.34 68.91Q12.90 69.96 12.13 70.73Q11.36 71.51 10.32 71.96Q9.28 72.42 8.09 72.42Q6.89 72.42 5.85 71.96Q4.82 71.51 4.03 70.73Q3.23 69.96 2.78 68.91Q2.32 67.85 2.32 66.66Q2.32 65.46 2.78 64.44Q3.23 63.42 4.03 62.65Q4.82 61.88 5.85 61.44Q6.89 61.00 8.09 61.00Q9.28 61.00 10.32 61.44Q11.36 61.88 12.13 62.65Q12.90 63.42 13.34 64.44Q13.78 65.46 13.78 66.66Z"/></svg>