<svg xmlns="http://www.w3.org/2000/svg" xmlns:xlink="http://www.w3.org/1999/xlink" width="47.4609375" height="90"><path fill="red" stroke="black" d="M8.47 36.56L15.89 36.56L18.53 23.52L23.80 23.52L21.13 36.56L30.45 36.56L33.08 23.52L38.36 23.52L35.68 36.56L42.68 36.56L41.59 42.12L34.56 42.12L32.77 50.98L39.59 50.98L38.50 56.53L31.64 56.53L28.93 69.96L23.70 69.96L26.40 56.53L17.09 56.53L14.38 69.96L9.14 69.96L11.85 56.53L4.29 56.53L5.38 50.98L12.97 50.98L14.77 42.12L7.38 42.12L8.47 36.56M18.21 50.98L27.53 50.98L29.32 42.12L20.00 42.12L18.21 50.98Z"/></svg>