<svg xmlns="http://www.w3.org/2000/svg" xmlns:xlink="http://www.w3.org/1999/xlink" width="39.4453125" height="90"><path fill="red" stroke="black" d="M10.86 82.30L12.97 73.05Q10.23 72.63 8.02 71.56Q5.80 70.49 4.25 68.87Q2.71 67.25 1.86 65.13Q1.02 63 1.02 60.47Q1.02 58.36 1.62 56.57Q2.21 54.77 3.27 53.49Q4.32 52.21 5.78 51.49Q7.24 50.77 9 50.77Q11.39 50.77 13.10 52.08Q14.80 53.40 15.19 55.51Q13.68 55.51 12.43 55.99Q11.18 56.46 10.30 57.30Q9.42 58.15 8.93 59.33Q8.44 60.50 8.44 61.91Q8.44 64.44 9.95 66.09Q11.46 67.75 14.10 68.17L18.95 46.79Q17.37 44.89 15.73 42.96Q14.10 41.03 12.78 39.01Q11.46 36.98 10.63 34.82Q9.81 32.66 9.81 30.23Q9.81 27.39 10.99 24.98Q12.16 22.57 14.27 20.81Q16.38 19.05 19.27 18.05Q22.15 17.05 25.56 17.05L25.70 17.05L27.35 9.88L31.04 9.88L29.32 17.40Q31.43 17.82 33.10 18.69Q34.77 19.55 35.95 20.79Q37.13 22.04 37.76 23.64Q38.39 25.24 38.39 27.14Q38.39 28.65 37.99 29.90Q37.58 31.15 36.86 32.04Q36.14 32.94 35.12 33.43Q34.10 33.93 32.91 33.93Q31.57 33.93 30.45 33.35Q29.32 32.77 28.51 31.68Q29.85 30.69 30.66 29.06Q31.46 27.42 31.46 25.56Q31.46 23.84 30.69 22.64Q29.92 21.45 28.51 20.92L24.50 38.50Q26.23 40.39 28.05 42.36Q29.88 44.33 31.39 46.51Q32.91 48.69 33.87 51.17Q34.84 53.65 34.84 56.60Q34.84 60.08 33.43 63.12Q32.03 66.16 29.55 68.41Q27.07 70.66 23.73 71.96Q20.39 73.27 16.52 73.30L14.48 82.30L10.86 82.30M25.14 59.27Q25.14 56.85 24.19 54.67Q23.24 52.49 21.76 50.38L17.72 68.10Q19.37 67.82 20.74 67.06Q22.11 66.30 23.08 65.16Q24.05 64.02 24.59 62.53Q25.14 61.03 25.14 59.27M19.02 27.81Q19.02 29.81 19.74 31.55Q20.46 33.29 21.66 34.98L24.89 20.67Q23.55 20.88 22.48 21.50Q21.41 22.11 20.64 23.04Q19.86 23.98 19.44 25.19Q19.02 26.40 19.02 27.81Z"/></svg>