<svg xmlns="http://www.w3.org/2000/svg" xmlns:xlink="http://www.w3.org/1999/xlink" width="52.69921875" height="90"><path fill="red" stroke="black" d="M16.07 17.05Q20.25 17.05 22.34 19.76Q24.43 22.46 24.43 27.81Q24.43 31.89 23.27 35.47Q22.11 39.06 20.11 41.75Q18.11 44.44 15.42 45.98Q12.73 47.53 9.67 47.53Q1.44 47.53 1.44 36.81Q1.44 32.66 2.57 29.06Q3.69 25.45 5.68 22.78Q7.66 20.11 10.34 18.58Q13.01 17.05 16.07 17.05M8.09 38.60Q8.09 41.70 8.70 43.14Q9.32 44.58 10.69 44.58Q12.09 44.58 13.39 43.03Q14.70 41.48 15.70 38.85Q16.70 36.21 17.28 32.73Q17.86 29.25 17.86 25.42Q17.86 22.54 17.35 21.30Q16.84 20.07 15.64 20.07Q14.24 20.07 12.88 21.69Q11.53 23.31 10.46 25.91Q9.39 28.51 8.74 31.85Q8.09 35.19 8.09 38.60M13.82 72L8.65 72L38.60 17.86L43.77 17.86L13.82 72M42.89 41.98Q47.07 41.98 49.17 44.67Q51.26 47.36 51.26 52.70Q51.26 56.78 50.10 60.36Q48.94 63.95 46.93 66.64Q44.93 69.33 42.24 70.88Q39.55 72.42 36.49 72.42Q28.27 72.42 28.27 61.70Q28.27 57.59 29.39 53.98Q30.52 50.38 32.50 47.71Q34.49 45.04 37.16 43.51Q39.83 41.98 42.89 41.98M34.91 63.49Q34.91 66.59 35.53 68.03Q36.14 69.47 37.51 69.47Q38.92 69.47 40.22 67.92Q41.52 66.38 42.52 63.74Q43.52 61.10 44.10 57.64Q44.68 54.18 44.68 50.34Q44.68 47.46 44.17 46.23Q43.66 45 42.47 45Q41.52 45 40.61 45.74Q39.69 46.48 38.85 47.76Q38.00 49.04 37.28 50.82Q36.56 52.59 36.04 54.65Q35.51 56.71 35.21 58.96Q34.91 61.21 34.91 63.49Z"/></svg>