<svg xmlns="http://www.w3.org/2000/svg" xmlns:xlink="http://www.w3.org/1999/xlink" width="49.11328125" height="90"><path fill="red" stroke="black" d="M40.85 52.38Q40.04 52.59 39.34 52.68Q38.64 52.77 37.93 52.80Q37.41 57.45 35.56 61.22Q33.71 65.00 30.81 67.69Q27.91 70.38 24.06 71.84Q20.21 73.30 15.68 73.30Q12.27 73.30 9.56 72.42Q6.86 71.54 4.96 69.87Q3.06 68.20 2.04 65.83Q1.02 63.46 1.02 60.47Q1.02 57.45 2.06 54.51Q3.09 51.57 4.90 49.10Q6.71 46.62 9.14 44.77Q11.57 42.93 14.34 42.12L14.34 41.84Q13.18 40.89 12.41 39.92Q11.64 38.95 11.14 37.86Q10.65 36.77 10.44 35.51Q10.23 34.24 10.23 32.70Q10.23 29.74 11.48 27.05Q12.73 24.36 14.87 22.32Q17.02 20.29 19.88 19.07Q22.75 17.86 25.98 17.86Q28.44 17.86 30.52 18.60Q32.59 19.34 34.08 20.67Q35.58 22.01 36.40 23.84Q37.23 25.66 37.23 27.81Q37.23 29.29 36.83 30.52Q36.42 31.75 35.70 32.63Q34.98 33.50 33.96 34.00Q32.94 34.49 31.75 34.49Q30.41 34.49 29.29 33.91Q28.16 33.33 27.35 32.27Q28.65 31.46 29.48 29.81Q30.30 28.16 30.30 26.30Q30.30 24.29 29.30 23.13Q28.30 21.97 26.58 21.97Q25.10 21.97 23.77 22.82Q22.43 23.66 21.41 25.10Q20.39 26.54 19.78 28.42Q19.16 30.30 19.16 32.34Q19.16 35.96 21.09 38.43Q23.03 40.89 26.44 41.77L26.44 42.05Q23.84 42.54 21.50 44.10Q19.16 45.67 17.38 47.94Q15.61 50.20 14.57 52.93Q13.54 55.65 13.54 58.46Q13.54 62.19 15.42 64.28Q17.30 66.38 20.60 66.38Q22.96 66.38 25.26 65.39Q27.56 64.41 29.48 62.61Q31.39 60.82 32.80 58.32Q34.21 55.83 34.73 52.80Q33.93 52.84 33.13 52.93Q32.34 53.02 31.43 53.26Q29.53 53.93 28.05 54.93Q26.58 55.93 25.77 57.13L25.59 57.16Q25.10 56.57 24.79 55.92Q24.47 55.27 24.26 54.60Q23.80 53.02 24.08 51.59Q24.36 50.17 25.19 48.99Q26.02 47.81 27.28 46.93Q28.55 46.05 30.02 45.56Q31.18 45.21 32.43 45.05Q33.68 44.89 34.91 44.79Q36.14 44.68 37.35 44.58Q38.57 44.47 39.66 44.23Q40.50 43.95 41.40 43.49Q42.29 43.03 43.08 42.47Q43.88 41.91 44.53 41.33Q45.18 40.75 45.56 40.18L45.74 40.18Q46.34 40.78 46.71 41.45Q47.07 42.12 47.29 42.82Q47.74 44.33 47.39 45.83Q47.04 47.32 46.13 48.60Q45.21 49.89 43.84 50.87Q42.47 51.86 40.85 52.38Z"/></svg>