<svg xmlns="http://www.w3.org/2000/svg" xmlns:xlink="http://www.w3.org/1999/xlink" width="31.46484375" height="90"><path fill="red" stroke="black" d="M38.29 19.93Q35.44 21.62 32.92 24.19Q30.41 26.75 28.27 30.04Q26.12 33.33 24.40 37.20Q22.68 41.06 21.48 45.35Q20.29 49.64 19.63 54.23Q18.98 58.82 18.98 63.49Q18.98 70.38 20.36 76.38Q21.73 82.37 24.40 86.98L22.01 89.05Q19.30 86.34 17.21 83.07Q15.12 79.80 13.69 76.15Q12.27 72.49 11.53 68.47Q10.79 64.44 10.79 60.19Q10.79 53.33 12.69 46.83Q14.59 40.32 18.05 34.68Q21.52 29.04 26.42 24.50Q31.32 19.97 37.34 17.05L38.29 19.93Z"/></svg>