<svg xmlns="http://www.w3.org/2000/svg" xmlns:xlink="http://www.w3.org/1999/xlink" width="29.7421875" height="90"><path fill="red" stroke="black" d="M-4.92 86.17Q-2.11 84.52 0.42 81.93Q2.95 79.35 5.10 76.08Q7.24 72.81 8.96 68.94Q10.69 65.07 11.88 60.79Q13.08 56.50 13.73 51.91Q14.38 47.32 14.38 42.61Q14.38 35.72 13.01 29.74Q11.64 23.77 8.96 19.16L11.36 17.05Q14.06 19.79 16.15 23.04Q18.25 26.30 19.67 29.97Q21.09 33.64 21.83 37.67Q22.57 41.70 22.57 45.95Q22.57 52.80 20.67 59.31Q18.77 65.81 15.31 71.46Q11.85 77.10 6.94 81.62Q2.04 86.13-3.97 89.05L-4.92 86.17Z"/></svg>