<svg xmlns="http://www.w3.org/2000/svg" xmlns:xlink="http://www.w3.org/1999/xlink" width="37.08984375" height="90"><path fill="red" stroke="black" d="M20.50 27.95Q22.61 25.35 24.31 24.24Q26.02 23.13 27.53 23.13Q29.18 23.13 30.16 24.28Q31.15 25.42 31.15 27.21Q31.15 27.46 31.11 27.70Q31.08 27.95 31.01 28.16L21.69 31.18Q24.33 31.68 26.02 32.24Q27.70 32.80 28.67 33.47Q29.64 34.14 29.99 34.89Q30.34 35.65 30.34 36.53Q30.34 37.13 30.23 37.63Q30.13 38.14 29.83 38.65Q29.53 39.16 29.02 39.71Q28.51 40.25 27.74 40.92L20.50 34.49Q21.02 36.46 21.36 38.06Q21.69 39.66 21.69 40.99Q21.69 45.53 17.82 45.53Q17.23 45.53 16.47 45.37Q15.71 45.21 14.80 44.93L16.59 34.49Q14.48 37.09 12.85 38.13Q11.21 39.16 9.74 39.16Q8.12 39.16 7.14 38.02Q6.15 36.88 6.15 35.09Q6.15 34.84 6.15 34.59Q6.15 34.35 6.22 34.14L15.36 31.18Q12.69 30.73 10.99 30.16Q9.28 29.60 8.31 28.95Q7.35 28.30 7.00 27.54Q6.64 26.79 6.64 25.95Q6.64 25.35 6.77 24.82Q6.89 24.29 7.21 23.78Q7.52 23.27 8.03 22.73Q8.54 22.18 9.32 21.55L16.59 27.95Q16.00 25.98 15.68 24.38Q15.36 22.78 15.36 21.48Q15.36 16.95 19.20 16.95Q19.83 16.95 20.60 17.09Q21.38 17.23 22.29 17.51L20.50 27.95Z"/></svg>