<svg xmlns="http://www.w3.org/2000/svg" xmlns:xlink="http://www.w3.org/1999/xlink" width="31.74609375" height="90"><path fill="red" stroke="black" d="M21.20 27.35Q21.20 24.19 19.93 22.50Q18.67 20.81 16.38 20.81Q15.19 20.81 14.17 21.27Q13.15 21.73 12.41 22.52Q11.67 23.31 11.25 24.38Q10.83 25.45 10.83 26.72Q10.83 28.55 11.76 30.13Q12.69 31.71 14.27 32.41L14.27 32.70Q12.97 33.89 11.55 34.51Q10.13 35.12 8.82 35.12Q7.66 35.12 6.70 34.68Q5.73 34.24 5.04 33.45Q4.36 32.66 3.99 31.55Q3.62 30.45 3.62 29.07Q3.62 26.51 4.76 24.31Q5.91 22.11 7.91 20.50Q9.91 18.88 12.64 17.96Q15.36 17.05 18.53 17.05Q21.45 17.05 23.77 17.74Q26.09 18.42 27.72 19.71Q29.36 20.99 30.22 22.83Q31.08 24.68 31.08 27Q31.08 29.32 30.27 31.22Q29.46 33.12 28.14 34.75Q26.82 36.39 25.14 37.86Q23.45 39.34 21.71 40.78Q19.97 42.22 18.28 43.73Q16.59 45.25 15.28 46.97Q13.96 48.69 13.15 50.75Q12.34 52.80 12.34 55.30L7.59 55.30Q7.59 52.63 8.17 50.48Q8.75 48.34 9.72 46.53Q10.69 44.72 11.90 43.19Q13.11 41.66 14.40 40.24Q15.68 38.81 16.89 37.42Q18.11 36.04 19.07 34.51Q20.04 32.98 20.62 31.22Q21.20 29.46 21.20 27.35M14.80 66.23Q14.80 67.43 14.36 68.47Q13.92 69.50 13.15 70.29Q12.38 71.09 11.34 71.54Q10.30 72 9.11 72Q7.91 72 6.87 71.54Q5.84 71.09 5.04 70.29Q4.25 69.50 3.80 68.47Q3.34 67.43 3.34 66.23Q3.34 65.04 3.80 64.00Q4.25 62.96 5.04 62.19Q5.84 61.42 6.87 60.98Q7.91 60.54 9.11 60.54Q10.30 60.54 11.34 60.98Q12.38 61.42 13.15 62.19Q13.92 62.96 14.36 64.00Q14.80 65.04 14.80 66.23Z"/></svg>