<svg xmlns="http://www.w3.org/2000/svg" xmlns:xlink="http://www.w3.org/1999/xlink" width="49.5703125" height="90"><path fill="red" stroke="black" d="M33.82 70.84Q33.82 72.35 33.03 73.56Q32.24 74.78 30.92 75.73Q29.60 76.68 27.88 77.34Q26.16 78.01 24.31 78.45Q22.46 78.89 20.60 79.10Q18.74 79.31 17.16 79.31Q13.50 79.31 10.27 78.42Q7.03 77.52 4.61 75.41Q2.18 73.30 0.76 69.79Q-0.67 66.27-0.67 61.03Q-0.67 56.57 0.39 52.38Q1.44 48.20 3.38 44.51Q5.31 40.82 8.03 37.78Q10.76 34.73 14.08 32.54Q17.40 30.34 21.23 29.13Q25.07 27.91 29.25 27.91Q33.05 27.91 36.25 28.95Q39.45 29.99 41.80 32.06Q44.16 34.14 45.47 37.23Q46.79 40.32 46.79 44.44Q46.79 47.18 46.20 49.78Q45.60 52.38 44.56 54.69Q43.52 56.99 42.06 58.92Q40.61 60.86 38.90 62.26Q37.20 63.67 35.26 64.44Q33.33 65.21 31.32 65.21Q28.93 65.21 27.47 64.07Q26.02 62.93 25.88 60.71Q23.94 63.25 21.92 64.58Q19.90 65.92 17.58 65.92Q14.84 65.92 13.31 64.05Q11.78 62.19 11.78 58.54Q11.78 56.43 12.30 54.25Q12.83 52.07 13.75 50.06Q14.66 48.06 15.93 46.30Q17.19 44.54 18.63 43.26Q20.07 41.98 21.67 41.22Q23.27 40.46 24.89 40.46Q26.02 40.46 26.84 40.90Q27.67 41.34 28.69 42.43L29.85 40.64L35.30 41.17L31.96 53.86Q31.57 55.34 31.27 56.60Q30.97 57.87 30.97 58.82Q30.97 59.20 31.03 59.61Q31.08 60.01 31.24 60.33Q31.39 60.64 31.68 60.86Q31.96 61.07 32.38 61.07Q33.43 61.07 34.82 59.73Q36.21 58.39 37.46 56.13Q38.71 53.86 39.57 50.87Q40.43 47.88 40.43 44.61Q40.43 38.99 37.69 36.07Q34.95 33.15 29.78 33.15Q26.65 33.15 23.64 34.21Q20.64 35.26 17.98 37.14Q15.33 39.02 13.10 41.61Q10.86 44.19 9.26 47.25Q7.66 50.31 6.77 53.70Q5.87 57.09 5.87 60.61Q5.87 64.02 6.61 66.46Q7.35 68.91 8.82 70.47Q10.30 72.04 12.50 72.77Q14.70 73.51 17.58 73.51Q19.76 73.51 21.85 73.07Q23.94 72.63 25.79 71.81Q27.63 70.98 29.18 69.79Q30.73 68.59 31.89 67.08Q32.70 67.46 33.26 68.38Q33.82 69.29 33.82 70.84M28.09 45.14Q27.67 44.75 27.30 44.60Q26.93 44.44 26.54 44.44Q25.21 44.44 23.84 45.76Q22.46 47.07 21.32 49.08Q20.18 51.08 19.46 53.46Q18.74 55.83 18.74 57.97Q18.74 59.55 19.20 60.28Q19.65 61.00 20.67 61.00Q21.20 61.00 21.74 60.82Q22.29 60.64 22.82 60.35Q23.34 60.05 23.77 59.64Q24.19 59.24 24.47 58.75L28.09 45.14Z"/></svg>