<svg xmlns="http://www.w3.org/2000/svg" xmlns:xlink="http://www.w3.org/1999/xlink" width="48.09375" height="90"><path fill="red" stroke="black" d="M28.16 72L33.68 45.88Q30.94 44.61 28.67 44.05Q26.40 43.49 24.05 43.28Q22.01 47.67 20.30 52.31Q18.60 56.95 17.35 61.33Q16.10 65.71 15.40 69.54Q14.70 73.37 14.70 76.18Q14.70 77.91 14.99 78.80Q15.29 79.70 15.68 80.19Q14.24 80.19 12.57 80.05Q10.90 79.91 9.44 79.19Q7.98 78.47 7.01 76.92Q6.05 75.38 6.05 72.56Q6.05 70.17 6.80 66.83Q7.56 63.49 8.96 59.64Q10.37 55.79 12.30 51.59Q14.24 47.39 16.63 43.28Q13.22 43.49 11.06 44.31Q8.89 45.14 8.19 47.00Q8.47 47.00 8.81 47.72Q9.14 48.45 9.14 49.25Q9.14 50.55 7.96 51.31Q6.79 52.07 5.10 52.07Q4.15 52.07 3.34 51.80Q2.53 51.54 1.93 51.03Q1.34 50.52 0.98 49.73Q0.63 48.94 0.63 47.88Q0.63 46.05 1.74 44.44Q2.85 42.82 4.82 41.63Q6.79 40.43 9.47 39.73Q12.16 39.02 15.33 39.02Q16.80 39.02 19.09 39.23Q21.83 34.91 24.89 31.06Q27.95 27.21 31.18 24.31Q34.42 21.41 37.69 19.71Q40.96 18 44.12 18Q45.39 18 46.95 18.21Q48.52 18.42 49.82 19.02L38.53 72L28.16 72M38.53 23.10Q36.91 23.98 35.24 25.61Q33.57 27.25 31.94 29.48Q30.30 31.71 28.69 34.44Q27.07 37.16 25.56 40.18Q27.74 40.61 29.99 41.22Q32.24 41.84 34.35 42.68L38.53 23.10Z"/></svg>9 63.04Q10.48 64.16 11.02 64.71Q11.57 65.25 12.20 65.36Q12.83 65.46 13.32 65.46Q14.13 65.46 15.03 65.06Q15.93 64.65 16.75 63.86Q17.58 63.07 18.26 61.88Q18.95 60.68 19.30 59.10L22.75 42.86Z"/></svg>