<svg xmlns="http://www.w3.org/2000/svg" xmlns:xlink="http://www.w3.org/1999/xlink" width="37.86328125" height="90"><path fill="red" stroke="black" d="M40.89 59.10Q39.87 62.02 38.67 64.16Q37.48 66.30 36.19 67.78Q34.91 69.26 33.57 70.17Q32.24 71.09 30.97 71.58Q29.71 72.07 28.55 72.25Q27.39 72.42 26.44 72.42Q23.38 72.42 21.57 70.75Q19.76 69.08 19.37 65.81Q18.49 67.04 17.44 68.22Q16.38 69.40 15.08 70.33Q13.78 71.26 12.18 71.84Q10.58 72.42 8.65 72.42Q6.79 72.42 5.06 71.82Q3.34 71.23 2.00 69.86Q0.67 68.48-0.14 66.27Q-0.95 64.05-0.95 60.86Q-0.95 58.39-0.46 55.58Q0.04 52.77 1.05 49.96Q2.07 47.14 3.60 44.56Q5.13 41.98 7.19 39.99Q9.25 38.00 11.85 36.83Q14.45 35.65 17.58 35.65Q20.64 35.65 22.03 36.70Q23.41 37.76 23.41 39.30L23.41 39.83L24.19 36L34.56 36L29.39 60.47Q29.21 61.07 29.14 61.65Q29.07 62.23 29.07 62.79Q29.07 65.88 32.03 65.88Q33.08 65.88 33.98 65.34Q34.88 64.79 35.61 63.88Q36.35 62.96 36.91 61.72Q37.48 60.47 37.86 59.10L40.89 59.10M22.75 42.86Q22.75 42.54 22.61 42.06Q22.46 41.59 22.13 41.15Q21.80 40.71 21.23 40.41Q20.67 40.11 19.79 40.11Q18.28 40.11 16.93 41.10Q15.57 42.08 14.45 43.72Q13.32 45.35 12.45 47.43Q11.57 49.50 10.95 51.70Q10.34 53.89 10.02 56.02Q9.70 58.15 9.70 59.84Q9.70 61.91 10.09 63.04Q10.48 64.16 11.02 64.71Q11.57 65.25 12.20 65.36Q12.83 65.46 13.32 65.46Q14.13 65.46 15.03 65.06Q15.93 64.65 16.75 63.86Q17.58 63.07 18.26 61.88Q18.95 60.68 19.30 59.10L22.75 42.86Z"/></svg>