<svg xmlns="http://www.w3.org/2000/svg" xmlns:xlink="http://www.w3.org/1999/xlink" width="46.16015625" height="90"><path fill="red" stroke="black" d="M7.21 72L16.98 26.19L27.63 24.79L24.26 40.75L24.68 40.75Q26.82 40.75 28.71 39.69Q30.59 38.64 31.99 36.95Q33.40 35.26 34.22 33.19Q35.05 31.11 35.05 29.07Q35.05 27.56 34.52 26.17Q34.00 24.79 32.87 23.70Q31.75 22.61 29.94 21.96Q28.13 21.30 25.56 21.30Q23.45 21.30 21.29 21.78Q19.13 22.25 17.14 23.22Q15.15 24.19 13.39 25.63Q11.64 27.07 10.35 29.02Q9.07 30.97 8.31 33.42Q7.56 35.86 7.56 38.81Q7.56 40.18 7.72 41.04Q7.88 41.91 8.07 42.42Q8.26 42.93 8.42 43.21Q8.58 43.49 8.58 43.70Q4.92 43.70 2.90 42.22Q0.88 40.75 0.88 37.09Q0.88 34.59 1.86 32.22Q2.85 29.85 4.62 27.72Q6.40 25.59 8.84 23.82Q11.29 22.04 14.19 20.74Q17.09 19.44 20.34 18.72Q23.59 18 27 18Q30.97 18 33.86 18.97Q36.74 19.93 38.62 21.52Q40.50 23.10 41.41 25.17Q42.33 27.25 42.33 29.46Q42.33 31.08 41.87 32.70Q41.41 34.31 40.50 35.79Q39.59 37.27 38.23 38.58Q36.88 39.90 35.12 40.89Q37.44 41.31 39.06 42.42Q40.68 43.52 41.70 45.09Q42.71 46.65 43.17 48.55Q43.63 50.45 43.63 52.49Q43.63 54.21 43.29 56.43Q42.96 58.64 42.22 60.94Q41.48 63.25 40.29 65.46Q39.09 67.68 37.34 69.40Q35.58 71.12 33.24 72.18Q30.90 73.23 27.88 73.23Q26.72 73.23 25.45 73.02Q24.19 72.81 23.15 72.21Q22.11 71.61 21.43 70.58Q20.74 69.54 20.74 67.89Q20.74 66.97 20.95 65.95Q21.16 64.93 21.66 63.70Q23.03 65.18 24.15 65.74Q25.28 66.30 26.51 66.30Q28.48 66.30 29.83 65.06Q31.18 63.81 32.03 61.89Q32.87 59.98 33.24 57.69Q33.61 55.41 33.61 53.37Q33.61 51.50 33.28 49.83Q32.94 48.16 32.15 46.92Q31.36 45.67 30.06 44.93Q28.76 44.19 26.79 44.19Q26.33 44.19 25.42 44.23Q24.50 44.26 23.48 44.44L17.58 72L7.21 72Z"/></svg>