<svg xmlns="http://www.w3.org/2000/svg" xmlns:xlink="http://www.w3.org/1999/xlink" width="31.95703125" height="90"><path fill="red" stroke="black" d="M7.70 23.03L18.35 21.59L14.91 37.79Q16.00 37.13 16.86 36.72Q17.72 36.32 18.42 36.11Q19.13 35.89 19.71 35.84Q20.29 35.79 20.81 35.79Q22.71 35.79 24.28 36.42Q25.84 37.05 26.96 38.51Q28.09 39.97 28.71 42.33Q29.32 44.68 29.32 48.09Q29.32 50.20 28.92 52.82Q28.51 55.44 27.60 58.15Q26.68 60.86 25.17 63.42Q23.66 65.99 21.48 67.99Q19.30 70.00 16.35 71.21Q13.39 72.42 9.56 72.42Q4.57 72.42 2.04 70.00Q-0.49 67.57-0.49 63.21Q-0.49 62.19-0.39 61.15Q-0.28 60.12 0 59.10L7.70 23.03M10.02 60.47Q9.81 61.38 9.81 62.12Q9.81 65.46 13.61 65.46Q14.77 65.46 15.86 64.67Q16.95 63.88 17.88 62.56Q18.81 61.24 19.58 59.47Q20.36 57.69 20.90 55.74Q21.45 53.79 21.74 51.75Q22.04 49.71 22.04 47.81Q22.04 46.51 21.81 45.26Q21.59 44.02 21.11 43.03Q20.64 42.05 19.92 41.47Q19.20 40.89 18.21 40.89Q17.82 40.89 17.23 40.94Q16.63 40.99 16.00 41.15Q15.36 41.31 14.82 41.55Q14.27 41.80 13.96 42.19L10.02 60.47Z"/></svg>