<svg xmlns="http://www.w3.org/2000/svg" xmlns:xlink="http://www.w3.org/1999/xlink" width="27.6328125" height="90"><path fill="red" stroke="black" d="M30.09 59.10Q28.58 61.63 26.63 64.02Q24.68 66.41 22.24 68.27Q19.79 70.14 16.82 71.28Q13.85 72.42 10.30 72.42Q7.73 72.42 5.66 71.77Q3.59 71.12 2.11 69.75Q0.63 68.38-0.16 66.22Q-0.95 64.05-0.95 61.00Q-0.95 58.92-0.53 56.20Q-0.11 53.47 0.83 50.63Q1.76 47.78 3.25 45.04Q4.75 42.29 6.91 40.15Q9.07 38.00 11.92 36.69Q14.77 35.37 18.42 35.37Q20.81 35.37 22.36 35.95Q23.91 36.53 24.82 37.46Q25.73 38.39 26.09 39.59Q26.44 40.78 26.44 41.98Q26.44 43.31 26.14 44.28Q25.84 45.25 25.31 45.91Q24.79 46.58 24.08 46.90Q23.38 47.21 22.61 47.21Q21.38 47.21 20.07 46.37Q20.95 44.05 20.95 42.12Q20.95 40.78 20.46 39.97Q19.97 39.16 18.95 39.16Q17.82 39.16 16.70 40.18Q15.57 41.20 14.54 42.89Q13.50 44.58 12.62 46.76Q11.74 48.94 11.09 51.29Q10.44 53.65 10.07 55.99Q9.70 58.32 9.70 60.33Q9.70 62.16 10.04 63.33Q10.37 64.51 11.02 65.18Q11.67 65.85 12.64 66.11Q13.61 66.38 14.91 66.38Q17.05 66.38 18.79 65.81Q20.53 65.25 22.04 64.27Q23.55 63.28 24.91 61.95Q26.26 60.61 27.63 59.10L30.09 59.10Z"/></svg>