<svg xmlns="http://www.w3.org/2000/svg" xmlns:xlink="http://www.w3.org/1999/xlink" width="35.7890625" height="90"><path fill="red" stroke="black" d="M37.65 59.77Q36.21 63.39 33.75 65.94Q31.29 68.48 28.42 70.08Q25.56 71.68 22.59 72.42Q19.62 73.16 17.12 73.16Q13.11 73.16 10.16 72.21Q7.21 71.26 5.26 69.15Q3.30 67.04 2.34 63.67Q1.37 60.29 1.37 55.44Q1.37 52.98 1.67 50.08Q1.97 47.18 2.64 44.09Q3.30 40.99 4.34 37.86Q5.38 34.73 6.86 31.83Q8.33 28.93 10.27 26.40Q12.20 23.87 14.63 22.01Q17.05 20.14 20.00 19.07Q22.96 18 26.51 18Q29.00 18 31.20 18.54Q33.40 19.09 35.03 20.25Q36.67 21.41 37.60 23.24Q38.53 25.07 38.53 27.63Q38.53 29.07 38.27 30.29Q38.00 31.50 37.39 32.40Q36.77 33.29 35.81 33.79Q34.84 34.28 33.47 34.28Q32.63 34.28 31.52 33.96Q30.41 33.64 29.39 32.41Q30.02 32.10 30.62 31.41Q31.22 30.73 31.68 29.83Q32.13 28.93 32.41 27.88Q32.70 26.82 32.70 25.77Q32.70 24.93 32.47 24.12Q32.24 23.31 31.71 22.71Q31.18 22.11 30.34 21.74Q29.50 21.38 28.30 21.38Q26.30 21.38 24.42 22.85Q22.54 24.33 20.87 26.84Q19.20 29.36 17.81 32.70Q16.42 36.04 15.43 39.76Q14.45 43.49 13.89 47.43Q13.32 51.36 13.32 55.02Q13.32 57.52 13.69 59.57Q14.06 61.63 15.03 63.11Q16.00 64.58 17.67 65.41Q19.34 66.23 21.97 66.23Q26.23 66.23 29.85 64.34Q33.47 62.44 36 59.03L37.65 59.77Z"/></svg>