<svg xmlns="http://www.w3.org/2000/svg" xmlns:xlink="http://www.w3.org/1999/xlink" width="47.7421875" height="90"><path fill="red" stroke="black" d="M6.79 72L16.56 26.19L27.21 24.79L18.56 65.14Q20.53 66.59 22.68 66.59Q24.82 66.59 26.68 65.25Q28.55 63.91 30.08 61.61Q31.61 59.31 32.80 56.21Q34.00 53.12 34.82 49.59Q35.65 46.05 36.07 42.31Q36.49 38.57 36.49 34.91Q36.49 31.25 35.74 28.67Q34.98 26.09 33.59 24.45Q32.20 22.82 30.27 22.06Q28.34 21.30 25.98 21.30Q21.97 21.30 18.53 22.50Q15.08 23.70 12.55 25.96Q10.02 28.23 8.58 31.46Q7.14 34.70 7.14 38.81Q7.14 40.18 7.29 41.04Q7.45 41.91 7.63 42.42Q7.80 42.93 7.96 43.21Q8.12 43.49 8.12 43.70Q4.50 43.70 2.46 42.19Q0.42 40.68 0.42 37.02Q0.42 34.56 1.39 32.19Q2.36 29.81 4.11 27.70Q5.87 25.59 8.33 23.82Q10.79 22.04 13.76 20.74Q16.73 19.44 20.14 18.72Q23.55 18 27.21 18Q30.69 18 33.47 18.77Q36.25 19.55 38.39 20.94Q40.54 22.32 42.06 24.24Q43.59 26.16 44.56 28.46Q45.53 30.76 45.98 33.38Q46.44 36 46.44 38.74Q46.44 42.86 45.70 47.00Q44.96 51.15 43.65 54.95Q42.33 58.75 40.48 62.03Q38.64 65.32 36.42 67.75Q34.21 70.17 31.69 71.56Q29.18 72.95 26.51 72.95Q24.40 72.95 22.22 72.04Q20.04 71.12 17.72 69.12L17.12 72L6.79 72Z"/></svg>0.95 51.70Q10.34 53.89 10.02 56.02Q9.70 58.15 9.70 59.84Q9.70 61.91 10.09 63.04Q10.48 64.16 11.02 64.71Q11.57 65.25 12.20 65.36Q12.83 65.46 13.32 65.46Q14.06 65.46 14.96 65.09Q15.86 64.72 16.68 63.98Q17.51 63.25 18.19 62.12Q18.88 61.00 19.23 59.48L19.23 59.10Z"/></svg>