<svg xmlns="http://www.w3.org/2000/svg" xmlns:xlink="http://www.w3.org/1999/xlink" width="37.79296875" height="90"><path fill="red" stroke="black" d="M40.82 59.10Q39.80 62.02 38.60 64.13Q37.41 66.23 36.12 67.66Q34.84 69.08 33.50 69.94Q32.17 70.80 30.90 71.26Q29.64 71.72 28.48 71.86Q27.32 72 26.37 72Q23.38 72 21.55 70.44Q19.72 68.87 19.30 65.81Q18.49 67.04 17.46 68.22Q16.42 69.40 15.10 70.33Q13.78 71.26 12.16 71.84Q10.55 72.42 8.65 72.42Q6.79 72.42 5.06 71.82Q3.34 71.23 2.00 69.86Q0.67 68.48-0.14 66.27Q-0.95 64.05-0.95 60.86Q-0.95 58.39-0.46 55.58Q0.04 52.77 1.05 49.96Q2.07 47.14 3.60 44.56Q5.13 41.98 7.19 39.99Q9.25 38.00 11.85 36.83Q14.45 35.65 17.58 35.65Q20.64 35.65 22.03 36.70Q23.41 37.76 23.41 39.30L23.41 39.59L26.93 23.03L37.58 21.59L29.32 60.47Q29.14 61.07 29.07 61.65Q29.00 62.23 29.00 62.79Q29.00 64.30 29.72 64.88Q30.45 65.46 31.96 65.46Q33.01 65.46 33.91 64.99Q34.80 64.51 35.53 63.67Q36.25 62.82 36.81 61.65Q37.37 60.47 37.79 59.10L40.82 59.10M19.23 59.10L22.75 42.61Q22.68 42.29 22.52 41.87Q22.36 41.45 22.04 41.04Q21.73 40.64 21.18 40.38Q20.64 40.11 19.79 40.11Q18.28 40.11 16.93 41.10Q15.57 42.08 14.45 43.72Q13.32 45.35 12.45 47.43Q11.57 49.50 10.95 51.70Q10.34 53.89 10.02 56.02Q9.70 58.15 9.70 59.84Q9.70 61.91 10.09 63.04Q10.48 64.16 11.02 64.71Q11.57 65.25 12.20 65.36Q12.83 65.46 13.32 65.46Q14.06 65.46 14.96 65.09Q15.86 64.72 16.68 63.98Q17.51 63.25 18.19 62.12Q18.88 61.00 19.23 59.48L19.23 59.10Z"/></svg>