<svg xmlns="http://www.w3.org/2000/svg" xmlns:xlink="http://www.w3.org/1999/xlink" width="33.046875" height="90"><path fill="red" stroke="black" d="M34.84 59.77Q33.40 62.93 31.17 65.43Q28.93 67.92 26.14 69.68Q23.34 71.44 20.18 72.37Q17.02 73.30 13.75 73.30Q10.27 73.30 7.75 72.26Q5.24 71.23 3.64 69.47Q2.04 67.71 1.27 65.43Q0.49 63.14 0.49 60.61Q0.49 57.76 1.41 54.81Q2.32 51.86 4.03 49.27Q5.73 46.69 8.21 44.74Q10.69 42.79 13.82 41.98Q11.50 40.29 10.46 38.02Q9.42 35.75 9.42 33.33Q9.42 30.55 10.60 27.79Q11.78 25.03 13.87 22.82Q15.96 20.60 18.86 19.23Q21.76 17.86 25.21 17.86Q27.35 17.86 29.23 18.44Q31.11 19.02 32.52 20.14Q33.93 21.27 34.72 22.96Q35.51 24.64 35.51 26.86Q35.51 28.48 35.09 29.85Q34.66 31.22 33.93 32.22Q33.19 33.22 32.22 33.79Q31.25 34.35 30.16 34.35Q28.20 34.35 26.79 32.41Q27.42 32.20 28.00 31.54Q28.58 30.87 29.02 29.99Q29.46 29.11 29.71 28.09Q29.95 27.07 29.95 26.12Q29.95 25.03 29.60 24.26Q29.25 23.48 28.71 23.01Q28.16 22.54 27.44 22.32Q26.72 22.11 25.98 22.11Q24.36 22.11 23.01 22.99Q21.66 23.87 20.69 25.29Q19.72 26.72 19.18 28.55Q18.63 30.38 18.63 32.27Q18.63 33.86 19.04 35.37Q19.44 36.88 20.32 38.16Q21.20 39.45 22.59 40.41Q23.98 41.38 25.91 41.91Q23.98 42.33 22.27 43.31Q20.57 44.30 19.14 45.65Q17.72 47.00 16.59 48.66Q15.47 50.31 14.68 52.08Q13.89 53.86 13.46 55.65Q13.04 57.45 13.04 59.10Q13.04 60.61 13.43 61.95Q13.82 63.28 14.63 64.27Q15.43 65.25 16.73 65.81Q18.04 66.38 19.86 66.38Q21.52 66.38 23.43 65.92Q25.35 65.46 27.18 64.53Q29.00 63.60 30.59 62.23Q32.17 60.86 33.19 59.03L34.84 59.77Z"/></svg>