<svg xmlns="http://www.w3.org/2000/svg" xmlns:xlink="http://www.w3.org/1999/xlink" width="27.6328125" height="90"><path fill="red" stroke="black" d="M30.09 59.10Q28.58 61.63 26.63 64.02Q24.68 66.41 22.24 68.27Q19.79 70.14 16.82 71.28Q13.85 72.42 10.30 72.42Q7.73 72.42 5.66 71.77Q3.59 71.12 2.11 69.75Q0.63 68.38-0.16 66.22Q-0.95 64.05-0.95 61.00Q-0.95 58.92-0.53 56.21Q-0.11 53.51 0.81 50.66Q1.72 47.81 3.23 45.07Q4.75 42.33 6.89 40.17Q9.04 38.00 11.92 36.69Q14.80 35.37 18.49 35.37Q20.92 35.37 22.45 35.95Q23.98 36.53 24.87 37.48Q25.77 38.43 26.10 39.67Q26.44 40.92 26.44 42.26Q26.44 45.39 25.07 48.08Q23.70 50.77 21.39 52.77Q19.09 54.77 16.10 56.00Q13.11 57.23 9.88 57.45Q9.81 58.25 9.76 58.97Q9.70 59.70 9.70 60.33Q9.70 62.16 10.04 63.33Q10.37 64.51 11.02 65.18Q11.67 65.85 12.64 66.11Q13.61 66.38 14.91 66.38Q17.05 66.38 18.79 65.81Q20.53 65.25 22.04 64.27Q23.55 63.28 24.91 61.95Q26.26 60.61 27.63 59.10L30.09 59.10M10.44 54Q12.48 53.86 14.38 52.84Q16.28 51.82 17.72 50.19Q19.16 48.55 20.02 46.46Q20.88 44.37 20.88 42.12Q20.88 40.78 20.50 39.97Q20.11 39.16 19.09 39.16Q17.72 39.16 16.40 40.48Q15.08 41.80 13.92 43.91Q12.76 46.02 11.87 48.67Q10.97 51.33 10.44 54Z"/></svg>