<svg xmlns="http://www.w3.org/2000/svg" xmlns:xlink="http://www.w3.org/1999/xlink" width="19.23046875" height="90"><path fill="red" stroke="black" d="M6.12 30.30Q6.89 26.44 8.38 24.05Q9.88 21.66 11.71 20.32Q13.54 18.98 15.50 18.53Q17.47 18.07 19.23 18.07Q20.85 18.07 22.38 18.63Q23.91 19.20 25.08 20.21Q26.26 21.23 26.98 22.66Q27.70 24.08 27.70 25.84Q27.70 27.53 27.49 28.79L24.12 28.79Q24.19 28.20 24.22 27.77Q24.26 27.35 24.26 26.86Q24.26 25.63 23.43 25.01Q22.61 24.40 21.52 24.40Q20.95 24.40 20.23 24.64Q19.51 24.89 18.79 25.54Q18.07 26.19 17.46 27.35Q16.84 28.51 16.49 30.30L15.26 36L20.53 36L20.00 38.88L14.70 38.88L6.40 77.77Q5.63 81.63 4.17 84.02Q2.71 86.41 0.93 87.75Q-0.84 89.09-2.78 89.54Q-4.71 90-6.47 90Q-8.09 90-9.62 89.44Q-11.14 88.88-12.34 87.86Q-13.54 86.84-14.26 85.41Q-14.98 83.99-14.98 82.23Q-14.98 79.73-14.01 78.03Q-13.04 76.32-11.36 75.11Q-9.67 73.90-7.42 73.05Q-5.17 72.21-2.60 71.44L6.12 30.30M-3.09 73.79Q-4.78 74.36-6.24 75.04Q-7.70 75.73-8.75 76.62Q-9.81 77.52-10.41 78.64Q-11.00 79.77-11.00 81.21Q-11.00 81.63-10.79 82.05Q-10.58 82.48-10.20 82.81Q-9.81 83.14-9.28 83.37Q-8.75 83.60-8.12 83.60Q-7.56 83.60-6.98 83.34Q-6.40 83.07-5.85 82.42Q-5.31 81.77-4.85 80.68Q-4.39 79.59-4.04 77.98L-3.09 73.79Z"/></svg>