<svg xmlns="http://www.w3.org/2000/svg" xmlns:xlink="http://www.w3.org/1999/xlink" width="33.046875" height="90"><path fill="red" stroke="black" d="M6.33 72L16.70 23.91Q14.63 23.98 12.90 24.70Q11.18 25.42 9.95 27.11Q8.72 28.79 8.03 31.64Q7.35 34.49 7.35 38.81Q7.35 40.18 7.51 41.04Q7.66 41.91 7.86 42.42Q8.05 42.93 8.21 43.21Q8.37 43.49 8.37 43.70Q6.50 43.70 5.06 43.33Q3.62 42.96 2.64 42.15Q1.65 41.34 1.14 40.01Q0.63 38.67 0.63 36.70Q0.63 33.12 1.97 29.74Q3.30 26.37 6.24 23.77Q9.18 21.16 13.85 19.58Q18.53 18 25.21 18Q26.30 18 27.65 18.14Q29.00 18.28 30.53 18.44Q32.06 18.60 33.75 18.74Q35.44 18.88 37.16 18.88Q38.85 18.88 40.48 18.69Q42.12 18.49 43.63 18Q43.28 19.13 42.94 20.44Q42.61 21.76 41.94 22.99Q41.27 24.22 40.08 25.22Q38.88 26.23 36.81 26.65Q34.24 26.65 31.75 26.26Q29.25 25.88 26.72 25.28L23.70 39.59L34.21 39.59L33.05 44.93L22.54 44.93L16.70 72L6.33 72Z"/></svg> 73.05Q-5.17 72.21-2.60 71.44L6.12 30.30M-3.09 73.79Q-4.78 74.36-6.24 75.04Q-7.70 75.73-8.75 76.62Q-9.81 77.52-10.41 78.64Q-11.00 79.77-11.00 81.21Q-11.00 81.63-10.79 82.05Q-10.58 82.48-10.20 82.81Q-9.81 83.14-9.28 83.37Q-8.75 83.60-8.12 83.60Q-7.56 83.60-6.98 83.34Q-6.40 83.07-5.85 82.42Q-5.31 81.77-4.85 80.68Q-4.39 79.59-4.04 77.98L-3.09 73.79Z"/></svg>