<svg xmlns="http://www.w3.org/2000/svg" xmlns:xlink="http://www.w3.org/1999/xlink" width="41.625" height="90"><path fill="red" stroke="black" d="M39.30 41.91L34.03 66.09Q32.87 71.47 31.25 75.39Q29.64 79.31 27.51 81.88Q25.38 84.45 22.68 85.68Q19.97 86.91 16.63 86.91Q13.99 86.91 11.85 86.20Q9.70 85.50 8.17 84.20Q6.64 82.90 5.80 81.09Q4.96 79.28 4.96 77.10Q4.96 74.99 5.71 73.18Q6.47 71.37 7.77 70.01Q9.07 68.66 10.85 67.89Q12.62 67.11 14.66 67.11Q17.44 67.11 19.11 68.45Q20.78 69.79 20.78 72.07Q20.78 73.76 20.00 74.81Q19.34 73.93 18.23 73.44Q17.12 72.95 15.89 72.95Q14.80 72.95 13.90 73.32Q13.01 73.69 12.36 74.37Q11.71 75.06 11.36 76.01Q11.00 76.96 11.00 78.12Q11.00 79.24 11.36 80.21Q11.71 81.18 12.32 81.86Q12.94 82.55 13.80 82.93Q14.66 83.32 15.68 83.32Q18.18 83.32 19.97 81.09Q21.76 78.86 22.75 74.46L26.33 58.54L26.05 58.54Q24.08 61.24 21.32 62.70Q18.56 64.16 15.26 64.16Q12.06 64.16 9.49 62.88Q6.93 61.59 5.12 59.22Q3.30 56.85 2.32 53.47Q1.34 50.10 1.34 45.95Q1.34 41.94 2.25 38.27Q3.16 34.59 4.85 31.43Q6.54 28.27 8.91 25.70Q11.29 23.13 14.22 21.30Q17.16 19.48 20.53 18.49Q23.91 17.51 27.63 17.51Q30.69 17.51 33.15 18.19Q35.61 18.88 37.34 20.16Q39.06 21.45 39.97 23.29Q40.89 25.14 40.89 27.42Q40.89 28.97 40.48 30.23Q40.08 31.50 39.36 32.40Q38.64 33.29 37.62 33.79Q36.60 34.28 35.40 34.28Q34.07 34.28 32.87 33.70Q31.68 33.12 30.87 32.03Q31.50 31.61 32.06 30.88Q32.63 30.16 33.05 29.27Q33.47 28.37 33.71 27.39Q33.96 26.40 33.96 25.42Q33.96 23.24 32.71 22.06Q31.46 20.88 29.14 20.88Q27 20.88 24.93 21.88Q22.85 22.89 21.01 24.64Q19.16 26.40 17.58 28.85Q16.00 31.29 14.85 34.15Q13.71 37.02 13.08 40.24Q12.45 43.45 12.45 46.79Q12.45 52.24 14.15 55.07Q15.86 57.90 19.13 57.90Q23.06 57.90 26.00 53.84Q28.93 49.78 30.80 41.84L39.30 41.91Z"/></svg>