<svg xmlns="http://www.w3.org/2000/svg" xmlns:xlink="http://www.w3.org/1999/xlink" width="36.4921875" height="90"><path fill="red" stroke="black" d="M25.70 77.77Q24.93 81.63 23.47 84.02Q22.01 86.41 20.21 87.75Q18.42 89.09 16.47 89.54Q14.52 90 12.73 90Q11.07 90 9.62 89.56Q8.16 89.12 7.07 88.26Q5.98 87.40 5.33 86.08Q4.68 84.76 4.68 83.00Q4.68 80.75 5.75 79.03Q6.82 77.31 8.51 76.03Q10.20 74.74 12.29 73.83Q14.38 72.91 16.42 72.28L17.30 68.48Q15.71 70.17 13.59 71.30Q11.46 72.42 8.65 72.42Q6.79 72.42 5.06 71.82Q3.34 71.23 2.00 69.86Q0.67 68.48-0.14 66.27Q-0.95 64.05-0.95 60.86Q-0.95 58.39-0.46 55.58Q0.04 52.77 1.05 49.96Q2.07 47.14 3.60 44.56Q5.13 41.98 7.19 39.99Q9.25 38.00 11.85 36.83Q14.45 35.65 17.58 35.65Q20.64 35.65 22.03 36.70Q23.41 37.76 23.41 39.30L23.41 39.73L24.19 36L34.56 36L27.42 69.40Q29.07 68.84 30.41 68.04Q31.75 67.25 32.85 66.04Q33.96 64.83 34.86 63.14Q35.75 61.45 36.49 59.10L39.52 59.10Q38.43 62.68 36.93 65.07Q35.44 67.46 33.75 68.99Q32.06 70.52 30.27 71.33Q28.48 72.14 26.79 72.56L25.70 77.77M22.75 42.79Q22.75 42.47 22.61 42.01Q22.46 41.55 22.13 41.13Q21.80 40.71 21.23 40.41Q20.67 40.11 19.79 40.11Q18.28 40.11 16.93 41.10Q15.57 42.08 14.45 43.72Q13.32 45.35 12.45 47.43Q11.57 49.50 10.95 51.70Q10.34 53.89 10.02 56.02Q9.70 58.15 9.70 59.84Q9.70 61.91 10.09 63.04Q10.48 64.16 11.02 64.71Q11.57 65.25 12.20 65.36Q12.83 65.46 13.32 65.46Q14.06 65.46 14.91 65.09Q15.75 64.72 16.58 64.02Q17.40 63.32 18.07 62.26Q18.74 61.21 19.09 59.84L22.75 42.79M15.68 75.90Q14.27 76.43 13.01 77.04Q11.74 77.66 10.78 78.40Q9.81 79.14 9.23 80.03Q8.65 80.93 8.65 82.02Q8.65 82.41 8.79 82.83Q8.93 83.25 9.23 83.60Q9.53 83.95 9.98 84.16Q10.44 84.38 11.07 84.38Q12.20 84.38 13.38 82.81Q14.55 81.25 15.26 77.98L15.68 75.90Z"/></svg>