<svg xmlns="http://www.w3.org/2000/svg" xmlns:xlink="http://www.w3.org/1999/xlink" width="47.8828125" height="90"><path fill="red" stroke="black" d="M28.16 72L33.93 44.93L23.34 44.93L17.58 72L7.21 72L17.65 23.03Q12.87 25.03 10.21 29.02Q7.56 33.01 7.56 38.81Q7.56 40.18 7.72 41.04Q7.88 41.91 8.07 42.42Q8.26 42.93 8.42 43.21Q8.58 43.49 8.58 43.70Q6.71 43.70 5.27 43.33Q3.83 42.96 2.85 42.15Q1.86 41.34 1.37 40.01Q0.88 38.67 0.88 36.70Q0.88 34.31 1.92 31.99Q2.95 29.67 4.75 27.60Q6.54 25.52 8.98 23.77Q11.43 22.01 14.24 20.72Q17.05 19.44 20.07 18.72Q23.10 18 26.12 18Q26.93 18 27.62 18.04Q28.30 18.07 29.00 18.14L24.40 39.59L34.98 39.59L39.59 18.14L49.96 18.14L38.53 72L28.16 72Z"/></svg>6Q22.04 35.72 22.89 35.72Q24.61 35.72 26.09 36.18Q27.56 36.63 28.63 37.62Q29.71 38.60 30.30 40.15Q30.90 41.70 30.90 43.84Q30.90 45.28 30.64 46.95Q30.38 48.62 29.99 50.36Q29.60 52.10 29.16 53.82Q28.72 55.55 28.34 57.13Q27.95 58.71 27.69 60.06Q27.42 61.42 27.42 62.44Q27.42 63.77 28.04 64.62Q28.65 65.46 30.30 65.46Q31.46 65.46 32.34 65.00Q33.22 64.55 33.93 63.70Q34.63 62.86 35.21 61.68Q35.79 60.50 36.35 59.10L39.38 59.10Z"/></svg>