<svg xmlns="http://www.w3.org/2000/svg" xmlns:xlink="http://www.w3.org/1999/xlink" width="36.3515625" height="90"><path fill="red" stroke="black" d="M39.38 59.10Q37.86 63.53 36.12 66.16Q34.38 68.80 32.61 70.19Q30.83 71.58 29.13 72Q27.42 72.42 25.98 72.42Q23.59 72.42 21.97 71.74Q20.36 71.05 19.37 69.91Q18.39 68.77 17.95 67.31Q17.51 65.85 17.51 64.30Q17.51 62.47 18.02 60.03Q18.53 57.59 19.13 55.02Q19.72 52.45 20.23 50.06Q20.74 47.67 20.74 45.95Q20.74 42.26 18.14 42.26Q17.16 42.26 16.31 42.79Q15.47 43.31 14.77 44.21Q14.06 45.11 13.50 46.32Q12.94 47.53 12.52 48.90L7.63 72L-2.74 72L7.70 23.03L18.35 21.59L14.48 39.73Q15.64 38.43 16.79 37.63Q17.93 36.84 19.02 36.42Q20.11 36 21.08 35.86Q22.04 35.72 22.89 35.72Q24.61 35.72 26.09 36.18Q27.56 36.63 28.63 37.62Q29.71 38.60 30.30 40.15Q30.90 41.70 30.90 43.84Q30.90 45.28 30.64 46.95Q30.38 48.62 29.99 50.36Q29.60 52.10 29.16 53.82Q28.72 55.55 28.34 57.13Q27.95 58.71 27.69 60.06Q27.42 61.42 27.42 62.44Q27.42 63.77 28.04 64.62Q28.65 65.46 30.30 65.46Q31.46 65.46 32.34 65.00Q33.22 64.55 33.93 63.70Q34.63 62.86 35.21 61.68Q35.79 60.50 36.35 59.10L39.38 59.10Z"/></svg>