<svg xmlns="http://www.w3.org/2000/svg" xmlns:xlink="http://www.w3.org/1999/xlink" width="27" height="90"><path fill="red" stroke="black" d="M6.79 72L17.19 23.10Q12.41 25.07 9.77 29.00Q7.14 32.94 7.14 38.81Q7.14 40.18 7.29 41.04Q7.45 41.91 7.63 42.42Q7.80 42.93 7.96 43.21Q8.12 43.49 8.12 43.70Q6.26 43.70 4.82 43.33Q3.38 42.96 2.41 42.15Q1.44 41.34 0.93 40.01Q0.42 38.67 0.42 36.70Q0.42 34.31 1.46 31.99Q2.50 29.67 4.31 27.60Q6.12 25.52 8.56 23.77Q11.00 22.01 13.80 20.72Q16.59 19.44 19.63 18.72Q22.68 18 25.70 18Q26.51 18 27.19 18.04Q27.88 18.07 28.58 18.14L17.12 72L6.79 72Z"/></svg>8 67.78Q16.03 69.26 14.61 70.17Q13.18 71.09 11.85 71.58Q10.51 72.07 9.30 72.25Q8.09 72.42 7.14 72.42Q5.52 72.42 4.11 71.93Q2.71 71.44 1.67 70.38Q0.63 69.33 0.04 67.71Q-0.56 66.09-0.56 63.81Q-0.56 62.82-0.42 61.65Q-0.28 60.47 0 59.10L4.89 36L15.26 36L10.09 60.47Q9.91 61.07 9.86 61.65Q9.81 62.23 9.81 62.79Q9.81 64.30 10.51 64.88Q11.21 65.46 12.73 65.46Q13.78 65.46 14.78 64.99Q15.79 64.51 16.63 63.67Q17.47 62.82 18.14 61.65Q18.81 60.47 19.23 59.10L22.25 59.10Z"/></svg>