<svg xmlns="http://www.w3.org/2000/svg" xmlns:xlink="http://www.w3.org/1999/xlink" width="38.6015625" height="90"><path fill="red" stroke="black" d="M30.30 23.03Q25.56 25.00 22.85 28.99Q20.14 32.98 20.14 38.81Q20.14 40.18 20.30 41.04Q20.46 41.91 20.65 42.42Q20.85 42.93 21.01 43.21Q21.16 43.49 21.16 43.70Q19.30 43.70 17.86 43.33Q16.42 42.96 15.45 42.15Q14.48 41.34 13.97 40.01Q13.46 38.67 13.46 36.70Q13.46 34.31 14.50 31.99Q15.54 29.67 17.35 27.60Q19.16 25.52 21.60 23.77Q24.05 22.01 26.84 20.72Q29.64 19.44 32.68 18.72Q35.72 18 38.74 18L41.63 18L30.83 69.12Q29.95 73.23 28.55 76.54Q27.14 79.84 24.91 82.14Q22.68 84.45 19.49 85.68Q16.31 86.91 11.88 86.91Q9.28 86.91 7.29 86.17Q5.31 85.43 3.96 84.09Q2.60 82.76 1.92 80.89Q1.23 79.03 1.23 76.75Q1.23 74.92 1.81 73.18Q2.39 71.44 3.50 70.10Q4.61 68.77 6.24 67.94Q7.88 67.11 10.02 67.11Q11.11 67.11 12.34 67.22Q13.57 67.32 14.63 67.80Q15.68 68.27 16.37 69.24Q17.05 70.21 17.05 71.93Q17.05 73.20 16.63 74.81Q15.96 74.25 15.40 73.88Q14.84 73.51 14.33 73.30Q13.82 73.09 13.32 73.02Q12.83 72.95 12.30 72.95Q11.04 72.95 10.09 73.41Q9.14 73.86 8.53 74.60Q7.91 75.34 7.59 76.31Q7.28 77.27 7.28 78.26Q7.28 79.66 7.75 80.63Q8.23 81.60 8.95 82.20Q9.67 82.79 10.53 83.06Q11.39 83.32 12.16 83.32Q13.36 83.32 14.34 82.99Q15.33 82.65 16.15 81.70Q16.98 80.75 17.68 79.01Q18.39 77.27 19.02 74.46L30.30 23.03Z"/></svg>