<svg xmlns="http://www.w3.org/2000/svg" xmlns:xlink="http://www.w3.org/1999/xlink" width="17.296875" height="90"><path fill="red" stroke="black" d="M6.47 77.77Q5.70 81.63 4.24 84.02Q2.78 86.41 1.00 87.75Q-0.77 89.09-2.72 89.54Q-4.68 90-6.47 90Q-8.12 90-9.58 89.56Q-11.04 89.12-12.15 88.26Q-13.25 87.40-13.90 86.08Q-14.55 84.76-14.55 83.00Q-14.55 80.75-13.48 79.05Q-12.41 77.34-10.71 76.04Q-9 74.74-6.89 73.83Q-4.78 72.91-2.74 72.28L4.96 36L15.33 36L8.19 69.40Q9.84 68.84 11.18 68.04Q12.52 67.25 13.62 66.04Q14.73 64.83 15.63 63.14Q16.52 61.45 17.30 59.10L20.32 59.10Q19.23 62.68 17.74 65.07Q16.24 67.46 14.54 68.99Q12.83 70.52 11.04 71.33Q9.25 72.14 7.56 72.56L6.47 77.77M17.19 26.37Q17.19 27.56 16.73 28.60Q16.28 29.64 15.50 30.39Q14.73 31.15 13.69 31.59Q12.66 32.03 11.46 32.03Q10.27 32.03 9.23 31.59Q8.19 31.15 7.42 30.39Q6.64 29.64 6.21 28.60Q5.77 27.56 5.77 26.37Q5.77 25.17 6.21 24.12Q6.64 23.06 7.42 22.29Q8.19 21.52 9.23 21.06Q10.27 20.60 11.46 20.60Q12.66 20.60 13.69 21.06Q14.73 21.52 15.50 22.29Q16.28 23.06 16.73 24.12Q17.19 25.17 17.19 26.37M-3.52 75.90Q-4.92 76.43-6.21 77.04Q-7.49 77.66-8.46 78.40Q-9.42 79.14-10.00 80.03Q-10.58 80.93-10.58 82.02Q-10.58 82.41-10.44 82.83Q-10.30 83.25-9.98 83.60Q-9.67 83.95-9.21 84.16Q-8.75 84.38-8.12 84.38Q-7.00 84.38-5.84 82.81Q-4.68 81.25-3.97 77.98L-3.52 75.90Z"/></svg>