<svg xmlns="http://www.w3.org/2000/svg" xmlns:xlink="http://www.w3.org/1999/xlink" width="43.27734375" height="90"><path fill="red" stroke="black" d="M6.79 72L17.19 23.03Q12.41 25.03 9.77 29.02Q7.14 33.01 7.14 38.81Q7.14 40.18 7.29 41.04Q7.45 41.91 7.63 42.42Q7.80 42.93 7.96 43.21Q8.12 43.49 8.12 43.70Q6.26 43.70 4.82 43.33Q3.38 42.96 2.41 42.15Q1.44 41.34 0.93 40.01Q0.42 38.67 0.42 36.70Q0.42 34.31 1.46 31.99Q2.50 29.67 4.31 27.60Q6.12 25.52 8.56 23.77Q11.00 22.01 13.80 20.72Q16.59 19.44 19.63 18.72Q22.68 18 25.70 18Q26.51 18 27.19 18.04Q27.88 18.07 28.58 18.14L23.91 40.18Q24.79 39.02 25.93 37.48Q27.07 35.93 28.39 34.17Q29.71 32.41 31.10 30.57Q32.48 28.72 33.79 26.95Q35.09 25.17 36.26 23.61Q37.44 22.04 38.32 20.87Q39.20 19.69 39.73 19.02Q40.25 18.35 40.25 18.35L47.81 18.35L27.81 41.41Q28.51 41.41 29.11 41.38Q29.71 41.34 30.30 41.34Q32.94 41.34 34.66 41.92Q36.39 42.50 37.41 43.54Q38.43 44.58 38.83 45.98Q39.23 47.39 39.23 49.04Q39.23 51.29 38.69 53.77Q38.14 56.25 37.48 58.68Q36.81 61.10 36.26 63.32Q35.72 65.53 35.72 67.25Q35.72 68.94 36.47 70.22Q37.23 71.51 38.53 72Q36.21 72.67 34.45 72.95Q32.70 73.23 31.39 73.23Q29.64 73.23 28.55 72.79Q27.46 72.35 26.84 71.67Q26.23 70.98 26.00 70.12Q25.77 69.26 25.77 68.41Q25.77 66.59 26.37 64.18Q26.96 61.77 27.69 59.19Q28.41 56.60 29.00 54.07Q29.60 51.54 29.60 49.46Q29.60 48.38 29.37 47.48Q29.14 46.58 28.65 45.93Q28.16 45.28 27.32 44.93Q26.47 44.58 25.28 44.58Q24.79 44.58 24.17 44.63Q23.55 44.68 22.89 44.86L17.12 72L6.79 72Z"/></svg>