<svg xmlns="http://www.w3.org/2000/svg" xmlns:xlink="http://www.w3.org/1999/xlink" width="37.30078125" height="90"><path fill="red" stroke="black" d="M40.32 59.10Q38.81 63.63 37.00 66.29Q35.19 68.94 33.40 70.29Q31.61 71.65 29.94 72.04Q28.27 72.42 27.07 72.42Q22.57 72.42 20.29 70.29Q18 68.17 18 64.23Q18 62.54 18.42 60.47L19.02 57.66Q19.20 56.95 19.25 56.29Q19.30 55.62 19.30 55.02Q19.30 53.44 18.74 52.49Q18.18 51.54 16.70 51.54Q15.47 51.54 14.19 52.26Q12.90 52.98 11.39 54.21L7.63 72L-2.74 72L7.70 23.03L18.35 21.59L12.97 46.93L26.86 36L34.00 36L19.58 46.02Q20.78 45.70 21.97 45.70Q23.98 45.70 25.47 46.37Q26.96 47.04 27.95 48.20Q28.93 49.36 29.41 50.89Q29.88 52.42 29.88 54.14Q29.88 54.81 29.83 55.49Q29.78 56.18 29.60 56.88L28.79 60.47Q28.62 61.07 28.53 61.63Q28.44 62.19 28.44 62.79Q28.44 63.88 29.00 64.67Q29.57 65.46 31.25 65.46Q32.41 65.46 33.29 65.00Q34.17 64.55 34.88 63.70Q35.58 62.86 36.16 61.68Q36.74 60.50 37.30 59.10L40.32 59.10Z"/></svg>