<svg xmlns="http://www.w3.org/2000/svg" xmlns:xlink="http://www.w3.org/1999/xlink" width="27.28125" height="90"><path fill="red" stroke="black" d="M17.19 23.84Q12.41 25.80 9.77 29.72Q7.14 33.64 7.14 39.52Q7.14 40.89 7.29 41.75Q7.45 42.61 7.63 43.14Q7.80 43.66 7.96 43.95Q8.12 44.23 8.12 44.44Q6.26 44.44 4.82 44.07Q3.38 43.70 2.41 42.87Q1.44 42.05 0.93 40.71Q0.42 39.38 0.42 37.44Q0.42 35.05 1.46 32.73Q2.50 30.41 4.31 28.34Q6.12 26.26 8.56 24.49Q11.00 22.71 13.80 21.43Q16.59 20.14 19.63 19.42Q22.68 18.70 25.70 18.70Q26.51 18.70 27.19 18.76Q27.88 18.81 28.58 18.88L17.51 70.56Q19.37 70.98 21.25 71.84Q23.13 72.70 25.07 73.74Q27 74.78 28.99 75.85Q30.97 76.92 33.03 77.82Q35.09 78.71 37.25 79.28Q39.41 79.84 41.70 79.84Q43.17 79.84 44.67 79.59Q46.16 79.35 47.74 78.68Q47.43 81.28 46.78 83.37Q46.13 85.46 45.18 86.94Q44.23 88.42 42.98 89.21Q41.73 90 40.25 90Q37.69 90 35.19 88.79Q32.70 87.57 30.18 85.76Q27.67 83.95 25.10 81.83Q22.54 79.70 19.83 77.89Q17.12 76.08 14.22 74.87Q11.32 73.65 8.12 73.65Q7.70 73.65 7.31 73.65Q6.93 73.65 6.47 73.72L17.19 23.84Z"/></svg>