<svg xmlns="http://www.w3.org/2000/svg" xmlns:xlink="http://www.w3.org/1999/xlink" width="54.140625" height="90"><path fill="red" stroke="black" d="M57.16 59.10Q55.65 63.53 53.91 66.16Q52.17 68.80 50.40 70.19Q48.62 71.58 46.92 72Q45.21 72.42 43.77 72.42Q41.38 72.42 39.76 71.74Q38.14 71.05 37.16 69.91Q36.18 68.77 35.74 67.31Q35.30 65.85 35.30 64.30Q35.30 62.47 35.81 60.03Q36.32 57.59 36.91 55.02Q37.51 52.45 38.02 50.06Q38.53 47.67 38.53 45.95Q38.53 42.26 35.93 42.26Q34.95 42.26 34.10 42.79Q33.26 43.31 32.55 44.21Q31.85 45.11 31.29 46.32Q30.73 47.53 30.30 48.90L25.42 72L15.05 72L20.32 47.14Q20.53 46.30 20.53 45.35Q20.53 44.72 20.43 44.16Q20.32 43.59 20.06 43.15Q19.79 42.71 19.39 42.45Q18.98 42.19 18.35 42.19Q17.30 42.19 16.40 42.71Q15.50 43.24 14.78 44.16Q14.06 45.07 13.50 46.30Q12.94 47.53 12.52 48.90L7.63 72L-2.74 72L4.89 36L15.26 36L14.48 39.73Q15.64 38.43 16.80 37.63Q17.96 36.84 19.09 36.40Q20.21 35.96 21.27 35.81Q22.32 35.65 23.27 35.65Q24.68 35.65 25.91 35.98Q27.14 36.32 28.09 37.05Q29.04 37.79 29.71 38.97Q30.38 40.15 30.66 41.84Q31.96 39.83 33.33 38.62Q34.70 37.41 36 36.77Q37.30 36.14 38.50 35.93Q39.69 35.72 40.68 35.72Q42.40 35.72 43.86 36.18Q45.32 36.63 46.39 37.62Q47.46 38.60 48.06 40.15Q48.66 41.70 48.66 43.84Q48.66 45.28 48.39 46.95Q48.13 48.62 47.76 50.36Q47.39 52.10 46.93 53.82Q46.48 55.55 46.11 57.13Q45.74 58.71 45.47 60.06Q45.21 61.42 45.21 62.44Q45.21 63.77 45.83 64.62Q46.44 65.46 48.09 65.46Q49.25 65.46 50.13 65.00Q51.01 64.55 51.71 63.70Q52.42 62.86 53.00 61.68Q53.58 60.50 54.14 59.10L57.16 59.10Z"/></svg>