<svg xmlns="http://www.w3.org/2000/svg" xmlns:xlink="http://www.w3.org/1999/xlink" width="56.671875" height="90"><path fill="red" stroke="black" d="M39.97 72L44.58 39.66L31.04 72L21.16 72L22.61 39.52L10.58 72L4.82 72L23.10 22.54Q17.72 24.33 14.70 28.42Q11.67 32.52 11.67 38.74Q11.67 40.18 11.83 41.04Q11.99 41.91 12.16 42.42Q12.34 42.93 12.50 43.19Q12.66 43.45 12.66 43.70Q10.90 43.70 9.47 43.35Q8.05 43.00 7.05 42.22Q6.05 41.45 5.50 40.20Q4.96 38.95 4.96 37.16Q4.96 34.88 5.89 32.55Q6.82 30.23 8.46 28.11Q10.09 25.98 12.30 24.13Q14.52 22.29 17.07 20.92Q19.62 19.55 22.38 18.77Q25.14 18 27.88 18Q30.59 18 33.33 19.02L31.68 56.95L47.53 19.02L57.90 19.02L50.34 72L39.97 72Z"/></svg>19.39 42.45Q18.98 42.19 18.35 42.19Q17.30 42.19 16.40 42.71Q15.50 43.24 14.78 44.16Q14.06 45.07 13.50 46.30Q12.94 47.53 12.52 48.90L7.63 72L-2.74 72L4.89 36L15.26 36L14.48 39.73Q15.64 38.43 16.80 37.63Q17.96 36.84 19.09 36.40Q20.21 35.96 21.27 35.81Q22.32 35.65 23.27 35.65Q24.68 35.65 25.91 35.98Q27.14 36.32 28.09 37.05Q29.04 37.79 29.71 38.97Q30.38 40.15 30.66 41.84Q31.96 39.83 33.33 38.62Q34.70 37.41 36 36.77Q37.30 36.14 38.50 35.93Q39.69 35.72 40.68 35.72Q42.40 35.72 43.86 36.18Q45.32 36.63 46.39 37.62Q47.46 38.60 48.06 40.15Q48.66 41.70 48.66 43.84Q48.66 45.28 48.39 46.95Q48.13 48.62 47.76 50.36Q47.39 52.10 46.93 53.82Q46.48 55.55 46.11 57.13Q45.74 58.71 45.47 60.06Q45.21 61.42 45.21 62.44Q45.21 63.77 45.83 64.62Q46.44 65.46 48.09 65.46Q49.25 65.46 50.13 65.00Q51.01 64.55 51.71 63.70Q52.42 62.86 53.00 61.68Q53.58 60.50 54.14 59.10L57.16 59.10Z"/></svg>