<svg xmlns="http://www.w3.org/2000/svg" xmlns:xlink="http://www.w3.org/1999/xlink" width="48.09375" height="90"><path fill="red" stroke="black" d="M51.71 18.14L39.97 72L30.02 72L21.69 36.28L13.46 72L6.64 72L17.47 22.68Q12.48 24.43 9.98 28.13Q7.49 31.82 7.49 37.09Q7.49 39.41 8.00 41.33Q8.51 43.24 9.42 44.44Q4.82 44.44 2.62 42.56Q0.42 40.68 0.42 36.63Q0.42 34.07 1.21 31.68Q2.00 29.29 3.43 27.18Q4.85 25.07 6.86 23.33Q8.86 21.59 11.29 20.34Q13.71 19.09 16.49 18.40Q19.27 17.72 22.29 17.72Q23.98 17.72 25.22 17.95Q26.47 18.18 27.98 18.70L36.67 57.23L44.72 18.14L51.71 18.14Z"/></svg>2L4.89 36L15.26 36L14.48 39.73Q15.64 38.43 16.79 37.63Q17.93 36.84 19.02 36.42Q20.11 36 21.08 35.86Q22.04 35.72 22.89 35.72Q24.61 35.72 26.09 36.18Q27.56 36.63 28.63 37.62Q29.71 38.60 30.30 40.15Q30.90 41.70 30.90 43.84Q30.90 45.28 30.64 46.95Q30.38 48.62 29.99 50.36Q29.60 52.10 29.16 53.82Q28.72 55.55 28.34 57.13Q27.95 58.71 27.69 60.06Q27.42 61.42 27.42 62.44Q27.42 63.77 28.04 64.62Q28.65 65.46 30.30 65.46Q31.46 65.46 32.34 65.00Q33.22 64.55 33.93 63.70Q34.63 62.86 35.21 61.68Q35.79 60.50 36.35 59.10L39.38 59.10Z"/></svg>