<svg xmlns="http://www.w3.org/2000/svg" xmlns:xlink="http://www.w3.org/1999/xlink" width="47.8828125" height="90"><path fill="red" stroke="black" d="M31.04 24.79Q29.39 25.77 27.83 27.86Q26.26 29.95 24.86 32.75Q23.45 35.54 22.27 38.83Q21.09 42.12 20.23 45.51Q19.37 48.90 18.90 52.19Q18.42 55.48 18.42 58.25Q18.42 60.08 18.67 61.61Q18.91 63.14 19.41 64.25Q19.90 65.36 20.69 65.97Q21.48 66.59 22.61 66.59Q24.43 66.59 26.24 65.18Q28.05 63.77 29.74 61.35Q31.43 58.92 32.87 55.71Q34.31 52.49 35.37 48.85Q36.42 45.21 37.04 41.38Q37.65 37.55 37.65 33.93Q37.65 30.80 37.28 28.42Q36.91 26.05 35.89 24.47Q34.88 22.89 33.08 22.10Q31.29 21.30 28.44 21.30Q24.33 21.30 20.57 22.59Q16.80 23.87 13.94 26.28Q11.07 28.69 9.39 32.12Q7.70 35.54 7.70 39.83Q7.70 40.89 7.82 41.54Q7.95 42.19 8.07 42.59Q8.19 43.00 8.31 43.24Q8.44 43.49 8.44 43.70Q4.99 43.70 3.08 42.33Q1.16 40.96 1.16 37.65Q1.16 35.12 2.25 32.70Q3.34 30.27 5.31 28.07Q7.28 25.88 9.97 24.03Q12.66 22.18 15.89 20.85Q19.13 19.51 22.75 18.76Q26.37 18 30.16 18Q34.91 18 38.16 19.37Q41.41 20.74 43.42 23.19Q45.42 25.63 46.32 29.02Q47.21 32.41 47.21 36.42Q47.21 39.90 46.56 43.93Q45.91 47.95 44.53 51.94Q43.14 55.93 41.01 59.64Q38.88 63.35 35.93 66.18Q32.98 69.01 29.18 70.72Q25.38 72.42 20.67 72.42Q17.82 72.42 15.47 71.65Q13.11 70.88 11.39 69.15Q9.67 67.43 8.72 64.67Q7.77 61.91 7.77 57.97Q7.77 55.05 8.31 51.42Q8.86 47.78 9.95 44.03Q11.04 40.29 12.67 36.70Q14.31 33.12 16.47 30.34Q18.63 27.56 21.34 25.88Q24.05 24.19 27.28 24.19Q28.20 24.19 29.11 24.29Q30.02 24.40 31.04 24.79Z"/></svg>