<svg xmlns="http://www.w3.org/2000/svg" xmlns:xlink="http://www.w3.org/1999/xlink" width="31.60546875" height="90"><path fill="red" stroke="black" d="M40.46 44.65Q38.36 46.86 35.02 48.41Q31.68 49.96 27.70 50.63Q27.28 55.62 25.79 59.63Q24.29 63.63 22.01 66.45Q19.72 69.26 16.77 70.77Q13.82 72.28 10.51 72.28Q8.02 72.28 5.89 71.67Q3.76 71.05 2.23 69.70Q0.70 68.34-0.16 66.18Q-1.02 64.02-1.02 60.93Q-1.02 58.82-0.58 56.13Q-0.14 53.44 0.83 50.59Q1.79 47.74 3.32 45.02Q4.85 42.29 7.05 40.15Q9.25 38.00 12.13 36.69Q15.01 35.37 18.70 35.37Q27.95 35.37 27.95 46.86L27.95 46.93Q28.13 47.00 28.28 47.00Q28.44 47.00 28.72 47.00Q29.99 47.00 31.45 46.63Q32.91 46.27 34.38 45.67Q35.86 45.07 37.27 44.28Q38.67 43.49 39.83 42.68L40.46 44.65M21.73 50.84Q20.60 50.55 20.20 49.73Q19.79 48.90 19.79 47.81Q19.79 46.30 20.41 45.33Q21.02 44.37 22.04 43.91Q21.97 42.75 21.80 41.96Q21.62 41.17 21.30 40.66Q20.99 40.15 20.51 39.94Q20.04 39.73 19.30 39.73Q18 39.73 16.80 40.73Q15.61 41.73 14.54 43.38Q13.46 45.04 12.57 47.16Q11.67 49.29 11.04 51.54Q10.41 53.79 10.05 55.99Q9.70 58.18 9.70 59.98Q9.70 61.77 9.90 62.89Q10.09 64.02 10.53 64.67Q10.97 65.32 11.67 65.57Q12.38 65.81 13.39 65.81Q14.70 65.81 16.01 64.65Q17.33 63.49 18.46 61.49Q19.58 59.48 20.44 56.74Q21.30 54 21.73 50.84Z"/></svg>