<svg xmlns="http://www.w3.org/2000/svg" xmlns:xlink="http://www.w3.org/1999/xlink" width="33.6796875" height="90"><path fill="red" stroke="black" d="M-6.54 90L5.48 33.33L15.86 33.33L14.70 38.74Q16.28 37.41 18.32 36.53Q20.36 35.65 23.10 35.65Q24.93 35.65 26.54 36.23Q28.16 36.81 29.34 38.13Q30.52 39.45 31.20 41.63Q31.89 43.80 31.89 47.00Q31.89 49.43 31.55 52.26Q31.22 55.09 30.41 57.92Q29.60 60.75 28.28 63.37Q26.96 65.99 25.00 67.99Q23.03 70.00 20.34 71.21Q17.65 72.42 14.17 72.42Q12.80 72.42 11.78 72.21Q10.76 72 10.04 71.65Q9.32 71.30 8.84 70.82Q8.37 70.35 8.05 69.86L4.32 87.40L-6.54 90M9.21 64.51Q9.42 65.11 10.07 65.64Q10.72 66.16 11.95 66.16Q13.85 66.16 15.33 65.20Q16.80 64.23 17.93 62.63Q19.05 61.03 19.83 58.99Q20.60 56.95 21.09 54.81Q21.59 52.66 21.81 50.57Q22.04 48.48 22.04 46.79Q22.04 44.72 21.66 43.52Q21.27 42.33 20.72 41.73Q20.18 41.13 19.55 40.97Q18.91 40.82 18.42 40.82Q17.19 40.82 15.84 41.71Q14.48 42.61 13.46 44.37L9.21 64.51Z"/></svg>