<svg xmlns="http://www.w3.org/2000/svg" xmlns:xlink="http://www.w3.org/1999/xlink" width="41.2734375" height="90"><path fill="red" stroke="black" d="M6.79 72L16.56 26.19L27.21 24.79L22.11 48.83Q23.94 48.69 25.58 47.85Q27.21 47.00 28.62 45.69Q30.02 44.37 31.15 42.64Q32.27 40.92 33.06 39.01Q33.86 37.09 34.28 35.07Q34.70 33.05 34.70 31.11Q34.70 29.11 34.19 27.33Q33.68 25.56 32.61 24.21Q31.54 22.85 29.83 22.08Q28.13 21.30 25.77 21.30Q21.38 21.30 17.91 22.50Q14.45 23.70 12.06 25.95Q9.67 28.20 8.40 31.45Q7.14 34.70 7.14 38.81Q7.14 40.18 7.29 41.04Q7.45 41.91 7.63 42.42Q7.80 42.93 7.96 43.21Q8.12 43.49 8.12 43.70Q6.26 43.70 4.82 43.33Q3.38 42.96 2.41 42.15Q1.44 41.34 0.93 40.01Q0.42 38.67 0.42 36.70Q0.42 34.31 1.46 31.99Q2.50 29.67 4.31 27.60Q6.12 25.52 8.56 23.77Q11.00 22.01 13.80 20.72Q16.59 19.44 19.63 18.72Q22.68 18 25.70 18Q30.13 18 33.33 19.18Q36.53 20.36 38.62 22.32Q40.71 24.29 41.70 26.84Q42.68 29.39 42.68 32.17Q42.68 35.61 41.26 39.06Q39.83 42.50 37.14 45.26Q34.45 48.02 30.60 49.75Q26.75 51.47 21.90 51.47L21.52 51.47L17.12 72L6.79 72Z"/></svg>