<svg xmlns="http://www.w3.org/2000/svg" xmlns:xlink="http://www.w3.org/1999/xlink" width="34.98046875" height="90"><path fill="red" stroke="black" d="M12.66 90L17.19 68.48Q15.61 70.17 13.50 71.30Q11.39 72.42 8.65 72.42Q6.79 72.42 5.06 71.82Q3.34 71.23 2.00 69.86Q0.67 68.48-0.14 66.27Q-0.95 64.05-0.95 60.86Q-0.95 58.39-0.46 55.58Q0.04 52.77 1.05 49.96Q2.07 47.14 3.60 44.56Q5.13 41.98 7.19 39.99Q9.25 38.00 11.85 36.83Q14.45 35.65 17.58 35.65Q20.64 35.65 22.03 36.70Q23.41 37.76 23.41 39.30L23.41 39.45L24.12 36L34.49 36L23.55 87.40L12.66 90M22.75 42.54Q22.68 42.22 22.50 41.80Q22.32 41.38 21.99 41.01Q21.66 40.64 21.11 40.38Q20.57 40.11 19.79 40.11Q18.28 40.11 16.93 41.10Q15.57 42.08 14.45 43.72Q13.32 45.35 12.45 47.43Q11.57 49.50 10.95 51.70Q10.34 53.89 10.02 56.02Q9.70 58.15 9.70 59.84Q9.70 61.91 10.09 63.04Q10.48 64.16 11.02 64.71Q11.57 65.25 12.20 65.36Q12.83 65.46 13.32 65.46Q14.06 65.46 14.85 65.13Q15.64 64.79 16.42 64.16Q17.19 63.53 17.86 62.56Q18.53 61.59 18.95 60.33L22.75 42.54Z"/></svg>