<svg xmlns="http://www.w3.org/2000/svg" xmlns:xlink="http://www.w3.org/1999/xlink" width="47.8828125" height="90"><path fill="red" stroke="black" d="M44.05 73.93Q43.31 75.80 42.50 77.01Q41.70 78.22 40.78 78.91Q39.87 79.59 38.83 79.86Q37.79 80.12 36.63 80.12Q34.24 80.12 32.68 79.37Q31.11 78.61 30.11 77.36Q29.11 76.11 28.49 74.57Q27.88 73.02 27.35 71.44Q25.77 71.93 24.12 72.18Q22.46 72.42 20.67 72.42Q17.82 72.42 15.47 71.65Q13.11 70.88 11.39 69.15Q9.67 67.43 8.72 64.67Q7.77 61.91 7.77 57.97Q7.77 55.05 8.31 51.42Q8.86 47.78 9.95 44.03Q11.04 40.29 12.67 36.70Q14.31 33.12 16.47 30.34Q18.63 27.56 21.34 25.88Q24.05 24.19 27.28 24.19Q28.20 24.19 29.11 24.29Q30.02 24.40 31.04 24.79Q29.39 25.77 27.83 27.86Q26.26 29.95 24.86 32.75Q23.45 35.54 22.27 38.83Q21.09 42.12 20.23 45.51Q19.37 48.90 18.90 52.19Q18.42 55.48 18.42 58.25Q18.42 59.13 18.40 59.89Q18.39 60.64 18.56 61.35Q19.90 61.03 21.01 60.86Q22.11 60.68 23.03 60.68Q24.93 60.68 26.30 61.22Q27.67 61.77 28.79 62.65Q30.59 60.33 32.20 57.01Q33.82 53.68 35.03 49.85Q36.25 46.02 36.95 41.92Q37.65 37.83 37.65 33.93Q37.65 30.80 37.28 28.42Q36.91 26.05 35.89 24.47Q34.88 22.89 33.08 22.10Q31.29 21.30 28.44 21.30Q24.33 21.30 20.57 22.59Q16.80 23.87 13.94 26.28Q11.07 28.69 9.39 32.12Q7.70 35.54 7.70 39.83Q7.70 40.89 7.82 41.54Q7.95 42.19 8.07 42.59Q8.19 43.00 8.31 43.24Q8.44 43.49 8.44 43.70Q4.99 43.70 3.08 42.33Q1.16 40.96 1.16 37.65Q1.16 35.12 2.25 32.70Q3.34 30.27 5.31 28.07Q7.28 25.88 9.97 24.03Q12.66 22.18 15.89 20.85Q19.13 19.51 22.75 18.76Q26.37 18 30.16 18Q34.91 18 38.16 19.37Q41.41 20.74 43.42 23.19Q45.42 25.63 46.32 29.02Q47.21 32.41 47.21 36.42Q47.21 38.95 46.86 41.80Q46.51 44.65 45.79 47.58Q45.07 50.52 43.95 53.46Q42.82 56.39 41.29 59.08Q39.76 61.77 37.81 64.13Q35.86 66.48 33.47 68.27Q34.24 69.43 35.12 70.49Q36 71.54 37.05 72.33Q38.11 73.13 39.45 73.60Q40.78 74.07 42.47 74.07Q42.86 74.07 43.24 74.04Q43.63 74.00 44.05 73.93M25.35 65.81Q24.68 64.72 23.73 64.04Q22.78 63.35 21.23 63.35Q20.74 63.35 20.21 63.40Q19.69 63.46 19.16 63.63Q20.11 66.59 22.61 66.59Q23.27 66.59 23.98 66.41Q24.68 66.23 25.35 65.81Z"/></svg>