<svg xmlns="http://www.w3.org/2000/svg" xmlns:xlink="http://www.w3.org/1999/xlink" width="43.27734375" height="90"><path fill="red" stroke="black" d="M6.79 72L16.56 26.19L27.21 24.79L23.70 41.41L24.26 41.41Q26.51 41.41 28.39 40.22Q30.27 39.02 31.62 37.20Q32.98 35.37 33.73 33.15Q34.49 30.94 34.49 28.86Q34.49 27.35 34.03 25.98Q33.57 24.61 32.63 23.57Q31.68 22.54 30.18 21.92Q28.69 21.30 26.58 21.30Q22.18 21.30 18.62 22.50Q15.05 23.70 12.48 25.96Q9.91 28.23 8.53 31.46Q7.14 34.70 7.14 38.81Q7.14 40.18 7.29 41.04Q7.45 41.91 7.63 42.42Q7.80 42.93 7.96 43.21Q8.12 43.49 8.12 43.70Q6.26 43.70 4.82 43.33Q3.38 42.96 2.41 42.15Q1.44 41.34 0.93 40.01Q0.42 38.67 0.42 36.70Q0.42 34.31 1.46 31.99Q2.50 29.67 4.31 27.60Q6.12 25.52 8.56 23.77Q11.00 22.01 13.80 20.72Q16.59 19.44 19.63 18.72Q22.68 18 25.70 18Q29.95 18 33.03 18.97Q36.11 19.93 38.11 21.55Q40.11 23.17 41.08 25.24Q42.05 27.32 42.05 29.53Q42.05 31.18 41.54 32.89Q41.03 34.59 40.03 36.21Q39.02 37.83 37.58 39.29Q36.14 40.75 34.28 41.84Q35.68 42.26 36.65 42.94Q37.62 43.63 38.18 44.56Q38.74 45.49 38.99 46.63Q39.23 47.78 39.23 49.04Q39.23 51.29 38.69 53.77Q38.14 56.25 37.48 58.68Q36.81 61.10 36.26 63.32Q35.72 65.53 35.72 67.25Q35.72 68.94 36.47 70.22Q37.23 71.51 38.53 72Q36.21 72.67 34.45 72.95Q32.70 73.23 31.39 73.23Q29.64 73.23 28.55 72.79Q27.46 72.35 26.84 71.67Q26.23 70.98 26.00 70.12Q25.77 69.26 25.77 68.41Q25.77 66.59 26.37 64.18Q26.96 61.77 27.69 59.19Q28.41 56.60 29.00 54.07Q29.60 51.54 29.60 49.46Q29.60 48.38 29.37 47.48Q29.14 46.58 28.65 45.93Q28.16 45.28 27.32 44.93Q26.47 44.58 25.28 44.58Q24.79 44.58 24.19 44.63Q23.59 44.68 22.89 44.86L17.12 72L6.79 72Z"/></svg>