<svg xmlns="http://www.w3.org/2000/svg" xmlns:xlink="http://www.w3.org/1999/xlink" width="27.0703125" height="90"><path fill="red" stroke="black" d="M-2.74 72L4.89 36L15.26 36L14.34 40.46Q15.29 39.62 16.28 38.81Q17.26 38.00 18.33 37.39Q19.41 36.77 20.57 36.39Q21.73 36 23.03 36Q24.26 36 25.19 36.46Q26.12 36.91 26.75 37.65Q27.39 38.39 27.70 39.38Q28.02 40.36 28.02 41.41Q28.02 42.36 27.70 43.29Q27.39 44.23 26.74 44.96Q26.09 45.70 25.10 46.18Q24.12 46.65 22.82 46.65Q21.80 46.65 21.25 46.30Q20.71 45.95 20.43 45.42Q20.14 44.89 20.02 44.28Q19.90 43.66 19.76 43.14Q19.62 42.61 19.39 42.26Q19.16 41.91 18.63 41.91Q16.98 41.91 15.86 42.66Q14.73 43.42 13.39 44.65L7.63 72L-2.74 72Z"/></svg>