<svg xmlns="http://www.w3.org/2000/svg" xmlns:xlink="http://www.w3.org/1999/xlink" width="41.02734375" height="90"><path fill="red" stroke="black" d="M39.80 27.70Q39.80 29.21 39.39 30.46Q38.99 31.71 38.29 32.61Q37.58 33.50 36.56 34.00Q35.54 34.49 34.35 34.49Q32.98 34.49 31.87 33.91Q30.76 33.33 29.95 32.24Q31.29 31.25 32.10 29.62Q32.91 27.98 32.91 26.12Q32.91 23.80 31.54 22.45Q30.16 21.09 27.77 21.09Q26.33 21.09 25.12 21.64Q23.91 22.18 23.04 23.15Q22.18 24.12 21.71 25.45Q21.23 26.79 21.23 28.37Q21.23 30.76 22.39 32.87Q23.55 34.98 25.31 37.02Q27.07 39.06 29.11 41.15Q31.15 43.24 32.91 45.62Q34.66 47.99 35.82 50.75Q36.98 53.51 36.98 56.85Q36.98 60.40 35.51 63.40Q34.03 66.41 31.41 68.61Q28.79 70.80 25.26 72.05Q21.73 73.30 17.61 73.30Q14.17 73.30 11.37 72.40Q8.58 71.51 6.59 69.84Q4.61 68.17 3.52 65.85Q2.43 63.53 2.43 60.68Q2.43 58.29 3.20 56.21Q3.97 54.14 5.31 52.61Q6.64 51.08 8.47 50.20Q10.30 49.32 12.38 49.32Q14.91 49.32 16.63 50.59Q18.35 51.86 18.77 54.07Q16.88 54.07 15.36 54.60Q13.85 55.13 12.80 56.07Q11.74 57.02 11.16 58.38Q10.58 59.73 10.58 61.42Q10.58 64.58 12.43 66.43Q14.27 68.27 17.40 68.27Q19.30 68.27 20.92 67.59Q22.54 66.90 23.70 65.71Q24.86 64.51 25.52 62.86Q26.19 61.21 26.19 59.27Q26.19 57.30 25.54 55.49Q24.89 53.68 23.80 51.98Q22.71 50.27 21.34 48.62Q19.97 46.97 18.53 45.30Q17.09 43.63 15.71 41.94Q14.34 40.25 13.25 38.48Q12.16 36.70 11.51 34.80Q10.86 32.91 10.86 30.80Q10.86 27.95 12.08 25.54Q13.29 23.13 15.45 21.38Q17.61 19.62 20.57 18.62Q23.52 17.61 27 17.61Q29.92 17.61 32.27 18.33Q34.63 19.05 36.30 20.37Q37.97 21.69 38.88 23.55Q39.80 25.42 39.80 27.70Z"/></svg>