<svg xmlns="http://www.w3.org/2000/svg" xmlns:xlink="http://www.w3.org/1999/xlink" width="27.4921875" height="90"><path fill="red" stroke="black" d="M30.52 59.10Q27.70 62.37 24.87 64.49Q22.04 66.62 19.51 68.10Q18.39 69.29 17.00 70.12Q15.61 70.95 14.12 71.46Q12.62 71.96 11.09 72.19Q9.56 72.42 8.19 72.42Q5.48 72.42 3.50 71.60Q1.51 70.77 0.21 69.45Q-1.09 68.13-1.71 66.50Q-2.32 64.86-2.32 63.21Q-2.32 61.95-1.99 60.87Q-1.65 59.80-1.13 58.96Q-0.60 58.11 0.09 57.50Q0.77 56.88 1.51 56.53Q4.54 51.12 6.61 45.83Q8.68 40.54 10.37 35.19L21.02 33.79Q21.23 38.46 21.43 41.89Q21.62 45.32 21.80 47.83Q21.97 50.34 22.11 52.10Q22.25 53.86 22.38 55.21Q22.50 56.57 22.55 57.67Q22.61 58.78 22.61 59.98Q22.61 60.79 22.55 61.45Q22.50 62.12 22.32 62.72Q23.91 61.80 25.19 60.91Q26.47 60.01 27.49 59.10L30.52 59.10M1.51 61.70Q1.51 64.23 2.51 65.48Q3.52 66.73 5.91 66.73Q7.10 66.73 8.23 66.39Q9.35 66.06 10.23 65.27Q11.11 64.48 11.64 63.21Q12.16 61.95 12.16 60.05Q12.16 59.13 12.11 58.27Q12.06 57.41 11.99 56.44Q11.92 55.48 11.79 54.28Q11.67 53.09 11.51 51.50Q11.36 49.92 11.18 47.85Q11.00 45.77 10.79 43.00Q9.70 46.51 8.23 49.82Q6.75 53.12 4.96 56.60Q5.66 56.99 6.13 57.59Q6.61 58.18 6.61 59.10Q6.61 59.77 6.40 60.40Q6.19 61.03 5.77 61.54Q5.34 62.05 4.76 62.35Q4.18 62.65 3.45 62.65Q2.85 62.65 2.32 62.47Q1.79 62.30 1.51 61.70Z"/></svg>