<svg xmlns="http://www.w3.org/2000/svg" xmlns:xlink="http://www.w3.org/1999/xlink" width="34.62890625" height="90"><path fill="red" stroke="black" d="M11.32 72L21.52 24.33L20.67 24.33Q17.82 24.33 15.35 24.98Q12.87 25.63 11.04 27.26Q9.21 28.90 8.17 31.71Q7.14 34.52 7.14 38.88Q7.14 40.25 7.29 41.12Q7.45 41.98 7.63 42.49Q7.80 43.00 7.96 43.28Q8.12 43.56 8.12 43.77Q6.26 43.77 4.82 43.40Q3.38 43.03 2.41 42.22Q1.44 41.41 0.93 40.08Q0.42 38.74 0.42 36.81Q0.42 33.22 1.76 29.83Q3.09 26.44 6.03 23.84Q8.96 21.23 13.64 19.65Q18.32 18.07 25.00 18.07Q27.18 18.07 28.88 18.19Q30.59 18.32 32.04 18.49Q33.50 18.67 34.80 18.90Q36.11 19.13 37.42 19.30Q38.74 19.48 40.20 19.60Q41.66 19.72 43.42 19.72Q45.95 19.72 48.13 19.27Q50.31 18.81 51.79 18.21Q51.61 22.96 49.34 25.15Q47.07 27.35 42.79 27.35Q40.11 27.35 37.35 26.86Q34.59 26.37 31.61 25.77L21.66 72L11.32 72Z"/></svg>