<svg xmlns="http://www.w3.org/2000/svg" xmlns:xlink="http://www.w3.org/1999/xlink" width="19.23046875" height="90"><path fill="red" stroke="black" d="M22.25 59.10Q21.23 62.02 19.99 64.16Q18.74 66.30 17.38 67.78Q16.03 69.26 14.61 70.17Q13.18 71.09 11.85 71.58Q10.51 72.07 9.30 72.25Q8.09 72.42 7.14 72.42Q5.52 72.42 4.11 71.93Q2.71 71.44 1.67 70.38Q0.63 69.33 0.04 67.71Q-0.56 66.09-0.56 63.81Q-0.56 62.82-0.42 61.65Q-0.28 60.47 0 59.10L4.32 38.88L1.93 38.88L2.53 36L4.89 36L7.07 26.05L17.72 24.61L15.26 36L19.58 36L19.02 38.88L14.70 38.88L10.09 60.47Q9.91 61.07 9.86 61.65Q9.81 62.23 9.81 62.79Q9.81 64.30 10.51 64.88Q11.21 65.46 12.73 65.46Q13.78 65.46 14.78 64.99Q15.79 64.51 16.63 63.67Q17.47 62.82 18.14 61.65Q18.81 60.47 19.23 59.10L22.25 59.10Z"/></svg>