<svg xmlns="http://www.w3.org/2000/svg" xmlns:xlink="http://www.w3.org/1999/xlink" width="36.3515625" height="90"><path fill="red" stroke="black" d="M39.38 59.10Q38.36 62.02 37.16 64.16Q35.96 66.30 34.68 67.78Q33.40 69.26 32.06 70.17Q30.73 71.09 29.46 71.58Q28.20 72.07 27.04 72.25Q25.88 72.42 24.93 72.42Q21.83 72.42 20.00 70.72Q18.18 69.01 17.79 65.60Q16.42 67.82 15.01 69.15Q13.61 70.49 12.23 71.23Q10.86 71.96 9.56 72.19Q8.26 72.42 7.14 72.42Q5.52 72.42 4.11 71.93Q2.71 71.44 1.67 70.38Q0.63 69.33 0.04 67.71Q-0.56 66.09-0.56 63.81Q-0.56 62.82-0.42 61.65Q-0.28 60.47 0 59.10L4.89 36L15.26 36L10.09 60.47Q9.88 61.59 9.88 62.51Q9.88 63.74 10.34 64.60Q10.79 65.46 12.02 65.46Q13.08 65.46 13.96 64.99Q14.84 64.51 15.56 63.67Q16.28 62.82 16.82 61.65Q17.37 60.47 17.79 59.10L22.68 36L33.05 36L27.88 60.47Q27.70 61.07 27.63 61.65Q27.56 62.23 27.56 62.79Q27.56 64.30 28.28 64.88Q29.00 65.46 30.52 65.46Q31.57 65.46 32.47 64.99Q33.36 64.51 34.10 63.67Q34.84 62.82 35.40 61.65Q35.96 60.47 36.35 59.10L39.38 59.10Z"/></svg>