<svg xmlns="http://www.w3.org/2000/svg" xmlns:xlink="http://www.w3.org/1999/xlink" width="51.5390625" height="90"><path fill="red" stroke="black" d="M25.59 72.49Q18.42 72.49 14.80 69.01Q11.18 65.53 11.18 58.68Q11.18 55.20 12.20 51.12L19.55 21.90Q16.35 22.75 13.90 24.31Q11.46 25.88 9.79 27.88Q8.12 29.88 7.28 32.22Q6.43 34.56 6.43 36.98Q6.43 38.74 6.89 40.48Q7.35 42.22 8.30 43.88Q4.18 43.88 1.92 41.89Q-0.35 39.90-0.35 36.18Q-0.35 33.79 0.67 31.48Q1.69 29.18 3.50 27.12Q5.31 25.07 7.84 23.34Q10.37 21.62 13.38 20.37Q16.38 19.13 19.78 18.42Q23.17 17.72 26.72 17.72Q27.95 17.72 28.86 17.79Q29.78 17.86 30.76 18.07L21.97 51.33Q21.38 53.54 21.06 55.53Q20.74 57.52 20.74 59.10Q20.74 65.95 26.37 65.95Q34.35 65.95 37.55 51.12L44.72 17.86L54.88 17.86L47.85 51.12Q45.60 61.70 39.96 67.10Q34.31 72.49 25.59 72.49Z"/></svg> 27.63 61.65Q27.56 62.23 27.56 62.79Q27.56 64.30 28.28 64.88Q29.00 65.46 30.52 65.46Q31.57 65.46 32.47 64.99Q33.36 64.51 34.10 63.67Q34.84 62.82 35.40 61.65Q35.96 60.47 36.35 59.10L39.38 59.10Z"/></svg>