<svg xmlns="http://www.w3.org/2000/svg" xmlns:xlink="http://www.w3.org/1999/xlink" width="44.296875" height="90"><path fill="red" stroke="black" d="M19.02 72L17.86 22.82Q12.80 24.71 9.97 28.76Q7.14 32.80 7.14 38.81Q7.14 40.18 7.29 41.04Q7.45 41.91 7.63 42.42Q7.80 42.93 7.96 43.21Q8.12 43.49 8.12 43.70Q6.26 43.70 4.82 43.33Q3.38 42.96 2.41 42.15Q1.44 41.34 0.93 40.01Q0.42 38.67 0.42 36.70Q0.42 34.31 1.46 31.99Q2.50 29.67 4.31 27.60Q6.12 25.52 8.56 23.77Q11.00 22.01 13.80 20.72Q16.59 19.44 19.63 18.72Q22.68 18 25.70 18Q26.51 18 27.19 18.04Q27.88 18.07 28.58 18.14L29.21 62.44L44.37 18.35L49.39 18.35L29.39 72L19.02 72Z"/></svg>4.56 24.19 34.56Q25.49 34.56 26.35 35.09Q27.21 35.61 27.74 36.49Q28.27 37.37 28.49 38.50Q28.72 39.62 28.72 40.82Q28.72 43.70 28.23 47.16Q27.74 50.63 26.67 54.14Q25.59 57.66 23.96 60.94Q22.32 64.23 20.04 66.78Q17.75 69.33 14.80 70.88Q11.85 72.42 8.19 72.42Q4.11 72.42 1.74 70.33Q-0.63 68.24-0.63 63.95Q-0.63 63.35-0.56 62.42Q-0.49 61.49-0.28 60.47L4.89 36Z"/></svg>