<svg xmlns="http://www.w3.org/2000/svg" xmlns:xlink="http://www.w3.org/1999/xlink" width="29.8125" height="90"><path fill="red" stroke="black" d="M4.89 36L15.26 36L10.09 60.47Q9.91 61.28 9.81 61.93Q9.70 62.58 9.70 63.07Q9.70 64.16 10.28 64.81Q10.86 65.46 12.16 65.46Q13.92 65.46 15.54 64.23Q17.16 63 18.53 60.98Q19.90 58.96 21.02 56.39Q22.15 53.82 22.94 51.15Q23.73 48.48 24.17 45.93Q24.61 43.38 24.61 41.41Q24.54 41.59 24.24 41.73Q23.94 41.87 23.59 41.96Q23.24 42.05 22.89 42.08Q22.54 42.12 22.32 42.12Q21.69 42.12 21.20 41.78Q20.71 41.45 20.37 40.92Q20.04 40.39 19.88 39.74Q19.72 39.09 19.72 38.46Q19.72 36.77 20.79 35.67Q21.87 34.56 24.19 34.56Q25.49 34.56 26.35 35.09Q27.21 35.61 27.74 36.49Q28.27 37.37 28.49 38.50Q28.72 39.62 28.72 40.82Q28.72 43.70 28.23 47.16Q27.74 50.63 26.67 54.14Q25.59 57.66 23.96 60.94Q22.32 64.23 20.04 66.78Q17.75 69.33 14.80 70.88Q11.85 72.42 8.19 72.42Q4.11 72.42 1.74 70.33Q-0.63 68.24-0.63 63.95Q-0.63 63.35-0.56 62.42Q-0.49 61.49-0.28 60.47L4.89 36Z"/></svg>