<svg xmlns="http://www.w3.org/2000/svg" xmlns:xlink="http://www.w3.org/1999/xlink" width="47.6015625" height="90"><path fill="red" stroke="black" d="M22.68 36L33.05 36L27.88 60.47Q27.49 62.19 27.49 63.07Q27.49 64.16 28.07 64.81Q28.65 65.46 29.95 65.46Q31.71 65.46 33.33 64.23Q34.95 63 36.32 60.98Q37.69 58.96 38.81 56.39Q39.94 53.82 40.73 51.15Q41.52 48.48 41.96 45.93Q42.40 43.38 42.40 41.41Q42.33 41.59 42.03 41.73Q41.73 41.87 41.38 41.96Q41.03 42.05 40.68 42.08Q40.32 42.12 40.11 42.12Q39.48 42.12 38.99 41.78Q38.50 41.45 38.16 40.92Q37.83 40.39 37.67 39.74Q37.51 39.09 37.51 38.46Q37.51 36.77 38.58 35.67Q39.66 34.56 41.98 34.56Q43.28 34.56 44.14 35.09Q45 35.61 45.53 36.49Q46.05 37.37 46.28 38.50Q46.51 39.62 46.51 40.82Q46.51 43.70 46.02 47.16Q45.53 50.63 44.46 54.14Q43.38 57.66 41.75 60.94Q40.11 64.23 37.83 66.78Q35.54 69.33 32.59 70.88Q29.64 72.42 25.98 72.42Q22.46 72.42 20.23 70.93Q18 69.43 17.37 66.38Q16.07 68.34 14.70 69.52Q13.32 70.70 12.01 71.35Q10.69 72 9.44 72.21Q8.19 72.42 7.14 72.42Q5.52 72.42 4.11 71.93Q2.71 71.44 1.67 70.38Q0.63 69.33 0.04 67.71Q-0.56 66.09-0.56 63.81Q-0.56 62.82-0.42 61.65Q-0.28 60.47 0 59.10L4.89 36L15.26 36L10.09 60.47Q9.88 61.38 9.88 62.30Q9.88 62.93 9.98 63.49Q10.09 64.05 10.34 64.49Q10.58 64.93 10.99 65.20Q11.39 65.46 12.02 65.46Q13.08 65.46 13.96 64.99Q14.84 64.51 15.56 63.67Q16.28 62.82 16.82 61.65Q17.37 60.47 17.79 59.10L22.68 36Z"/></svg>