<svg xmlns="http://www.w3.org/2000/svg" xmlns:xlink="http://www.w3.org/1999/xlink" width="69.2578125" height="90"><path fill="red" stroke="black" d="M43.91 72L43.07 35.37L29.39 72L19.02 72L17.86 22.82Q12.80 24.71 9.97 28.76Q7.14 32.80 7.14 38.81Q7.14 40.18 7.29 41.04Q7.45 41.91 7.63 42.42Q7.80 42.93 7.96 43.21Q8.12 43.49 8.12 43.70Q6.26 43.70 4.82 43.33Q3.38 42.96 2.41 42.15Q1.44 41.34 0.93 40.01Q0.42 38.67 0.42 36.70Q0.42 34.31 1.46 31.99Q2.50 29.67 4.31 27.60Q6.12 25.52 8.56 23.77Q11.00 22.01 13.80 20.72Q16.59 19.44 19.63 18.72Q22.68 18 25.70 18Q26.51 18 27.19 18.04Q27.88 18.07 28.58 18.14L29.21 62.44L44.37 18.35L53.51 18.35L54.14 62.44L69.26 18.35L74.32 18.35L54.28 72L43.91 72Z"/></svg>.50Q46.51 39.62 46.51 40.82Q46.51 43.70 46.02 47.16Q45.53 50.63 44.46 54.14Q43.38 57.66 41.75 60.94Q40.11 64.23 37.83 66.78Q35.54 69.33 32.59 70.88Q29.64 72.42 25.98 72.42Q22.46 72.42 20.23 70.93Q18 69.43 17.37 66.38Q16.07 68.34 14.70 69.52Q13.32 70.70 12.01 71.35Q10.69 72 9.44 72.21Q8.19 72.42 7.14 72.42Q5.52 72.42 4.11 71.93Q2.71 71.44 1.67 70.38Q0.63 69.33 0.04 67.71Q-0.56 66.09-0.56 63.81Q-0.56 62.82-0.42 61.65Q-0.28 60.47 0 59.10L4.89 36L15.26 36L10.09 60.47Q9.88 61.38 9.88 62.30Q9.88 62.93 9.98 63.49Q10.09 64.05 10.34 64.49Q10.58 64.93 10.99 65.20Q11.39 65.46 12.02 65.46Q13.08 65.46 13.96 64.99Q14.84 64.51 15.56 63.67Q16.28 62.82 16.82 61.65Q17.37 60.47 17.79 59.10L22.68 36Z"/></svg>