<svg xmlns="http://www.w3.org/2000/svg" xmlns:xlink="http://www.w3.org/1999/xlink" width="44.6484375" height="90"><path fill="red" stroke="black" d="M28.30 72L24.47 54L14.03 72L9.63 72L23.17 48.09L17.86 22.82Q12.80 24.71 9.97 28.76Q7.14 32.80 7.14 38.81Q7.14 40.18 7.29 41.04Q7.45 41.91 7.63 42.42Q7.80 42.93 7.96 43.21Q8.12 43.49 8.12 43.70Q6.26 43.70 4.82 43.33Q3.38 42.96 2.41 42.15Q1.44 41.34 0.93 40.01Q0.42 38.67 0.42 36.70Q0.42 34.31 1.46 31.99Q2.50 29.67 4.31 27.60Q6.12 25.52 8.56 23.77Q11.00 22.01 13.80 20.72Q16.59 19.44 19.63 18.72Q22.68 18 25.70 18Q26.51 18 27.19 18.04Q27.88 18.07 28.58 18.14L31.68 33.12L40.04 18.35L45.07 18.35L32.98 39.30L39.73 72L28.30 72Z"/></svg> 37.65 12.52 36.65Q14.55 35.65 16.98 35.65Q19.13 35.65 20.57 36.47Q22.01 37.30 22.90 38.55Q23.80 39.80 24.22 41.31Q24.64 42.82 24.79 44.19L25.42 49.68Q28.48 46.27 29.99 43.79Q31.50 41.31 31.68 39.30Q31.29 39.38 31.01 39.41Q30.73 39.45 30.45 39.45Q29.50 39.45 28.86 39.13Q28.23 38.81 27.83 38.27Q27.42 37.72 27.25 37.00Q27.07 36.28 27.07 35.44Q27.07 34.49 27.47 33.82Q27.88 33.15 28.55 32.71Q29.21 32.27 30.11 32.08Q31.01 31.89 31.96 31.89Q32.94 31.89 33.71 32.47Q34.49 33.05 34.98 33.98Q35.47 34.91 35.74 36.09Q36 37.27 36 38.46Q36 40.15 35.38 41.80Q34.77 43.45 33.52 45.28Q32.27 47.11 30.39 49.25Q28.51 51.40 25.98 54.14L26.65 59.17Q26.86 60.93 27.23 62.14Q27.60 63.35 28.14 64.09Q28.69 64.83 29.43 65.14Q30.16 65.46 31.11 65.46Q32.17 65.46 33.15 64.99Q34.14 64.51 34.98 63.67Q35.82 62.82 36.49 61.65Q37.16 60.47 37.58 59.10L40.61 59.10Z"/></svg>