<svg xmlns="http://www.w3.org/2000/svg" xmlns:xlink="http://www.w3.org/1999/xlink" width="37.58203125" height="90"><path fill="red" stroke="black" d="M40.61 59.10Q39.16 63.28 37.28 65.90Q35.40 68.52 33.40 69.96Q31.39 71.40 29.44 71.91Q27.49 72.42 25.91 72.42Q24.29 72.42 22.92 71.72Q21.55 71.02 20.44 69.49Q19.34 67.96 18.49 65.60Q17.65 63.25 17.12 59.91L7.21 72L2.00 72L16.56 55.58L15.40 47.53Q15.12 45.70 14.82 44.54Q14.52 43.38 14.20 42.71Q13.89 42.05 13.50 41.80Q13.11 41.55 12.66 41.55Q11.60 41.55 10.34 42.63Q9.07 43.70 7.75 45.88Q6.43 48.06 5.20 51.35Q3.97 54.63 3.02 59.10L0 59.10Q0.60 56.43 1.41 53.67Q2.21 50.91 3.29 48.29Q4.36 45.67 5.73 43.37Q7.10 41.06 8.79 39.36Q10.48 37.65 12.52 36.65Q14.55 35.65 16.98 35.65Q19.13 35.65 20.57 36.47Q22.01 37.30 22.90 38.55Q23.80 39.80 24.22 41.31Q24.64 42.82 24.79 44.19L25.42 49.68Q28.48 46.27 29.99 43.79Q31.50 41.31 31.68 39.30Q31.29 39.38 31.01 39.41Q30.73 39.45 30.45 39.45Q29.50 39.45 28.86 39.13Q28.23 38.81 27.83 38.27Q27.42 37.72 27.25 37.00Q27.07 36.28 27.07 35.44Q27.07 34.49 27.47 33.82Q27.88 33.15 28.55 32.71Q29.21 32.27 30.11 32.08Q31.01 31.89 31.96 31.89Q32.94 31.89 33.71 32.47Q34.49 33.05 34.98 33.98Q35.47 34.91 35.74 36.09Q36 37.27 36 38.46Q36 40.15 35.38 41.80Q34.77 43.45 33.52 45.28Q32.27 47.11 30.39 49.25Q28.51 51.40 25.98 54.14L26.65 59.17Q26.86 60.93 27.23 62.14Q27.60 63.35 28.14 64.09Q28.69 64.83 29.43 65.14Q30.16 65.46 31.11 65.46Q32.17 65.46 33.15 64.99Q34.14 64.51 34.98 63.67Q35.82 62.82 36.49 61.65Q37.16 60.47 37.58 59.10L40.61 59.10Z"/></svg>