<svg xmlns="http://www.w3.org/2000/svg" xmlns:xlink="http://www.w3.org/1999/xlink" width="34.98046875" height="90"><path fill="red" stroke="black" d="M24.19 77.77Q23.41 81.63 21.96 84.02Q20.50 86.41 18.70 87.75Q16.91 89.09 14.96 89.54Q13.01 90 11.21 90Q9.56 90 8.10 89.56Q6.64 89.12 5.55 88.26Q4.46 87.40 3.81 86.08Q3.16 84.76 3.16 83.00Q3.16 80.75 4.24 79.03Q5.31 77.31 7.00 76.03Q8.68 74.74 10.78 73.83Q12.87 72.91 14.91 72.28L15.79 68.41Q14.63 69.68 13.46 70.47Q12.30 71.26 11.21 71.68Q10.13 72.11 9.11 72.26Q8.09 72.42 7.14 72.42Q5.52 72.42 4.11 71.93Q2.71 71.44 1.67 70.38Q0.63 69.33 0.04 67.71Q-0.56 66.09-0.56 63.81Q-0.56 62.82-0.42 61.65Q-0.28 60.47 0 59.10L4.89 36L15.26 36L10.09 60.47Q9.88 61.38 9.88 62.30Q9.88 62.93 9.98 63.49Q10.09 64.05 10.34 64.49Q10.58 64.93 10.99 65.20Q11.39 65.46 12.02 65.46Q13.01 65.46 13.87 65.02Q14.73 64.58 15.43 63.79Q16.14 63 16.68 61.91Q17.23 60.82 17.65 59.55L22.68 36L33.05 36L25.91 69.40Q27.56 68.84 28.90 68.04Q30.23 67.25 31.34 66.04Q32.45 64.83 33.35 63.14Q34.24 61.45 34.98 59.10L38.00 59.10Q36.91 62.68 35.42 65.07Q33.93 67.46 32.24 68.99Q30.55 70.52 28.76 71.33Q26.96 72.14 25.28 72.56L24.19 77.77M14.17 75.90Q12.76 76.43 11.50 77.04Q10.23 77.66 9.26 78.40Q8.30 79.14 7.72 80.03Q7.14 80.93 7.14 82.02Q7.14 82.41 7.28 82.83Q7.42 83.25 7.72 83.60Q8.02 83.95 8.47 84.16Q8.93 84.38 9.56 84.38Q10.69 84.38 11.87 82.81Q13.04 81.25 13.75 77.98L14.17 75.90Z"/></svg>