<svg xmlns="http://www.w3.org/2000/svg" xmlns:xlink="http://www.w3.org/1999/xlink" width="44.6484375" height="90"><path fill="red" stroke="black" d="M20.00 72L24.79 49.82L17.86 22.82Q12.80 24.71 9.97 28.76Q7.14 32.80 7.14 38.81Q7.14 40.18 7.29 41.04Q7.45 41.91 7.63 42.42Q7.80 42.93 7.96 43.21Q8.12 43.49 8.12 43.70Q6.26 43.70 4.82 43.33Q3.38 42.96 2.41 42.15Q1.44 41.34 0.93 40.01Q0.42 38.67 0.42 36.70Q0.42 34.31 1.46 31.99Q2.50 29.67 4.31 27.60Q6.12 25.52 8.56 23.77Q11.00 22.01 13.80 20.72Q16.59 19.44 19.63 18.72Q22.68 18 25.70 18Q26.51 18 27.19 18.04Q27.88 18.07 28.58 18.14L34.84 43.91L45.49 18.35L50.27 18.35L36.28 49.82L31.54 72L20.00 72Z"/></svg>7 0 59.10L4.89 36L15.26 36L10.09 60.47Q9.88 61.38 9.88 62.30Q9.88 62.93 9.98 63.49Q10.09 64.05 10.34 64.49Q10.58 64.93 10.99 65.20Q11.39 65.46 12.02 65.46Q13.01 65.46 13.87 65.02Q14.73 64.58 15.43 63.79Q16.14 63 16.68 61.91Q17.23 60.82 17.65 59.55L22.68 36L33.05 36L25.91 69.40Q27.56 68.84 28.90 68.04Q30.23 67.25 31.34 66.04Q32.45 64.83 33.35 63.14Q34.24 61.45 34.98 59.10L38.00 59.10Q36.91 62.68 35.42 65.07Q33.93 67.46 32.24 68.99Q30.55 70.52 28.76 71.33Q26.96 72.14 25.28 72.56L24.19 77.77M14.17 75.90Q12.76 76.43 11.50 77.04Q10.23 77.66 9.26 78.40Q8.30 79.14 7.72 80.03Q7.14 80.93 7.14 82.02Q7.14 82.41 7.28 82.83Q7.42 83.25 7.72 83.60Q8.02 83.95 8.47 84.16Q8.93 84.38 9.56 84.38Q10.69 84.38 11.87 82.81Q13.04 81.25 13.75 77.98L14.17 75.90Z"/></svg>