<svg xmlns="http://www.w3.org/2000/svg" xmlns:xlink="http://www.w3.org/1999/xlink" width="39.0234375" height="90"><path fill="red" stroke="black" d="M0.81 72L25.98 21.90Q24.86 21.90 23.13 21.81Q21.41 21.73 19.51 21.73Q18.25 21.73 17.05 21.80Q15.86 21.87 14.94 22.04Q14.03 22.22 13.46 22.54Q12.90 22.85 12.90 23.34Q13.29 23.34 13.69 23.84Q14.10 24.33 14.10 25.63Q14.10 26.82 13.68 27.62Q13.25 28.41 12.62 28.88Q11.99 29.36 11.25 29.55Q10.51 29.74 9.88 29.74Q8.82 29.74 8.12 29.36Q7.42 28.97 6.98 28.37Q6.54 27.77 6.36 27Q6.19 26.23 6.19 25.49Q6.19 24.12 6.77 22.78Q7.35 21.45 8.46 20.37Q9.56 19.30 11.21 18.65Q12.87 18 15.05 18L39.73 18L14.91 67.32Q16.38 67.32 18.21 67.39Q20.04 67.46 21.83 67.46Q23.10 67.46 24.29 67.41Q25.49 67.36 26.49 67.18Q27.49 67.01 28.23 66.71Q28.97 66.41 29.32 65.88Q28.93 65.88 28.48 65.43Q28.02 64.97 28.02 63.63Q28.02 62.47 28.42 61.68Q28.83 60.89 29.44 60.40Q30.06 59.91 30.83 59.70Q31.61 59.48 32.34 59.48Q33.33 59.48 34.03 59.85Q34.73 60.22 35.17 60.80Q35.61 61.38 35.81 62.14Q36 62.89 36 63.63Q36 65.00 35.37 66.50Q34.73 67.99 33.54 69.21Q32.34 70.42 30.64 71.21Q28.93 72 26.79 72L0.81 72Z"/></svg>