<svg xmlns="http://www.w3.org/2000/svg" xmlns:xlink="http://www.w3.org/1999/xlink" width="30.83203125" height="90"><path fill="red" stroke="black" d="M0 72L18.35 39.90L14.34 39.90Q13.50 39.90 12.78 39.94Q12.06 39.97 11.51 40.08Q10.97 40.18 10.67 40.41Q10.37 40.64 10.37 41.03Q10.37 41.20 10.49 41.24Q10.62 41.27 10.76 41.38Q10.90 41.48 11.02 41.73Q11.14 41.98 11.14 42.61Q11.14 43.63 10.81 44.35Q10.48 45.07 9.93 45.53Q9.39 45.98 8.70 46.21Q8.02 46.44 7.28 46.44Q6.64 46.44 6.06 46.23Q5.48 46.02 5.01 45.63Q4.54 45.25 4.25 44.65Q3.97 44.05 3.97 43.28Q3.97 42.19 4.55 40.90Q5.13 39.62 6.21 38.53Q7.28 37.44 8.82 36.72Q10.37 36 12.30 36L30.83 36L13.18 66.45Q13.64 66.48 14.27 66.55Q14.91 66.62 15.64 66.71Q16.38 66.80 17.14 66.85Q17.89 66.90 18.63 66.90Q19.97 66.90 20.92 66.60Q21.87 66.30 22.04 65.46Q21.34 65.39 21.01 64.97Q20.67 64.55 20.67 63.95Q20.67 63.42 20.94 62.88Q21.20 62.33 21.69 61.89Q22.18 61.45 22.94 61.15Q23.70 60.86 24.68 60.86Q26.37 60.86 27.12 61.84Q27.88 62.82 27.88 64.30Q27.88 65.53 27.28 66.90Q26.68 68.27 25.56 69.40Q24.43 70.52 22.80 71.26Q21.16 72 19.09 72L0 72Z"/></svg>