<svg xmlns="http://www.w3.org/2000/svg" xmlns:xlink="http://www.w3.org/1999/xlink" width="15.840000000000002" height="72.00000000000001"><path fill="red" stroke="black" d="M7.20 45.36C7.20 46.80 9.36 47.52 10.80 47.52C12.02 47.52 12.96 46.58 12.96 45.36C12.96 43.92 10.80 43.20 9.36 43.20C8.14 43.20 7.20 44.14 7.20 45.36ZM11.52 7.92C10.51 7.92 9.65 8.64 9.43 9.65C8.50 14.18 7.92 20.81 7.92 36C7.92 37.15 8.93 38.16 10.08 38.16C11.23 38.16 12.24 37.15 12.24 36C12.24 20.95 12.82 14.62 13.61 10.51C13.61 10.37 13.68 10.22 13.68 10.08C13.68 9 12.82 7.92 11.52 7.92Z"/></svg>