<svg xmlns="http://www.w3.org/2000/svg" xmlns:xlink="http://www.w3.org/1999/xlink" width="34.56" height="72.00000000000001"><path fill="red" stroke="black" d="M28.08 21.60C27.29 21.60 26.57 21.96 26.21 22.68C25.42 24.12 24.55 25.78 23.76 27.36C21.96 27.36 20.30 27.29 18.86 27.29C19.51 26.42 20.88 25.13 20.88 23.76C20.88 22.61 19.94 21.60 18.72 21.60C18.07 21.60 17.42 21.89 16.99 22.46C15.84 24.05 14.76 25.63 13.75 27.14C7.20 26.93 5.54 26.64 5.04 26.64C3.82 26.64 2.88 27.50 2.88 28.80C2.88 29.81 3.60 30.74 4.68 30.96C4.90 30.96 6.48 31.18 11.09 31.39C9.94 33.26 8.93 35.06 7.99 36.86C5.90 37.15 4.68 37.51 4.61 37.51C3.60 37.73 2.88 38.59 2.88 39.60C2.88 40.90 3.96 41.76 5.04 41.76C5.26 41.76 5.47 41.76 5.69 41.69C5.18 42.84 4.32 44.06 4.32 45.36C4.32 46.44 5.18 47.52 6.48 47.52C7.34 47.52 8.21 47.02 8.50 46.15C9.07 44.57 9.86 42.77 10.80 40.82C12.74 40.61 15.12 40.39 17.71 40.32C17.21 41.54 16.56 42.70 16.56 43.92C16.56 45 17.42 46.08 18.72 46.08C19.66 46.08 20.45 45.43 20.74 44.57C21.10 43.49 21.67 42.05 22.39 40.39C26.14 40.61 27.36 41.04 28.08 41.04C29.16 41.04 30.24 40.18 30.24 38.88C30.24 37.87 29.52 37.01 28.51 36.79C28.44 36.79 26.86 36.43 24.26 36.22C24.91 34.70 25.70 33.19 26.42 31.68L29.52 31.68C30.67 31.68 31.68 30.67 31.68 29.52C31.68 28.37 30.67 27.36 29.52 27.36L28.58 27.36C29.16 26.28 30.24 25.06 30.24 23.76C30.24 22.68 29.38 21.60 28.08 21.60ZM19.44 36C17.21 36 15.12 36.14 13.25 36.29C14.11 34.78 15.05 33.12 16.06 31.54C17.71 31.61 19.51 31.61 21.60 31.61C20.88 33.12 20.23 34.56 19.58 36Z"/></svg>