<svg xmlns="http://www.w3.org/2000/svg" xmlns:xlink="http://www.w3.org/1999/xlink" width="33.84" height="72.00000000000001"><path fill="red" stroke="black" d="M2.88 43.20C2.88 44.14 3.53 45 4.46 45.29C4.54 45.29 8.06 46.30 12.60 46.94C12.38 49.54 12.24 51.55 12.24 52.56C12.24 53.71 13.25 54.72 14.40 54.72C15.55 54.72 16.56 53.71 16.56 52.56C16.56 51.70 16.70 49.82 16.92 47.38C18.00 47.45 19.08 47.52 20.16 47.52C24.19 47.52 30.96 46.87 30.96 40.32C30.96 33.62 23.90 30.89 18.58 28.80C19.01 23.83 19.51 18.72 19.80 14.40C23.83 14.62 24.77 16.13 24.77 16.20C25.20 16.92 25.92 17.28 26.64 17.28C27.94 17.28 28.80 16.20 28.80 15.12C28.80 14.83 28.73 14.47 28.58 14.18C28.22 13.46 26.21 10.51 20.02 10.15C20.09 8.50 20.16 6.98 20.16 5.76C20.16 4.61 19.15 3.60 18.00 3.60C16.85 3.60 15.84 4.61 15.84 5.76C15.84 6.98 15.77 8.50 15.70 10.30C10.08 11.09 3.60 14.26 3.60 20.88C3.60 26.78 9.07 29.59 13.97 31.61C13.61 35.50 13.25 39.31 12.96 42.62C8.28 41.90 5.90 41.04 5.11 41.04C4.03 41.04 2.88 41.83 2.88 43.20ZM20.16 43.20C19.22 43.20 18.22 43.13 17.28 43.06C17.57 40.10 17.86 36.79 18.14 33.26C23.33 35.42 26.64 37.51 26.64 40.32C26.64 42.41 24.77 43.20 20.16 43.20ZM7.92 20.88C7.92 18 11.23 15.62 15.41 14.76C15.12 18.50 14.76 22.68 14.40 27C10.37 25.13 7.92 23.33 7.92 20.88Z"/></svg>