<svg xmlns="http://www.w3.org/2000/svg" xmlns:xlink="http://www.w3.org/1999/xlink" width="59.040000000000006" height="72.00000000000001"><path fill="red" stroke="black" d="M38.88 0C38.02 0 37.30 0.50 36.94 1.30C28.94 19.37 20.16 41.47 20.16 50.40C20.16 51.55 21.17 52.56 22.32 52.56C23.47 52.56 24.48 51.55 24.48 50.40C24.48 43.49 32.98 20.95 40.82 3.02C40.97 2.74 41.04 2.45 41.04 2.16C41.04 1.08 40.18 0 38.88 0ZM7.92 10.08C7.56 10.08 7.20 10.15 6.84 10.37C6.55 10.51 2.88 12.74 2.88 17.28C2.88 21.31 6.05 24.48 10.08 24.48C15.34 24.48 20.16 20.81 20.16 15.12C20.16 11.09 16.99 7.92 12.96 7.92C11.81 7.92 10.80 8.93 10.80 10.08C10.80 11.23 11.81 12.24 12.96 12.24C14.69 12.24 15.84 13.39 15.84 15.12C15.84 18.07 13.46 20.16 10.08 20.16C8.35 20.16 7.20 19.01 7.20 17.28C7.20 14.04 10.08 14.62 10.08 12.17C10.08 10.94 9.00 10.08 7.92 10.08ZM46.80 36C46.80 34.78 45.72 33.84 44.64 33.84C44.28 33.84 43.85 33.98 43.49 34.20C43.27 34.34 40.32 36.29 40.32 40.32C40.32 44.35 43.49 47.52 47.52 47.52C51.98 47.52 56.16 44.64 56.16 39.60C56.16 35.57 52.99 32.40 48.96 32.40C47.81 32.40 46.80 33.41 46.80 34.56C46.80 35.71 47.81 36.72 48.96 36.72C50.69 36.72 51.84 37.87 51.84 39.60C51.84 41.76 50.26 43.20 47.52 43.20C45.79 43.20 44.64 42.05 44.64 40.32C44.64 37.44 46.80 38.09 46.80 36Z"/></svg>