<svg xmlns="http://www.w3.org/2000/svg" xmlns:xlink="http://www.w3.org/1999/xlink" width="33.84" height="72.00000000000001"><path fill="red" stroke="black" d="M9.36 41.04C9.36 39.53 10.22 38.16 12.10 36.50C13.54 38.66 15.19 40.68 17.06 42.41C15.77 43.06 14.33 43.42 12.82 43.42C10.22 43.42 9.36 41.76 9.36 41.04ZM20.16 19.44C20.16 24.12 17.21 26.93 13.46 29.88C12.24 27 11.52 24.12 11.52 21.60C11.52 16.56 13.75 12.24 16.56 12.24C18.65 12.24 20.16 15.05 20.16 19.44ZM28.80 28.08C27.94 28.08 27.14 28.58 26.78 29.45C25.34 33.12 23.18 37.08 20.59 39.74C18.72 38.16 16.92 36 15.48 33.77C19.37 30.74 24.48 26.64 24.48 19.44C24.48 15.19 23.11 7.92 16.56 7.92C9.29 7.92 7.20 16.56 7.20 21.60C7.20 25.20 8.21 29.02 9.94 32.62C7.49 34.63 5.04 37.30 5.04 41.04C5.04 44.50 8.21 47.74 12.82 47.74C15.84 47.74 18.50 46.73 20.81 45.14C23.26 46.58 25.99 47.52 28.80 47.52C29.95 47.52 30.96 46.51 30.96 45.36C30.96 44.21 29.95 43.20 28.80 43.20C27.29 43.20 25.78 42.84 24.26 42.12C27.22 38.88 29.30 34.78 30.82 31.03C30.89 30.74 30.96 30.53 30.96 30.24C30.96 29.16 30.10 28.08 28.80 28.08Z"/></svg>