<svg xmlns="http://www.w3.org/2000/svg" xmlns:xlink="http://www.w3.org/1999/xlink" width="33.84" height="72.00000000000001"><path fill="red" stroke="black" d="M30.96 34.56C30.96 33.41 29.95 32.40 28.80 32.40C26.65 32.40 24.21 32.41 21.71 32.43C25.10 28.89 26.72 28.00 26.78 27.94C27.58 27.58 28.08 26.78 28.08 25.92C28.08 24.62 27.00 23.76 25.92 23.76C25.63 23.76 25.34 23.83 25.13 23.90C24.65 24.14 22.73 25.03 18.95 28.96C19.17 26.48 19.43 24.64 19.73 23.11C19.73 22.97 19.80 22.82 19.80 22.68C19.80 21.60 18.94 20.52 17.64 20.52C16.63 20.52 15.77 21.24 15.55 22.25C15.16 24.16 14.83 26.44 14.58 29.58C13.48 28.28 12.29 26.86 11.02 25.27C10.58 24.77 10.01 24.48 9.36 24.48C8.14 24.48 7.20 25.49 7.20 26.64C7.20 27.14 7.42 27.65 7.70 28.01C9.07 29.68 10.33 31.22 11.49 32.62C8.57 32.73 6.11 32.89 4.68 33.12C3.60 33.26 2.88 34.27 2.88 35.28C2.88 36.58 3.96 37.44 5.04 37.44L5.40 37.44C6.59 37.25 9.09 37.10 12.16 36.99C10.57 39.04 8.83 41.40 6.91 44.14C6.62 44.50 6.48 44.93 6.48 45.36C6.48 46.44 7.42 47.52 8.64 47.52C9.29 47.52 9.94 47.16 10.37 46.58C11.70 44.71 12.94 43.05 14.09 41.56C14.06 43.68 14.04 46.02 14.04 48.60C14.04 49.75 15.05 50.76 16.20 50.76C17.35 50.76 18.36 49.75 18.36 48.60C18.36 45.63 18.38 42.99 18.42 40.65C24.15 46.81 25.98 47.52 27.29 47.52C28.37 47.52 29.52 46.73 29.52 45.36C29.52 44.35 28.80 43.49 28.01 43.27C27.68 43.14 25.64 41.89 20.87 36.78C23.67 36.74 26.44 36.72 28.80 36.72C29.95 36.72 30.96 35.71 30.96 34.56Z"/></svg>