<svg xmlns="http://www.w3.org/2000/svg" xmlns:xlink="http://www.w3.org/1999/xlink" width="25.200000000000003" height="72.00000000000001"><path fill="red" stroke="black" d="M7.92 45.36C7.92 46.80 10.08 47.52 11.52 47.52C12.74 47.52 13.68 46.58 13.68 45.36C13.68 43.92 11.52 43.20 10.08 43.20C8.86 43.20 7.92 44.14 7.92 45.36ZM7.92 12.24C7.92 11.30 7.20 10.51 7.20 9.36C7.20 6.41 9.29 4.32 12.24 4.32C15.77 4.32 18.00 6.55 18.00 10.08C18.00 11.66 17.71 13.18 17.35 14.54C16.06 19.08 12.60 24.05 10.30 28.58C9.43 30.31 8.64 32.62 8.64 34.56C8.64 35.71 9.58 36.72 10.80 36.72C11.88 36.72 12.89 35.86 12.96 34.78C13.10 33.55 13.61 31.61 14.18 30.46C16.92 25.06 22.32 18.79 22.32 10.08C22.32 4.25 18.07 0 12.24 0C6.98 0 2.88 4.10 2.88 9.36C2.88 11.30 3.60 14.40 5.76 14.40C7.06 14.40 7.92 13.32 7.92 12.24Z"/></svg>