<svg xmlns="http://www.w3.org/2000/svg" xmlns:xlink="http://www.w3.org/1999/xlink" width="43.92" height="72.00000000000001"><path fill="red" stroke="black" d="M22.32 37.22C20.45 39.74 18.50 41.04 17.28 41.04C15.91 41.04 15.12 40.25 15.12 38.88C15.12 35.50 17.28 32.40 18.72 32.40C19.66 32.40 20.95 34.70 22.32 37.22ZM35.28 45.36C34.85 45.36 34.42 45.50 34.06 45.72C28.87 49.18 21.60 52.56 15.12 52.56C10.22 52.56 7.20 48.31 7.20 42.48C7.20 28.37 15.70 18.72 29.52 18.72C34.20 18.72 36.72 21.24 36.72 25.92C36.72 31.25 32.47 38.16 28.80 38.16C28.37 38.16 28.01 38.02 27.43 37.30C29.45 33.70 30.82 29.59 30.82 26.35C30.82 25.20 29.81 24.19 28.66 24.19C27.50 24.19 26.50 25.20 26.50 26.35C26.50 27.86 25.85 30.38 24.84 32.76C23.76 30.82 22.10 28.08 18.72 28.08C12.96 28.08 10.80 35.06 10.80 38.88C10.80 42.55 13.61 45.36 17.28 45.36C20.38 45.36 22.97 43.27 24.91 40.97C25.85 41.83 27.22 42.48 28.80 42.48C36.65 42.48 41.04 32.11 41.04 25.92C41.04 19.08 36.36 14.40 29.52 14.40C13.10 14.40 2.88 26.35 2.88 42.48C2.88 49.61 7.06 56.88 15.12 56.88C23.04 56.88 30.89 53.06 36.50 49.32C37.15 48.89 37.44 48.24 37.44 47.52C37.44 46.30 36.36 45.36 35.28 45.36Z"/></svg>