<svg xmlns="http://www.w3.org/2000/svg" xmlns:xlink="http://www.w3.org/1999/xlink" width="26.640000000000004" height="72.00000000000001"><path fill="red" stroke="black" d="M23.76 17.28C23.76 16.70 23.54 16.20 23.11 15.77C21.24 13.90 21.17 12.96 19.58 9.86C18.79 8.28 17.35 5.76 14.40 5.76C12.24 5.76 10.80 7.13 9.43 8.64C7.34 10.94 5.04 14.26 3.89 16.20C3.67 16.56 3.60 16.92 3.60 17.28C3.60 18.36 4.46 19.44 5.76 19.44C6.48 19.44 7.20 19.01 7.63 18.36C8.64 16.70 10.80 13.54 12.60 11.52C13.82 10.15 14.40 10.08 14.40 10.08C14.47 10.08 14.90 10.15 15.70 11.74C16.99 14.40 17.64 16.34 20.09 18.79C20.52 19.22 21.02 19.44 21.60 19.44C22.75 19.44 23.76 18.43 23.76 17.28Z"/></svg>