<svg xmlns="http://www.w3.org/2000/svg" xmlns:xlink="http://www.w3.org/1999/xlink" width="36.00000000000001" height="72.00000000000001"><path fill="red" stroke="black" d="M17.28 36C17.28 34.34 19.22 32.54 23.11 31.39C23.54 34.49 23.76 37.58 23.76 40.32C23.76 42.55 22.90 43.20 22.32 43.20C20.66 43.20 17.28 38.88 17.28 36ZM5.04 47.52C6.05 47.52 6.98 46.73 7.20 45.72C8.64 37.80 10.37 27.43 12.82 20.09C15.12 13.25 16.56 12.24 17.28 12.24C18.00 12.24 19.37 13.68 20.95 19.94C21.46 22.03 22.03 24.48 22.46 27.07C18.22 28.22 12.96 30.74 12.96 36C12.96 40.32 16.78 47.52 22.32 47.52C26.78 47.52 28.08 43.13 28.08 40.32C28.08 37.22 27.79 33.84 27.36 30.53C28.66 30.38 29.88 30.24 30.96 30.24C32.11 30.24 33.12 29.23 33.12 28.08C33.12 26.93 32.11 25.92 30.96 25.92C29.66 25.92 28.22 25.99 26.71 26.21C26.28 23.54 25.63 21.10 25.13 18.94C23.83 13.68 22.32 7.92 17.28 7.92C12.67 7.92 10.80 12.67 8.78 18.79C6.19 26.57 4.32 37.08 2.88 45L2.88 45.36C2.88 46.44 3.74 47.52 5.04 47.52Z"/></svg>