<svg xmlns="http://www.w3.org/2000/svg" xmlns:xlink="http://www.w3.org/1999/xlink" width="34.56" height="72.00000000000001"><path fill="red" stroke="black" d="M8.64 36.72C8.64 36.58 8.64 36.36 8.57 36.22C7.85 33.34 7.20 30.74 7.20 25.92C7.20 19.73 9.86 12.24 12.96 12.24C14.33 12.24 15.12 13.03 15.12 14.40C15.12 17.86 12.96 20.02 12.96 25.20C12.96 29.23 15.91 31.46 18.86 31.75C26.35 32.47 27.36 33.77 27.36 35.28C27.36 38.95 20.45 43.20 15.12 43.20C13.90 43.20 12.67 42.77 11.59 41.69C11.16 41.26 10.66 41.04 10.08 41.04C8.93 41.04 7.92 42.05 7.92 43.20C7.92 43.78 8.14 44.28 8.57 44.71C10.37 46.51 12.74 47.52 15.12 47.52C21.31 47.52 31.68 43.13 31.68 35.28C31.68 29.59 26.21 28.15 19.30 27.43C17.93 27.29 17.28 26.93 17.28 25.20C17.28 21.74 19.44 19.58 19.44 14.40C19.44 10.73 16.63 7.92 12.96 7.92C4.54 7.92 2.88 20.59 2.88 25.92C2.88 31.18 3.67 34.34 4.39 37.22C4.61 38.16 5.54 38.88 6.48 38.88C7.78 38.88 8.64 37.80 8.64 36.72Z"/></svg>