<svg xmlns="http://www.w3.org/2000/svg" xmlns:xlink="http://www.w3.org/1999/xlink" width="34.56" height="72.00000000000001"><path fill="red" stroke="black" d="M7.92 38.88C7.92 38.74 7.85 38.59 7.85 38.45C7.49 36.65 7.20 31.61 7.20 26.64C7.20 21.74 7.99 17.28 9.07 15.48C10.30 13.46 11.45 12.24 15.84 12.24C21.67 12.24 27.36 16.20 27.36 20.88C27.36 27.58 22.10 32.26 15.91 37.22C12.31 40.10 8.71 42.98 5.69 46.01C5.26 46.44 5.04 46.94 5.04 47.52C5.04 48.67 6.05 49.68 7.20 49.68C7.78 49.68 8.28 49.46 8.71 49.03C11.45 46.30 15.05 43.42 18.65 40.54C24.70 35.71 31.68 30.02 31.68 20.88C31.68 12.60 22.97 7.92 15.84 7.92C4.97 7.92 2.88 16.06 2.88 26.64C2.88 31.75 3.17 36.79 3.67 39.31C3.89 40.32 4.75 41.04 5.76 41.04C7.06 41.04 7.92 39.96 7.92 38.88Z"/></svg> 18.86 46.80 23.76 35.06L23.76 35.28C23.76 44.14 28.73 47.02 29.30 47.30C29.59 47.45 29.95 47.52 30.24 47.52C31.32 47.52 32.40 46.66 32.40 45.36Z"/></svg>