<svg xmlns="http://www.w3.org/2000/svg" xmlns:xlink="http://www.w3.org/1999/xlink" width="33.84" height="72.00000000000001"><path fill="red" stroke="black" d="M28.80 39.60C28.37 39.60 27.94 39.74 27.58 39.96C25.99 40.97 19.80 43.20 12.24 43.20C8.71 43.20 7.20 41.18 7.20 36.72C7.20 34.20 7.34 31.61 7.56 29.09C9.29 28.66 12.82 28.08 18.00 28.08C20.02 28.08 21.60 28.22 24.05 28.73C24.19 28.73 24.34 28.80 24.48 28.80C25.56 28.80 26.64 27.94 26.64 26.64C26.64 23.90 21.46 23.76 18.72 23.76L18.00 23.76C13.61 23.76 10.22 24.19 8.06 24.62C8.64 20.02 9.43 15.98 9.79 13.90C12.82 13.03 18.14 12.24 28.80 12.24C29.95 12.24 30.96 11.23 30.96 10.08C30.96 8.93 29.95 7.92 28.80 7.92C16.42 7.92 10.80 9.07 7.27 10.22C6.48 10.51 5.83 11.16 5.76 11.95C5.54 13.25 2.88 25.49 2.88 36.72C2.88 42.34 5.69 47.52 12.24 47.52C20.52 47.52 27.29 45.43 30.02 43.56C30.67 43.13 30.96 42.48 30.96 41.76C30.96 40.54 29.88 39.60 28.80 39.60Z"/></svg>