<svg xmlns="http://www.w3.org/2000/svg" xmlns:xlink="http://www.w3.org/1999/xlink" width="33.84" height="72.00000000000001"><path fill="red" stroke="black" d="M30.96 12.96C32.04 12.96 33.12 12.10 33.12 10.80C33.12 10.08 32.76 9.29 31.97 8.86C31.46 8.64 29.81 7.92 25.20 7.92C15.19 7.92 2.88 8.86 2.88 19.44C2.88 32.11 6.62 41.33 12.17 46.87C12.38 47.09 13.10 47.52 13.68 47.52C14.83 47.52 15.84 46.51 15.84 45.36C15.84 44.93 15.41 39.46 15.19 29.88C16.27 30.02 17.57 30.17 18.94 30.17C22.68 30.17 25.13 29.81 27.00 29.52C28.08 29.38 28.80 28.37 28.80 27.36C28.80 26.06 27.72 25.20 26.64 25.20C24.48 25.20 22.61 25.85 18.94 25.85C17.57 25.85 16.13 25.70 15.12 25.56L15.12 20.88C15.12 19.73 14.11 18.72 12.96 18.72C11.81 18.72 10.80 19.73 10.80 20.88C10.80 28.08 11.02 33.98 11.16 38.16C8.78 33.55 7.20 27.36 7.20 19.44C7.20 17.71 7.78 16.49 8.35 15.91C11.09 13.18 17.28 12.24 25.20 12.24C29.88 12.24 29.30 12.96 30.96 12.96Z"/></svg>3 10.87C16.27 7.34 17.28 6.48 18.72 6.48C19.58 6.48 21.60 8.28 21.60 12.24C21.60 17.42 19.73 23.33 14.33 28.73C13.90 29.16 13.68 29.66 13.68 30.24C13.68 31.39 14.69 32.40 15.84 32.40Z"/></svg>