<svg xmlns="http://www.w3.org/2000/svg" xmlns:xlink="http://www.w3.org/1999/xlink" width="34.56" height="72.00000000000001"><path fill="red" stroke="black" d="M20.88 37.44C20.88 40.54 18.22 43.20 15.12 43.20C10.44 43.20 7.20 38.38 7.20 32.40C7.20 23.62 14.26 12.24 21.60 12.24C23.62 12.24 25.20 13.75 25.20 15.12C25.20 16.13 24.48 16.99 24.48 18C24.48 19.08 25.34 20.16 26.64 20.16C28.80 20.16 29.52 17.28 29.52 15.12C29.52 10.73 25.34 7.92 21.60 7.92C10.22 7.92 2.88 22.46 2.88 32.40C2.88 39.38 6.84 47.52 15.12 47.52C20.66 47.52 25.20 42.98 25.20 37.44C25.20 35.42 24.48 33.98 24.48 32.40C24.48 31.54 24.91 30.24 29.52 30.24C30.67 30.24 31.68 29.23 31.68 28.08C31.68 26.93 30.67 25.92 29.52 25.92C24.34 25.92 20.16 27.94 20.16 32.40C20.16 34.42 20.88 35.86 20.88 37.44Z"/></svg>5.62 46.94C14.90 46.08 14.11 45.29 13.39 44.57C9.72 40.90 7.20 37.73 7.20 34.56C7.20 30.67 9.79 28.08 13.68 28.08C15.19 28.08 16.27 28.58 17.14 29.52C17.57 29.95 18.14 30.24 18.72 30.24C19.94 30.24 20.88 29.23 20.88 28.08Z"/></svg>