<svg xmlns="http://www.w3.org/2000/svg" xmlns:xlink="http://www.w3.org/1999/xlink" width="37.440000000000005" height="72.00000000000001"><path fill="red" stroke="black" d="M7.20 38.16C7.20 36.29 8.35 35.06 12.53 32.90C13.18 36.58 13.68 39.67 13.68 41.04C13.68 42.41 12.89 43.20 11.52 43.20C9.86 43.20 7.20 40.32 7.20 38.16ZM34.56 45.36C34.56 45.22 34.56 45 34.49 44.86C33.12 39.38 31.68 27.58 31.68 11.52C31.68 10.44 30.74 9.36 29.52 9.36C28.37 9.36 27.36 10.30 27.36 11.45C27.14 19.51 21.31 23.62 15.70 26.50C14.69 20.81 13.68 14.69 13.68 10.08C13.68 8.93 12.67 7.92 11.52 7.92C10.37 7.92 9.36 8.93 9.36 10.08C9.36 15.62 10.51 22.39 11.66 28.44C6.98 30.82 2.88 33.12 2.88 38.16C2.88 42.48 6.70 47.52 11.52 47.52C15.19 47.52 18.00 44.71 18.00 41.04C18.00 38.66 17.28 35.14 16.49 30.89C19.94 29.16 24.41 26.71 27.58 22.82C28.08 33.48 29.16 41.26 30.31 45.86C30.53 46.80 31.46 47.52 32.40 47.52C33.70 47.52 34.56 46.44 34.56 45.36Z"/></svg>