<svg xmlns="http://www.w3.org/2000/svg" xmlns:xlink="http://www.w3.org/1999/xlink" width="39.6" height="72.00000000000001"><path fill="red" stroke="black" d="M2.88 41.04C2.88 41.62 3.10 42.12 3.53 42.55C6.84 45.86 11.09 47.52 16.56 47.52C22.75 47.52 28.15 45.94 35.50 42.26C36.22 41.90 36.72 41.11 36.72 40.32C36.72 39.02 35.64 38.16 34.56 38.16C34.27 38.16 33.91 38.23 33.62 38.38C26.57 41.90 21.89 43.20 16.56 43.20C11.95 43.20 9.00 41.98 6.55 39.53C6.12 39.10 5.62 38.88 5.04 38.88C3.89 38.88 2.88 39.89 2.88 41.04ZM10.08 27.36C10.08 26.78 9.86 26.28 9.43 25.85C8.35 24.77 7.20 22.75 7.20 20.16C7.20 15.34 14.98 12.24 22.32 12.24C25.78 12.24 29.23 12.67 30.74 13.46C31.03 13.61 31.39 13.68 31.68 13.68C32.76 13.68 33.84 12.82 33.84 11.52C33.84 10.73 33.34 9.94 32.62 9.58C29.81 8.21 26.06 7.92 22.32 7.92C15.26 7.92 2.88 10.58 2.88 20.16C2.88 24.05 4.61 27.07 6.41 28.87C6.84 29.30 7.34 29.52 7.92 29.52C9.07 29.52 10.08 28.51 10.08 27.36ZM18.72 41.76C19.73 41.76 20.52 41.04 20.81 40.18C20.88 39.89 21.60 36.72 21.60 31.68C21.60 23.04 20.16 17.57 20.09 17.42C19.80 16.49 18.94 15.84 18.00 15.84C16.70 15.84 15.84 16.85 15.84 18C15.84 18.94 17.28 22.97 17.28 31.68C17.28 36.86 16.56 38.81 16.56 39.60C16.56 40.68 17.42 41.76 18.72 41.76Z"/></svg>