<svg xmlns="http://www.w3.org/2000/svg" xmlns:xlink="http://www.w3.org/1999/xlink" width="34.56" height="72.00000000000001"><path fill="red" stroke="black" d="M28.80 7.92C28.01 7.92 27.22 8.42 26.86 9.14C25.85 11.16 25.20 14.90 25.20 20.16C25.20 25.56 26.64 31.32 26.64 36C26.64 40.25 20.16 43.20 13.68 43.20C9.50 43.20 7.20 41.98 7.20 40.32C7.20 37.08 10.08 37.66 10.08 35.28C10.08 34.06 9.00 33.12 7.92 33.12C7.56 33.12 7.20 33.19 6.84 33.41C6.70 33.48 2.88 35.71 2.88 40.32C2.88 46.58 9.94 47.52 13.68 47.52C20.16 47.52 30.96 44.71 30.96 36C30.96 30.60 29.52 24.84 29.52 20.16C29.52 15.34 30.31 11.88 30.74 11.02C30.89 10.73 30.96 10.37 30.96 10.08C30.96 9 30.10 7.92 28.80 7.92Z"/></svg>6C27.36 36.94 26.28 36 25.20 36C24.77 36 24.34 36.07 23.98 36.36C21.74 37.87 19.08 40.18 16.42 42.77C15.48 36.94 14.40 31.10 14.40 25.92C14.40 24.77 13.39 23.76 12.24 23.76C11.09 23.76 10.08 24.77 10.08 25.92C10.08 32.69 11.59 39.89 12.67 46.66Z"/></svg>