<svg xmlns="http://www.w3.org/2000/svg" xmlns:xlink="http://www.w3.org/1999/xlink" width="36.720000000000006" height="72.00000000000001"><path fill="red" stroke="black" d="M31.68 7.92C31.10 7.92 30.60 8.14 30.17 8.57C22.75 15.98 17.86 29.30 13.18 38.66C11.23 42.48 10.44 43.20 9.50 43.20C8.28 43.20 7.20 41.33 7.20 37.44C7.20 29.59 7.92 23.47 7.92 14.40C7.92 13.25 6.98 12.24 5.76 12.24C4.61 12.24 3.67 13.18 3.60 14.33C3.31 23.26 2.88 29.45 2.88 37.44C2.88 40.75 3.53 47.52 9.50 47.52C13.61 47.52 15.41 43.92 17.06 40.54C18.50 37.66 19.73 34.99 21.10 31.97C23.18 37.80 26.64 43.34 30.17 46.87C30.60 47.30 31.10 47.52 31.68 47.52C32.83 47.52 33.84 46.51 33.84 45.36C33.84 44.78 33.62 44.28 33.19 43.85C29.38 40.03 25.42 32.76 23.90 26.21C26.71 20.66 29.66 15.12 33.19 11.59C33.62 11.16 33.84 10.66 33.84 10.08C33.84 8.93 32.83 7.92 31.68 7.92Z"/></svg>42 30.67 7.20 28.15 7.20 25.92C7.20 18.14 7.92 9.58 9.29 2.59C9.29 2.45 9.36 2.30 9.36 2.16C9.36 1.08 8.50 0 7.20 0Z"/></svg>