<svg xmlns="http://www.w3.org/2000/svg" xmlns:xlink="http://www.w3.org/1999/xlink" width="42.480000000000004" height="72.00000000000001"><path fill="red" stroke="black" d="M39.60 45.36C39.60 44.86 39.38 44.35 39.02 43.92C38.74 43.56 35.28 37.37 35.28 10.08C35.28 8.93 34.27 7.92 33.12 7.92C32.18 7.92 31.39 8.57 31.10 9.43C29.74 13.54 21.82 24.48 16.56 24.48C13.90 24.48 11.59 18.86 10.01 12.46C9.79 11.52 8.86 10.80 7.92 10.80C6.91 10.80 6.19 11.45 5.90 12.24C5.83 12.38 2.88 20.52 2.88 33.12C2.88 43.42 4.25 45.86 4.68 46.58C5.11 47.23 5.83 47.52 6.48 47.52C7.70 47.52 8.64 46.44 8.64 45.36C8.64 45 8.57 44.64 8.35 44.28C8.28 44.06 7.20 41.47 7.20 33.12C7.20 28.37 7.63 24.34 8.14 21.17C9.58 24.62 12.02 28.80 16.56 28.80C22.46 28.80 27.72 23.18 31.10 18.29C31.75 41.98 35.06 46.08 35.93 46.94C36.36 47.30 36.94 47.52 37.51 47.52C38.66 47.52 39.60 46.51 39.60 45.36Z"/></svg>39.82 17.78 45.36 23.04 45.36C27.58 45.36 30.10 40.90 32.76 36.86C35.86 32.26 37.66 30.24 38.88 30.24C39.38 30.24 40.32 30.46 40.32 36.72C40.32 41.98 40.82 47.52 46.08 47.52C50.62 47.52 53.14 43.06 55.80 39.02C58.90 34.42 60.70 32.40 61.92 32.40C62.42 32.40 63.36 32.62 63.36 38.88C63.36 43.56 65.30 47.52 69.84 47.52C72.07 47.52 74.02 46.37 75.67 44.71C76.10 44.28 76.32 43.78 76.32 43.20C76.32 42.05 75.31 41.04 74.16 41.04Z"/></svg>