<svg xmlns="http://www.w3.org/2000/svg" xmlns:xlink="http://www.w3.org/1999/xlink" width="40.32000000000001" height="72.00000000000001"><path fill="red" stroke="black" d="M5.04 49.68C5.98 49.68 6.77 49.03 7.06 48.17C8.35 44.21 9.94 30.31 11.45 19.73C12.53 24.41 13.46 29.23 14.47 33.62C15.91 39.96 17.64 47.52 23.76 47.52C29.16 47.52 31.25 42.19 32.33 37.94C33.48 33.34 36.00 16.13 37.37 10.58C37.44 10.44 37.44 10.22 37.44 10.08C37.44 9 36.58 7.92 35.28 7.92C34.34 7.92 33.41 8.64 33.19 9.58C31.68 15.55 29.16 32.90 28.15 36.94C27.07 41.33 25.56 43.20 23.76 43.20C22.25 43.20 20.38 40.10 18.65 32.62C16.92 25.27 15.55 15.98 12.82 9.29C12.53 8.64 11.81 7.92 10.80 7.92C9.79 7.92 8.93 8.64 8.71 9.65C6.98 18.43 4.32 42.98 3.02 46.87C2.95 47.09 2.88 47.30 2.88 47.52C2.88 48.60 3.74 49.68 5.04 49.68Z"/></svg> 45.36Z"/></svg>