<svg xmlns="http://www.w3.org/2000/svg" xmlns:xlink="http://www.w3.org/1999/xlink" width="39.6" height="72.00000000000001"><path fill="red" stroke="black" d="M13.68 14.40C15.77 14.40 16.06 12.24 21.60 12.24C27.86 12.24 32.40 18.72 32.40 25.92C32.40 35.21 26.50 43.20 18.00 43.20C11.16 43.20 7.20 39.24 7.20 32.40C7.20 27.29 9.79 23.83 11.74 22.82C12.46 22.46 12.96 21.67 12.96 20.88C12.96 19.58 11.88 18.72 10.80 18.72C10.51 18.72 10.15 18.79 9.86 18.94C6.05 20.81 2.88 25.99 2.88 32.40C2.88 41.40 9.00 47.52 18.00 47.52C29.66 47.52 36.72 36.79 36.72 25.92C36.72 17.28 31.18 7.92 21.60 7.92C15.98 7.92 12.67 10.22 12.31 10.51C11.81 10.94 11.52 11.66 11.52 12.31C11.52 13.54 12.60 14.40 13.68 14.40Z"/></svg></svg>