<svg xmlns="http://www.w3.org/2000/svg" xmlns:xlink="http://www.w3.org/1999/xlink" width="34.56" height="72.00000000000001"><path fill="red" stroke="black" d="M7.20 24.48C7.20 17.93 13.32 12.24 20.16 12.24C24.19 12.24 27.36 15.05 27.36 18.72C27.36 24.62 17.28 27.72 13.68 28.94C12.82 29.23 12.24 30.02 12.24 30.96C12.24 32.26 13.32 33.12 14.40 33.12C14.62 33.12 14.90 33.05 15.12 32.98C19.80 31.39 31.68 27.43 31.68 18.72C31.68 12.31 26.21 7.92 20.16 7.92C11.16 7.92 2.88 15.19 2.88 24.48C2.88 31.25 7.20 41.47 7.20 47.52C7.20 48.67 8.21 49.68 9.36 49.68C10.51 49.68 11.52 48.67 11.52 47.52C11.52 40.61 7.20 31.18 7.20 24.48Z"/></svg>4 28.51 43.20 25.20 43.20C22.97 43.20 22.97 42.48 21.60 42.48C20.52 42.48 19.44 43.34 19.44 44.64Z"/></svg>