<svg xmlns="http://www.w3.org/2000/svg" xmlns:xlink="http://www.w3.org/1999/xlink" width="43.2" height="72.00000000000001"><path fill="red" stroke="black" d="M24.48 20.16C24.48 17.28 19.66 16.56 18.00 16.56C17.64 16.56 17.21 16.63 16.85 16.63C18.65 13.90 21.31 12.24 24.48 12.24C31.10 12.24 36.00 17.64 36.00 24.48C36.00 28.80 34.27 33.05 31.46 36.43C22.39 29.59 15.12 30.82 15.12 22.32C15.12 21.96 15.12 21.60 15.19 21.24C16.06 21.02 16.99 20.88 18.00 20.88C19.15 20.88 20.38 21.24 20.81 21.67C21.24 22.10 21.74 22.32 22.32 22.32C23.47 22.32 24.48 21.31 24.48 20.16ZM40.32 49.68C40.32 49.46 40.25 49.25 40.18 49.03C38.81 44.93 36.94 41.76 34.70 39.31C38.16 35.21 40.32 29.95 40.32 24.48C40.32 15.48 33.70 7.92 24.48 7.92C18.14 7.92 13.18 12.31 11.45 18C5.98 20.66 2.88 26.64 2.88 33.12C2.88 41.62 9.79 47.52 18.00 47.52C23.11 47.52 27.86 45.50 31.61 42.41C33.34 44.35 34.99 46.80 36.14 50.33C36.43 51.19 37.22 51.84 38.16 51.84C39.46 51.84 40.32 50.76 40.32 49.68ZM7.20 33.12C7.20 29.23 8.64 25.85 10.87 23.69C11.74 34.13 22.18 34.99 28.37 39.46C25.34 41.76 21.74 43.20 18.00 43.20C11.81 43.20 7.20 39.02 7.20 33.12Z"/></svg>