<svg xmlns="http://www.w3.org/2000/svg" xmlns:xlink="http://www.w3.org/1999/xlink" width="40.32000000000001" height="72.00000000000001"><path fill="red" stroke="black" d="M8.64 45.36C8.64 45.14 8.57 44.93 8.50 44.71C7.85 42.84 7.20 39.38 7.20 34.56C7.20 29.88 8.42 26.64 9.22 24.55C12.02 17.42 19.37 12.24 27.36 12.24C31.10 12.24 33.12 13.82 33.12 16.56C33.12 18.50 32.18 20.02 29.52 22.03C25.85 24.77 17.28 28.37 17.28 35.28C17.28 43.34 29.30 47.52 35.28 47.52C36.43 47.52 37.44 46.51 37.44 45.36C37.44 44.21 36.43 43.20 35.28 43.20C29.74 43.20 21.60 38.74 21.60 35.28C21.60 32.11 27.14 29.23 32.11 25.49C35.21 23.18 37.44 20.38 37.44 16.56C37.44 10.66 32.26 7.92 27.36 7.92C17.50 7.92 8.71 14.26 5.18 22.97C4.25 25.20 2.88 29.16 2.88 34.56C2.88 39.82 3.67 43.56 4.46 46.01C4.75 46.87 5.54 47.52 6.48 47.52C7.78 47.52 8.64 46.44 8.64 45.36Z"/></svg>