<svg xmlns="http://www.w3.org/2000/svg" xmlns:xlink="http://www.w3.org/1999/xlink" width="33.84" height="72.00000000000001"><path fill="red" stroke="black" d="M23.40 23.40C23.76 23.40 24.12 23.33 24.41 23.18C24.70 23.04 28.80 20.81 28.80 15.84C28.80 10.80 24.62 7.92 20.16 7.92C13.75 7.92 3.60 13.10 3.60 20.88C3.60 27.07 10.30 30.17 16.63 32.26C23.69 34.63 26.64 36.29 26.64 38.16C26.64 38.66 26.21 39.60 24.26 40.54C20.59 42.34 12.82 43.20 5.04 43.20C3.89 43.20 2.88 44.21 2.88 45.36C2.88 46.51 3.89 47.52 5.04 47.52C13.10 47.52 21.17 46.94 26.14 44.42C28.51 43.20 30.96 41.26 30.96 38.16C30.96 32.11 23.83 30.17 17.93 28.22C11.30 25.99 7.92 23.33 7.92 20.88C7.92 17.14 15.05 12.24 20.16 12.24C22.90 12.24 24.48 13.68 24.48 15.84C24.48 19.51 21.24 18.65 21.24 21.31C21.24 22.61 22.32 23.40 23.40 23.40Z"/></svg>