<svg xmlns="http://www.w3.org/2000/svg" xmlns:xlink="http://www.w3.org/1999/xlink" width="33.120000000000005" height="72.00000000000001"><path fill="red" stroke="black" d="M15.12 12.24C19.22 12.24 22.39 12.82 24.41 13.39C16.85 16.27 12.96 23.83 12.96 32.40C12.96 40.03 15.19 45.94 15.26 46.15C15.62 47.02 16.42 47.52 17.28 47.52C18.58 47.52 19.44 46.44 19.44 45.36C19.44 44.21 17.28 39.96 17.28 32.40C17.28 23.11 22.32 16.56 30.96 16.56C32.18 16.56 33.12 15.55 33.12 14.40C33.12 13.90 32.98 13.46 32.62 13.03C32.18 12.53 27.86 7.92 15.12 7.92C9.86 7.92 4.82 8.64 4.75 8.64C3.67 8.78 2.88 9.72 2.88 10.80C2.88 12.10 3.89 12.96 5.04 12.96C5.47 12.96 9.86 12.24 15.12 12.24Z"/></svg>