<svg xmlns="http://www.w3.org/2000/svg" xmlns:xlink="http://www.w3.org/1999/xlink" width="34.56" height="72.00000000000001"><path fill="red" stroke="black" d="M25.92 10.08C25.92 10.22 25.92 10.44 25.99 10.58C26.42 12.38 26.64 16.70 26.64 19.44C26.64 30.60 23.40 43.20 15.12 43.20C9.43 43.20 7.20 36.86 7.20 28.80C7.20 23.98 7.92 19.01 8.57 16.34C8.64 16.20 8.64 15.98 8.64 15.84C8.64 14.76 7.78 13.68 6.48 13.68C5.54 13.68 4.61 14.40 4.39 15.34C3.60 18.43 2.88 23.54 2.88 28.80C2.88 36.58 4.97 47.52 15.12 47.52C28.44 47.52 30.96 29.88 30.96 19.44C30.96 16.42 30.74 12.10 30.17 9.58C29.95 8.57 29.09 7.92 28.08 7.92C26.78 7.92 25.92 9 25.92 10.08Z"/></svg>78 36.94 44.57C37.22 44.21 37.44 43.70 37.44 43.20C37.44 42.12 36.50 41.04 35.35 41.04Z"/></svg>