<svg xmlns="http://www.w3.org/2000/svg" xmlns:xlink="http://www.w3.org/1999/xlink" width="37.440000000000005" height="72.00000000000001"><path fill="red" stroke="black" d="M35.28 10.08C35.28 8.93 34.27 7.92 33.12 7.92C30.38 7.92 28.37 9.58 27.07 11.30C23.47 16.13 22.46 21.02 20.95 27.58C20.02 31.54 18.79 43.20 15.48 43.20C14.76 43.20 13.68 42.77 12.10 38.81C10.15 33.91 7.20 19.73 7.20 10.08C7.20 8.93 6.19 7.92 5.04 7.92C3.89 7.92 2.88 8.93 2.88 10.08C2.88 20.59 5.83 34.63 8.06 40.39C9.65 44.50 11.88 47.52 15.48 47.52C19.66 47.52 21.60 43.63 22.61 40.25C24.62 33.34 25.56 24.77 27.94 18.79C28.66 16.99 30.53 12.24 33.12 12.24C34.27 12.24 35.28 11.23 35.28 10.08Z"/></svg>