<svg xmlns="http://www.w3.org/2000/svg" xmlns:xlink="http://www.w3.org/1999/xlink" width="58.32000000000001" height="72.00000000000001"><path fill="red" stroke="black" d="M53.28 7.92C52.56 7.92 51.84 8.35 51.41 9C46.08 18 42.55 30.31 40.39 37.51C39.46 40.68 38.81 41.04 38.52 41.04C38.30 41.04 37.73 40.90 37.08 37.73C36.22 33.48 35.57 28.51 35.14 24.26C34.78 20.59 33.19 16.56 29.16 16.56C24.70 16.56 23.11 21.17 22.10 23.69C21.02 26.64 20.30 28.87 16.70 39.67C15.62 42.84 14.83 43.20 14.40 43.20C13.90 43.20 12.82 42.41 11.30 39.38C8.64 34.13 7.20 25.78 7.20 15.91C7.20 14.76 6.19 13.75 5.04 13.75C3.89 13.75 2.88 14.76 2.88 15.91C2.88 26.21 4.32 34.99 7.42 41.26C8.78 43.99 10.58 47.52 14.40 47.52C18.29 47.52 19.80 43.85 20.74 40.97C24.34 30.17 25.06 28.08 26.14 25.27C27.29 22.18 28.44 20.88 29.16 20.88C29.45 20.88 30.46 21.17 30.82 24.70C31.25 29.09 32.04 34.20 32.90 38.59C33.41 41.18 34.42 45.36 38.52 45.36C42.55 45.36 43.78 41.40 44.57 38.81C46.73 31.61 50.26 19.44 55.15 11.16C55.37 10.80 55.44 10.44 55.44 10.08C55.44 9 54.58 7.92 53.28 7.92Z"/></svg>