<svg xmlns="http://www.w3.org/2000/svg" xmlns:xlink="http://www.w3.org/1999/xlink" width="38.160000000000004" height="72.00000000000001"><path fill="red" stroke="black" d="M2.88 10.08C2.88 10.80 3.17 11.45 3.82 11.88C6.70 13.82 7.78 15.26 10.37 19.80C11.74 22.25 13.32 25.34 15.05 28.51C11.52 32.98 7.63 38.23 3.31 44.06C3.02 44.42 2.88 44.93 2.88 45.36C2.88 46.51 3.82 47.52 5.04 47.52C5.69 47.52 6.34 47.23 6.77 46.66C10.58 41.47 14.18 36.79 17.35 32.69C20.74 38.66 25.92 47.52 33.12 47.52C34.27 47.52 35.28 46.51 35.28 45.36C35.28 44.21 34.27 43.20 33.12 43.20C30.53 43.20 27.43 40.46 24.12 35.50C22.82 33.55 21.53 31.39 20.23 29.02C23.18 25.34 25.70 22.32 27.79 20.23C29.66 18.36 31.10 17.35 31.68 17.14C32.54 16.85 33.12 15.98 33.12 15.12C33.12 13.82 32.04 12.96 30.96 12.96C30.74 12.96 30.46 13.03 30.24 13.10C28.37 13.75 26.78 15.19 24.77 17.21C22.82 19.15 20.52 21.74 18.00 24.84C14.62 18.43 11.52 11.81 6.26 8.28C5.90 8.06 5.47 7.92 5.04 7.92C3.96 7.92 2.88 8.86 2.88 10.08Z"/></svg>