<svg xmlns="http://www.w3.org/2000/svg" xmlns:xlink="http://www.w3.org/1999/xlink" width="34.56" height="72.00000000000001"><path fill="red" stroke="black" d="M2.88 10.08C2.88 10.22 2.95 10.37 2.95 10.51C4.03 15.84 7.78 23.76 16.56 23.76C19.94 23.76 23.18 22.10 25.85 20.16C25.49 21.10 25.13 21.96 24.70 22.82C20.38 31.46 16.34 39.31 15.19 44.93C15.19 45.07 15.12 45.22 15.12 45.36C15.12 46.44 15.98 47.52 17.28 47.52C18.29 47.52 19.15 46.80 19.37 45.79C20.23 41.33 24.26 33.34 28.58 24.70C30.89 20.02 31.68 15.55 31.68 12.96C31.68 12.10 30.82 10.80 29.52 10.80C28.73 10.80 27.94 11.30 27.58 12.02C26.14 14.98 20.38 19.44 16.56 19.44C10.94 19.44 8.06 14.40 7.13 9.65C6.91 8.64 6.05 7.92 5.04 7.92C3.74 7.92 2.88 9 2.88 10.08Z"/></svg>41.04C9.22 41.04 7.20 38.74 7.20 34.56C7.20 32.47 7.27 31.32 7.85 28.51C7.85 28.37 7.92 28.22 7.92 28.08C7.92 27 7.06 25.92 5.76 25.92C3.02 25.92 2.88 31.32 2.88 33.91L2.88 34.56C2.88 40.46 6.62 45.36 12.96 45.36C18.36 45.36 22.10 40.61 24.26 35.78C24.91 39.17 25.63 43.20 26.21 46.94C21.67 52.27 17.28 58.97 17.28 65.52Z"/></svg>