<svg xmlns="http://www.w3.org/2000/svg" xmlns:xlink="http://www.w3.org/1999/xlink" width="36.00000000000001" height="72.00000000000001"><path fill="red" stroke="black" d="M30.96 28.08C30.96 26.93 29.95 25.92 28.80 25.92C27.49 25.92 26.08 25.92 24.61 25.93C28.82 22.77 32.40 19.16 32.40 15.12C32.40 9.86 27.79 7.92 23.76 7.92C18.36 7.92 11.09 9.43 4.39 11.66C3.53 11.95 2.88 12.74 2.88 13.68C2.88 14.98 3.96 15.84 5.04 15.84C5.26 15.84 5.47 15.77 5.69 15.70C11.95 13.61 19.08 12.24 23.76 12.24C26.93 12.24 28.08 13.18 28.08 15.12C28.08 17.39 22.94 21.77 16.80 26.01C11.66 26.10 6.92 26.28 4.68 26.64C3.60 26.78 2.88 27.79 2.88 28.80C2.88 30.10 3.96 30.96 5.04 30.96L5.40 30.96C6.36 30.81 8.17 30.68 10.44 30.58C7.32 33.21 5.04 36.14 5.04 39.60C5.04 47.09 15.84 47.52 20.16 47.52C25.13 47.52 29.52 47.09 31.68 46.30C32.54 46.01 33.12 45.14 33.12 44.28C33.12 42.98 32.04 42.12 30.96 42.12C30.74 42.12 30.46 42.19 30.24 42.26C29.09 42.62 24.84 43.20 20.16 43.20C14.40 43.20 9.36 41.62 9.36 39.60C9.36 37.51 12.31 34.27 17.78 30.60C17.91 30.52 18.04 30.43 18.17 30.35C21.85 30.27 25.68 30.24 28.80 30.24C29.95 30.24 30.96 29.23 30.96 28.08Z"/></svg>