<svg xmlns="http://www.w3.org/2000/svg" xmlns:xlink="http://www.w3.org/1999/xlink" width="14.112000000000002" height="68.4"><path fill="red" stroke="black" d="M2.59 48.89Q2.59 47.02 3.89 45.72Q5.18 44.42 7.06 44.42Q8.93 44.42 10.22 45.72Q11.52 47.02 11.52 48.89Q11.52 50.76 10.22 52.06Q8.93 53.35 7.06 53.35Q5.18 53.35 3.89 52.06Q2.59 50.76 2.59 48.89M10.51 36.65Q10.51 38.09 9.50 39.10Q8.50 40.10 7.06 40.10Q5.62 40.10 4.61 39.10Q3.60 38.09 3.60 36.65L3.60 24.41Q3.60 22.97 4.61 21.96Q5.62 20.95 7.06 20.95Q8.50 20.95 9.50 21.96Q10.51 22.97 10.51 24.41L10.51 36.65Z"/></svg>