<svg xmlns="http://www.w3.org/2000/svg" xmlns:xlink="http://www.w3.org/1999/xlink" width="63.64800000000001" height="68.4"><path fill="red" stroke="black" d="M25.99 39.24L39.82 39.24L41.33 33.98L27.50 33.98L25.99 39.24M10.30 33.98Q9.00 33.84 8.06 32.87Q7.13 31.90 7.13 30.53Q7.13 29.09 8.14 28.04Q9.14 27.00 10.58 27.07L22.25 27.07L23.33 23.47Q23.69 22.32 24.59 21.64Q25.49 20.95 26.64 20.95Q28.08 20.95 29.12 22.00Q30.17 23.04 30.17 24.41Q30.17 24.77 30.02 25.34L29.52 27.07L43.34 27.07L44.21 24.12Q44.57 22.97 45.47 22.28Q46.37 21.60 47.52 21.60Q48.96 21.60 50.00 22.64Q51.05 23.69 51.05 25.06Q51.05 25.42 50.90 25.99L50.54 27.07L60.12 27.07Q61.56 27.07 62.57 28.08Q63.58 29.09 63.58 30.53Q63.58 31.97 62.57 32.98Q61.56 33.98 60.12 33.98L48.60 33.98L47.09 39.24L56.59 39.24Q58.03 39.24 59.04 40.25Q60.05 41.26 60.05 42.70Q60.05 44.14 59.04 45.14Q58.03 46.15 56.59 46.15L45.07 46.15L43.85 50.47Q43.49 51.62 42.59 52.31Q41.69 52.99 40.54 52.99Q39.10 52.99 38.05 51.95Q37.01 50.90 37.01 49.46Q37.01 49.18 37.15 48.60L37.87 46.15L23.98 46.15L22.97 49.82Q22.61 50.98 21.71 51.66Q20.81 52.34 19.66 52.34Q18.22 52.34 17.17 51.30Q16.13 50.26 16.13 48.82Q16.13 48.53 16.27 47.95L16.78 46.15L6.77 46.15Q5.47 46.01 4.54 45.04Q3.60 44.06 3.60 42.70Q3.60 41.26 4.61 40.21Q5.62 39.17 7.06 39.24L18.72 39.24L20.23 33.98L10.30 33.98Z"/></svg>