<svg xmlns="http://www.w3.org/2000/svg" xmlns:xlink="http://www.w3.org/1999/xlink" width="102.81600000000002" height="68.4"><path fill="red" stroke="black" d="M86.98 45.43Q88.63 45.43 89.68 44.93Q90.72 44.42 91.30 43.67Q91.87 42.91 92.09 42.08Q92.30 41.26 92.30 40.54Q92.30 39.82 92.09 38.99Q91.87 38.16 91.30 37.44Q90.72 36.72 89.68 36.22Q88.63 35.71 86.98 35.71L73.30 35.71Q71.64 35.71 70.60 36.22Q69.55 36.72 68.98 37.44Q68.40 38.16 68.18 38.99Q67.97 39.82 67.97 40.54Q67.97 41.26 68.18 42.08Q68.40 42.91 68.98 43.67Q69.55 44.42 70.60 44.93Q71.64 45.43 73.30 45.43L86.98 45.43M99.22 40.54Q99.22 42.62 98.53 44.71Q97.85 46.80 96.55 48.49Q95.26 50.18 93.42 51.26Q91.58 52.34 89.28 52.34L70.42 52.34Q68.18 52.20 66.46 51.08Q64.73 49.97 63.54 48.31Q62.35 46.66 61.70 44.60Q61.06 42.55 61.06 40.54Q61.06 38.52 61.74 36.40Q62.42 34.27 63.68 32.62Q64.94 30.96 66.78 29.88Q68.62 28.80 70.99 28.80L89.86 28.80Q92.02 28.94 93.78 30.02Q95.54 31.10 96.73 32.80Q97.92 34.49 98.57 36.50Q99.22 38.52 99.22 40.54M29.52 37.58Q31.18 37.58 32.22 37.08Q33.26 36.58 33.84 35.82Q34.42 35.06 34.63 34.24Q34.85 33.41 34.85 32.69Q34.85 31.97 34.63 31.14Q34.42 30.31 33.84 29.59Q33.26 28.87 32.22 28.37Q31.18 27.86 29.52 27.86L15.84 27.86Q14.18 27.86 13.14 28.37Q12.10 28.87 11.52 29.59Q10.94 30.31 10.73 31.14Q10.51 31.97 10.51 32.69Q10.51 33.41 10.73 34.24Q10.94 35.06 11.52 35.82Q12.10 36.58 13.14 37.08Q14.18 37.58 15.84 37.58L29.52 37.58M41.76 32.69Q41.76 34.78 41.08 36.86Q40.39 38.95 39.10 40.64Q37.80 42.34 35.96 43.42Q34.13 44.50 31.82 44.50L12.96 44.50Q10.73 44.35 9.00 43.24Q7.27 42.12 6.08 40.46Q4.90 38.81 4.25 36.76Q3.60 34.70 3.60 32.69Q3.60 30.67 4.28 28.55Q4.97 26.42 6.23 24.77Q7.49 23.11 9.32 22.03Q11.16 20.95 13.54 20.95L32.40 20.95Q34.56 21.10 36.32 22.18Q38.09 23.26 39.28 24.95Q40.46 26.64 41.11 28.66Q41.76 30.67 41.76 32.69M47.23 50.62Q46.73 51.48 45.90 51.91Q45.07 52.34 44.14 52.34Q42.70 52.34 41.72 51.30Q40.75 50.26 40.75 48.89Q40.75 47.95 41.18 47.16L55.58 22.68Q56.09 21.82 56.92 21.38Q57.74 20.95 58.68 20.95Q60.12 20.95 61.09 22.00Q62.06 23.04 62.06 24.41Q62.06 25.42 61.63 26.14L47.23 50.62Z"/></svg>