<svg xmlns="http://www.w3.org/2000/svg" xmlns:xlink="http://www.w3.org/1999/xlink" width="61.56000000000001" height="68.4"><path fill="red" stroke="black" d="M48.38 42.84Q48.38 40.82 49.10 39.06Q49.82 37.30 51.12 36.00Q52.42 34.70 54.14 33.95Q55.87 33.19 57.89 33.19Q59.33 33.19 60.34 34.20Q61.34 35.21 61.34 36.65Q61.34 38.09 60.34 39.10Q59.33 40.10 57.89 40.10Q56.81 40.10 56.05 40.90Q55.30 41.69 55.30 42.77L55.30 42.84Q55.30 44.86 54.54 46.58Q53.78 48.31 52.49 49.61Q51.19 50.90 49.43 51.62Q47.66 52.34 45.65 52.34L13.32 52.34Q11.30 52.34 9.54 51.59Q7.78 50.83 6.44 49.54Q5.11 48.24 4.36 46.48Q3.60 44.71 3.60 42.70Q3.60 40.90 4.21 39.35Q4.82 37.80 5.83 36.58Q4.82 35.35 4.21 33.80Q3.60 32.26 3.60 30.53Q3.60 28.51 4.36 26.78Q5.11 25.06 6.44 23.76Q7.78 22.46 9.54 21.71Q11.30 20.95 13.32 20.95L46.80 20.95Q48.24 20.95 49.25 21.96Q50.26 22.97 50.26 24.41Q50.26 25.85 49.25 26.86Q48.24 27.86 46.80 27.86L13.03 27.86Q11.95 27.86 11.12 28.66Q10.30 29.45 10.30 30.53Q10.30 31.68 11.12 32.44Q11.95 33.19 13.03 33.19L40.90 33.19Q42.34 33.19 43.34 34.20Q44.35 35.21 44.35 36.65Q44.35 38.09 43.34 39.10Q42.34 40.10 40.90 40.10L12.96 40.10Q11.88 40.10 11.09 40.82Q10.30 41.54 10.30 42.70Q10.30 43.78 11.12 44.60Q11.95 45.43 13.03 45.43L45.72 45.43Q46.80 45.43 47.59 44.68Q48.38 43.92 48.38 42.84Z"/></svg>