<svg xmlns="http://www.w3.org/2000/svg" xmlns:xlink="http://www.w3.org/1999/xlink" width="24.840000000000003" height="68.4"><path fill="red" stroke="black" d="M19.58 63.36Q18.79 63.36 18.07 62.96Q17.35 62.57 16.85 61.99Q13.25 57.82 10.73 54.61Q8.21 51.41 6.62 48.53Q5.04 45.65 4.32 42.84Q3.60 40.03 3.60 36.65Q3.60 33.05 4.32 30.02Q5.04 27.00 6.62 24.05Q8.21 21.10 10.73 18.00Q13.25 14.90 16.85 11.16Q17.42 10.58 18.11 10.19Q18.79 9.79 19.58 9.79Q21.02 9.79 22.03 10.80Q23.04 11.81 23.04 13.25Q23.04 14.69 22.03 15.70Q18.58 19.44 16.38 22.10Q14.18 24.77 12.89 27.07Q11.59 29.38 11.05 31.61Q10.51 33.84 10.51 36.65Q10.51 39.46 11.02 41.47Q11.52 43.49 12.82 45.65Q14.11 47.81 16.34 50.54Q18.58 53.28 22.03 57.46Q23.04 58.61 23.04 59.90Q23.04 61.34 22.03 62.35Q21.02 63.36 19.58 63.36Z"/></svg>