<svg xmlns="http://www.w3.org/2000/svg" xmlns:xlink="http://www.w3.org/1999/xlink" width="24.840000000000003" height="68.4"><path fill="red" stroke="black" d="M5.26 63.36Q3.82 63.36 2.81 62.35Q1.80 61.34 1.80 59.90Q1.80 58.61 2.81 57.46Q6.26 53.28 8.50 50.54Q10.73 47.81 12.02 45.65Q13.32 43.49 13.82 41.47Q14.33 39.46 14.33 36.65Q14.33 33.84 13.79 31.61Q13.25 29.38 11.95 27.07Q10.66 24.77 8.46 22.10Q6.26 19.44 2.81 15.70Q1.80 14.69 1.80 13.25Q1.80 11.81 2.81 10.80Q3.82 9.79 5.26 9.79Q6.05 9.79 6.73 10.19Q7.42 10.58 7.99 11.16Q11.59 14.90 14.11 18.00Q16.63 21.10 18.22 24.05Q19.80 27.00 20.52 30.02Q21.24 33.05 21.24 36.65Q21.24 40.03 20.52 42.84Q19.80 45.65 18.22 48.53Q16.63 51.41 14.11 54.61Q11.59 57.82 7.99 61.99Q7.49 62.57 6.77 62.96Q6.05 63.36 5.26 63.36Z"/></svg>