<svg xmlns="http://www.w3.org/2000/svg" xmlns:xlink="http://www.w3.org/1999/xlink" width="38.88" height="68.4"><path fill="red" stroke="black" d="M14.98 36.14Q14.98 34.27 16.27 32.98Q17.57 31.68 19.44 31.68Q21.31 31.68 22.61 32.98Q23.90 34.27 23.90 36.14Q23.90 38.02 22.61 39.31Q21.31 40.61 19.44 40.61Q17.57 40.61 16.27 39.31Q14.98 38.02 14.98 36.14M14.98 11.66Q14.98 9.79 16.27 8.50Q17.57 7.20 19.44 7.20Q21.31 7.20 22.61 8.50Q23.90 9.79 23.90 11.66Q23.90 13.54 22.61 14.83Q21.31 16.13 19.44 16.13Q17.57 16.13 16.27 14.83Q14.98 13.54 14.98 11.66M35.28 30.38Q35.28 31.82 34.27 32.83Q33.26 33.84 31.82 33.84Q31.10 33.84 30.53 33.52Q29.95 33.19 29.38 32.76Q28.66 32.18 27.47 31.28Q26.28 30.38 24.88 29.56Q23.47 28.73 22.03 28.08Q20.59 27.43 19.44 27.36Q18.36 27.36 16.92 27.97Q15.48 28.58 14.08 29.45Q12.67 30.31 11.45 31.21Q10.22 32.11 9.50 32.76Q8.93 33.19 8.35 33.52Q7.78 33.84 7.06 33.84Q5.62 33.84 4.61 32.83Q3.60 31.82 3.60 30.38Q3.60 28.87 4.75 27.86Q5.47 27.29 6.95 26.17Q8.42 25.06 10.30 23.90Q8.42 22.75 6.95 21.67Q5.47 20.59 4.75 19.94Q3.60 18.94 3.60 17.42Q3.60 15.98 4.61 14.98Q5.62 13.97 7.06 13.97Q7.78 13.97 8.35 14.29Q8.93 14.62 9.50 15.05Q10.22 15.70 11.45 16.60Q12.67 17.50 14.08 18.36Q15.48 19.22 16.92 19.84Q18.36 20.45 19.44 20.45Q20.59 20.38 22.03 19.76Q23.47 19.15 24.88 18.32Q26.28 17.50 27.47 16.60Q28.66 15.70 29.38 15.05Q29.95 14.62 30.53 14.29Q31.10 13.97 31.82 13.97Q33.26 13.97 34.27 14.98Q35.28 15.98 35.28 17.42Q35.28 18.94 34.13 19.94Q33.34 20.59 31.86 21.67Q30.38 22.75 28.51 23.90Q30.38 25.06 31.86 26.17Q33.34 27.29 34.13 27.86Q35.28 28.87 35.28 30.38Z"/></svg>