<svg xmlns="http://www.w3.org/2000/svg" xmlns:xlink="http://www.w3.org/1999/xlink" width="59.184000000000005" height="68.4"><path fill="red" stroke="black" d="M20.88 48.89Q20.88 47.02 22.18 45.72Q23.47 44.42 25.34 44.42Q27.22 44.42 28.51 45.72Q29.81 47.02 29.81 48.89Q29.81 50.76 28.51 52.06Q27.22 53.35 25.34 53.35Q23.47 53.35 22.18 52.06Q20.88 50.76 20.88 48.89M3.60 30.53Q3.60 28.51 4.39 26.78Q5.18 25.06 6.55 23.76Q7.92 22.46 9.72 21.71Q11.52 20.95 13.54 20.95L45.86 20.95Q47.88 20.95 49.64 21.71Q51.41 22.46 52.74 23.76Q54.07 25.06 54.83 26.78Q55.58 28.51 55.58 30.53Q55.58 32.54 54.83 34.27Q54.07 36.00 52.74 37.30Q51.41 38.59 49.64 39.35Q47.88 40.10 45.86 40.10L24.34 40.10Q22.90 40.10 21.89 39.10Q20.88 38.09 20.88 36.65Q20.88 35.21 21.89 34.20Q22.90 33.19 24.34 33.19L46.15 33.19Q47.23 33.19 48.06 32.44Q48.89 31.68 48.89 30.53Q48.89 29.45 48.06 28.66Q47.23 27.86 46.15 27.86L13.03 27.86Q12.02 28.01 11.27 28.73Q10.51 29.45 10.51 30.53Q10.51 31.97 9.50 32.98Q8.50 33.98 7.06 33.98Q5.62 33.98 4.61 32.98Q3.60 31.97 3.60 30.53Z"/></svg>