<svg xmlns="http://www.w3.org/2000/svg" xmlns:xlink="http://www.w3.org/1999/xlink" width="72.36000000000001" height="68.4"><path fill="red" stroke="black" d="M31.75 40.10Q30.74 40.10 30.13 40.90Q29.52 41.69 29.52 42.77Q29.52 43.85 30.20 44.64Q30.89 45.43 31.75 45.43L40.90 45.43L40.90 45.36Q41.69 45.22 42.19 44.50Q42.70 43.78 42.70 42.77Q42.70 41.76 42.16 41.04Q41.62 40.32 40.90 40.10L31.75 40.10M15.91 43.34Q15.91 44.78 14.90 45.79Q13.90 46.80 12.46 46.80Q11.02 46.80 10.01 45.79Q9.00 44.78 9.00 43.34L9.00 36.65Q9.00 33.91 9.90 31.14Q10.80 28.37 12.53 26.10Q14.26 23.83 16.70 22.39Q19.15 20.95 22.25 20.95L50.11 20.95Q53.21 20.95 55.66 22.39Q58.10 23.83 59.83 26.10Q61.56 28.37 62.46 31.14Q63.36 33.91 63.36 36.65Q63.36 39.31 62.50 42.05Q61.63 44.78 60.01 47.02Q58.39 49.25 56.09 50.72Q53.78 52.20 50.83 52.34L31.32 52.34Q29.45 52.34 27.90 51.66Q26.35 50.98 25.16 49.79Q23.98 48.60 23.33 46.98Q22.68 45.36 22.68 43.56L22.68 41.98Q22.68 40.18 23.33 38.56Q23.98 36.94 25.16 35.75Q26.35 34.56 27.90 33.88Q29.45 33.19 31.32 33.19L40.90 33.19Q42.70 33.19 44.28 33.88Q45.86 34.56 47.05 35.75Q48.24 36.94 48.89 38.56Q49.54 40.18 49.54 41.98L49.54 43.56Q49.54 44.57 49.32 45.43Q51.62 45.36 53.06 44.42Q54.50 43.49 55.33 42.19Q56.16 40.90 56.48 39.42Q56.81 37.94 56.81 36.65Q56.81 35.35 56.48 33.80Q56.16 32.26 55.26 30.96Q54.36 29.66 52.78 28.76Q51.19 27.86 48.74 27.86L23.62 27.86Q21.10 27.86 19.58 28.76Q18.07 29.66 17.28 30.96Q16.49 32.26 16.20 33.80Q15.91 35.35 15.91 36.65L15.91 43.34Z"/></svg>