<svg xmlns="http://www.w3.org/2000/svg" xmlns:xlink="http://www.w3.org/1999/xlink" width="36.216" height="68.4"><path fill="red" stroke="black" d="M3.60 29.74Q3.60 29.38 3.67 28.98Q3.74 28.58 3.89 28.15L12.31 10.80Q13.10 9.14 14.65 8.14Q16.20 7.13 18.07 7.13Q20.09 7.13 21.53 8.32Q22.97 9.50 23.83 11.16L31.97 27.86Q32.26 28.37 32.44 28.80Q32.62 29.23 32.62 29.74Q32.62 31.18 31.61 32.18Q30.60 33.19 29.16 33.19Q27.00 33.19 26.06 31.32L18.07 14.83L10.37 30.82Q9.94 31.75 9.11 32.47Q8.28 33.19 7.06 33.19Q5.62 33.19 4.61 32.18Q3.60 31.18 3.60 29.74Z"/></svg>