<svg xmlns="http://www.w3.org/2000/svg" xmlns:xlink="http://www.w3.org/1999/xlink" width="58.75200000000001" height="68.4"><path fill="red" stroke="black" d="M24.91 44.57Q24.91 42.70 26.21 41.40Q27.50 40.10 29.38 40.10Q31.25 40.10 32.54 41.40Q33.84 42.70 33.84 44.57Q33.84 46.44 32.54 47.74Q31.25 49.03 29.38 49.03Q27.50 49.03 26.21 47.74Q24.91 46.44 24.91 44.57M9.72 51.05Q8.64 52.34 7.06 52.34Q5.62 52.34 4.61 51.34Q3.60 50.33 3.60 48.89Q3.60 47.59 4.32 46.80L21.82 23.26Q23.04 21.60 25.06 20.56Q27.07 19.51 29.38 19.51Q31.54 19.51 33.48 20.45Q35.42 21.38 36.65 23.04L54.14 46.44Q54.58 46.94 54.86 47.56Q55.15 48.17 55.15 48.89Q55.15 50.33 54.14 51.34Q53.14 52.34 51.70 52.34Q49.97 52.34 48.96 50.98L32.18 28.58Q31.68 28.01 30.92 27.32Q30.17 26.64 29.38 26.64Q28.58 26.64 27.83 27.32Q27.07 28.01 26.64 28.58L9.72 51.05Z"/></svg>