<svg xmlns="http://www.w3.org/2000/svg" xmlns:xlink="http://www.w3.org/1999/xlink" width="63.504000000000005" height="68.4"><path fill="red" stroke="black" d="M10.51 45.43L50.47 45.43Q51.55 45.43 52.38 44.64Q53.21 43.85 53.21 42.77Q53.21 41.62 52.38 40.86Q51.55 40.10 50.47 40.10L10.51 40.10L10.51 45.43M10.51 27.86L10.51 33.19L50.54 33.19Q51.62 33.19 52.42 32.47Q53.21 31.75 53.21 30.60Q53.21 29.52 52.38 28.69Q51.55 27.86 50.47 27.86L10.51 27.86M7.06 52.34Q5.62 52.34 4.61 51.34Q3.60 50.33 3.60 48.89L3.60 24.41Q3.60 22.97 4.61 21.96Q5.62 20.95 7.06 20.95L50.18 20.95Q52.20 20.95 53.96 21.71Q55.73 22.46 57.06 23.76Q58.39 25.06 59.15 26.82Q59.90 28.58 59.90 30.60Q59.90 32.40 59.29 33.95Q58.68 35.50 57.67 36.72Q58.68 37.94 59.29 39.49Q59.90 41.04 59.90 42.77Q59.90 44.78 59.15 46.51Q58.39 48.24 57.06 49.54Q55.73 50.83 53.96 51.59Q52.20 52.34 50.18 52.34L7.06 52.34Z"/></svg>62 33.19 52.42 32.47Q53.21 31.75 53.21 30.60Q53.21 29.52 52.38 28.69Q51.55 27.86 50.47 27.86L7.06 27.86Q5.62 27.86 4.61 26.86Q3.60 25.85 3.60 24.41Z"/></svg>