<svg xmlns="http://www.w3.org/2000/svg" xmlns:xlink="http://www.w3.org/1999/xlink" width="65.88000000000001" height="68.4"><path fill="red" stroke="black" d="M3.60 36.65Q3.60 33.91 4.50 31.14Q5.40 28.37 7.13 26.10Q8.86 23.83 11.30 22.39Q13.75 20.95 16.85 20.95L58.82 20.95Q60.26 20.95 61.27 21.96Q62.28 22.97 62.28 24.41Q62.28 25.85 61.27 26.86Q60.26 27.86 58.82 27.86L18.36 27.86Q15.84 27.86 14.29 28.76Q12.74 29.66 11.84 30.96Q10.94 32.26 10.62 33.80Q10.30 35.35 10.30 36.65Q10.30 37.94 10.62 39.49Q10.94 41.04 11.84 42.34Q12.74 43.63 14.29 44.53Q15.84 45.43 18.36 45.43L58.82 45.43Q60.26 45.43 61.27 46.44Q62.28 47.45 62.28 48.89Q62.28 50.33 61.27 51.34Q60.26 52.34 58.82 52.34L16.13 52.34Q13.18 52.34 10.87 50.90Q8.57 49.46 6.95 47.20Q5.33 44.93 4.46 42.12Q3.60 39.31 3.60 36.65Z"/></svg>