<svg xmlns="http://www.w3.org/2000/svg" xmlns:xlink="http://www.w3.org/1999/xlink" width="65.88000000000001" height="68.4"><path fill="red" stroke="black" d="M10.51 27.86L10.51 45.43L47.52 45.43Q49.97 45.43 51.55 44.53Q53.14 43.63 54.04 42.34Q54.94 41.04 55.26 39.49Q55.58 37.94 55.58 36.65Q55.58 35.35 55.26 33.80Q54.94 32.26 54.04 30.96Q53.14 29.66 51.55 28.76Q49.97 27.86 47.52 27.86L10.51 27.86M62.28 36.65Q62.28 39.31 61.42 42.05Q60.55 44.78 58.93 47.02Q57.31 49.25 55.01 50.72Q52.70 52.20 49.75 52.34L7.06 52.34Q5.62 52.34 4.61 51.34Q3.60 50.33 3.60 48.89L3.60 24.41Q3.60 22.97 4.61 21.96Q5.62 20.95 7.06 20.95L49.03 20.95Q52.13 20.95 54.58 22.39Q57.02 23.83 58.75 26.10Q60.48 28.37 61.38 31.14Q62.28 33.91 62.28 36.65Z"/></svg>60 35.21 4.61 34.20Q5.62 33.19 7.06 33.19Q8.50 33.19 9.50 34.20Q10.51 35.21 10.51 36.65L10.51 45.43L47.52 45.43Z"/></svg>