<svg xmlns="http://www.w3.org/2000/svg" xmlns:xlink="http://www.w3.org/1999/xlink" width="65.16000000000001" height="68.4"><path fill="red" stroke="black" d="M55.08 33.19Q56.52 33.19 57.53 34.20Q58.54 35.21 58.54 36.65Q58.54 38.09 57.53 39.10Q56.52 40.10 55.08 40.10L19.22 40.10Q17.78 40.10 16.78 39.10Q15.77 38.09 15.77 36.65Q15.77 35.21 16.78 34.20Q17.78 33.19 19.22 33.19L55.08 33.19M18.43 27.86Q15.91 27.86 14.36 28.76Q12.82 29.66 11.92 30.96Q11.02 32.26 10.69 33.80Q10.37 35.35 10.37 36.65Q10.37 37.94 10.69 39.49Q11.02 41.04 11.92 42.34Q12.82 43.63 14.36 44.53Q15.91 45.43 18.43 45.43L58.10 45.43Q59.54 45.43 60.55 46.44Q61.56 47.45 61.56 48.89Q61.56 50.33 60.55 51.34Q59.54 52.34 58.10 52.34L16.13 52.34Q13.18 52.34 10.87 50.90Q8.57 49.46 6.95 47.20Q5.33 44.93 4.46 42.12Q3.60 39.31 3.60 36.65Q3.60 33.91 4.50 31.14Q5.40 28.37 7.13 26.10Q8.86 23.83 11.30 22.39Q13.75 20.95 16.85 20.95L58.10 20.95Q59.54 20.95 60.55 21.96Q61.56 22.97 61.56 24.41Q61.56 25.85 60.55 26.86Q59.54 27.86 58.10 27.86L18.43 27.86Z"/></svg>