<svg xmlns="http://www.w3.org/2000/svg" xmlns:xlink="http://www.w3.org/1999/xlink" width="65.88000000000001" height="68.4"><path fill="red" stroke="black" d="M22.61 36.65Q22.61 35.21 23.62 34.20Q24.62 33.19 26.06 33.19L53.64 33.19Q55.44 33.19 57.02 33.88Q58.61 34.56 59.80 35.75Q60.98 36.94 61.63 38.56Q62.28 40.18 62.28 41.98L62.28 43.56Q62.28 45.36 61.63 46.98Q60.98 48.60 59.80 49.79Q58.61 50.98 57.02 51.66Q55.44 52.34 53.64 52.34L16.13 52.34Q13.18 52.34 10.87 50.90Q8.57 49.46 6.95 47.20Q5.33 44.93 4.46 42.12Q3.60 39.31 3.60 36.65Q3.60 33.91 4.50 31.14Q5.40 28.37 7.13 26.10Q8.86 23.83 11.30 22.39Q13.75 20.95 16.85 20.95L58.82 20.95Q60.26 20.95 61.27 21.96Q62.28 22.97 62.28 24.41Q62.28 25.85 61.27 26.86Q60.26 27.86 58.82 27.86L18.43 27.86Q15.91 27.86 14.36 28.76Q12.82 29.66 11.92 30.96Q11.02 32.26 10.69 33.80Q10.37 35.35 10.37 36.65Q10.37 37.94 10.69 39.49Q11.02 41.04 11.92 42.34Q12.82 43.63 14.36 44.53Q15.91 45.43 18.43 45.43L53.35 45.43Q54.22 45.43 54.90 44.64Q55.58 43.85 55.58 42.77Q55.58 41.69 54.97 40.90Q54.36 40.10 53.35 40.10L26.06 40.10Q24.62 40.10 23.62 39.10Q22.61 38.09 22.61 36.65Z"/></svg>