<svg xmlns="http://www.w3.org/2000/svg" xmlns:xlink="http://www.w3.org/1999/xlink" width="63.57600000000001" height="68.4"><path fill="red" stroke="black" d="M59.90 48.89Q59.90 50.33 58.90 51.34Q57.89 52.34 56.45 52.34Q55.01 52.34 54.00 51.34Q52.99 50.33 52.99 48.89L52.99 47.23Q52.92 45.07 51.98 43.67Q51.05 42.26 49.75 41.47Q48.46 40.68 46.94 40.39Q45.43 40.10 44.21 40.10L31.97 40.10L31.75 40.10L31.46 40.10L19.22 40.10Q16.99 40.10 14.72 39.53Q12.46 38.95 10.44 37.80L10.44 48.89Q10.44 50.33 9.43 51.34Q8.42 52.34 6.98 52.34Q5.54 52.34 4.54 51.34Q3.53 50.33 3.53 48.89L3.53 24.41Q3.53 22.97 4.54 21.96Q5.54 20.95 6.98 20.95Q8.42 20.95 9.43 21.96Q10.44 22.97 10.44 24.41L10.44 25.63Q10.44 27.94 11.34 29.41Q12.24 30.89 13.57 31.72Q14.90 32.54 16.42 32.87Q17.93 33.19 19.22 33.19L31.68 33.19L31.75 33.19L31.97 33.19L44.21 33.19Q46.44 33.19 48.71 33.77Q50.98 34.34 52.99 35.50L52.99 24.41Q52.99 22.97 54.00 21.96Q55.01 20.95 56.45 20.95Q57.89 20.95 58.90 21.96Q59.90 22.97 59.90 24.41L59.90 48.89Z"/></svg>