<svg xmlns="http://www.w3.org/2000/svg" xmlns:xlink="http://www.w3.org/1999/xlink" width="65.376" height="68.4"><path fill="red" stroke="black" d="M10.51 40.25Q10.51 41.26 11.09 42.16Q11.66 43.06 12.64 43.81Q13.61 44.57 14.94 45.00Q16.27 45.43 17.78 45.43L46.80 45.43Q49.18 45.43 50.72 44.64Q52.27 43.85 53.17 42.62Q54.07 41.40 54.47 39.96Q54.86 38.52 54.86 37.22L54.86 24.41Q54.86 22.97 55.91 21.96Q56.95 20.95 58.32 20.95Q59.76 20.95 60.77 21.96Q61.78 22.97 61.78 24.41L61.78 36.65Q61.78 39.38 60.84 42.16Q59.90 44.93 58.14 47.20Q56.38 49.46 53.86 50.90Q51.34 52.34 48.24 52.34L15.70 52.34Q13.25 52.34 11.05 51.34Q8.86 50.33 7.20 48.64Q5.54 46.94 4.57 44.75Q3.60 42.55 3.60 40.25Q3.60 38.81 4.64 37.80Q5.69 36.79 7.06 36.79Q8.50 36.79 9.50 37.80Q10.51 38.81 10.51 40.25Z"/></svg>