<svg xmlns="http://www.w3.org/2000/svg" xmlns:xlink="http://www.w3.org/1999/xlink" width="63.504000000000005" height="68.4"><path fill="red" stroke="black" d="M10.44 33.19L27.07 33.19Q30.82 33.19 34.42 32.22Q38.02 31.25 41.44 29.66Q44.86 28.08 47.99 26.06Q51.12 24.05 54.00 21.96Q55.22 20.95 56.45 20.95Q57.89 20.95 58.90 21.96Q59.90 22.97 59.90 24.41Q59.90 25.42 59.33 26.17Q58.75 26.93 57.96 27.50Q56.09 28.94 54.36 30.20Q52.63 31.46 50.90 32.54Q49.18 33.62 47.34 34.63Q45.50 35.64 43.42 36.65Q45.50 37.66 47.34 38.66Q49.18 39.67 50.90 40.75Q52.63 41.83 54.36 43.09Q56.09 44.35 57.96 45.79Q58.75 46.37 59.33 47.12Q59.90 47.88 59.90 48.89Q59.90 50.33 58.90 51.34Q57.89 52.34 56.45 52.34Q55.22 52.34 54.00 51.34Q51.05 49.18 47.92 47.16Q44.78 45.14 41.40 43.56Q38.02 41.98 34.42 41.04Q30.82 40.10 27.07 40.10L10.44 40.10L10.44 48.89Q10.44 50.33 9.43 51.34Q8.42 52.34 7.06 52.34Q5.62 52.34 4.61 51.34Q3.60 50.33 3.60 48.89L3.60 24.41Q3.60 22.97 4.61 21.96Q5.62 20.95 6.98 20.95Q8.42 20.95 9.43 21.96Q10.44 22.97 10.44 24.41L10.44 33.19Z"/></svg>