<svg xmlns="http://www.w3.org/2000/svg" xmlns:xlink="http://www.w3.org/1999/xlink" width="65.808" height="68.4"><path fill="red" stroke="black" d="M47.45 45.43Q49.90 45.43 51.48 44.53Q53.06 43.63 53.96 42.34Q54.86 41.04 55.19 39.49Q55.51 37.94 55.51 36.65Q55.51 35.35 55.19 33.80Q54.86 32.26 53.96 30.96Q53.06 29.66 51.48 28.76Q49.90 27.86 47.45 27.86L18.36 27.86Q15.84 27.86 14.29 28.76Q12.74 29.66 11.84 30.96Q10.94 32.26 10.62 33.80Q10.30 35.35 10.30 36.65Q10.30 37.94 10.62 39.49Q10.94 41.04 11.84 42.34Q12.74 43.63 14.29 44.53Q15.84 45.43 18.36 45.43L33.19 45.43Q34.63 45.43 35.64 46.44Q36.65 47.45 36.65 48.89Q36.65 50.33 35.64 51.34Q34.63 52.34 33.19 52.34L16.13 52.34Q13.18 52.20 10.87 50.72Q8.57 49.25 6.95 47.02Q5.33 44.78 4.46 42.05Q3.60 39.31 3.60 36.65Q3.60 33.91 4.50 31.14Q5.40 28.37 7.13 26.10Q8.86 23.83 11.30 22.39Q13.75 20.95 16.85 20.95L49.68 20.95Q52.63 21.10 54.94 22.57Q57.24 24.05 58.86 26.28Q60.48 28.51 61.34 31.25Q62.21 33.98 62.21 36.65Q62.21 39.38 61.31 42.16Q60.41 44.93 58.68 47.20Q56.95 49.46 54.50 50.90Q52.06 52.34 48.96 52.34L47.45 52.34Q46.01 52.34 45.00 51.34Q43.99 50.33 43.99 48.89Q43.99 47.45 45.00 46.44Q46.01 45.43 47.45 45.43M35.86 39.53Q35.86 37.66 37.15 36.36Q38.45 35.06 40.32 35.06Q42.19 35.06 43.49 36.36Q44.78 37.66 44.78 39.53Q44.78 41.40 43.49 42.70Q42.19 43.99 40.32 43.99Q38.45 43.99 37.15 42.70Q35.86 41.40 35.86 39.53Z"/></svg>