<svg xmlns="http://www.w3.org/2000/svg" xmlns:xlink="http://www.w3.org/1999/xlink" width="63.504000000000005" height="68.4"><path fill="red" stroke="black" d="M59.90 48.89Q59.90 50.33 58.90 51.34Q57.89 52.34 56.45 52.34Q55.73 52.34 55.15 52.06Q54.58 51.77 54.07 51.34Q53.64 50.90 53.42 50.62Q50.47 46.94 47.34 44.86Q44.21 42.77 40.75 41.69Q37.30 40.61 33.44 40.36Q29.59 40.10 25.20 40.10L10.51 40.10L10.51 48.89Q10.51 50.33 9.47 51.34Q8.42 52.34 7.06 52.34Q5.62 52.34 4.61 51.34Q3.60 50.33 3.60 48.89L3.60 30.38Q3.60 28.22 4.39 26.50Q5.18 24.77 6.41 23.54Q7.63 22.32 9.22 21.64Q10.80 20.95 12.38 20.95L49.97 20.95Q51.98 20.95 53.78 21.71Q55.58 22.46 56.95 23.76Q58.32 25.06 59.11 26.78Q59.90 28.51 59.90 30.53Q59.90 31.97 58.90 32.98Q57.89 33.98 56.45 33.98Q55.01 33.98 54.00 32.98Q52.99 31.97 52.99 30.53Q52.99 29.45 52.24 28.73Q51.48 28.01 50.47 27.86L12.74 27.86Q11.81 27.86 11.23 28.33Q10.66 28.80 10.51 29.45L10.51 33.19L25.20 33.19Q31.54 33.19 36.65 33.91Q41.76 34.63 45.90 36.25Q50.04 37.87 53.32 40.50Q56.59 43.13 59.18 46.94Q59.90 47.88 59.90 48.89Z"/></svg>38.59 53.96 39.35Q52.20 40.10 50.18 40.10L49.90 40.10Z"/></svg>