<svg xmlns="http://www.w3.org/2000/svg" xmlns:xlink="http://www.w3.org/1999/xlink" width="65.808" height="68.4"><path fill="red" stroke="black" d="M10.51 36.65Q10.51 37.94 10.84 39.49Q11.16 41.04 12.06 42.34Q12.96 43.63 14.51 44.53Q16.06 45.43 18.58 45.43L47.23 45.43Q49.68 45.43 51.26 44.53Q52.85 43.63 53.75 42.34Q54.65 41.04 54.97 39.49Q55.30 37.94 55.30 36.65L55.30 24.41Q55.30 22.97 56.30 21.96Q57.31 20.95 58.75 20.95Q60.19 20.95 61.20 21.96Q62.21 22.97 62.21 24.41L62.21 36.65Q62.21 39.38 61.31 42.16Q60.41 44.93 58.68 47.20Q56.95 49.46 54.50 50.90Q52.06 52.34 48.96 52.34L16.13 52.34Q13.18 52.20 10.87 50.72Q8.57 49.25 6.95 47.02Q5.33 44.78 4.46 42.05Q3.60 39.31 3.60 36.65L3.60 24.41Q3.60 22.97 4.61 21.96Q5.62 20.95 7.06 20.95Q8.50 20.95 9.50 21.96Q10.51 22.97 10.51 24.41L10.51 36.65Z"/></svg>