<svg xmlns="http://www.w3.org/2000/svg" xmlns:xlink="http://www.w3.org/1999/xlink" width="58.75200000000001" height="68.4"><path fill="red" stroke="black" d="M49.03 22.25Q50.11 20.95 51.70 20.95Q53.14 20.95 54.14 21.96Q55.15 22.97 55.15 24.41Q55.15 25.70 54.43 26.50L54.36 26.57L36.94 50.04Q35.64 51.70 33.66 52.74Q31.68 53.78 29.38 53.78Q27.22 53.78 25.31 52.85Q23.40 51.91 22.10 50.26L4.61 26.86Q4.18 26.35 3.89 25.74Q3.60 25.13 3.60 24.41Q3.60 22.97 4.61 21.96Q5.62 20.95 7.06 20.95Q8.78 20.95 9.79 22.32L26.57 44.71Q27.07 45.29 27.83 45.97Q28.58 46.66 29.38 46.66Q30.17 46.66 30.92 45.97Q31.68 45.29 32.11 44.71L49.03 22.25Z"/></svg>