<svg xmlns="http://www.w3.org/2000/svg" xmlns:xlink="http://www.w3.org/1999/xlink" width="72.864" height="68.4"><path fill="red" stroke="black" d="M3.60 24.41Q3.60 22.97 4.61 21.96Q5.62 20.95 7.06 20.95Q8.50 20.95 9.50 21.96Q10.51 22.97 10.51 24.41L10.51 36.65Q10.51 37.94 10.84 39.49Q11.16 41.04 12.06 42.34Q12.96 43.63 14.51 44.53Q16.06 45.43 18.58 45.43L35.28 45.43Q34.13 43.42 33.55 41.15Q32.98 38.88 32.98 36.65L32.98 24.41Q32.98 22.97 33.98 21.96Q34.99 20.95 36.43 20.95Q37.87 20.95 38.88 21.96Q39.89 22.97 39.89 24.41L39.89 36.65Q39.89 37.94 40.21 39.46Q40.54 40.97 41.36 42.30Q42.19 43.63 43.67 44.53Q45.14 45.43 47.45 45.43L54.29 45.43Q56.74 45.43 58.32 44.53Q59.90 43.63 60.80 42.34Q61.70 41.04 62.03 39.49Q62.35 37.94 62.35 36.65L62.35 24.41Q62.35 22.97 63.36 21.96Q64.37 20.95 65.81 20.95Q67.25 20.95 68.26 21.96Q69.26 22.97 69.26 24.41L69.26 36.65Q69.26 39.38 68.36 42.16Q67.46 44.93 65.74 47.20Q64.01 49.46 61.56 50.90Q59.11 52.34 56.02 52.34L16.13 52.34Q13.18 52.34 10.87 50.90Q8.57 49.46 6.95 47.20Q5.33 44.93 4.46 42.12Q3.60 39.31 3.60 36.65L3.60 24.41Z"/></svg>