<svg xmlns="http://www.w3.org/2000/svg" xmlns:xlink="http://www.w3.org/1999/xlink" width="65.08800000000001" height="68.4"><path fill="red" stroke="black" d="M28.15 48.89Q28.15 47.02 29.45 45.72Q30.74 44.42 32.62 44.42Q34.49 44.42 35.78 45.72Q37.08 47.02 37.08 48.89Q37.08 50.76 35.78 52.06Q34.49 53.35 32.62 53.35Q30.74 53.35 29.45 52.06Q28.15 50.76 28.15 48.89M32.62 33.48Q35.42 33.48 37.58 33.23Q39.74 32.98 42.19 31.82Q44.64 30.67 47.77 28.37Q50.90 26.06 55.58 21.96Q56.81 20.95 58.03 20.95Q59.47 20.95 60.48 21.96Q61.49 22.97 61.49 24.41Q61.49 25.20 61.09 25.92Q60.70 26.64 60.12 27.14Q55.58 31.18 52.02 33.80Q48.46 36.43 45.29 37.98Q42.12 39.53 39.10 40.18Q36.07 40.82 32.62 40.82Q28.94 40.82 25.88 40.21Q22.82 39.60 19.73 38.02Q16.63 36.43 13.10 33.80Q9.58 31.18 4.97 27.14Q4.39 26.64 4.00 25.92Q3.60 25.20 3.60 24.41Q3.60 22.97 4.61 21.96Q5.62 20.95 7.06 20.95Q7.78 20.95 8.35 21.24Q8.93 21.53 9.50 21.96Q14.11 25.99 17.24 28.30Q20.38 30.60 22.86 31.75Q25.34 32.90 27.58 33.19Q29.81 33.48 32.62 33.48Z"/></svg>