<svg xmlns="http://www.w3.org/2000/svg" xmlns:xlink="http://www.w3.org/1999/xlink" width="36" height="72"><path fill="red" stroke="black" d="M12.16 5.52L16.77 5.52L15.33 20.36L23.38 20.36L24.82 5.52L29.43 5.52L27.98 20.36L32.77 20.36L32.77 25.10L27.49 25.10L25.42 46.86L30.59 46.86L30.59 51.61L24.89 51.61L23.45 66.45L18.84 66.45L20.29 51.61L12.23 51.61L10.79 66.45L6.19 66.45L7.63 51.61L3.23 51.61L3.23 46.86L8.12 46.86L10.20 25.10L5.38 25.10L5.38 20.36L10.72 20.36L12.16 5.52M14.80 25.10L12.73 46.86L20.78 46.86L22.89 25.10L14.80 25.10Z"/></svg>