<svg xmlns="http://www.w3.org/2000/svg" xmlns:xlink="http://www.w3.org/1999/xlink" width="36" height="72"><path fill="red" stroke="black" d="M15.75 3.59L20.21 3.59L20.21 8.26Q29.81 9.88 30.87 21.59L25.56 21.59Q25.45 14.87 20.21 13.01L20.21 31.75L21.30 32.38Q27.21 35.93 29.21 38.14Q32.80 42.29 32.80 46.79Q32.80 58.57 20.21 59.98L20.21 66.30L15.75 66.30L15.75 59.98Q3.80 58.25 3.02 44.05L8.47 44.05Q8.68 53.58 15.75 55.23L15.75 34.49Q4.01 28.55 4.01 20.57Q4.01 13.71 9.63 10.13Q12.06 8.68 15.75 8.12L15.75 3.59M20.21 36.98L20.21 55.30Q27.32 54 27.32 47.07Q27.32 41.41 20.21 36.98M15.75 12.73Q9.35 13.71 9.35 20.50Q9.35 25.21 15.75 29.21L15.75 12.73Z"/></svg>