<svg xmlns="http://www.w3.org/2000/svg" xmlns:xlink="http://www.w3.org/1999/xlink" width="36" height="72"><path fill="red" stroke="black" d="M30.02 3.73L34.56 3.73L5.91 68.24L1.37 68.24L30.02 3.73M9.91 5.52Q13.50 5.52 15.61 9.04Q18 12.94 18 19.93Q18 26.12 16.07 30.02Q13.89 34.35 9.84 34.35Q6.33 34.35 4.18 30.66Q1.86 26.72 1.86 19.86Q1.86 13.43 3.87 9.70Q6.12 5.52 9.91 5.52M9.91 9.56Q6.47 9.56 6.47 19.93Q6.47 30.30 9.91 30.30Q13.39 30.30 13.39 19.86Q13.39 9.56 9.91 9.56M26.05 37.65Q29.64 37.65 31.75 41.17Q34.14 45.07 34.14 52.03Q34.14 58.25 32.20 62.12Q30.02 66.45 25.98 66.45Q22.46 66.45 20.32 62.79Q18 58.82 18 51.96Q18 45.53 20.00 41.84Q22.25 37.65 26.05 37.65M26.05 41.70Q22.61 41.70 22.61 52.03Q22.61 62.40 26.05 62.40Q29.53 62.40 29.53 51.96Q29.53 41.70 26.05 41.70Z"/></svg>