<svg xmlns="http://www.w3.org/2000/svg" xmlns:xlink="http://www.w3.org/1999/xlink" width="36" height="72"><path fill="red" stroke="black" d="M28.51 59.70L26.26 56.07Q21.87 61.14 16.07 61.14Q10.20 61.14 6.40 56.81Q3.23 53.19 3.23 46.79Q3.23 39.20 11.60 32.03L11.00 31.15Q6.47 24.36 6.47 18.98Q6.47 14.03 9.35 10.93Q12.23 7.84 17.51 7.84Q22.43 7.84 25.35 11.29Q28.16 14.52 28.16 19.13Q28.16 24.47 24.19 28.20Q22.29 29.99 18.42 32.45L17.65 33.01L26.12 46.51Q27.67 41.98 28.02 35.47L33.19 35.47Q32.20 45.42 29.21 51.47L34.42 59.70L28.51 59.70M13.89 35.89Q8.40 40.75 8.40 46.79Q8.40 56.25 16.10 56.25Q20.25 56.25 23.63 51.68L13.89 35.89M15.26 29.29L16.98 28.20Q23.13 24.43 23.13 19.20Q23.13 12.59 17.65 12.59Q11.50 12.59 11.50 19.27Q11.50 23.10 14.77 28.48L15.26 29.29Z"/></svg>