<svg xmlns="http://www.w3.org/2000/svg" xmlns:xlink="http://www.w3.org/1999/xlink" width="36" height="72"><path fill="red" stroke="black" d="M17.09 34.70L14.91 22.39Q14.77 21.38 14.77 21.09Q14.77 18 17.93 18Q21.16 18 21.16 21.16Q21.16 22.01 21.09 22.39L18.95 34.70L27.28 25.49Q28.62 24.05 29.95 24.05Q31.18 24.05 32.24 25.35Q33.12 26.30 33.12 27.49Q33.12 29.32 31.25 30.30L19.86 36L31.25 41.70Q33.19 42.64 33.19 44.51Q33.19 45.49 32.55 46.37Q31.46 47.88 29.88 47.88Q28.44 47.88 27.28 46.51L18.95 37.30L21.09 49.61Q21.16 49.96 21.16 50.84Q21.16 54 17.93 54Q14.77 54 14.77 50.84Q14.77 50.63 14.91 49.61L17.09 37.30L8.72 46.51Q7.38 47.95 6.05 47.95Q4.68 47.95 3.62 46.65Q2.74 45.56 2.74 44.44Q2.74 42.64 4.75 41.70L16.14 36L4.75 30.30Q2.74 29.36 2.74 27.56Q2.74 26.61 3.62 25.42Q4.64 24.05 6.05 24.05Q7.38 24.05 8.72 25.49L17.09 34.70Z"/></svg>