<svg xmlns="http://www.w3.org/2000/svg" xmlns:xlink="http://www.w3.org/1999/xlink" width="36" height="72"><path fill="red" stroke="black" d="M3.45 24.26L3.45 23.24Q3.45 15.57 7.35 10.72Q11.29 5.70 18.56 5.70Q24.71 5.70 28.62 9.28Q32.59 13.04 32.59 18.81Q32.59 25.56 25.52 32.63Q22.50 35.65 21.52 38.25Q20.43 41.13 20.43 47.74Q20.43 48.97 20.43 49.54L14.38 49.54Q14.48 40.78 15.96 37.09Q17.23 33.82 20.95 29.88Q26.47 23.91 26.47 18.95Q26.47 16.17 25.03 14.06Q22.89 10.97 18.49 10.97Q9.21 10.97 9.21 23.70Q9.21 24.05 9.21 24.26L3.45 24.26M13.46 56.07L21.52 56.07L21.52 64.44L13.46 64.44L13.46 56.07Z"/></svg>