<svg xmlns="http://www.w3.org/2000/svg" xmlns:xlink="http://www.w3.org/1999/xlink" width="36" height="72"><path fill="red" stroke="black" d="M23.77 21.30L26.51 21.30Q25.35 32.31 25.35 41.24Q25.35 46.27 26.86 46.27Q27.95 46.27 28.58 44.68Q30.30 40.57 30.30 32.45Q30.30 24.22 27.70 18.91Q24.57 12.23 18.07 12.23Q12.52 12.23 9.07 18.35Q5.63 24.50 5.63 36.14Q5.63 47.53 8.86 53.47Q12.20 59.52 18 59.52Q25.38 59.52 28.51 52.56L32.34 54.98Q27.46 63.84 17.93 63.84Q10.20 63.84 5.98 56.99Q1.51 49.71 1.51 36.07Q1.51 24.01 5.24 16.63Q9.60 7.84 18 7.84Q25.73 7.84 30.02 14.84Q34.21 21.59 34.21 32.63Q34.21 41.48 31.39 46.58Q29.32 50.17 26.23 50.17Q23.17 50.17 22.11 46.44Q19.58 50.87 15.75 50.87Q9.56 50.87 9.56 39.59Q9.56 31.04 12.45 25.17Q14.73 20.43 18.35 20.43Q21.23 20.43 23.17 23.38L23.77 21.30M18.81 24.33Q16.91 24.33 15.47 27.70Q13.75 31.92 13.75 39.59Q13.75 46.69 16.56 46.69Q18.56 46.69 19.97 43.45Q21.83 39.16 21.83 31.96Q21.83 24.33 18.81 24.33Z"/></svg>