<svg xmlns="http://www.w3.org/2000/svg" xmlns:xlink="http://www.w3.org/1999/xlink" width="36" height="72"><path fill="red" stroke="black" d="M4.99 35.47Q6.40 24.08 18.04 24.08Q29.74 24.08 29.74 36.63L29.74 53.82Q29.74 55.86 31.61 55.86Q32.24 55.86 33.33 55.62L33.33 60.68Q31.89 61.03 29.88 61.03Q25.14 61.03 24.50 55.72Q19.62 61.03 13.78 61.03Q9.95 61.03 7.49 59.03Q4.25 56.43 4.25 51.33Q4.25 39.48 24.57 38.07L24.57 36.63Q24.57 28.90 18.04 28.90Q11.29 28.90 10.76 35.47L4.99 35.47M24.57 42.61Q9.53 43.35 9.53 51.05Q9.53 56.21 14.63 56.21Q18.11 56.21 21.41 53.54Q24.57 51.05 24.57 47.36L24.57 42.61Z"/></svg>