<svg xmlns="http://www.w3.org/2000/svg" xmlns:xlink="http://www.w3.org/1999/xlink" width="36" height="72"><path fill="red" stroke="black" d="M5.34 9.28L10.69 9.28L10.69 29.36Q15.08 24.12 20.18 24.12Q25.49 24.12 28.83 28.72Q32.34 33.64 32.34 42.26Q32.34 48.30 30.48 52.91Q27.14 61.14 20.04 61.14Q14.17 61.14 10.62 55.23L9.25 59.70L5.34 59.70L5.34 9.28M18.88 29.21Q14.77 29.21 12.41 33.40Q10.48 36.84 10.48 42.26Q10.48 48.13 12.55 51.86Q14.91 56.04 18.95 56.04Q22.50 56.04 24.57 52.42Q26.72 48.76 26.72 42.26Q26.72 35.89 24.26 32.38Q22.22 29.21 18.88 29.21Z"/></svg>