<svg xmlns="http://www.w3.org/2000/svg" xmlns:xlink="http://www.w3.org/1999/xlink" width="36" height="72"><path fill="red" stroke="black" d="M4.89 9.28L17.05 9.28Q22.71 9.28 26.44 12.16Q30.83 15.40 30.83 21.66Q30.83 29.71 22.68 33.15Q32.63 36.28 32.63 46.05Q32.63 52.42 28.09 56.29Q24.15 59.70 18.21 59.70L4.89 59.70L4.89 9.28M10.51 14.63L10.51 30.87L16.77 30.87Q19.72 30.87 21.62 29.50Q25.00 27.21 25.00 22.39Q25.00 14.63 16.98 14.63L10.51 14.63M10.51 35.89L10.51 54.35L17.30 54.35Q26.65 54.35 26.65 45.28Q26.65 35.89 16.98 35.89L10.51 35.89Z"/></svg>21Z"/></svg>