<svg xmlns="http://www.w3.org/2000/svg" xmlns:xlink="http://www.w3.org/1999/xlink" width="36" height="72"><path fill="red" stroke="black" d="M25.31 9.28L30.66 9.28L30.66 59.70L26.75 59.70L25.38 55.23Q21.73 61.14 15.82 61.14Q10.37 61.14 7.03 55.86Q3.66 50.73 3.66 42.19Q3.66 35.19 6.19 30.38Q9.53 24.12 15.75 24.12Q20.92 24.12 25.31 29.36L25.31 9.28M17.05 29.21Q13.32 29.21 11.14 33.26Q9.28 36.91 9.28 42.26Q9.28 48.06 11.00 51.64Q13.04 56.04 17.05 56.04Q20.67 56.04 23.06 52.42Q25.52 48.80 25.52 42.26Q25.52 36.95 23.66 33.54Q21.38 29.21 17.05 29.21Z"/></svg>