<svg xmlns="http://www.w3.org/2000/svg" xmlns:xlink="http://www.w3.org/1999/xlink" width="36" height="72"><path fill="red" stroke="black" d="M30.80 25.49L30.80 55.72Q30.80 70.03 17.65 70.03Q6.40 70.03 4.46 58.96L10.09 58.96Q11.04 65.21 17.79 65.21Q25.63 65.21 25.63 56.14L25.63 50.31Q21.87 54.70 16.56 54.70Q10.83 54.70 7.03 50.17Q3.59 45.95 3.59 39.66Q3.59 35.09 5.38 31.61Q9.18 24.12 16.84 24.12Q22.18 24.12 25.84 28.44L27.07 25.49L30.80 25.49M17.33 29.07Q13.36 29.07 11.00 32.59Q9.07 35.40 9.07 39.59Q9.07 43.95 11.21 46.86Q13.54 50.03 17.40 50.03Q20.60 50.03 22.82 47.57Q25.77 44.40 25.77 39.66Q25.77 34.95 23.24 31.89Q20.78 29.07 17.33 29.07Z"/></svg>