<svg xmlns="http://www.w3.org/2000/svg" xmlns:xlink="http://www.w3.org/1999/xlink" width="36" height="72"><path fill="red" stroke="black" d="M7.10 25.49L7.91 28.16Q10.97 24.12 14.31 24.12Q17.65 24.12 19.48 28.16Q22.68 24.12 26.51 24.12Q32.70 24.12 32.70 32.77L32.70 59.70L27.53 59.70L27.53 33.75Q27.53 28.72 25.00 28.72Q22.71 28.72 21.30 31.25Q20.50 32.84 20.50 34.70L20.50 59.70L15.47 59.70L15.47 33.68Q15.47 28.72 12.87 28.72Q8.47 28.72 8.47 34.63L8.47 59.70L3.30 59.70L3.30 25.49L7.10 25.49Z"/></svg>