<svg xmlns="http://www.w3.org/2000/svg" xmlns:xlink="http://www.w3.org/1999/xlink" width="36" height="72"><path fill="red" stroke="black" d="M18.07 24.12Q24.68 24.12 28.44 29.95Q31.68 34.80 31.68 42.61Q31.68 48.48 29.74 52.91Q26.16 61.14 17.93 61.14Q11.57 61.14 7.77 55.72Q4.32 50.77 4.32 42.61Q4.32 33.82 8.30 28.79Q12.09 24.12 18.07 24.12M17.93 29.14Q14.06 29.14 11.88 33.19Q9.95 36.74 9.95 42.61Q9.95 48.02 11.53 51.43Q13.71 56.11 18 56.11Q21.94 56.11 24.12 52.07Q26.05 48.52 26.05 42.68Q26.05 36.60 24.05 33.12Q21.90 29.14 17.93 29.14Z"/></svg>