<svg xmlns="http://www.w3.org/2000/svg" xmlns:xlink="http://www.w3.org/1999/xlink" width="36" height="72"><path fill="red" stroke="black" d="M24.68 65.21Q23.94 62.30 22.68 59.91Q20.32 61.14 17.86 61.14Q11.04 61.14 7.28 54.14Q3.30 46.97 3.30 34.49Q3.30 21.83 7.42 14.63Q11.29 7.84 18 7.84Q24.75 7.84 28.65 14.70Q32.70 21.97 32.70 34.42Q32.70 49.92 26.65 56.95Q28.58 61.28 28.93 62.19L24.68 65.21M19.51 43.77Q21.06 45.88 24.19 51.54Q26.65 46.65 26.65 34.56Q26.65 13.11 18 13.11Q9.35 13.11 9.35 34.42Q9.35 56.04 17.86 56.04Q19.23 56.04 20.74 55.51Q18.63 50.80 15.61 46.44L19.51 43.77Z"/></svg>