<svg xmlns="http://www.w3.org/2000/svg" xmlns:xlink="http://www.w3.org/1999/xlink" width="36" height="72"><path fill="red" stroke="black" d="M25.31 70.03L25.31 55.41Q21.09 60.15 15.89 60.15Q10.51 60.15 7.17 55.34Q3.59 50.20 3.59 41.80Q3.59 35.09 6.19 30.45Q9.60 24.12 15.75 24.12Q20.88 24.12 25.80 30.02L26.68 25.49L30.66 25.49L30.66 70.03L25.31 70.03M16.98 29.21Q13.29 29.21 11.21 33.05Q9.28 36.39 9.28 41.94Q9.28 54.98 17.05 54.98Q21.09 54.98 23.59 50.66Q25.52 47.21 25.52 41.87Q25.52 35.47 22.29 31.82Q20.04 29.21 16.98 29.21Z"/></svg>