<svg xmlns="http://www.w3.org/2000/svg" xmlns:xlink="http://www.w3.org/1999/xlink" width="36" height="72"><path fill="red" stroke="black" d="M10.02 49.08Q10.97 56.29 18.42 56.29Q25.91 56.29 25.91 51.01Q25.91 48.48 24.19 47.07Q22.36 45.56 17.65 43.91L16.63 43.52Q11.43 41.73 9.07 39.94Q5.70 37.30 5.70 33.57Q5.70 29.11 9.60 26.40Q12.97 24.08 17.79 24.08Q28.65 24.08 30.38 33.96L24.79 33.96Q23.91 28.69 17.72 28.69Q11.11 28.69 11.11 33.36Q11.11 36.42 19.97 39.55Q24.96 41.31 27.14 42.89Q31.39 45.91 31.39 50.87Q31.39 55.69 27.60 58.50Q24.01 61.10 18.28 61.10Q5.73 61.10 4.32 49.08L10.02 49.08Z"/></svg>