<svg xmlns="http://www.w3.org/2000/svg" xmlns:xlink="http://www.w3.org/1999/xlink" width="36" height="72"><path fill="red" stroke="black" d="M9.35 45.21Q9.77 55.86 18.56 55.86Q21.73 55.86 23.84 54.28Q26.79 52.00 26.79 47.88Q26.79 43.45 23.10 40.08Q20.57 37.83 14.41 34.28Q4.68 28.55 4.68 20.60Q4.68 15.57 7.84 12.09Q11.67 7.84 18.07 7.84Q29.99 7.84 31.61 22.18L25.70 22.18Q25.45 18.88 24.33 16.91Q22.08 12.94 18.07 12.94Q13.92 12.94 11.88 15.75Q10.44 17.75 10.44 20.14Q10.44 25.84 19.72 31.25Q25.45 34.59 28.51 37.65Q32.63 41.66 32.63 47.81Q32.63 53.61 28.93 57.16Q25.00 61.14 18.74 61.14Q10.90 61.14 6.54 55.37Q3.52 51.36 3.30 45.21L9.35 45.21Z"/></svg>