<svg xmlns="http://www.w3.org/2000/svg" xmlns:xlink="http://www.w3.org/1999/xlink" width="46.4765625" height="112.078125"><path fill="red" stroke="black" d="M-7.03 110.04Q-7.52 110.04-7.52 109.48Q-7.52 109.13-7.24 108.42L-4.57 104.98L-4.50 104.91Q1.76 95.13 1.97 61.45L1.97 52.59Q1.97 38.11 2.60 32.48Q3.02 29.25 3.66 26.37Q5.63 18 10.48 12.45Q13.64 9.07 15.12 9.07Q15.61 9.07 15.61 9.77Q15.47 10.90 13.64 12.87Q13.08 13.43 12.87 13.78Q8.72 19.83 8.16 35.23Q8.02 39.23 8.02 53.16L10.27 50.84Q15.19 46.13 20.46 43.45Q24.40 41.48 27.70 41.48Q34.17 41.48 37.41 48.09Q38.95 51.19 38.95 54.56Q38.95 62.93 31.43 69.75Q31.29 69.96 31.08 70.10Q26.02 74.53 21.16 74.53Q19.13 74.53 17.44 73.62Q15.54 72.56 15.54 70.52Q15.54 68.06 17.30 66.59Q18.70 65.32 20.25 65.32Q21.52 65.32 22.36 65.88L24.68 67.57Q25.66 68.20 27.28 68.20Q28.55 68.20 29.74 67.64Q30.45 67.29 30.73 66.80Q32.84 64.05 32.84 60.26Q32.84 53.65 28.55 49.92Q25.73 47.60 22.64 47.60Q18.91 47.60 14.55 50.70Q11.88 52.59 10.27 54.63Q7.88 57.94 7.88 64.55L7.66 70.45Q6.82 85.99 4.29 94.08Q3.73 95.91 3.09 97.59Q0.98 103.29-3.59 107.93Q-5.70 110.04-7.03 110.04Z"/></svg>