<svg xmlns="http://www.w3.org/2000/svg" xmlns:xlink="http://www.w3.org/1999/xlink" width="0" height="112.078125"><path fill="red" stroke="black" d="M-37.05 9.77Q-36.07 8.79-35.79 8.79Q-35.44 8.79-34.88 9.35L-33.12 11.04L-31.50 12.73Q-30.87 13.36-30.87 13.64Q-30.87 14.06-31.71 14.91L-34.38 17.58Q-35.44 18.63-35.79 18.63Q-36.14 18.56-36.56 18.07L-38.32 16.31L-40.01 14.70Q-40.64 14.06-40.64 13.71Q-40.64 13.36-39.73 12.45L-37.05 9.77M-43.73 19.27L-42.47 18.28Q-42.12 18.28-41.55 18.84L-39.80 20.53Q-38.60 21.66-37.48 23.06Q-37.48 23.13-37.48 23.13Q-37.48 23.70-38.39 24.40L-41.06 27.07Q-42.12 28.13-42.33 28.13Q-42.68 28.13-43.24 27.56L-46.62 24.19Q-47.32 23.48-47.32 23.20Q-47.32 22.85-46.41 21.94L-43.73 19.27M-30.45 19.27L-29.18 18.28Q-28.83 18.28-28.27 18.84L-26.51 20.53Q-25.31 21.66-24.19 23.06Q-24.19 23.13-24.19 23.13Q-24.19 23.70-25.10 24.40L-27.77 27.07Q-28.83 28.13-29.04 28.13Q-29.39 28.13-29.95 27.56L-33.33 24.19Q-34.03 23.48-34.03 23.20Q-34.03 22.85-33.12 21.94L-30.45 19.27Z"/></svg>