<svg xmlns="http://www.w3.org/2000/svg" xmlns:xlink="http://www.w3.org/1999/xlink" width="0" height="112.078125"><path fill="red" stroke="black" d="M-35.02 11.53Q-31.15 7.66-26.93 7.66Q-24.05 7.66-22.15 10.20L-22.15 10.27Q-21.02 11.81-21.02 13.92Q-21.02 19.13-28.05 23.77Q-31.92 26.44-45.98 31.57Q-47.32 31.99-47.81 31.99Q-47.95 31.99-48.02 31.99Q-48.59 31.78-48.59 31.36Q-48.59 30.87-48.09 30.38Q-47.25 29.74-44.02 28.20Q-35.72 24.54-34.17 23.63Q-27.07 19.69-27.07 16.31Q-27.07 13.78-29.95 12.80Q-30.80 12.52-31.57 12.52Q-32.27 12.52-32.91 12.73Q-33.12 12.80-34.66 13.85Q-35.51 14.48-36.35 14.48Q-36.77 14.48-36.77 13.99Q-36.70 12.87-35.02 11.53Z"/></svg>