<svg xmlns="http://www.w3.org/2000/svg" xmlns:xlink="http://www.w3.org/1999/xlink" width="0" height="112.078125"><path fill="red" stroke="black" d="M-44.72 12.38Q-50.13 12.38-53.30 14.27L-56.18 16.59Q-57.09 17.02-57.45 17.02Q-57.94 17.02-57.94 16.52Q-57.94 15.40-55.76 13.22Q-51.05 8.93-46.05 7.73Q-43.88 7.17-41.06 7.17Q-38.25 7.17-34.95 7.73L-21.02 10.34Q-18.42 10.76-16.17 10.76Q-15.82 10.76-15.40 10.76Q-10.76 10.76-7.80 9.14Q-7.45 9-5.55 7.38L-5.48 7.31Q-4.36 6.19-3.23 6.19Q-2.81 6.19-2.81 6.54Q-2.81 6.75-2.88 6.96Q-2.88 7.03-2.88 7.10Q-3.73 8.79-5.27 10.20Q-11.53 15.96-19.62 15.96Q-24.19 15.96-30.59 14.55Q-41.06 12.38-44.72 12.38Z"/></svg>