<svg xmlns="http://www.w3.org/2000/svg" xmlns:xlink="http://www.w3.org/1999/xlink" width="44.6484375" height="112.078125"><path fill="red" stroke="black" d="M36.28 55.13Q36.28 60.96 32.20 66.02Q27.07 72.98 19.83 75.02Q17.79 75.73 15.05 75.73Q7.45 75.73 3.38 68.84Q0.28 63.77 0.28 57.09Q0.28 41.06 10.20 27.49Q16.95 18.28 26.16 13.01Q29.39 11.18 30.94 11.18Q31.78 11.18 31.78 11.81L31.78 11.95Q31.71 12.16 31.50 12.38Q30.94 13.29 29.39 14.13L25.17 16.59Q10.05 26.37 6.96 44.51Q6.40 48.23 6.40 51.61Q6.40 60.96 11.81 66.30Q15.33 69.68 19.90 69.68Q21.94 69.68 24.12 69.05Q26.79 68.34 27.98 67.01Q30.02 64.97 30.09 60.68Q30.09 60.33 30.09 59.98Q30.09 58.08 28.97 56.74L27 54.35Q26.44 53.44 26.44 52.45Q26.44 49.64 29.04 48.23Q30.09 47.67 31.22 47.67Q34.24 47.67 35.51 50.98Q36.28 52.88 36.28 55.13Z"/></svg>