<svg xmlns="http://www.w3.org/2000/svg" xmlns:xlink="http://www.w3.org/1999/xlink" width="0" height="112.078125"><path fill="red" stroke="black" d="M-19.97 101.81Q-19.97 102.66-22.36 105.05Q-27.07 109.41-32.34 110.39Q-34.31 110.74-36.77 110.74Q-41.48 110.74-48.09 109.41Q-54.21 108.07-55.55 107.86Q-59.13 107.30-62.02 107.30Q-67.22 107.30-70.38 109.13L-73.27 111.45Q-74.18 111.87-74.53 111.87Q-75.02 111.87-75.02 111.38Q-75.02 110.25-72.84 108.07Q-66.30 102.09-58.15 102.09Q-55.41 102.09-52.03 102.59L-38.11 105.19Q-35.51 105.61-33.26 105.61Q-32.91 105.61-32.48 105.61Q-27.84 105.61-24.89 103.99Q-24.54 103.85-22.64 102.23Q-21.45 101.04-20.32 101.04Q-19.90 101.04-19.90 101.39Q-19.90 101.60-19.97 101.81Z"/></svg>