<svg xmlns="http://www.w3.org/2000/svg" xmlns:xlink="http://www.w3.org/1999/xlink" width="70.2421875" height="112.078125"><path fill="red" stroke="black" d="M25.38 41.48Q30.80 41.48 33.96 47.46Q35.30 50.41 35.44 51.96Q35.65 51.61 37.27 49.78Q39.59 47.32 42.68 45.14Q47.88 41.48 52.03 41.48Q56.18 41.48 59.13 45.70Q61.80 49.57 61.80 54.56Q61.80 61.66 56.60 67.85Q55.20 69.61 53.44 71.02Q49.29 74.39 45.28 74.39Q42.61 74.39 41.20 73.34Q39.59 72.14 39.59 70.45Q39.59 69.47 40.08 68.41Q41.48 65.32 44.65 65.32Q45.56 65.32 46.41 65.81L48.09 67.15L48.16 67.22Q49.64 68.27 51.19 68.27Q52.52 68.27 53.30 67.64Q53.58 67.36 54.07 66.38Q55.76 63.21 55.76 59.77Q55.76 54.84 52.95 51.05Q50.41 47.60 46.76 47.60Q44.72 47.60 42.75 48.73Q40.85 49.78 39.59 51.05Q37.41 53.37 35.09 59.34Q34.10 61.73 33.54 62.93Q31.57 67.01 27.77 70.45Q23.34 74.39 18.84 74.39Q16.38 74.39 15.05 73.48Q13.29 72.42 13.29 70.45Q13.29 67.85 15.33 66.38Q16.73 65.32 18.07 65.32Q19.13 65.32 20.18 65.95L22.36 67.57Q22.43 67.57 22.50 67.64Q23.84 68.27 24.89 68.27Q25.80 68.27 26.58 67.85L26.72 67.78Q27.42 67.29 27.91 66.16Q29.53 63.14 29.53 59.77Q29.53 55.34 27.14 51.68Q24.40 47.60 20.53 47.60Q17.58 47.60 14.06 50.20Q9.49 53.72 8.30 58.71Q8.02 59.91 7.88 64.55Q7.31 84.45 4.22 94.22Q1.62 102.66-3.30 107.58Q-5.77 110.04-7.03 110.04Q-7.52 110.04-7.52 109.48Q-7.52 109.13-7.31 108.56Q-7.03 108-5.13 105.82Q-4.99 105.61-4.85 105.47Q0.84 97.73 1.76 69.82Q1.97 61.45 1.97 52.95Q1.97 38.46 2.60 32.84Q4.08 19.76 10.55 12.38Q12.52 10.13 14.06 9.42Q14.70 9 15.12 9Q15.61 9 15.61 9.63Q15.61 11.11 13.36 13.08Q8.09 19.48 8.09 41.98L8.09 43.45Q8.09 47.60 8.02 49.64Q8.02 52.31 8.09 52.59Q8.44 52.03 9.49 50.98Q11.95 48.38 14.91 46.13Q20.74 41.48 25.38 41.48Z"/></svg>