<svg xmlns="http://www.w3.org/2000/svg" xmlns:xlink="http://www.w3.org/1999/xlink" width="0" height="112.078125"><path fill="red" stroke="black" d="M-34.66 14.48Q-28.41 8.58-22.99 8.58Q-20.11 8.58-18.28 10.83L-18.21 10.90Q-17.02 12.45-17.02 14.41Q-17.02 14.63-17.02 14.84Q-17.02 18.70-21.94 22.36Q-24.26 24.05-25.73 24.05Q-26.37 24.05-26.37 23.63Q-26.37 22.85-24.61 21.38Q-22.99 19.90-22.99 17.79Q-22.99 16.80-23.41 15.82Q-23.41 15.68-23.48 15.61Q-23.91 14.63-25.24 13.99Q-25.73 13.85-26.30 13.85Q-28.90 13.85-33.05 17.44Q-35.44 19.48-42.19 27.07Q-44.02 29.11-45.91 31.01Q-47.18 32.06-47.74 32.13Q-47.95 32.13-48.09 31.99Q-48.45 31.78-48.45 31.36Q-48.45 30.87-47.81 29.95L-43.10 23.98Q-38.53 18.21-34.66 14.48Z"/></svg>