<svg xmlns="http://www.w3.org/2000/svg" xmlns:xlink="http://www.w3.org/1999/xlink" width="44.6484375" height="112.078125"><path fill="red" stroke="black" d="M35.65 45.91L35.79 57.94Q35.79 72.84 34.95 80.09Q33.12 98.16 25.52 106.66Q22.64 110.04 20.88 110.04Q20.46 110.04 20.46 109.62Q20.46 109.48 20.46 109.34Q20.46 108.28 22.43 106.17L22.71 105.89L23.20 105.26Q24.47 103.50 25.66 100.20Q29.74 88.52 29.74 64.90Q19.97 74.39 9.98 74.39Q8.16 74.39 6.82 73.97Q1.69 72.21-0.42 66.38Q-1.34 63.84-1.34 61.17Q-1.34 52.66 6.61 45.84Q11.60 41.48 16.52 41.48Q18.63 41.48 20.25 42.40Q22.08 43.52 22.08 45.49Q22.08 47.95 20.32 49.43Q18.91 50.63 17.37 50.63Q16.38 50.63 15.19 49.99L13.92 48.94Q12.16 47.74 10.20 47.74Q7.73 47.74 6.75 49.29Q4.71 52.17 4.71 55.90Q4.71 57.52 5.13 59.34Q6.40 65.04 10.90 67.36Q12.87 68.34 15.05 68.34Q20.60 68.34 25.80 64.83Q27.14 63.98 27.98 62.93Q29.67 60.61 29.67 55.76Q29.60 54 29.60 50.41Q29.60 29.88 33.54 20.25Q35.72 15.12 39.94 10.97Q41.55 9.14 43.03 9.14Q43.52 9.14 43.52 9.56Q43.52 9.98 43.24 10.69Q43.03 11.11 41.27 13.29L41.20 13.36Q39.59 14.98 38.11 20.32Q35.65 28.90 35.65 45.91Z"/></svg>