<svg xmlns="http://www.w3.org/2000/svg" xmlns:xlink="http://www.w3.org/1999/xlink" width="0" height="112.078125"><path fill="red" stroke="black" d="M-14.27 9.77Q-13.29 8.79-13.01 8.79Q-12.66 8.79-12.09 9.35L-10.34 11.04L-8.72 12.73Q-8.09 13.36-8.09 13.64Q-8.09 14.06-8.93 14.91L-11.60 17.58Q-12.66 18.63-13.01 18.63Q-13.36 18.56-13.78 18.07L-15.54 16.31L-17.23 14.70Q-17.86 14.06-17.86 13.71Q-17.86 13.36-16.95 12.45L-14.27 9.77M-20.95 19.27L-19.69 18.28Q-19.34 18.28-18.77 18.84L-17.02 20.53Q-15.82 21.66-14.70 23.06Q-14.70 23.13-14.70 23.13Q-14.70 23.70-15.61 24.40L-18.28 27.07Q-19.34 28.13-19.55 28.13Q-19.90 28.13-20.46 27.56L-23.84 24.19Q-24.54 23.48-24.54 23.20Q-24.54 22.85-23.63 21.94L-20.95 19.27M-7.66 19.27L-6.40 18.28Q-6.05 18.28-5.48 18.84L-3.73 20.53Q-2.53 21.66-1.41 23.06Q-1.41 23.13-1.41 23.13Q-1.41 23.70-2.32 24.40L-4.99 27.07Q-6.05 28.13-6.26 28.13Q-6.61 28.13-7.17 27.56L-10.55 24.19Q-11.25 23.48-11.25 23.20Q-11.25 22.85-10.34 21.94L-7.66 19.27Z"/></svg> 48.16Q12.09 48.16 11.95 48.23Q9.28 49.50 8.09 53.37Q7.45 55.41 7.45 57.38Q7.45 60.75 9.35 63.77Q12.38 68.48 17.79 68.48Q21.87 68.48 26.86 65.74Q28.76 64.69 29.81 63.49Q31.08 62.09 31.71 59.70Q31.92 58.78 32.20 54.49L32.20 54L32.55 47.04Z"/></svg>