<svg xmlns="http://www.w3.org/2000/svg" xmlns:xlink="http://www.w3.org/1999/xlink" width="0" height="112.078125"><path fill="red" stroke="black" d="M-23.77 9.77Q-22.78 8.79-22.50 8.79Q-22.15 8.79-21.59 9.35L-19.83 11.04L-18.21 12.73Q-17.58 13.36-17.58 13.64Q-17.58 14.06-18.42 14.91L-21.09 17.58Q-22.15 18.63-22.50 18.63Q-22.85 18.56-23.27 18.07L-25.03 16.31L-26.72 14.70Q-27.35 14.06-27.35 13.71Q-27.35 13.36-26.44 12.45L-23.77 9.77M-30.45 19.27L-29.18 18.28Q-28.83 18.28-28.27 18.84L-26.51 20.53Q-25.31 21.66-24.19 23.06Q-24.19 23.13-24.19 23.13Q-24.19 23.70-25.10 24.40L-27.77 27.07Q-28.83 28.13-29.04 28.13Q-29.39 28.13-29.95 27.56L-33.33 24.19Q-34.03 23.48-34.03 23.20Q-34.03 22.85-33.12 21.94L-30.45 19.27M-17.16 19.27L-15.89 18.28Q-15.54 18.28-14.98 18.84L-13.22 20.53Q-12.02 21.66-10.90 23.06Q-10.90 23.13-10.90 23.13Q-10.90 23.70-11.81 24.40L-14.48 27.07Q-15.54 28.13-15.75 28.13Q-16.10 28.13-16.66 27.56L-20.04 24.19Q-20.74 23.48-20.74 23.20Q-20.74 22.85-19.83 21.94L-17.16 19.27Z"/></svg>83Q27.77 63.84 28.34 63.14Q30.09 60.96 30.38 55.97L30.38 55.55Q30.38 55.48 30.59 50.63Q31.43 35.65 31.50 35.09Q32.34 25.95 34.73 20.32Q36.98 15.05 41.13 10.97Q42.19 9.91 43.52 9.28Q43.95 9.07 44.23 9.07Z"/></svg>