<svg xmlns="http://www.w3.org/2000/svg" xmlns:xlink="http://www.w3.org/1999/xlink" width="0" height="112.078125"><path fill="red" stroke="black" d="M-26.09 8.86Q-25.66 8.86-25.17 9.35L-23.41 11.04L-21.80 12.66Q-21.16 13.50-21.16 13.57Q-21.16 13.64-21.16 13.64Q-21.16 14.13-22.01 14.91L-24.68 17.58Q-25.73 18.63-26.02 18.63Q-26.51 18.63-26.93 18.07L-30.30 14.70Q-30.94 14.20-30.94 13.78Q-30.94 13.78-30.94 13.71Q-30.94 13.36-30.09 12.45L-27.42 9.77L-26.37 8.93Q-26.23 8.86-26.09 8.86M-34.03 19.27Q-33.05 18.28-32.70 18.28Q-32.27 18.35-31.85 18.84L-30.09 20.53L-28.48 22.15Q-27.84 22.78-27.84 23.06Q-27.84 23.06-27.84 23.13Q-27.84 23.63-28.69 24.40L-31.36 27.07Q-32.41 28.13-32.70 28.13Q-32.98 28.13-33.33 27.84Q-33.33 27.63-33.54 27.56L-36.91 24.19Q-37.62 23.63-37.62 23.20Q-37.62 22.78-36.70 21.94L-34.03 19.27M-20.74 19.27Q-19.76 18.28-19.41 18.28Q-18.98 18.35-18.56 18.84L-16.80 20.53L-15.19 22.15Q-14.55 22.78-14.55 23.06Q-14.55 23.06-14.55 23.13Q-14.55 23.63-15.40 24.40L-18.07 27.07Q-19.13 28.13-19.41 28.13Q-19.69 28.13-20.04 27.84Q-20.04 27.63-20.25 27.56L-23.63 24.19Q-24.33 23.63-24.33 23.20Q-24.33 22.78-23.41 21.94L-20.74 19.27Z"/></svg>5.19 50.27Q10.34 53.51 8.72 57.80Q8.37 58.78 7.80 63.35Q7.31 66.16 6.61 67.71L5.84 69.26Z"/></svg>