<svg xmlns="http://www.w3.org/2000/svg" xmlns:xlink="http://www.w3.org/1999/xlink" width="0" height="112.078125"><path fill="red" stroke="black" d="M-8.86 23.55Q-9.49 23.55-9.49 23.06Q-9.49 22.71-8.79 21.87L-7.03 20.25L-6.61 19.55Q-6.12 18.42-6.12 17.30Q-6.12 16.10-6.68 15.05Q-7.52 13.36-9.49 13.36Q-11.04 13.36-12.94 14.55Q-14.63 15.54-17.65 18.28Q-19.05 19.62-24.82 26.09Q-25.52 26.93-26.30 27.70L-29.60 31.08Q-30.66 32.13-31.22 32.13Q-31.29 32.13-31.29 32.13Q-31.50 32.13-31.64 31.99Q-32.06 31.78-32.06 31.36Q-32.06 30.80-31.36 29.95L-26.58 23.84Q-22.15 18.21-17.86 14.13Q-11.67 8.16-6.12 8.16Q-3.30 8.16-1.41 10.41L-1.34 10.48Q-0.07 12.02-0.07 13.92Q-0.07 18.28-4.71 21.66Q-7.24 23.55-8.86 23.55Z"/></svg>35.02 72.63 33.33 73.76Q32.20 74.46 31.71 74.46Q31.22 74.46 31.01 73.55Q30.09 70.31 30.09 65.25Q22.99 72.35 14.84 74.04Q12.87 74.46 11.11 74.46Q8.65 74.46 6.75 73.62Q2.25 71.72 0.35 66.38Q-0.49 63.84-0.49 61.17Q-0.49 53.02 7.24 46.05Q10.41 43.17 14.27 41.91Q14.27 41.91 14.27 41.91Q14.27 41.91 15.40 41.70Q15.61 41.63 15.75 41.63Q16.73 41.48 17.58 41.48Q20.67 41.48 22.15 43.38L22.29 43.52L22.29 43.59Q22.92 44.51 22.92 45.84Q22.92 47.53 21.87 48.66Q20.39 50.63 18.21 50.63Z"/></svg>