<svg xmlns="http://www.w3.org/2000/svg" xmlns:xlink="http://www.w3.org/1999/xlink" width="43.6640625" height="112.078125"><path fill="red" stroke="black" d="M4.64 107.58Q4.64 106.80 6.47 105.33L9.35 103.43L9.49 103.36Q13.01 100.97 15.75 98.44Q26.79 87.82 29.39 71.72Q29.95 68.06 29.95 64.76Q29.95 56.32 25.80 51.12Q23.91 48.73 21.45 47.53Q18.98 46.27 16.31 46.27Q14.27 46.27 12.16 46.97Q9.14 47.88 8.09 49.15Q6.82 50.77 6.26 53.93Q6.19 54.70 6.19 55.41Q6.19 57.45 6.96 58.78L9.28 61.59Q9.91 62.51 9.91 63.56Q9.91 66.52 6.96 67.92Q6.05 68.34 5.13 68.34L4.01 68.20Q0.14 67.22 0.14 60.61Q0.14 53.23 7.24 46.41Q11.18 42.68 15.68 41.20Q18.49 40.22 21.16 40.22Q29.81 40.22 33.82 48.87Q36.07 53.51 36.07 59.41Q36.07 62.72 35.44 67.01Q33.05 82.55 22.01 95.41Q16.52 101.88 9.77 106.31Q6.68 108.14 5.34 108.14Q4.64 108.14 4.64 107.58Z"/></svg>77 7.24 108.77Q6.89 108.77 6.19 107.93Q4.92 106.24 4.92 103.78Q4.92 100.27 7.59 95.13L7.66 95.06L8.37 93.66Q10.83 89.30 18.07 79.73Q23.34 72.63 25.80 68.27Q28.90 62.93 28.90 58.71Z"/></svg>