<svg xmlns="http://www.w3.org/2000/svg" xmlns:xlink="http://www.w3.org/1999/xlink" width="0" height="112.078125"><path fill="red" stroke="black" d="M-19.05 11.95Q-15.19 8.09-10.90 8.09Q-8.02 8.09-6.12 10.62Q-4.99 12.23-4.99 14.41Q-4.99 20.46-14.63 25.59Q-21.30 28.90-29.60 31.57Q-30.94 31.99-31.43 31.99Q-31.50 31.99-31.57 31.99Q-32.13 31.78-32.13 31.36Q-32.13 30.87-31.64 30.38Q-31.01 29.88-27.56 28.27L-18.98 24.40Q-11.11 20.46-11.11 16.73Q-11.11 14.20-13.85 13.22Q-14.77 12.94-15.61 12.94Q-16.17 12.94-16.73 13.08Q-16.95 13.15-18.63 14.27Q-19.41 14.84-20.11 14.84Q-20.25 14.84-20.32 14.84Q-20.74 14.84-20.74 14.34Q-20.74 13.43-19.05 11.95Z"/></svg>41Q60.68 70.17 60.68 72.49Q60.68 75.66 58.43 79.95Q53.44 89.37 43.66 95.13Q34.95 100.27 25.66 100.27Q12.38 100.27 4.78 92.18Q-0.21 86.84-0.70 78.96Q-0.70 78.61-0.70 78.19Q-0.70 65.04 16.52 49.43L18.56 47.53L10.48 47.11Q5.20 47.11 1.90 48.30Q1.20 48.52-1.27 50.20Q-2.25 50.91-2.81 50.91Q-3.45 50.91-3.45 50.34Q-3.45 49.36-1.62 47.32Q2.11 43.38 7.38 41.91Q10.62 41.06 15.82 41.06Q18.14 41.06 20.88 41.20Q22.22 41.27 35.93 42.96Q42.19 43.66 46.69 43.80Q54.49 43.80 57.30 42.82L57.38 42.75L57.45 42.75Q58.71 42.26 59.55 41.55Q61.31 40.01 62.16 40.01Z"/></svg>