<svg xmlns="http://www.w3.org/2000/svg" xmlns:xlink="http://www.w3.org/1999/xlink" width="44.296875" height="112.078125"><path fill="red" stroke="black" d="M23.55 11.04Q24.40 11.04 24.40 11.53Q24.40 12.73 20.18 15.26Q12.38 19.90 9.77 23.20Q7.38 26.37 7.38 30.38Q7.38 31.43 7.52 32.48Q8.51 37.34 12.45 39.80Q12.59 39.94 12.80 40.01L13.64 40.57Q13.78 40.71 13.78 41.27Q13.57 42.12 12.80 43.03Q12.59 43.31 10.34 45.63Q6.89 49.08 6.19 55.41Q6.12 56.32 6.12 57.16Q6.12 63.35 11.04 67.01Q14.77 69.68 19.34 69.68Q22.92 69.68 25.95 68.20Q27.07 67.64 27.63 67.08Q28.05 66.73 28.62 65.60Q29.81 63.35 29.81 60.26Q29.81 58.85 29.32 57.73Q29.04 57.16 27.49 55.41Q26.09 54 26.09 52.45Q26.09 51.61 26.51 50.70Q27.77 47.67 31.08 47.67Q32.06 47.67 32.91 48.16L32.98 48.16Q35.93 49.92 35.93 55.34Q35.93 59.63 33.40 63.91Q29.39 70.66 22.43 73.90Q18.35 75.80 14.48 75.80Q10.55 75.80 6.89 73.83Q-0.07 69.96-0.07 62.44Q-0.07 60.12 0.63 57.30Q1.76 52.80 4.08 49.29Q5.70 46.76 6.75 45.70Q6.19 45.42 5.27 44.65Q1.20 40.92 1.20 35.16Q1.20 27.35 9.84 19.48Q12.02 17.51 14.55 15.75L18.35 13.36Q22.15 11.04 23.55 11.04Z"/></svg>Q23.55 73.20 19.05 74.67Q16.24 75.66 13.36 75.66Q11.81 75.66 10.20 75.38Q9.63 75.23 9.35 75.23Q9.21 75.23 9.14 75.30Q8.58 75.73 6.96 77.84Q4.15 82.41 4.15 88.17Q4.15 90.56 4.92 92.60Q6.82 97.80 12.23 100.13Q15.05 101.32 17.79 101.32Q20.88 101.32 23.98 99.77Q27.42 98.23 27.84 92.53Q27.84 92.18 27.84 91.83Q27.84 90.42 27.35 89.30Q27.07 88.73 25.52 86.98Q24.12 85.57 24.12 84.02Q24.12 82.90 24.82 81.70Q26.23 79.31 28.97 79.31Q33.33 79.31 33.96 85.85Q33.96 86.27 33.96 86.70Q33.96 91.69 30.80 96.40Q26.37 103.22 19.41 105.96Q16.03 107.37 12.73 107.37Q9.70 107.37 6.75 106.17Q-0.70 103.08-1.90 94.99Z"/></svg>