<svg xmlns="http://www.w3.org/2000/svg" xmlns:xlink="http://www.w3.org/1999/xlink" width="0" height="112.078125"><path fill="red" stroke="black" d="M-14.48 15.40Q-14.98 15.40-14.98 14.77Q-14.98 13.92-13.50 12.16Q-9.63 7.59-4.92 7.59L-1.83 8.44Q0.91 10.27 0.91 13.50Q0.91 15.12 0.07 17.02Q-1.48 20.88-5.98 24.26Q-8.72 26.30-17.02 30.80Q-19.27 32.13-19.97 32.13Q-19.97 32.13-20.04 32.13Q-20.67 31.92-20.67 31.43Q-20.67 31.22-20.60 30.94L-20.39 30.66Q-20.11 30.16-17.30 28.27L-10.48 23.63Q-8.65 22.22-7.24 20.81Q-4.85 18.56-4.85 16.38Q-4.85 14.63-6.75 13.57Q-8.02 12.94-9.14 12.94Q-10.55 12.94-11.88 13.85L-13.78 15.26Q-14.27 15.40-14.48 15.40Z"/></svg>41.34L42.19 43.59Q44.58 43.80 46.69 43.88Q54.91 43.88 58.15 42.26L60.68 40.43Q61.24 40.08 61.66 40.08Q62.16 40.08 62.16 40.71Q62.16 40.78 62.16 40.92Q62.16 41.98 60.26 43.88Q55.97 48.16 50.63 49.29Q47.53 49.92 43.10 49.92Q38.32 49.92 22.36 48.09Q20.39 47.81 20.04 47.81Q19.90 47.81 19.76 47.81Q19.55 47.81 17.30 49.22Q12.30 52.38 11.67 55.48Q11.39 56.67 11.39 57.87Q11.39 61.59 14.20 64.41Q18.49 69.05 30.45 70.45Q37.76 71.37 40.57 72.28Q48.38 75.38 48.38 81.56Q48.38 86.55 43.10 91.34Q36.70 97.10 27.56 97.10Q26.51 97.10 25.38 97.03Q13.78 95.98 12.02 89.58Q11.81 88.66 11.81 88.03Q11.81 86.27 14.41 83.88Q16.52 82.20 17.37 82.20Z"/></svg>