<svg xmlns="http://www.w3.org/2000/svg" xmlns:xlink="http://www.w3.org/1999/xlink" width="0" height="112.078125"><path fill="red" stroke="black" d="M-13.99 17.44Q-7.17 8.09-0.56 8.09Q2.18 8.09 3.87 10.48Q5.06 12.09 5.06 14.13Q5.06 18.14 1.13 21.66Q-1.48 23.84-2.67 23.84Q-3.09 23.84-3.16 23.34Q-3.16 22.78-2.53 22.01L-1.13 20.39Q-0.42 19.05-0.42 17.72Q-0.42 16.31-1.27 15.12Q-2.11 13.71-3.87 13.71Q-5.27 13.71-6.96 14.84Q-8.65 16.03-10.97 18.70Q-12.30 20.25-17.23 27.21Q-19.62 30.45-20.32 31.15Q-21.09 32.20-21.73 32.20Q-22.50 32.13-22.50 31.50Q-22.50 31.01-22.01 30.16Q-18.42 23.84-13.99 17.44Z"/></svg>8.99 3.23 55.20Q4.15 52.73 8.09 48.02L2.74 47.53Q2.53 47.53 2.32 47.46Q0.49 47.18-0.21 46.41Q-1.20 45.07-1.20 43.80Q-1.20 41.63 1.41 39.23Q2.88 37.90 3.94 37.90Q4.01 37.90 4.01 37.90Q4.57 37.90 4.57 38.46Q4.57 38.95 4.08 39.94Q4.08 40.15 4.22 40.57Q4.71 41.91 7.03 42.33Q10.13 42.96 21.23 42.96Q35.65 42.96 38.88 41.63L41.27 40.15Q41.55 40.01 41.77 40.01M34.24 47.18L29.74 47.81Q25.95 48.16 18.42 48.16L12.16 48.16Q9.70 49.22 8.30 53.16Q7.59 55.34 7.59 57.38Q7.59 60.40 9.14 63.21Q10.41 65.46 12.52 66.87Q14.91 68.48 18 68.48Q21.02 68.48 24.68 66.94Q27.07 65.88 28.90 64.48Q31.43 62.44 32.06 58.15L32.55 52.38Q32.77 50.55 33.40 48.87L34.24 47.18Z"/></svg>