<svg xmlns="http://www.w3.org/2000/svg" xmlns:xlink="http://www.w3.org/1999/xlink" width="0" height="112.078125"><path fill="red" stroke="black" d="M-11.25 31.08Q-10.05 29.88-8.93 29.88Q-8.51 29.88-8.51 30.23Q-8.51 30.45-8.58 30.66Q-8.58 30.73-8.58 30.80Q-9.42 32.48-10.97 33.89Q-15.61 38.18-21.09 39.30Q-23.06 39.66-25.38 39.66Q-28.34 39.66-31.85 39.09L-44.58 36.63L-44.65 36.63Q-48.02 36.14-50.77 36.14Q-55.97 36.14-59.06 37.97L-61.88 40.22Q-62.72 40.71-63.14 40.71Q-63.63 40.71-63.63 40.22Q-63.63 39.87-63.35 39.23Q-62.58 37.90-61.45 36.98Q-56.67 32.55-51.89 31.50Q-49.57 30.94-46.62 30.94Q-42.12 30.94-36.28 32.20Q-25.17 34.45-21.87 34.45Q-21.52 34.45-21.09 34.45Q-16.52 34.45-13.50 32.84Q-13.15 32.70-11.25 31.08Z"/></svg>