<svg xmlns="http://www.w3.org/2000/svg" xmlns:xlink="http://www.w3.org/1999/xlink" width="48.5859375" height="112.078125"><path fill="red" stroke="black" d="M29.32 73.97L18.28 73.76Q12.23 73.76 7.52 74.11Q7.31 80.37 5.77 88.38Q3.94 97.38 0.91 102.16Q-1.83 106.73-4.64 108.91Q-6.19 110.04-6.89 110.04Q-7.45 110.04-7.45 109.41Q-7.45 108.91-6.96 108.14Q-6.82 107.86-4.92 105.54Q0.77 99.07 1.76 72.07Q2.04 65.25 2.04 51.54Q2.04 38.04 2.60 33.05Q3.94 23.63 6.33 18.77Q7.80 15.68 10.48 12.52Q12.80 10.05 13.99 9.42Q14.77 9.14 15.19 9.14Q15.68 9.14 15.68 9.63Q15.68 10.34 14.55 11.88L12.87 13.85Q8.30 20.60 8.09 40.71L8.09 53.16L10.34 50.84Q20.18 41.55 27.84 41.55Q30.73 41.55 33.12 43.03Q36.14 45 37.76 48.73Q38.74 51.19 38.74 53.79Q38.74 59.20 34.38 65.11Q32.98 67.01 31.29 68.70L35.79 68.70Q39.23 68.34 42.19 66.30L45.21 63.91Q45.84 63.63 46.27 63.63Q46.97 63.63 46.97 64.27Q46.97 64.97 45.63 66.66Q39.23 73.97 29.32 73.97M7.80 69.26Q16.10 68.41 20.25 68.41Q22.99 68.41 24.33 68.48Q25.17 68.48 25.59 68.55Q26.37 68.55 26.51 68.48L27.56 67.85Q29.39 67.01 29.81 66.59Q30.87 65.60 31.92 62.79Q32.63 60.68 32.63 58.64Q32.63 55.69 31.08 52.80Q29.46 49.85 26.51 48.45Q24.68 47.60 22.71 47.60Q19.34 47.60 15.47 50.06Q10.62 53.16 8.72 57.80Q8.02 59.77 7.80 69.26Z"/></svg>48 47.60 26.51 47.60Q22.22 47.60 17.09 51.75Q13.64 54.42 12.45 57.94Q11.60 60.61 11.60 69.26Z"/></svg>