<svg xmlns="http://www.w3.org/2000/svg" xmlns:xlink="http://www.w3.org/1999/xlink" width="69.609375" height="112.078125"><path fill="red" stroke="black" d="M60.75 45.56L60.75 57.16Q60.75 73.41 59.77 81.56Q57.80 98.37 50.55 106.66Q47.39 110.04 45.91 110.04Q45.42 110.04 45.42 109.34Q45.56 108.28 47.39 106.24L47.46 106.17Q49.22 104.20 50.63 100.27Q54.56 89.37 54.70 67.50L54.70 65.39Q51.40 68.91 46.62 71.79Q41.55 74.39 37.90 74.39Q32.63 74.39 29.60 70.10Q29.39 69.75 29.11 69.40Q27.77 66.94 27.49 65.18Q23.91 69.12 19.27 71.79Q14.70 74.39 9.98 74.39Q8.58 74.39 7.59 74.11Q2.95 72.70 0.84 66.94Q-0.07 64.34-0.07 61.31Q-0.07 52.24 8.02 45.21Q12.23 41.55 16.38 41.55Q18.49 41.55 19.97 42.19Q22.08 43.24 22.08 45.56Q22.08 47.46 20.88 48.80L20.81 48.94L20.39 49.36Q18.91 50.55 17.37 50.55Q16.31 50.55 15.19 49.99L13.64 48.73Q12.09 47.67 10.62 47.67Q9.21 47.67 8.44 48.30Q8.02 48.73 7.52 49.85Q5.91 53.02 5.91 56.25Q5.91 60.68 8.51 64.55Q11.18 68.34 15.05 68.34Q16.17 68.34 17.58 68.06Q24.40 66.73 26.44 61.45Q26.58 61.10 27.70 56.67Q29.25 50.48 34.31 45.98Q39.23 41.55 43.73 41.55Q45.63 41.55 47.25 42.26Q49.29 43.31 49.29 45.56Q49.29 47.95 47.53 49.43Q46.13 50.63 44.58 50.63Q43.59 50.63 42.40 49.99L40.78 48.73Q39.38 47.81 37.90 47.81Q36.21 47.81 35.51 48.38Q35.02 48.87 34.59 49.85Q33.05 52.73 33.05 56.04Q33.05 58.36 33.82 60.82Q35.51 66.16 39.45 67.78L39.52 67.85Q41.20 68.34 42.33 68.34Q43.52 68.34 44.93 68.06Q51.96 66.45 53.86 61.66Q53.86 61.52 53.93 61.38Q54.63 59.41 54.63 54.70L54.63 45.84Q54.63 32.70 57.66 22.71Q59.55 16.31 64.41 11.39Q66.73 9.07 67.99 9.07Q68.55 9.07 68.55 9.56Q68.55 9.91 68.27 10.62L65.60 14.06Q62.37 19.48 61.10 31.92Q60.75 36.35 60.75 45.56Z"/></svg>9 36.91 74.39Z"/></svg>