<svg xmlns="http://www.w3.org/2000/svg" xmlns:xlink="http://www.w3.org/1999/xlink" width="0" height="112.078125"><path fill="red" stroke="black" d="M-28.55 14.77Q-29.04 14.77-29.04 14.13Q-29.04 13.29-27.56 11.46Q-23.70 6.89-18.98 6.89Q-16.52 6.89-14.70 8.72Q-13.22 10.41-13.22 12.66Q-13.22 14.34-13.99 16.31Q-15.68 20.46-20.74 24.12Q-24.40 26.79-32.77 31.43Q-33.89 32.13-34.45 32.13Q-35.23 32.13-35.23 31.43Q-35.23 31.08-34.95 30.59Q-34.45 29.95-31.71 28.13L-24.19 22.78Q-22.64 21.52-21.45 20.32Q-18.91 17.79-18.91 15.61Q-18.91 13.15-21.80 12.45Q-22.43 12.30-23.06 12.30Q-24.68 12.30-26.02 13.22L-27.77 14.55L-28.55 14.77Z"/></svg>98.30Q21.16 97.66 21.73 97.66Q22.29 97.66 22.29 98.23Q22.29 99.21 19.97 101.74Q15.12 107.02 9.63 107.02Q9.28 107.02 8.93 107.02Q8.16 107.02 7.45 106.88Q2.60 106.10 0.42 101.67Q-0.98 99.49-0.98 96.68Q-0.98 94.15 0.21 91.13Q0.35 90.63 0.56 90.21Q2.46 86.13 6.75 81.42Q8.30 79.73 10.13 78.26Q11.74 76.71 13.78 75.38Q15.12 74.39 15.54 74.18L12.66 65.04Q12.59 65.11 9.98 66.59Q6.33 68.77 4.36 70.38Q1.55 72.42 1.55 73.41Q1.55 74.81 2.74 75.94L3.59 76.57Q3.73 76.64 3.73 76.78Q3.80 76.99 3.80 77.20Q3.80 78.61 0.49 81.42Q-0.56 82.48-1.62 82.48Q-2.53 82.48-3.66 81.14Q-4.64 79.95-4.64 78.40Q-4.64 76.71-3.38 74.67Q-0.63 70.17 7.24 65.25Q8.58 64.41 10.27 63.49Q11.25 62.79 11.81 62.58Q10.13 57.87 8.16 53.37Q6.54 49.71 5.84 48.87Q4.78 47.46 3.73 47.46L2.67 48.02Q0.84 49.57 0 49.57M21.02 70.80Q21.52 70.59 22.15 70.10Q29.32 65.25 30.87 61.38Q31.92 58.92 31.92 56.67Q31.92 51.26 27.28 48.52Q25.38 47.46 23.20 47.46Q20.74 47.46 18 48.87Q16.31 49.71 15.12 50.91Q14.48 51.54 14.48 51.61Q14.48 51.68 14.70 52.10L15.12 53.16Q17.65 59.63 19.55 65.95Q21.02 70.73 21.02 70.80Z"/></svg>