<svg xmlns="http://www.w3.org/2000/svg" xmlns:xlink="http://www.w3.org/1999/xlink" width="72.2109375" height="112.078125"><path fill="red" stroke="black" d="M52.10 41.48Q57.52 41.48 60.54 47.46Q61.80 50.34 61.80 53.37Q61.80 58.22 58.57 63.56Q56.88 66.38 54.49 68.77Q57.94 68.77 58.64 68.70Q61.88 68.34 64.69 66.52L67.50 64.20Q68.41 63.56 69.12 63.56Q69.75 63.56 69.75 64.13Q69.75 65.32 67.57 67.50Q62.86 72.21 57.02 73.55Q54.98 73.97 51.26 73.97L42.47 73.90Q36.35 73.69 28.69 73.69Q17.02 73.69 11.04 74.11Q9.49 74.25 8.79 74.25Q7.80 74.25 7.59 74.39Q7.45 74.46 7.45 74.88Q7.45 76.22 6.68 82.62Q4.92 97.45-0.98 104.98Q-3.09 107.86-5.13 109.27Q-6.26 110.04-6.82 110.04Q-7.52 110.04-7.52 109.48Q-7.52 108.70-5.91 106.73L-5.70 106.52Q-2.04 102.59 0.07 91.20Q1.34 84.09 1.69 73.97Q2.04 64.83 2.04 51.89Q2.04 36.91 3.09 30.02L3.66 26.93Q5.34 18.35 10.48 12.52Q13.78 9 15.12 9Q15.68 9 15.68 9.63Q15.68 10.69 13.64 12.94L13.57 12.94L13.29 13.29Q11.32 15.61 10.05 20.88Q8.16 28.20 8.16 41.98L8.16 43.45Q8.16 47.60 8.09 49.64Q8.09 52.31 8.16 52.59Q8.51 52.03 9.56 50.98Q12.02 48.38 14.98 46.13Q20.81 41.48 25.45 41.48Q27.70 41.48 29.67 42.61Q34.17 45.07 35.51 52.10Q35.51 52.03 36.70 50.70Q37.97 49.36 39.73 47.81Q46.76 41.48 52.10 41.48M7.80 69.33Q9.63 69.12 13.50 68.98Q17.86 68.70 20.18 68.70Q22.71 68.55 23.98 68.55L25.10 68.55L25.80 68.41Q26.79 67.92 27.21 67.50Q27.70 67.01 28.05 66.02Q29.67 63.14 29.67 59.91Q29.67 57.73 28.97 55.41Q28.13 52.52 26.30 50.48Q23.84 47.60 20.60 47.60Q19.05 47.60 17.72 48.09Q12.52 50.13 9.70 55.34Q8.86 56.81 8.44 58.43Q8.09 59.77 7.95 64.48L7.95 64.48Q7.95 64.48 7.80 68.13Q7.80 68.77 7.80 69.33M29.88 68.41L29.88 68.41Q29.88 68.41 44.58 68.63L49.78 68.70L50.77 68.06L52.38 67.22Q52.95 66.87 53.44 65.95Q55.62 62.58 55.62 58.57Q55.62 54.42 53.65 51.47Q51.19 47.60 47.25 47.60Q44.37 47.60 41.55 49.71Q38.04 52.31 35.79 57.23L33.61 62.93Q32.48 65.11 31.22 66.73L29.88 68.41Z"/></svg>.59 57.23L37.41 62.93Q36.28 65.11 35.02 66.73L33.68 68.41Z"/></svg>