<svg xmlns="http://www.w3.org/2000/svg" xmlns:xlink="http://www.w3.org/1999/xlink" width="71.15625" height="112.078125"><path fill="red" stroke="black" d="M62.23 46.27L62.30 58.78Q62.30 73.20 61.38 80.65Q59.41 98.23 52.10 106.59Q49.01 110.11 47.53 110.11Q46.90 110.11 46.90 109.55Q46.90 108.77 49.78 105.19Q51.40 102.94 52.66 98.79Q56.11 87.26 56.25 67.71L56.25 65.39Q48.23 73.55 40.01 74.39Q39.45 74.39 39.02 74.39Q33.47 74.39 30.73 69.54Q29.32 67.22 29.04 65.32Q22.29 72 15.82 73.76Q13.36 74.46 11.39 74.46Q5.70 74.46 2.88 68.41Q1.69 66.02 1.69 62.65Q1.69 57.87 4.78 52.59Q6.33 49.92 8.44 47.81L2.81 47.25L2.74 47.25Q1.05 47.11 0.35 46.41Q-0.63 45.07-0.63 43.73Q-0.63 41.48 1.97 39.16Q3.45 37.83 4.50 37.83Q5.13 37.83 5.13 38.39Q5.13 38.81 4.85 39.45Q4.64 39.80 4.64 39.87Q4.64 39.94 4.64 40.01Q4.64 41.41 6.33 41.91Q7.45 42.19 8.86 42.33Q11.25 42.54 22.71 42.89L23.20 42.89Q27.35 42.96 31.43 42.96L47.95 42.68Q50.70 42.68 53.44 42.47Q56.11 42.26 56.18 42.26L56.46 37.48Q57.87 22.57 62.58 15.47Q66.73 9.70 69.26 9.07Q69.89 9.07 69.96 9.21Q70.10 9.42 70.10 9.63Q70.10 10.34 67.71 13.22L67.36 13.71Q64.41 18 63.07 28.27Q62.23 34.24 62.23 46.27M56.11 46.90Q50.77 48.02 38.95 48.02Q37.55 48.02 37.20 48.23Q36.91 48.45 36.35 49.36Q34.59 52.73 34.59 56.25Q34.59 62.44 38.53 66.16Q40.71 68.34 43.66 68.34Q48.45 68.34 52.45 65.39Q55.27 63.35 55.97 59.55Q56.18 58.36 56.18 54.91L56.11 46.90M33.82 48.09L17.51 48.09L12.23 48.02Q10.97 48.45 9.98 50.13Q7.80 53.37 7.80 57.30Q7.80 64.83 13.15 67.57Q14.63 68.34 16.80 68.34Q21.59 68.34 26.09 64.62Q26.86 63.98 27.21 63.35Q28.20 62.02 28.83 58.29Q29.46 54.42 31.92 50.63L33.82 48.09Z"/></svg>48.09Z"/></svg>