<svg xmlns="http://www.w3.org/2000/svg" xmlns:xlink="http://www.w3.org/1999/xlink" width="0" height="112.078125"><path fill="red" stroke="black" d="M-36.42 31.50Q-36.42 31.08-36 30.23L-32.34 24.12L-27.21 16.52Q-21.38 8.65-15.05 8.65Q-12.30 8.65-10.41 10.83L-10.34 10.90Q-10.34 11.04-10.27 11.04Q-10.27 11.11-10.20 11.11Q-10.13 11.25-9.98 11.46Q-9.14 13.08-9.14 14.70Q-9.14 18.49-13.22 22.15Q-15.47 24.19-16.88 24.19Q-17.44 24.19-17.44 23.84Q-17.44 23.34-16.88 22.64L-15.33 20.67Q-14.77 19.76-14.77 18.28Q-14.77 16.88-15.47 15.68Q-16.45 14.20-18.21 14.20Q-21.02 14.20-25.45 19.41Q-26.16 20.25-31.08 27.14Q-32.84 29.60-34.24 31.22Q-35.09 32.20-35.65 32.20Q-36.42 32.13-36.42 31.50Z"/></svg>5 63.63 50.55 64.27Q50.48 65.46 49.08 66.87Q43.95 72.49 37.13 73.69Q35.09 74.04 32.41 74.04L20.32 73.76Q12.30 73.76 6.40 74.46Q5.06 74.60 4.36 74.60M9.77 69.26Q20.18 68.48 24.05 68.48L28.34 68.55Q29.32 68.55 30.23 68.63L31.22 67.99Q33.19 67.01 33.40 66.87Q35.09 65.53 35.93 62.23Q36.42 60.40 36.42 58.71Q36.42 55.48 34.66 52.45Q32.70 49.15 29.46 48.09Q28.27 47.67 26.93 47.67Q26.86 47.67 26.72 47.67Q23.13 47.67 19.20 50.27Q14.41 53.44 12.73 57.66Q12.23 58.92 11.60 63.70Q11.25 66.38 10.48 67.85L9.77 69.26Z"/></svg>