<svg xmlns="http://www.w3.org/2000/svg" xmlns:xlink="http://www.w3.org/1999/xlink" width="46.1953125" height="112.078125"><path fill="red" stroke="black" d="M22.50 110.04Q21.94 110.04 21.94 109.41Q21.94 108.49 24.47 105.75Q26.30 103.64 28.20 97.17Q31.29 86.06 31.29 64.90Q24.19 72 16.31 73.83Q13.85 74.46 11.81 74.46Q7.73 74.46 4.92 72Q3.23 70.66 2.32 68.91Q0.56 65.81 0.56 62.30Q0.56 58.50 2.88 53.86Q3.94 51.82 7.17 48.02Q3.02 47.74 1.62 47.39Q-1.55 46.48-1.55 43.80Q-1.55 41.63 1.05 39.23Q2.60 37.83 3.66 37.83Q4.22 37.83 4.22 38.39Q4.22 38.81 3.94 39.52Q3.73 39.73 3.73 40.01Q3.73 42.61 11.95 42.82Q11.88 42.82 12.73 42.82Q14.98 42.89 17.65 42.89Q22.85 42.89 29.46 42.61L30.59 42.54Q30.80 42.47 31.29 41.77Q31.43 38.95 31.92 33.82Q33.54 21.09 38.32 14.55Q40.64 11.39 42.68 9.91Q43.88 9.07 44.51 9.07Q45.21 9.07 45.21 9.56Q45.21 10.55 42.40 13.78Q38.88 18.91 37.69 31.92Q37.34 36.35 37.34 45.56L37.41 57.73Q37.41 72.28 36.56 79.59Q35.79 86.98 34.10 93.23Q31.92 101.39 26.72 107.09Q24.12 110.04 22.50 110.04M31.22 46.97Q26.37 48.09 17.37 48.09L12.94 48.09Q11.32 48.09 11.11 48.23Q9.98 48.80 9.42 49.36Q8.16 50.55 7.31 53.16Q6.61 55.27 6.61 57.30Q6.61 60.40 8.30 63.28Q9.35 65.18 11.04 66.45Q13.64 68.41 17.09 68.41Q21.23 68.41 25.66 65.95Q29.81 63.63 30.73 60.54Q31.22 59.20 31.22 55.05L31.22 46.97Z"/></svg>